<svg width="310" height="310" viewBox="0 0 310 310" fill="none" xmlns="http://www.w3.org/2000/svg">
<mask id="path-1-inside-1" fill="white">
<path fill-rule="evenodd" clip-rule="evenodd" d="M155 310C124.344 310 94.3762 300.909 68.8866 283.878C43.397 266.846 23.5303 242.638 11.7987 214.316C0.0671572 185.993 -3.00236 154.828 2.97835 124.761C8.95905 94.694 23.7213 67.0756 45.3984 45.3985C67.0756 23.7214 94.6939 8.95905 124.761 2.97835C154.828 -3.00236 185.993 0.0671572 214.316 11.7987C242.638 23.5303 266.846 43.397 283.878 68.8867C300.909 94.3763 310 124.344 310 155C309.958 196.096 293.615 235.496 264.555 264.556C235.496 293.615 196.096 309.958 155 310ZM72.4562 31.4887C83.468 24.1306 95.3518 18.3187 107.775 14.1539L103.412 27.5635L155 65.0553L206.588 27.5635L202.257 14.203C223.812 21.4512 243.625 33.6158 260.008 49.9973C262.858 52.8468 265.581 55.8 268.172 58.8481L254.264 59.7863L238.536 121.598L292.483 155.57L303.321 146.538C303.484 149.348 303.568 152.17 303.571 155C303.574 178.049 298.216 200.693 288.028 221.178L281.572 208.574L218.66 218.62L208.83 281.532L221.41 287.922C218.289 289.482 215.107 290.934 211.869 292.276C184.722 303.524 154.849 306.469 126.027 300.738C112.963 298.141 100.381 293.814 88.5924 287.923L101.191 281.532L91.3609 218.62L28.4487 208.574L21.9898 221.214C16.1568 209.493 11.8674 196.99 9.28507 184.012C6.8182 171.613 5.9569 159.02 6.67153 146.532L17.5172 155.57L71.4841 121.598L55.756 59.7863L41.7602 58.8421C50.6275 48.4017 60.9435 39.1815 72.4562 31.4887ZM99.1657 136.873L120.497 202.518H189.523L210.855 136.873L155 96.2951L99.1657 136.873Z"/>
</mask>
<path d="M155 310V311H155.001L155 310ZM11.7987 214.316L12.7226 213.933L11.7987 214.316ZM2.97835 124.761L3.95913 124.956L2.97835 124.761ZM45.3984 45.3985L46.1055 46.1056L45.3984 45.3985ZM124.761 2.97835L124.956 3.95913L124.761 2.97835ZM214.316 11.7987L213.933 12.7226L214.316 11.7987ZM310 155L311 155.001V155H310ZM107.775 14.1539L108.726 14.4633L109.34 12.5744L107.457 13.2057L107.775 14.1539ZM72.4562 31.4887L71.9006 30.6572H71.9006L72.4562 31.4887ZM103.412 27.5635L102.461 27.2542L102.236 27.9452L102.824 28.3725L103.412 27.5635ZM155 65.0553L154.412 65.8643L155 66.2915L155.588 65.8643L155 65.0553ZM206.588 27.5635L207.176 28.3725L207.763 27.9457L207.54 27.2551L206.588 27.5635ZM202.257 14.203L202.575 13.2551L200.693 12.6221L201.305 14.5114L202.257 14.203ZM260.008 49.9973L259.301 50.7045L260.008 49.9973ZM268.172 58.8481L268.239 59.8458L270.219 59.7122L268.933 58.2004L268.172 58.8481ZM254.264 59.7863L254.196 58.7886L253.473 58.8374L253.295 59.5397L254.264 59.7863ZM238.536 121.598L237.567 121.351L237.387 122.056L238.003 122.444L238.536 121.598ZM292.483 155.57L291.95 156.416L292.565 156.804L293.123 156.338L292.483 155.57ZM303.321 146.538L304.32 146.48L304.205 144.5L302.681 145.77L303.321 146.538ZM303.571 155L304.571 155V154.999L303.571 155ZM288.028 221.178L287.138 221.634L288.041 223.398L288.923 221.624L288.028 221.178ZM281.572 208.574L282.462 208.118L282.131 207.472L281.414 207.586L281.572 208.574ZM218.66 218.62L218.502 217.633L217.784 217.747L217.672 218.466L218.66 218.62ZM208.83 281.532L207.842 281.378L207.73 282.095L208.377 282.424L208.83 281.532ZM221.41 287.922L221.857 288.817L223.633 287.929L221.863 287.031L221.41 287.922ZM211.869 292.276L211.487 291.352H211.486L211.869 292.276ZM126.027 300.738L126.222 299.758L126.027 300.738ZM88.5924 287.923L88.14 287.032L86.3687 287.93L88.1455 288.818L88.5924 287.923ZM101.191 281.532L101.643 282.424L102.291 282.095L102.179 281.378L101.191 281.532ZM91.3609 218.62L92.3489 218.466L92.2366 217.747L91.5186 217.633L91.3609 218.62ZM28.4487 208.574L28.6063 207.586L27.8888 207.472L27.5582 208.119L28.4487 208.574ZM21.9898 221.214L21.0946 221.659L21.978 223.435L22.8803 221.669L21.9898 221.214ZM9.28507 184.012L8.30429 184.207L9.28507 184.012ZM6.67153 146.532L7.31172 145.764L5.78659 144.493L5.67316 146.475L6.67153 146.532ZM17.5172 155.57L16.877 156.338L17.4351 156.803L18.0499 156.416L17.5172 155.57ZM71.4841 121.598L72.0168 122.444L72.6326 122.056L72.4532 121.351L71.4841 121.598ZM55.756 59.7863L56.7252 59.5397L56.5464 58.8374L55.8233 58.7886L55.756 59.7863ZM41.7602 58.8421L40.998 58.1948L39.7142 59.7063L41.6929 59.8398L41.7602 58.8421ZM120.497 202.518L119.546 202.827L119.77 203.518H120.497V202.518ZM99.1657 136.873L98.5778 136.065L97.9902 136.492L98.2147 137.182L99.1657 136.873ZM189.523 202.518V203.518H190.25L190.474 202.827L189.523 202.518ZM210.855 136.873L211.806 137.182L212.03 136.491L211.442 136.064L210.855 136.873ZM155 96.2951L155.588 95.486L155 95.059L154.412 95.4861L155 96.2951ZM68.331 284.709C93.9851 301.851 124.146 311 155 311V309C124.542 309 94.7673 299.968 69.4422 283.046L68.331 284.709ZM10.8749 214.699C22.6821 243.204 42.677 267.568 68.331 284.709L69.4422 283.046C44.117 266.125 24.3785 242.073 12.7226 213.933L10.8749 214.699ZM1.99756 124.566C-4.02173 154.827 -0.93241 186.193 10.8749 214.699L12.7226 213.933C1.06672 185.793 -1.98299 154.829 3.95913 124.956L1.99756 124.566ZM44.6913 44.6914C22.8743 66.5084 8.01685 94.3049 1.99756 124.566L3.95913 124.956C9.90125 95.0831 24.5683 67.6429 46.1055 46.1056L44.6913 44.6914ZM124.566 1.99756C94.3048 8.01685 66.5083 22.8744 44.6913 44.6914L46.1055 46.1056C67.6428 24.5683 95.083 9.90125 124.956 3.95913L124.566 1.99756ZM214.699 10.8749C186.193 -0.93241 154.827 -4.02173 124.566 1.99756L124.956 3.95913C154.829 -1.98299 185.793 1.06672 213.933 12.7226L214.699 10.8749ZM284.709 68.3311C267.568 42.677 243.204 22.6821 214.699 10.8749L213.933 12.7226C242.073 24.3785 266.125 44.1171 283.046 69.4422L284.709 68.3311ZM311 155C311 124.146 301.851 93.9851 284.709 68.3311L283.046 69.4422C299.968 94.7674 309 124.542 309 155H311ZM265.263 265.263C294.509 236.016 310.958 196.362 311 155.001L309 154.999C308.959 195.83 292.72 234.977 263.848 263.848L265.263 265.263ZM155.001 311C196.362 310.958 236.016 294.509 265.263 265.263L263.848 263.848C234.977 292.72 195.83 308.959 154.999 309L155.001 311ZM107.457 13.2057C94.9503 17.3986 82.9866 23.2496 71.9006 30.6572L73.0118 32.3201C83.9495 25.0115 95.7533 19.2388 108.093 15.102L107.457 13.2057ZM104.363 27.8729L108.726 14.4633L106.824 13.8445L102.461 27.2542L104.363 27.8729ZM155.588 64.2464L104 26.7546L102.824 28.3725L154.412 65.8643L155.588 64.2464ZM206 26.7546L154.412 64.2464L155.588 65.8643L207.176 28.3725L206 26.7546ZM201.305 14.5114L205.637 27.872L207.54 27.2551L203.208 13.8946L201.305 14.5114ZM260.716 49.2902C244.222 32.7985 224.276 20.5521 202.575 13.2551L201.938 15.1508C223.348 22.3504 243.028 34.4332 259.301 50.7045L260.716 49.2902ZM268.933 58.2004C266.325 55.1318 263.585 52.1587 260.716 49.2902L259.301 50.7045C262.132 53.5348 264.836 56.4681 267.41 59.4957L268.933 58.2004ZM254.331 60.7841L268.239 59.8458L268.104 57.8503L254.196 58.7886L254.331 60.7841ZM239.505 121.844L255.233 60.0329L253.295 59.5397L237.567 121.351L239.505 121.844ZM293.016 154.724L239.069 120.751L238.003 122.444L291.95 156.416L293.016 154.724ZM302.681 145.77L291.843 154.802L293.123 156.338L303.962 147.306L302.681 145.77ZM304.571 154.999C304.568 152.15 304.484 149.309 304.32 146.48L302.323 146.596C302.485 149.387 302.568 152.19 302.571 155.001L304.571 154.999ZM288.923 221.624C299.18 201 304.574 178.204 304.571 155L302.571 155C302.574 177.894 297.252 200.386 287.133 220.733L288.923 221.624ZM280.682 209.03L287.138 221.634L288.918 220.722L282.462 208.118L280.682 209.03ZM218.817 219.607L281.73 209.561L281.414 207.586L218.502 217.633L218.817 219.607ZM209.818 281.687L219.648 218.774L217.672 218.466L207.842 281.378L209.818 281.687ZM221.863 287.031L209.282 280.641L208.377 282.424L220.957 288.814L221.863 287.031ZM212.252 293.2C215.512 291.849 218.715 290.387 221.857 288.817L220.963 287.028C217.863 288.577 214.703 290.019 211.487 291.352L212.252 293.2ZM125.832 301.719C154.848 307.488 184.922 304.523 212.252 293.2L211.486 291.352C184.522 302.524 154.85 305.449 126.222 299.758L125.832 301.719ZM88.1455 288.818C100.013 294.748 112.68 299.104 125.832 301.719L126.222 299.758C113.246 297.178 100.748 292.879 89.0394 287.029L88.1455 288.818ZM100.738 280.64L88.14 287.032L89.0449 288.815L101.643 282.424L100.738 280.64ZM90.3728 218.774L100.203 281.687L102.179 281.378L92.3489 218.466L90.3728 218.774ZM28.291 209.561L91.2032 219.607L91.5186 217.633L28.6063 207.586L28.291 209.561ZM22.8803 221.669L29.3391 209.029L27.5582 208.119L21.0993 220.759L22.8803 221.669ZM8.30429 184.207C10.904 197.273 15.2223 209.86 21.0946 221.659L22.8851 220.768C17.0913 209.126 12.8308 196.708 10.2658 183.817L8.30429 184.207ZM5.67316 146.475C4.95372 159.047 5.82082 171.725 8.30429 184.207L10.2658 183.817C7.81558 171.501 6.96007 158.993 7.66989 146.589L5.67316 146.475ZM18.1574 154.802L7.31172 145.764L6.03134 147.3L16.877 156.338L18.1574 154.802ZM70.9513 120.751L16.9844 154.724L18.0499 156.416L72.0168 122.444L70.9513 120.751ZM54.7869 60.0329L70.515 121.844L72.4532 121.351L56.7252 59.5397L54.7869 60.0329ZM41.6929 59.8398L55.6887 60.7841L55.8233 58.7886L41.8275 57.8444L41.6929 59.8398ZM71.9006 30.6572C60.3104 38.4019 49.925 47.6841 40.998 58.1948L42.5224 59.4895C51.33 49.1193 61.5765 39.9612 73.0118 32.3201L71.9006 30.6572ZM121.448 202.209L100.117 136.564L98.2147 137.182L119.546 202.827L121.448 202.209ZM189.523 201.518H120.497V203.518H189.523V201.518ZM209.903 136.564L188.572 202.209L190.474 202.827L211.806 137.182L209.903 136.564ZM154.412 97.1041L210.267 137.682L211.442 136.064L155.588 95.486L154.412 97.1041ZM99.7536 137.682L155.588 97.104L154.412 95.4861L98.5778 136.065L99.7536 137.682Z" fill="white" mask="url(#path-1-inside-1)"/>
</svg>
