<svg width="370" height="331" viewBox="0 0 370 331" fill="none" xmlns="http://www.w3.org/2000/svg">
<mask id="mask0" mask-type="alpha" maskUnits="userSpaceOnUse" x="0" y="0" width="370" height="331">
<path d="M208.011 315.18C200.185 315.18 192.359 315.23 184.545 315.29C171.792 315.38 159.039 315.46 146.298 315.63C139.569 315.73 132.841 316.02 126.124 316.21L94.4267 317.07C86.0758 317.28 77.6055 317.45 69.1949 317.69C67.1668 317.74 65.1626 317.98 63.1465 318.13C61.7626 318.23 60.677 318.44 60.2594 319.24C60.0924 319.56 59.138 319.78 58.5296 320.04L55.7022 321.28C56.3218 321.422 56.9514 321.532 57.5872 321.61C62.6335 321.75 67.6679 322 72.7023 322C84.2505 322 95.8106 321.85 107.359 321.76C108.127 321.721 108.897 321.81 109.625 322.02C109.133 322.198 108.616 322.326 108.086 322.4C103.314 322.6 98.5186 322.77 93.699 322.91C83.6182 323.23 73.5255 323.52 63.4447 323.83C61.6301 323.805 59.8222 324.021 58.0882 324.47L58.0882 324.9C59.1857 324.97 60.2833 325.1 61.3809 325.1C66.4135 325.011 71.4475 325.208 76.4483 325.69C78.4448 325.783 80.4472 325.675 82.4133 325.37C83.577 325.207 84.7282 324.987 85.861 324.71C88.9747 326.98 93.52 327.12 98.3636 327.09C106.774 327.09 115.185 327.18 123.595 327.19C128.284 327.19 132.972 327.08 137.661 327.07C148.493 327.07 159.321 327.07 170.146 327.07C170.978 327.087 171.802 327.208 172.591 327.43C160.495 328.14 148.278 327.74 135.919 328.18C136.253 328.4 136.313 328.49 136.384 328.49C143.805 328.61 151.022 329.83 158.598 329.26C161.628 329.03 164.825 329.38 167.939 329.39C186.597 329.39 205.256 329.39 223.902 329.52C236.643 329.62 249.384 330.11 262.078 330.17C276.513 330.23 290.96 330.03 305.383 329.89C313.082 329.823 320.777 329.693 328.468 329.5C328.599 329.5 328.694 329.5 328.826 329.5L332.011 328.81C332.229 328.641 332.492 328.517 332.778 328.449C333.064 328.382 333.365 328.372 333.657 328.42C335.936 327.87 338.155 327.27 340.278 326.59C340.639 326.454 341.042 326.418 341.429 326.489C341.815 326.559 342.164 326.731 342.426 326.98C351.409 324.18 356.073 317.88 355.775 313.08C355.417 307.28 358.447 301.76 358.877 296C358.015 296.069 357.166 296.223 356.348 296.46C356.656 296.678 356.933 296.927 357.171 297.2C357.708 298.01 357.254 298.61 355.656 298.64C353.497 298.768 351.369 299.145 349.333 299.76C347.456 300.334 345.391 300.295 343.547 299.65C342.996 299.412 342.388 299.281 341.768 299.267C341.149 299.253 340.533 299.356 339.968 299.57C338.462 300.101 336.823 300.314 335.196 300.19C334.721 300.152 334.242 300.175 333.776 300.26C330.054 301.26 326.022 300.92 322.085 300.96C309.105 301.1 296.185 301.68 283.229 301.96C269.295 302.29 255.337 302.34 241.379 302.41C233.446 302.41 225.501 302.25 217.519 302.22C215.22 302.219 212.927 302.433 210.684 302.86C211.399 302.91 212.103 303.01 212.807 303C214.847 303 216.899 302.84 218.927 302.87C219.793 302.894 220.642 303.071 221.421 303.39C222.197 303.826 223.088 304.097 224.017 304.179C224.947 304.261 225.886 304.151 226.753 303.86C228.74 303.33 230.874 303.33 232.861 303.86C234.918 304.283 237.02 304.534 239.136 304.61C243.443 304.81 247.774 304.86 252.092 304.99C253.452 304.99 254.991 304.88 256.065 305.59C255.278 306.52 253.572 306.67 252.14 306.52C247.517 306.13 242.857 306.16 238.242 306.61C236.929 306.628 235.616 306.558 234.317 306.4C233.658 306.275 232.987 306.202 232.313 306.18C228.987 306.51 225.631 306.57 222.291 306.36C220.764 306.31 219.225 306.22 217.687 306.21C215.909 306.21 214.108 306.21 212.354 306.29C209.145 306.48 205.971 306.92 202.81 306.95C189.58 307.05 176.337 306.95 163.107 307.1C147.109 307.24 131.135 307.51 115.209 308.33C100.129 309.12 85.014 309.68 69.8749 310.33C66.7641 310.374 63.6791 310.812 60.7247 311.63C65.1269 311.54 69.529 311.43 73.9311 311.36C75.6013 311.36 77.2834 311.36 78.9655 311.36C81.8526 311.36 84.7396 311.48 87.6147 311.43C94.3312 311.31 101.06 311.15 107.764 310.96C116.115 310.72 124.466 311.02 132.889 310.82C143.709 310.57 154.542 310.56 165.362 310.45C174.011 310.36 182.66 310.18 191.309 310.21C207.534 310.21 223.771 310.43 239.995 310.56C240.329 310.56 240.652 310.61 241.737 310.71C192.681 311.19 144.341 310.92 95.5242 312.71C98.0176 313.39 99.2106 313.45 103.875 313.34C106.512 313.28 109.16 313.29 111.809 313.23C114.457 313.17 117.32 313.06 120.088 313.02C122.856 312.98 125.313 313.02 127.938 313.12C118.275 313.74 108.432 313.55 98.8169 314.37L98.8169 314.88C99.9264 314.88 101.036 314.96 102.145 314.93C110.194 314.757 118.243 314.573 126.291 314.38C134.332 314.17 142.373 313.84 150.414 313.74C159.683 313.63 168.953 313.74 178.222 313.74C186.156 313.74 194.101 313.67 202.082 313.74C216.024 313.82 229.97 313.933 243.92 314.08C246.772 314.08 249.599 314.19 252.45 314.25L252.45 314.67C248.704 314.74 244.958 314.85 241.212 314.88C230.133 314.993 219.066 315.093 208.011 315.18ZM260.777 305.18C262.565 305.075 264.358 305.075 266.146 305.18C269.379 305.43 272.552 305.83 276.453 306.24C270.262 307.24 264.929 306.48 258.833 305.95C259.835 305.52 260.276 305.18 260.777 305.18Z" fill="white"/>
<path d="M193.445 296.001C201.271 296.001 209.097 295.951 216.911 295.891C229.664 295.801 242.417 295.721 255.158 295.551C261.887 295.451 268.615 295.161 275.332 294.971L307.03 294.111C315.381 293.901 323.851 293.731 332.261 293.491C334.289 293.441 336.294 293.201 338.31 293.051C339.694 292.951 340.779 292.741 341.197 291.941C341.364 291.621 342.318 291.401 342.927 291.141L345.754 289.901C345.134 289.759 344.505 289.648 343.869 289.571C338.823 289.431 333.788 289.181 328.754 289.181C317.206 289.181 305.646 289.331 294.098 289.421C293.329 289.459 292.559 289.371 291.831 289.161C292.324 288.983 292.84 288.855 293.37 288.781C298.142 288.581 302.938 288.411 307.757 288.271C317.838 287.951 327.931 287.661 338.012 287.351C339.826 287.376 341.634 287.16 343.368 286.711V286.281C342.271 286.211 341.173 286.081 340.075 286.081C335.043 286.17 330.009 285.973 325.008 285.491C323.012 285.398 321.009 285.506 319.043 285.811C317.879 285.974 316.728 286.194 315.595 286.471C312.482 284.201 307.936 284.061 303.093 284.091C294.682 284.091 286.272 284.001 277.861 283.991C273.173 283.991 268.484 284.101 263.796 284.111C252.963 284.111 242.135 284.111 231.31 284.111C230.478 284.094 229.654 283.972 228.865 283.751C240.962 283.041 253.178 283.441 265.537 283.001C265.203 282.781 265.144 282.691 265.072 282.691C257.652 282.571 250.434 281.351 242.859 281.921C239.828 282.151 236.631 281.801 233.518 281.791C214.859 281.791 196.201 281.791 177.554 281.661C164.813 281.561 152.072 281.071 139.379 281.011C124.943 280.951 110.496 281.151 96.073 281.291C88.3743 281.358 80.6795 281.488 72.9887 281.681C72.8574 281.681 72.762 281.681 72.6308 281.681L69.4455 282.371C69.2272 282.54 68.9643 282.664 68.6782 282.732C68.392 282.799 68.0908 282.809 67.7992 282.761C65.5206 283.311 63.3016 283.911 61.1781 284.591C60.8174 284.727 60.4143 284.762 60.0278 284.692C59.6413 284.622 59.2918 284.45 59.0307 284.201C50.0475 287.001 45.3829 293.301 45.6811 298.101C46.039 303.901 43.0088 309.421 42.5793 315.181C43.4411 315.112 44.2901 314.958 45.1085 314.721C44.8001 314.502 44.5237 314.254 44.2853 313.981C43.7485 313.171 44.2018 312.571 45.8004 312.541C47.9594 312.413 50.0869 312.036 52.1233 311.421C53.9999 310.847 56.0657 310.886 57.9093 311.531C58.4601 311.769 59.0681 311.9 59.6878 311.914C60.3076 311.928 60.923 311.824 61.4882 311.611C62.9943 311.08 64.633 310.867 66.2602 310.991C66.7349 311.029 67.2138 311.006 67.6799 310.921C71.402 309.921 75.4343 310.261 79.3712 310.221C92.3509 310.081 105.271 309.501 118.227 309.221C132.161 308.891 146.119 308.841 160.077 308.771C168.01 308.771 175.956 308.931 183.937 308.961C186.237 308.962 188.53 308.748 190.773 308.321C190.057 308.271 189.353 308.171 188.649 308.181C186.609 308.181 184.557 308.341 182.529 308.311C181.664 308.287 180.814 308.11 180.036 307.791C179.26 307.355 178.368 307.084 177.439 307.002C176.51 306.92 175.57 307.029 174.703 307.321C172.716 307.851 170.582 307.851 168.595 307.321C166.538 306.898 164.436 306.647 162.32 306.571C158.013 306.371 153.683 306.321 149.364 306.191C148.004 306.191 146.465 306.301 145.391 305.591C146.179 304.661 147.885 304.511 149.316 304.661C153.939 305.051 158.599 305.021 163.215 304.571C164.527 304.552 165.84 304.623 167.14 304.781C167.798 304.906 168.469 304.979 169.144 305.001C172.469 304.671 175.825 304.611 179.165 304.821C180.692 304.871 182.231 304.961 183.77 304.971C185.547 304.971 187.349 304.971 189.102 304.891C192.312 304.701 195.485 304.261 198.646 304.231C211.877 304.131 225.119 304.231 238.349 304.081C254.347 303.941 270.321 303.671 286.248 302.851C301.327 302.061 316.442 301.501 331.581 300.851C334.692 300.807 337.777 300.369 340.732 299.551C336.329 299.641 331.927 299.751 327.525 299.821C325.855 299.821 324.173 299.821 322.491 299.821C319.604 299.821 316.717 299.701 313.842 299.751C307.125 299.871 300.397 300.031 293.692 300.221C285.341 300.461 276.99 300.161 268.568 300.361C257.747 300.611 246.915 300.621 236.094 300.731C227.445 300.821 218.796 301.001 210.147 300.971C193.922 300.971 177.686 300.751 161.461 300.621C161.127 300.621 160.805 300.571 159.719 300.471C208.775 299.991 257.115 300.261 305.932 298.471C303.439 297.791 302.246 297.731 297.581 297.841C294.945 297.901 292.296 297.891 289.648 297.951C286.999 298.011 284.136 298.121 281.368 298.161C278.601 298.201 276.143 298.161 273.518 298.061C283.182 297.441 293.024 297.631 302.639 296.811V296.301C301.53 296.301 300.42 296.221 299.311 296.251C291.262 296.424 283.214 296.608 275.165 296.801C267.124 297.011 259.083 297.341 251.043 297.441C241.773 297.551 232.503 297.441 223.234 297.441C215.301 297.441 207.355 297.511 199.374 297.441C185.432 297.361 171.486 297.248 157.536 297.101C154.685 297.101 151.857 296.991 149.006 296.931V296.511C152.752 296.441 156.498 296.331 160.244 296.301C171.323 296.188 182.39 296.088 193.445 296.001ZM140.679 306.001C138.892 306.106 137.098 306.106 135.311 306.001C132.078 305.751 128.904 305.351 125.003 304.941C131.195 303.941 136.527 304.701 142.624 305.231C141.621 305.661 141.18 306.001 140.679 306.001Z" fill="white"/>
<path d="M203.24 266.18C195.414 266.18 187.588 266.23 179.774 266.29C167.02 266.38 154.267 266.46 141.526 266.63C134.798 266.73 128.069 267.02 121.353 267.21L89.655 268.07C81.304 268.28 72.8338 268.45 64.4232 268.69C62.3951 268.74 60.3909 268.98 58.3748 269.13C56.9909 269.23 55.9052 269.44 55.4877 270.24C55.3207 270.56 54.3663 270.78 53.7578 271.04L50.9305 272.28C51.5501 272.422 52.1796 272.532 52.8154 272.61C57.8618 272.75 62.8962 273 67.9306 273C79.4787 273 91.0388 272.85 102.587 272.76C103.356 272.721 104.126 272.81 104.854 273.02C104.361 273.198 103.844 273.326 103.315 273.4C98.5427 273.6 93.7469 273.77 88.9272 273.91C78.8465 274.23 68.7538 274.52 58.673 274.83C56.8584 274.805 55.0505 275.021 53.3165 275.47L53.3165 275.9C54.414 275.97 55.5116 276.1 56.6091 276.1C61.6418 276.011 66.6758 276.208 71.6766 276.69C73.673 276.783 75.6755 276.675 77.6415 276.37C78.8053 276.207 79.9565 275.987 81.0893 275.71C84.203 277.98 88.7483 278.12 93.5918 278.09C102.002 278.09 110.413 278.18 118.824 278.19C123.512 278.19 128.201 278.08 132.889 278.07C143.721 278.07 154.55 278.07 165.374 278.07C166.206 278.087 167.03 278.208 167.82 278.43C155.723 279.14 143.507 278.74 131.147 279.18C131.481 279.4 131.541 279.49 131.612 279.49C139.033 279.61 146.25 280.83 153.826 280.26C156.856 280.03 160.053 280.38 163.167 280.39C181.825 280.39 200.484 280.39 219.13 280.52C231.871 280.62 244.613 281.11 257.306 281.17C271.741 281.23 286.188 281.03 300.612 280.89C308.31 280.823 316.005 280.693 323.696 280.5C323.827 280.5 323.923 280.5 324.054 280.5L327.239 279.81C327.457 279.641 327.72 279.517 328.006 279.449C328.293 279.382 328.594 279.372 328.885 279.42C331.164 278.87 333.383 278.27 335.507 277.59C335.867 277.454 336.27 277.418 336.657 277.489C337.043 277.559 337.393 277.731 337.654 277.98C346.637 275.18 351.302 268.88 351.003 264.08C350.646 258.28 353.676 252.76 354.105 247C353.243 247.069 352.394 247.223 351.576 247.46C351.884 247.678 352.161 247.927 352.399 248.2C352.936 249.01 352.483 249.61 350.884 249.64C348.725 249.768 346.598 250.145 344.561 250.76C342.685 251.334 340.619 251.295 338.775 250.65C338.224 250.412 337.616 250.281 336.997 250.267C336.377 250.253 335.762 250.356 335.196 250.57C333.69 251.101 332.052 251.314 330.424 251.19C329.95 251.152 329.471 251.175 329.005 251.26C325.283 252.26 321.25 251.92 317.313 251.96C304.334 252.1 291.414 252.68 278.458 252.96C264.524 253.29 250.566 253.34 236.608 253.41C228.674 253.41 220.729 253.25 212.748 253.22C210.448 253.219 208.155 253.433 205.912 253.86C206.628 253.91 207.332 254.01 208.035 254C210.075 254 212.127 253.84 214.155 253.87C215.021 253.894 215.871 254.071 216.649 254.39C217.425 254.826 218.316 255.097 219.246 255.179C220.175 255.261 221.114 255.151 221.981 254.86C223.968 254.33 226.103 254.33 228.09 254.86C230.147 255.283 232.249 255.534 234.365 255.61C238.671 255.81 243.002 255.86 247.321 255.99C248.681 255.99 250.22 255.88 251.293 256.59C250.506 257.52 248.8 257.67 247.368 257.52C242.745 257.13 238.085 257.16 233.47 257.61C232.157 257.628 230.845 257.558 229.545 257.4C228.886 257.275 228.216 257.202 227.541 257.18C224.215 257.51 220.859 257.57 217.52 257.36C215.993 257.31 214.454 257.22 212.915 257.21C211.137 257.21 209.336 257.21 207.582 257.29C204.373 257.48 201.2 257.92 198.038 257.95C184.808 258.05 171.566 257.95 158.335 258.1C142.337 258.24 126.363 258.51 110.437 259.33C95.3575 260.12 80.2423 260.68 65.1032 261.33C61.9924 261.374 58.9074 261.812 55.953 262.63C60.3551 262.54 64.7572 262.43 69.1594 262.36C70.8296 262.36 72.5117 262.36 74.1938 262.36C77.0808 262.36 79.9679 262.48 82.843 262.43C89.5595 262.31 96.288 262.15 102.993 261.96C111.344 261.72 119.694 262.02 128.117 261.82C138.937 261.57 149.77 261.56 160.59 261.45C169.239 261.36 177.889 261.18 186.538 261.21C202.762 261.21 218.999 261.43 235.224 261.56C235.558 261.56 235.88 261.61 236.965 261.71C187.91 262.19 139.57 261.92 90.7525 263.71C93.2459 264.39 94.4388 264.45 99.1034 264.34C101.74 264.28 104.388 264.29 107.037 264.23C109.685 264.17 112.548 264.06 115.316 264.02C118.084 263.98 120.542 264.02 123.166 264.12C113.503 264.74 103.661 264.55 94.0452 265.37L94.0452 265.88C95.1547 265.88 96.2642 265.96 97.3736 265.93C105.422 265.757 113.471 265.573 121.52 265.38C129.561 265.17 137.601 264.84 145.642 264.74C154.912 264.63 164.181 264.74 173.451 264.74C181.384 264.74 189.329 264.67 197.31 264.74C211.253 264.82 225.199 264.933 239.149 265.08C242 265.08 244.827 265.19 247.679 265.25L247.679 265.67C243.933 265.74 240.187 265.85 236.441 265.88C225.362 265.993 214.295 266.093 203.24 266.18ZM256.006 256.18C257.793 256.075 259.587 256.075 261.374 256.18C264.607 256.43 267.78 256.83 271.681 257.24C265.49 258.24 260.157 257.48 254.061 256.95C255.063 256.52 255.505 256.18 256.006 256.18Z" fill="white"/>
<path d="M198.217 246.001C206.043 246.001 213.869 245.951 221.683 245.891C234.436 245.801 247.189 245.721 259.93 245.551C266.659 245.451 273.387 245.161 280.104 244.971L311.802 244.111C320.152 243.901 328.623 243.731 337.033 243.491C339.061 243.441 341.066 243.201 343.082 243.051C344.466 242.951 345.551 242.741 345.969 241.941C346.136 241.621 347.09 241.401 347.699 241.141L350.526 239.901C349.906 239.759 349.277 239.648 348.641 239.571C343.595 239.431 338.56 239.181 333.526 239.181C321.978 239.181 310.418 239.331 298.87 239.421C298.101 239.459 297.331 239.371 296.603 239.161C297.096 238.983 297.612 238.855 298.142 238.781C302.914 238.581 307.71 238.411 312.529 238.271C322.61 237.951 332.703 237.661 342.784 237.351C344.598 237.376 346.406 237.16 348.14 236.711V236.281C347.043 236.211 345.945 236.081 344.847 236.081C339.815 236.17 334.781 235.973 329.78 235.491C327.784 235.398 325.781 235.506 323.815 235.811C322.651 235.974 321.5 236.194 320.367 236.471C317.254 234.201 312.708 234.061 307.865 234.091C299.454 234.091 291.044 234.001 282.633 233.991C277.945 233.991 273.256 234.101 268.568 234.111C257.735 234.111 246.907 234.111 236.082 234.111C235.25 234.094 234.426 233.972 233.637 233.751C245.734 233.041 257.95 233.441 270.309 233.001C269.975 232.781 269.916 232.691 269.844 232.691C262.424 232.571 255.206 231.351 247.631 231.921C244.6 232.151 241.403 231.801 238.289 231.791C219.631 231.791 200.973 231.791 182.326 231.661C169.585 231.561 156.844 231.071 144.151 231.011C129.715 230.951 115.268 231.151 100.845 231.291C93.1463 231.357 85.4515 231.487 77.7607 231.681C77.6294 231.681 77.534 231.681 77.4028 231.681L74.2175 232.371C73.9992 232.54 73.7363 232.664 73.4501 232.731C73.164 232.799 72.8628 232.809 72.5711 232.761C70.2925 233.311 68.0736 233.911 65.95 234.591C65.5894 234.727 65.1862 234.762 64.7998 234.692C64.4133 234.622 64.0638 234.45 63.8027 234.201C54.8194 237.001 50.1548 243.301 50.4531 248.101C50.811 253.901 47.7808 259.421 47.3513 265.181C48.2131 265.112 49.0621 264.957 49.8805 264.721C49.572 264.502 49.2957 264.254 49.0573 263.981C48.5204 263.171 48.9738 262.571 50.5724 262.541C52.7313 262.412 54.8589 262.036 56.8952 261.421C58.7718 260.846 60.8377 260.886 62.6812 261.531C63.2321 261.769 63.8401 261.9 64.4598 261.914C65.0795 261.928 65.695 261.824 66.2602 261.611C67.7663 261.08 69.405 260.867 71.0322 260.991C71.5069 261.029 71.9858 261.006 72.4518 260.921C76.174 259.921 80.2063 260.261 84.1432 260.221C97.1229 260.081 110.043 259.501 122.999 259.221C136.933 258.891 150.891 258.841 164.849 258.771C172.782 258.771 180.728 258.931 188.709 258.961C191.009 258.962 193.302 258.747 195.545 258.321C194.829 258.271 194.125 258.171 193.421 258.181C191.381 258.181 189.329 258.341 187.301 258.311C186.436 258.287 185.586 258.11 184.808 257.791C184.032 257.354 183.14 257.084 182.211 257.002C181.282 256.92 180.342 257.029 179.475 257.321C177.488 257.851 175.354 257.851 173.367 257.321C171.31 256.898 169.208 256.647 167.092 256.571C162.785 256.371 158.455 256.321 154.136 256.191C152.776 256.191 151.237 256.301 150.163 255.591C150.951 254.661 152.657 254.511 154.088 254.661C158.711 255.051 163.371 255.021 167.987 254.571C169.299 254.552 170.612 254.623 171.911 254.781C172.57 254.906 173.241 254.979 173.916 255.001C177.241 254.671 180.597 254.611 183.937 254.821C185.464 254.871 187.003 254.961 188.542 254.971C190.319 254.971 192.121 254.971 193.874 254.891C197.084 254.701 200.257 254.261 203.418 254.231C216.649 254.131 229.891 254.231 243.121 254.081C259.119 253.941 275.093 253.671 291.02 252.851C306.099 252.061 321.214 251.501 336.353 250.851C339.464 250.807 342.549 250.369 345.504 249.551C341.101 249.641 336.699 249.751 332.297 249.821C330.627 249.821 328.945 249.821 327.263 249.821C324.376 249.821 321.489 249.701 318.614 249.751C311.897 249.871 305.169 250.031 298.464 250.221C290.113 250.461 281.762 250.161 273.34 250.361C262.519 250.611 251.687 250.621 240.866 250.731C232.217 250.821 223.568 251.001 214.919 250.971C198.694 250.971 182.458 250.751 166.233 250.621C165.899 250.621 165.577 250.571 164.491 250.471C213.547 249.991 261.887 250.261 310.704 248.471C308.211 247.791 307.018 247.731 302.353 247.841C299.717 247.901 297.068 247.891 294.42 247.951C291.771 248.011 288.908 248.121 286.14 248.161C283.373 248.201 280.915 248.161 278.29 248.061C287.954 247.441 297.796 247.631 307.411 246.811V246.301C306.302 246.301 305.192 246.221 304.083 246.251C296.034 246.424 287.986 246.607 279.937 246.801C271.896 247.011 263.855 247.341 255.815 247.441C246.545 247.551 237.275 247.441 228.006 247.441C220.073 247.441 212.127 247.511 204.146 247.441C190.204 247.361 176.258 247.247 162.308 247.101C159.457 247.101 156.629 246.991 153.778 246.931V246.511C157.524 246.441 161.27 246.331 165.016 246.301C176.095 246.187 187.162 246.087 198.217 246.001ZM145.451 256.001C143.664 256.106 141.87 256.106 140.082 256.001C136.849 255.751 133.676 255.351 129.775 254.941C135.967 253.941 141.299 254.701 147.396 255.231C146.393 255.661 145.952 256.001 145.451 256.001Z" fill="white"/>
<path d="M194.288 216.078C185.744 216.078 177.199 216.128 168.668 216.188C154.745 216.277 140.821 216.357 126.911 216.526C119.565 216.626 112.219 216.914 104.886 217.103L70.2786 217.958C61.1613 218.167 51.9136 218.336 42.7311 218.575C40.5168 218.625 38.3287 218.864 36.1275 219.013C34.6166 219.112 33.4314 219.321 32.9755 220.117C32.7932 220.435 31.7511 220.654 31.0869 220.913L28 222.146C28.6765 222.288 29.3638 222.397 30.058 222.474C35.5674 222.614 41.0639 222.862 46.5604 222.862C59.1684 222.862 71.7895 222.713 84.3975 222.624C85.2367 222.585 86.0775 222.673 86.8723 222.882C86.3342 223.06 85.77 223.186 85.192 223.26C79.9821 223.459 74.7461 223.628 69.4841 223.768C58.4781 224.086 47.4591 224.374 36.4531 224.683C34.472 224.658 32.4982 224.873 30.605 225.319L30.605 225.747C31.8033 225.817 33.0016 225.946 34.1998 225.946C39.6943 225.857 45.1904 226.053 50.6502 226.533C52.8299 226.625 55.0161 226.518 57.1626 226.215C58.4331 226.052 59.69 225.833 60.9268 225.558C64.3262 227.816 69.2887 227.955 74.5768 227.925C83.7593 227.925 92.9418 228.015 102.124 228.025C107.243 228.025 112.362 227.915 117.481 227.906C129.307 227.906 141.129 227.906 152.947 227.906C153.856 227.923 154.756 228.043 155.617 228.264C142.41 228.97 129.073 228.572 115.579 229.01C115.944 229.228 116.009 229.318 116.087 229.318C124.188 229.437 132.068 230.651 140.339 230.084C143.647 229.855 147.138 230.203 150.538 230.213C170.908 230.213 191.279 230.213 211.637 230.343C225.548 230.442 239.458 230.929 253.317 230.989C269.077 231.049 284.85 230.85 300.597 230.711C309.002 230.644 317.403 230.515 325.8 230.323C325.943 230.323 326.047 230.323 326.19 230.323L329.668 229.636C329.906 229.468 330.193 229.345 330.506 229.278C330.818 229.21 331.147 229.2 331.466 229.248C333.953 228.701 336.376 228.104 338.694 227.428C339.088 227.293 339.528 227.257 339.95 227.327C340.372 227.397 340.754 227.568 341.039 227.816C350.846 225.031 355.939 218.764 355.614 213.99C355.223 208.22 358.531 202.73 359 197C358.059 197.069 357.132 197.222 356.239 197.458C356.575 197.675 356.877 197.922 357.137 198.194C357.724 198.999 357.229 199.596 355.483 199.626C353.126 199.754 350.803 200.129 348.58 200.74C346.531 201.311 344.276 201.272 342.263 200.631C341.662 200.394 340.998 200.263 340.321 200.249C339.645 200.236 338.973 200.339 338.356 200.551C336.711 201.08 334.922 201.291 333.146 201.168C332.627 201.13 332.105 201.153 331.596 201.237C327.532 202.232 323.13 201.894 318.831 201.934C304.66 202.073 290.555 202.65 276.41 202.928C261.197 203.257 245.958 203.306 230.718 203.376C222.057 203.376 213.382 203.217 204.669 203.187C202.158 203.186 199.654 203.399 197.206 203.824C197.987 203.873 198.756 203.973 199.524 203.963C201.751 203.963 203.992 203.804 206.206 203.834C207.151 203.858 208.078 204.034 208.928 204.351C209.775 204.785 210.748 205.054 211.763 205.136C212.778 205.217 213.803 205.108 214.75 204.818C216.919 204.291 219.249 204.291 221.419 204.818C223.665 205.239 225.959 205.489 228.27 205.564C232.972 205.763 237.7 205.813 242.415 205.942C243.9 205.942 245.58 205.833 246.752 206.539C245.892 207.464 244.03 207.614 242.467 207.464C237.419 207.076 232.332 207.106 227.293 207.554C225.86 207.572 224.426 207.502 223.008 207.345C222.289 207.221 221.556 207.148 220.82 207.126C217.189 207.454 213.525 207.514 209.879 207.305C208.212 207.255 206.531 207.166 204.851 207.156C202.91 207.156 200.944 207.156 199.029 207.236C195.525 207.425 192.061 207.862 188.609 207.892C174.165 207.992 159.707 207.892 145.263 208.041C127.796 208.18 110.356 208.449 92.9679 209.265C76.5045 210.051 60.002 210.608 43.4735 211.254C40.0772 211.298 36.709 211.734 33.4835 212.547C38.2896 212.458 43.0958 212.348 47.9019 212.279C49.7254 212.279 51.5619 212.279 53.3984 212.279C56.5504 212.279 59.7024 212.398 62.8414 212.348C70.1744 212.229 77.5204 212.07 84.8404 211.881C93.9578 211.642 103.075 211.94 112.271 211.742C124.084 211.493 135.911 211.483 147.724 211.374C157.167 211.284 166.61 211.105 176.053 211.135C193.767 211.135 211.494 211.354 229.208 211.483C229.572 211.483 229.924 211.533 231.109 211.632C177.551 212.11 124.774 211.841 71.4769 213.622C74.1991 214.298 75.5016 214.358 80.5943 214.248C83.4727 214.189 86.3643 214.198 89.2558 214.139C92.1473 214.079 95.2733 213.97 98.295 213.93C101.317 213.89 104 213.93 106.865 214.029C96.3152 214.646 85.5698 214.457 75.0717 215.273L75.0717 215.78C76.2831 215.78 77.4944 215.86 78.7057 215.83C87.4931 215.657 96.2805 215.475 105.068 215.283C113.847 215.074 122.625 214.746 131.404 214.646C141.524 214.537 151.645 214.646 161.765 214.646C170.427 214.646 179.101 214.576 187.815 214.646C203.036 214.726 218.262 214.838 233.493 214.984C236.606 214.984 239.693 215.094 242.806 215.153L242.806 215.571C238.716 215.641 234.626 215.75 230.536 215.78C218.44 215.893 206.358 215.992 194.288 216.078ZM251.897 206.131C253.848 206.027 255.807 206.027 257.758 206.131C261.288 206.38 264.752 206.778 269.011 207.186C262.252 208.181 256.429 207.425 249.774 206.897C250.868 206.47 251.35 206.131 251.897 206.131Z" fill="white"/>
<path d="M191.176 192.994C200.108 192.994 209.039 192.934 217.957 192.862C232.512 192.754 247.066 192.658 261.607 192.454C269.286 192.334 276.965 191.986 284.63 191.758L320.805 190.727C330.336 190.475 340.003 190.271 349.601 189.983C351.916 189.923 354.203 189.635 356.504 189.455C358.084 189.335 359.323 189.083 359.799 188.124C359.99 187.74 361.079 187.476 361.773 187.164L365 185.677C364.293 185.506 363.574 185.374 362.849 185.281C357.09 185.113 351.344 184.813 345.599 184.813C332.419 184.813 319.226 184.993 306.047 185.101C305.17 185.147 304.291 185.041 303.46 184.789C304.022 184.575 304.612 184.422 305.216 184.333C310.662 184.093 316.135 183.889 321.636 183.721C333.141 183.338 344.659 182.99 356.164 182.618C358.235 182.648 360.298 182.389 362.277 181.85V181.334C361.024 181.251 359.772 181.095 358.519 181.095C352.776 181.201 347.031 180.965 341.323 180.387C339.045 180.276 336.76 180.405 334.516 180.771C333.188 180.966 331.874 181.231 330.581 181.562C327.028 178.84 321.84 178.672 316.312 178.708C306.714 178.708 297.115 178.6 287.517 178.588C282.166 178.588 276.815 178.72 271.464 178.732C259.102 178.732 246.744 178.732 234.391 178.732C233.441 178.711 232.5 178.565 231.599 178.3C245.405 177.448 259.347 177.928 273.452 177.4C273.071 177.136 273.003 177.028 272.921 177.028C264.453 176.884 256.215 175.421 247.57 176.105C244.112 176.381 240.463 175.961 236.909 175.949C215.615 175.949 194.321 175.949 173.041 175.793C158.5 175.673 143.959 175.085 129.473 175.013C112.999 174.941 96.5106 175.181 80.05 175.349C71.2637 175.429 62.482 175.585 53.7048 175.817C53.5551 175.817 53.4461 175.817 53.2964 175.817L49.6612 176.644C49.4121 176.847 49.112 176.996 48.7854 177.077C48.4589 177.158 48.1151 177.17 47.7823 177.112C45.1818 177.772 42.6494 178.492 40.2259 179.307C39.8143 179.47 39.3542 179.513 38.9131 179.429C38.472 179.345 38.0732 179.138 37.7752 178.84C27.523 182.198 22.1995 189.755 22.5399 195.513C22.9484 202.47 19.4901 209.091 19 216C19.9835 215.917 20.9524 215.732 21.8864 215.448C21.5344 215.186 21.2191 214.888 20.9469 214.561C20.3343 213.589 20.8516 212.869 22.6761 212.833C25.14 212.679 27.5681 212.227 29.8921 211.49C32.0337 210.801 34.3914 210.848 36.4954 211.622C37.124 211.908 37.8179 212.065 38.5252 212.082C39.2324 212.098 39.9348 211.974 40.5799 211.718C42.2987 211.081 44.1688 210.825 46.0259 210.974C46.5677 211.02 47.1142 210.992 47.6461 210.89C51.894 209.691 56.4959 210.098 60.9889 210.05C75.8021 209.883 90.5472 209.187 105.333 208.851C121.236 208.455 137.165 208.395 153.095 208.311C162.149 208.311 171.217 208.503 180.325 208.539C182.95 208.541 185.567 208.283 188.127 207.771C187.31 207.711 186.506 207.592 185.703 207.604C183.375 207.604 181.033 207.795 178.718 207.759C177.731 207.731 176.761 207.518 175.873 207.136C174.987 206.612 173.97 206.287 172.909 206.189C171.849 206.091 170.777 206.222 169.787 206.572C167.519 207.208 165.084 207.208 162.816 206.572C160.468 206.065 158.07 205.763 155.655 205.672C150.74 205.432 145.797 205.372 140.869 205.217C139.316 205.217 137.56 205.348 136.335 204.497C137.233 203.381 139.18 203.201 140.814 203.381C146.09 203.849 151.408 203.813 156.676 203.273C158.174 203.251 159.672 203.335 161.155 203.525C161.907 203.675 162.672 203.763 163.442 203.789C167.238 203.393 171.068 203.321 174.879 203.573C176.622 203.633 178.378 203.741 180.134 203.753C182.163 203.753 184.219 203.753 186.22 203.657C189.883 203.429 193.504 202.901 197.112 202.865C212.212 202.746 227.324 202.865 242.423 202.686C260.681 202.518 278.912 202.194 297.088 201.21C314.297 200.263 331.548 199.591 348.825 198.811C352.376 198.758 355.896 198.233 359.268 197.252C354.244 197.36 349.22 197.492 344.196 197.576C342.29 197.576 340.37 197.576 338.451 197.576C335.156 197.576 331.861 197.432 328.58 197.492C320.914 197.636 313.235 197.828 305.584 198.056C296.053 198.343 286.523 197.984 276.91 198.223C264.562 198.523 252.199 198.535 239.85 198.667C229.979 198.775 220.108 198.991 210.237 198.955C191.721 198.955 173.191 198.691 154.674 198.535C154.293 198.535 153.925 198.475 152.686 198.355C208.672 197.78 263.84 198.103 319.553 195.956C316.707 195.141 315.346 195.069 310.022 195.201C307.013 195.273 303.991 195.261 300.968 195.333C297.946 195.405 294.678 195.537 291.519 195.585C288.361 195.633 285.556 195.585 282.561 195.465C293.589 194.721 304.821 194.949 315.795 193.965V193.353C314.529 193.353 313.263 193.258 311.996 193.293C302.811 193.501 293.625 193.721 284.44 193.953C275.263 194.205 266.086 194.601 256.91 194.721C246.331 194.853 235.752 194.721 225.173 194.721C216.119 194.721 207.051 194.805 197.943 194.721C182.031 194.625 166.115 194.489 150.195 194.313C146.941 194.313 143.714 194.181 140.46 194.109V193.605C144.735 193.521 149.01 193.389 153.286 193.353C165.929 193.218 178.56 193.098 191.176 192.994ZM130.957 204.989C128.917 205.115 126.87 205.115 124.83 204.989C121.14 204.689 117.519 204.209 113.067 203.717C120.133 202.518 126.219 203.429 133.176 204.065C132.032 204.581 131.529 204.989 130.957 204.989Z" fill="white"/>
<path d="M199.814 168.078C190.986 168.078 182.158 168.128 173.343 168.188C158.957 168.277 144.57 168.357 130.198 168.526C122.607 168.626 115.017 168.914 107.441 169.103L71.6837 169.958C62.2633 170.167 52.7083 170.336 43.2206 170.575C40.9328 170.625 38.672 170.864 36.3976 171.013C34.8365 171.112 33.6119 171.321 33.1408 172.117C32.9525 172.435 31.8758 172.654 31.1895 172.913L28 174.146C28.699 174.288 29.4092 174.397 30.1263 174.474C35.8189 174.614 41.498 174.862 47.1772 174.862C60.2042 174.862 73.2448 174.713 86.2718 174.624C87.1388 174.585 88.0075 174.673 88.8287 174.882C88.2728 175.06 87.6899 175.186 87.0927 175.26C81.7096 175.459 76.2996 175.628 70.8627 175.768C59.491 176.086 48.1058 176.374 36.7341 176.683C34.6871 176.658 32.6477 176.873 30.6916 177.319L30.6916 177.747C31.9297 177.817 33.1678 177.946 34.4059 177.946C40.083 177.857 45.7617 178.053 51.4029 178.533C53.655 178.625 55.9139 178.518 58.1318 178.215C59.4445 178.052 60.7432 177.833 62.021 177.558C65.5335 179.816 70.6609 179.955 76.1247 179.925C85.6123 179.925 95.1 180.015 104.588 180.025C109.877 180.025 115.165 179.915 120.454 179.906C132.674 179.906 144.889 179.906 157.1 179.906C158.038 179.923 158.968 180.043 159.858 180.264C146.212 180.97 132.432 180.572 118.489 181.01C118.866 181.228 118.934 181.318 119.014 181.318C127.385 181.437 135.527 182.651 144.073 182.084C147.491 181.855 151.097 182.203 154.61 182.213C175.658 182.213 196.705 182.213 217.74 182.343C232.113 182.442 246.485 182.929 260.804 182.989C277.088 183.049 293.385 182.85 309.656 182.711C318.34 182.644 327.021 182.515 335.696 182.323C335.844 182.323 335.952 182.323 336.1 182.323L339.693 181.636C339.94 181.468 340.236 181.345 340.559 181.278C340.882 181.21 341.221 181.2 341.55 181.248C344.121 180.701 346.624 180.104 349.019 179.428C349.426 179.293 349.881 179.257 350.317 179.327C350.753 179.397 351.147 179.568 351.442 179.816C361.576 177.031 366.837 170.764 366.501 165.99C366.097 160.22 369.516 154.73 370 149C369.028 149.069 368.07 149.222 367.147 149.458C367.495 149.675 367.807 149.922 368.076 150.194C368.681 150.999 368.17 151.596 366.366 151.626C363.931 151.754 361.531 152.129 359.234 152.74C357.117 153.311 354.787 153.272 352.707 152.631C352.085 152.394 351.4 152.263 350.701 152.249C350.001 152.236 349.307 152.339 348.67 152.551C346.971 153.08 345.122 153.291 343.287 153.168C342.751 153.13 342.211 153.153 341.685 153.237C337.486 154.232 332.938 153.894 328.497 153.934C313.855 154.073 299.28 154.65 284.665 154.928C268.946 155.257 253.201 155.306 237.455 155.376C228.506 155.376 219.543 155.217 210.54 155.187C207.945 155.186 205.359 155.399 202.829 155.824C203.636 155.873 204.43 155.973 205.224 155.963C207.525 155.963 209.84 155.804 212.128 155.834C213.104 155.858 214.063 156.034 214.941 156.351C215.816 156.785 216.822 157.054 217.87 157.136C218.918 157.217 219.978 157.108 220.956 156.818C223.198 156.291 225.605 156.291 227.847 156.818C230.167 157.239 232.538 157.489 234.925 157.564C239.784 157.763 244.669 157.813 249.54 157.942C251.075 157.942 252.811 157.833 254.022 158.539C253.134 159.464 251.209 159.614 249.594 159.464C244.379 159.076 239.122 159.106 233.916 159.554C232.435 159.572 230.954 159.502 229.488 159.345C228.745 159.221 227.989 159.148 227.227 159.126C223.476 159.454 219.69 159.514 215.923 159.305C214.2 159.255 212.464 159.166 210.728 159.156C208.723 159.156 206.691 159.156 204.713 159.236C201.093 159.425 197.513 159.862 193.947 159.892C179.022 159.992 164.084 159.892 149.16 160.041C131.113 160.18 113.093 160.449 95.1269 161.265C78.1164 162.051 61.0655 162.608 43.9877 163.254C40.4785 163.298 36.9984 163.734 33.6657 164.547C38.6316 164.458 43.5974 164.348 48.5634 164.279C50.4474 164.279 52.3449 164.279 54.2425 164.279C57.4992 164.279 60.756 164.398 63.9993 164.348C71.576 164.229 79.1661 164.07 86.7293 163.881C96.1497 163.642 105.57 163.94 115.071 163.742C127.277 163.493 139.497 163.483 151.703 163.374C161.46 163.284 171.217 163.105 180.973 163.135C199.276 163.135 217.592 163.354 235.894 163.483C236.271 163.483 236.634 163.533 237.859 163.632C182.521 164.11 127.991 163.841 72.9218 165.622C75.7344 166.298 77.0802 166.358 82.3421 166.248C85.3163 166.189 88.3039 166.198 91.2915 166.139C94.2791 166.079 97.5089 165.97 100.631 165.93C103.753 165.89 106.526 165.93 109.486 166.029C98.5856 166.646 87.483 166.457 76.6361 167.273L76.6361 167.78C77.8876 167.78 79.1392 167.86 80.3908 167.83C89.4702 167.657 98.5497 167.475 107.629 167.283C116.7 167.074 125.77 166.746 134.841 166.646C145.297 166.537 155.754 166.646 166.21 166.646C175.16 166.646 184.123 166.576 193.126 166.646C208.853 166.726 224.585 166.838 240.322 166.984C243.538 166.984 246.728 167.094 249.944 167.153L249.944 167.571C245.718 167.641 241.493 167.75 237.267 167.78C224.769 167.893 212.285 167.992 199.814 168.078ZM259.338 158.131C261.354 158.027 263.377 158.027 265.393 158.131C269.041 158.38 272.62 158.778 277.021 159.186C270.036 160.181 264.021 159.425 257.144 158.897C258.274 158.47 258.772 158.131 259.338 158.131Z" fill="white"/>
<path d="M179.186 148.922C188.014 148.922 196.842 148.872 205.657 148.812C220.043 148.723 234.43 148.643 248.802 148.474C256.393 148.374 263.983 148.086 271.559 147.897L307.316 147.042C316.737 146.833 326.292 146.664 335.779 146.425C338.067 146.375 340.328 146.136 342.602 145.987C344.163 145.888 345.388 145.679 345.859 144.883C346.048 144.565 347.124 144.346 347.811 144.087L351 142.854C350.301 142.712 349.591 142.603 348.874 142.526C343.181 142.386 337.502 142.138 331.823 142.138C318.796 142.138 305.755 142.287 292.728 142.376C291.861 142.415 290.992 142.327 290.171 142.118C290.727 141.94 291.31 141.814 291.907 141.74C297.29 141.541 302.7 141.372 308.137 141.232C319.509 140.914 330.894 140.626 342.266 140.317C344.313 140.342 346.352 140.127 348.308 139.681V139.253C347.07 139.183 345.832 139.054 344.594 139.054C338.917 139.143 333.238 138.947 327.597 138.467C325.345 138.375 323.086 138.482 320.868 138.785C319.555 138.948 318.257 139.167 316.979 139.442C313.467 137.184 308.339 137.045 302.875 137.075C293.388 137.075 283.9 136.985 274.412 136.975C269.123 136.975 263.835 137.085 258.546 137.094C246.326 137.094 234.111 137.094 221.9 137.094C220.962 137.077 220.032 136.957 219.142 136.736C232.788 136.03 246.568 136.428 260.511 135.99C260.134 135.772 260.066 135.682 259.986 135.682C251.615 135.563 243.473 134.349 234.927 134.916C231.509 135.145 227.903 134.797 224.39 134.787C203.342 134.787 182.295 134.787 161.26 134.657C146.887 134.558 132.515 134.071 118.196 134.011C101.912 133.951 85.6146 134.15 69.3442 134.289C60.6595 134.356 51.9793 134.485 43.3036 134.677C43.1556 134.677 43.0479 134.677 42.8999 134.677L39.3067 135.364C39.0605 135.532 38.7639 135.655 38.4411 135.722C38.1183 135.79 37.7785 135.8 37.4495 135.752C34.8791 136.299 32.376 136.896 29.9805 137.572C29.5737 137.707 29.1189 137.743 28.6829 137.673C28.2469 137.603 27.8527 137.432 27.5581 137.184C17.4245 139.969 12.1626 146.236 12.499 151.01C12.9027 156.78 9.48448 162.27 9 168C9.97215 167.931 10.9299 167.778 11.853 167.542C11.5051 167.325 11.1934 167.078 10.9244 166.806C10.3188 166.001 10.8302 165.404 12.6336 165.374C15.069 165.246 17.469 164.871 19.7661 164.26C21.883 163.689 24.2134 163.728 26.2931 164.369C26.9145 164.606 27.6004 164.737 28.2994 164.751C28.9985 164.764 29.6928 164.661 30.3304 164.449C32.0293 163.921 33.8779 163.709 35.7135 163.832C36.249 163.87 36.7892 163.847 37.3149 163.763C41.5137 162.768 46.0624 163.106 50.5035 163.066C65.1454 162.927 79.7201 162.35 94.3351 162.072C110.054 161.743 125.799 161.694 141.545 161.624C150.494 161.624 159.457 161.783 168.46 161.813C171.055 161.814 173.641 161.601 176.171 161.176C175.364 161.127 174.57 161.027 173.776 161.037C171.475 161.037 169.16 161.196 166.872 161.166C165.896 161.142 164.937 160.966 164.059 160.649C163.184 160.215 162.178 159.946 161.13 159.864C160.082 159.783 159.022 159.892 158.044 160.182C155.802 160.709 153.395 160.709 151.153 160.182C148.833 159.761 146.462 159.511 144.075 159.436C139.216 159.237 134.331 159.187 129.46 159.058C127.925 159.058 126.189 159.167 124.978 158.461C125.866 157.536 127.791 157.386 129.406 157.536C134.621 157.924 139.878 157.894 145.084 157.446C146.565 157.428 148.046 157.498 149.512 157.655C150.255 157.779 151.011 157.852 151.773 157.874C155.524 157.546 159.31 157.486 163.077 157.695C164.8 157.745 166.536 157.834 168.272 157.844C170.277 157.844 172.309 157.844 174.287 157.764C177.907 157.575 181.487 157.138 185.053 157.108C199.978 157.008 214.916 157.108 229.84 156.959C247.887 156.82 265.907 156.551 283.873 155.735C300.884 154.949 317.934 154.392 335.012 153.746C338.521 153.702 342.002 153.266 345.334 152.453C340.368 152.542 335.403 152.652 330.437 152.721C328.553 152.721 326.655 152.721 324.758 152.721C321.501 152.721 318.244 152.602 315.001 152.652C307.424 152.771 299.834 152.93 292.271 153.119C282.85 153.358 273.43 153.06 263.929 153.258C251.723 153.507 239.503 153.517 227.297 153.626C217.54 153.716 207.783 153.895 198.027 153.865C179.724 153.865 161.408 153.646 143.106 153.517C142.729 153.517 142.366 153.467 141.141 153.368C196.479 152.89 251.009 153.159 306.078 151.378C303.266 150.702 301.92 150.642 296.658 150.752C293.684 150.811 290.696 150.802 287.709 150.861C284.721 150.921 281.491 151.03 278.369 151.07C275.247 151.11 272.474 151.07 269.514 150.971C280.414 150.354 291.517 150.543 302.364 149.727V149.22C301.112 149.22 299.861 149.14 298.609 149.17C289.53 149.343 280.45 149.525 271.371 149.717C262.3 149.926 253.23 150.254 244.159 150.354C233.703 150.463 223.246 150.354 212.79 150.354C203.84 150.354 194.877 150.424 185.874 150.354C170.147 150.274 154.415 150.162 138.678 150.016C135.462 150.016 132.272 149.906 129.056 149.847V149.429C133.282 149.359 137.507 149.25 141.733 149.22C154.231 149.107 166.715 149.008 179.186 148.922ZM119.662 158.869C117.646 158.973 115.623 158.973 113.607 158.869C109.959 158.62 106.38 158.222 101.979 157.814C108.964 156.82 114.979 157.575 121.856 158.103C120.726 158.53 120.228 158.869 119.662 158.869Z" fill="white"/>
<path d="M190.814 119.078C181.986 119.078 173.158 119.128 164.343 119.188C149.957 119.277 135.57 119.357 121.198 119.526C113.607 119.626 106.017 119.914 98.4407 120.103L62.6837 120.958C53.2633 121.167 43.7083 121.336 34.2206 121.575C31.9328 121.625 29.672 121.864 27.3976 122.013C25.8365 122.112 24.6119 122.321 24.1408 123.117C23.9525 123.435 22.8758 123.654 22.1895 123.913L19 125.146C19.699 125.288 20.4092 125.397 21.1263 125.474C26.8189 125.614 32.498 125.862 38.1772 125.862C51.2042 125.862 64.2448 125.713 77.2718 125.624C78.1388 125.585 79.0075 125.673 79.8287 125.882C79.2728 126.06 78.6899 126.186 78.0927 126.26C72.7096 126.459 67.2996 126.628 61.8627 126.768C50.491 127.086 39.1058 127.374 27.7341 127.683C25.6871 127.658 23.6477 127.873 21.6916 128.319L21.6916 128.747C22.9297 128.817 24.1678 128.946 25.4059 128.946C31.083 128.857 36.7617 129.053 42.4029 129.533C44.655 129.625 46.9139 129.518 49.1318 129.215C50.4445 129.052 51.7432 128.833 53.021 128.558C56.5335 130.816 61.6609 130.955 67.1247 130.925C76.6123 130.925 86.1 131.015 95.5877 131.025C100.877 131.025 106.165 130.915 111.454 130.906C123.674 130.906 135.889 130.906 148.1 130.906C149.038 130.923 149.968 131.043 150.858 131.264C137.212 131.97 123.432 131.572 109.489 132.01C109.866 132.228 109.934 132.318 110.014 132.318C118.385 132.437 126.527 133.651 135.073 133.084C138.491 132.855 142.097 133.203 145.61 133.213C166.658 133.213 187.705 133.213 208.74 133.343C223.113 133.442 237.485 133.929 251.804 133.989C268.088 134.049 284.385 133.85 300.656 133.711C309.34 133.644 318.021 133.515 326.696 133.323C326.844 133.323 326.952 133.323 327.1 133.323L330.693 132.636C330.94 132.468 331.236 132.345 331.559 132.278C331.882 132.21 332.221 132.2 332.55 132.248C335.121 131.701 337.624 131.104 340.019 130.428C340.426 130.293 340.881 130.257 341.317 130.327C341.753 130.397 342.147 130.568 342.442 130.816C352.576 128.031 357.837 121.764 357.501 116.99C357.097 111.22 360.516 105.73 361 100C360.028 100.069 359.07 100.222 358.147 100.458C358.495 100.675 358.807 100.922 359.076 101.194C359.681 101.999 359.17 102.596 357.366 102.626C354.931 102.754 352.531 103.129 350.234 103.74C348.117 104.311 345.787 104.272 343.707 103.631C343.085 103.394 342.4 103.263 341.701 103.249C341.001 103.236 340.307 103.339 339.67 103.551C337.971 104.08 336.122 104.291 334.287 104.168C333.751 104.13 333.211 104.153 332.685 104.237C328.486 105.232 323.938 104.894 319.497 104.934C304.855 105.073 290.28 105.65 275.665 105.928C259.946 106.257 244.201 106.306 228.455 106.376C219.506 106.376 210.543 106.217 201.54 106.187C198.945 106.186 196.359 106.399 193.829 106.824C194.636 106.873 195.43 106.973 196.224 106.963C198.525 106.963 200.84 106.804 203.128 106.834C204.104 106.858 205.063 107.034 205.941 107.351C206.816 107.785 207.822 108.054 208.87 108.136C209.918 108.217 210.978 108.108 211.956 107.818C214.198 107.291 216.605 107.291 218.847 107.818C221.167 108.239 223.538 108.489 225.925 108.564C230.784 108.763 235.669 108.813 240.54 108.942C242.075 108.942 243.811 108.833 245.022 109.539C244.134 110.464 242.209 110.614 240.594 110.464C235.379 110.076 230.122 110.106 224.916 110.554C223.435 110.572 221.954 110.502 220.488 110.345C219.745 110.221 218.989 110.148 218.227 110.126C214.476 110.454 210.69 110.514 206.923 110.305C205.2 110.255 203.464 110.166 201.728 110.156C199.723 110.156 197.691 110.156 195.713 110.236C192.093 110.425 188.513 110.862 184.947 110.892C170.022 110.992 155.084 110.892 140.16 111.041C122.113 111.18 104.093 111.449 86.1269 112.265C69.1164 113.051 52.0655 113.608 34.9877 114.254C31.4785 114.298 27.9984 114.734 24.6657 115.547C29.6316 115.458 34.5974 115.348 39.5634 115.279C41.4474 115.279 43.3449 115.279 45.2425 115.279C48.4992 115.279 51.756 115.398 54.9993 115.348C62.576 115.229 70.1661 115.07 77.7293 114.881C87.1497 114.642 96.5701 114.94 106.071 114.742C118.277 114.493 130.497 114.483 142.703 114.374C152.46 114.284 162.217 114.105 171.973 114.135C190.276 114.135 208.592 114.354 226.894 114.483C227.271 114.483 227.634 114.533 228.859 114.632C173.521 115.11 118.991 114.841 63.9218 116.622C66.7344 117.298 68.0802 117.358 73.3421 117.248C76.3163 117.189 79.3039 117.198 82.2915 117.139C85.2791 117.079 88.5089 116.97 91.6311 116.93C94.7533 116.89 97.5256 116.93 100.486 117.029C89.5856 117.646 78.483 117.457 67.6361 118.273L67.6361 118.78C68.8876 118.78 70.1392 118.86 71.3908 118.83C80.4702 118.657 89.5497 118.475 98.6291 118.283C107.7 118.074 116.77 117.746 125.841 117.646C136.297 117.537 146.754 117.646 157.21 117.646C166.16 117.646 175.123 117.576 184.126 117.646C199.853 117.726 215.585 117.838 231.322 117.984C234.538 117.984 237.728 118.094 240.944 118.153L240.944 118.571C236.718 118.641 232.493 118.75 228.267 118.78C215.769 118.893 203.285 118.992 190.814 119.078ZM250.338 109.131C252.354 109.027 254.377 109.027 256.393 109.131C260.041 109.38 263.62 109.778 268.021 110.186C261.036 111.181 255.021 110.425 248.144 109.897C249.274 109.47 249.772 109.131 250.338 109.131Z" fill="white"/>
<path d="M179.186 98.9215C188.014 98.9215 196.842 98.8718 205.657 98.8121C220.043 98.7226 234.43 98.643 248.802 98.4739C256.393 98.3745 263.983 98.086 271.559 97.897L307.316 97.0415C316.737 96.8327 326.292 96.6636 335.779 96.4248C338.067 96.3751 340.328 96.1364 342.602 95.9872C344.163 95.8877 345.388 95.6788 345.859 94.883C346.048 94.5647 347.124 94.3459 347.811 94.0873L351 92.8538C350.301 92.7123 349.591 92.6027 348.874 92.5256C343.181 92.3863 337.502 92.1376 331.823 92.1376C318.796 92.1376 305.755 92.2868 292.728 92.3764C291.861 92.4147 290.992 92.3268 290.171 92.1177C290.727 91.9405 291.31 91.8136 291.907 91.7398C297.29 91.5408 302.7 91.3717 308.137 91.2325C319.509 90.9142 330.894 90.6257 342.266 90.3173C344.313 90.342 346.352 90.1272 348.308 89.6807V89.253C347.07 89.1834 345.832 89.054 344.594 89.054C338.917 89.1427 333.238 88.9466 327.597 88.4672C325.345 88.3751 323.086 88.4819 320.868 88.7855C319.555 88.9476 318.257 89.1668 316.979 89.442C313.467 87.184 308.339 87.0447 302.875 87.0746C293.388 87.0746 283.9 86.9851 274.412 86.9751C269.123 86.9751 263.835 87.0845 258.546 87.0945C246.326 87.0945 234.111 87.0945 221.9 87.0945C220.962 87.0774 220.032 86.9567 219.142 86.7364C232.788 86.0301 246.568 86.428 260.511 85.9904C260.134 85.7715 260.066 85.682 259.986 85.682C251.615 85.5626 243.473 84.3491 234.927 84.9161C231.509 85.1448 227.903 84.7967 224.39 84.7867C203.342 84.7867 182.295 84.7868 161.26 84.6574C146.887 84.558 132.515 84.0706 118.196 84.0109C101.912 83.9512 85.6146 84.1501 69.3442 84.2894C60.6595 84.3557 51.9793 84.485 43.3036 84.6773C43.1556 84.6773 43.0479 84.6773 42.8999 84.6773L39.3067 85.3637C39.0605 85.532 38.7639 85.6549 38.4411 85.7224C38.1183 85.7898 37.7785 85.7998 37.4495 85.7516C34.8791 86.2987 32.376 86.8955 29.9805 87.5719C29.5737 87.7072 29.1189 87.7426 28.6829 87.6727C28.2469 87.6029 27.8527 87.4316 27.5581 87.184C17.4245 89.9692 12.1626 96.2358 12.499 101.01C12.9027 106.78 9.48448 112.27 9 118C9.97215 117.931 10.9299 117.778 11.853 117.542C11.5051 117.325 11.1934 117.078 10.9244 116.806C10.3188 116.001 10.8302 115.404 12.6336 115.374C15.069 115.246 17.469 114.871 19.7661 114.26C21.883 113.689 24.2134 113.728 26.2931 114.369C26.9145 114.606 27.6004 114.737 28.2994 114.751C28.9985 114.764 29.6928 114.661 30.3304 114.449C32.0293 113.921 33.8779 113.709 35.7135 113.832C36.249 113.87 36.7892 113.847 37.3149 113.763C41.5137 112.768 46.0624 113.106 50.5035 113.066C65.1454 112.927 79.7201 112.35 94.3351 112.072C110.054 111.743 125.799 111.694 141.545 111.624C150.494 111.624 159.457 111.783 168.46 111.813C171.055 111.814 173.641 111.601 176.171 111.176C175.364 111.127 174.57 111.027 173.776 111.037C171.475 111.037 169.16 111.196 166.872 111.166C165.896 111.142 164.937 110.966 164.059 110.649C163.184 110.215 162.178 109.946 161.13 109.864C160.082 109.783 159.022 109.892 158.044 110.182C155.802 110.709 153.395 110.709 151.153 110.182C148.833 109.761 146.462 109.511 144.075 109.436C139.216 109.237 134.331 109.187 129.46 109.058C127.925 109.058 126.189 109.167 124.978 108.461C125.866 107.536 127.791 107.386 129.406 107.536C134.621 107.924 139.878 107.894 145.084 107.446C146.565 107.428 148.046 107.498 149.512 107.655C150.255 107.779 151.011 107.852 151.773 107.874C155.524 107.546 159.31 107.486 163.077 107.695C164.8 107.745 166.536 107.834 168.272 107.844C170.277 107.844 172.309 107.844 174.287 107.764C177.907 107.575 181.487 107.138 185.053 107.108C199.978 107.008 214.916 107.108 229.84 106.959C247.887 106.82 265.907 106.551 283.873 105.735C300.884 104.949 317.934 104.392 335.012 103.746C338.521 103.702 342.002 103.266 345.334 102.453C340.368 102.542 335.403 102.652 330.437 102.721C328.553 102.721 326.655 102.721 324.758 102.721C321.501 102.721 318.244 102.602 315.001 102.652C307.424 102.771 299.834 102.93 292.271 103.119C282.85 103.358 273.43 103.06 263.929 103.258C251.723 103.507 239.503 103.517 227.297 103.626C217.54 103.716 207.783 103.895 198.027 103.865C179.724 103.865 161.408 103.646 143.106 103.517C142.729 103.517 142.366 103.467 141.141 103.368C196.479 102.89 251.009 103.159 306.078 101.378C303.266 100.702 301.92 100.642 296.658 100.752C293.684 100.811 290.696 100.802 287.709 100.861C284.721 100.921 281.491 101.03 278.369 101.07C275.247 101.11 272.474 101.07 269.514 100.971C280.414 100.354 291.517 100.543 302.364 99.7272V99.22C301.112 99.22 299.861 99.1404 298.609 99.1702C289.53 99.3426 280.45 99.525 271.371 99.7173C262.3 99.9262 253.23 100.254 244.159 100.354C233.703 100.463 223.246 100.354 212.79 100.354C203.84 100.354 194.877 100.424 185.874 100.354C170.147 100.274 154.415 100.162 138.678 100.016C135.462 100.016 132.272 99.9063 129.056 99.8466V99.4288C133.282 99.3592 137.507 99.2498 141.733 99.22C154.231 99.1072 166.715 99.0077 179.186 98.9215ZM119.662 108.869C117.646 108.973 115.623 108.973 113.607 108.869C109.959 108.62 106.38 108.222 101.979 107.814C108.964 106.82 114.979 107.575 121.856 108.103C120.726 108.53 120.228 108.869 119.662 108.869Z" fill="white"/>
<path d="M190.814 69.0785C181.986 69.0785 173.158 69.1282 164.343 69.1879C149.957 69.2774 135.57 69.357 121.198 69.5261C113.607 69.6255 106.017 69.914 98.4407 70.103L62.6837 70.9584C53.2633 71.1673 43.7083 71.3364 34.2206 71.5752C31.9328 71.6249 29.672 71.8636 27.3976 72.0128C25.8365 72.1123 24.6119 72.3212 24.1408 73.117C23.9525 73.4353 22.8758 73.6541 22.1895 73.9127L19 75.1462C19.699 75.2877 20.4092 75.3973 21.1263 75.4744C26.8189 75.6137 32.498 75.8624 38.1772 75.8624C51.2042 75.8624 64.2448 75.7131 77.2718 75.6236C78.1388 75.5853 79.0075 75.6732 79.8287 75.8822C79.2728 76.0595 78.6899 76.1864 78.0927 76.2602C72.7096 76.4592 67.2996 76.6283 61.8627 76.7675C50.491 77.0858 39.1058 77.3743 27.7341 77.6827C25.6871 77.6579 23.6477 77.8728 21.6916 78.3193L21.6916 78.747C22.9297 78.8166 24.1678 78.9459 25.4059 78.9459C31.083 78.8573 36.7617 79.0534 42.4029 79.5328C44.655 79.6249 46.9139 79.518 49.1318 79.2145C50.4445 79.0524 51.7432 78.8332 53.021 78.558C56.5335 80.816 61.6609 80.9552 67.1247 80.9254C76.6123 80.9254 86.1 81.0149 95.5877 81.0249C100.877 81.0249 106.165 80.9155 111.454 80.9055C123.674 80.9055 135.889 80.9055 148.1 80.9055C149.038 80.9226 149.968 81.0433 150.858 81.2636C137.212 81.9698 123.432 81.572 109.489 82.0096C109.866 82.2285 109.934 82.318 110.014 82.318C118.385 82.4374 126.527 83.6509 135.073 83.0839C138.491 82.8551 142.097 83.2033 145.61 83.2132C166.658 83.2132 187.705 83.2132 208.74 83.3425C223.113 83.442 237.485 83.9294 251.804 83.9891C268.088 84.0488 284.385 83.8499 300.656 83.7106C309.34 83.6443 318.021 83.515 326.696 83.3227C326.844 83.3227 326.952 83.3227 327.1 83.3227L330.693 82.6363C330.94 82.468 331.236 82.3451 331.559 82.2776C331.882 82.2102 332.221 82.2002 332.55 82.2484C335.121 81.7013 337.624 81.1045 340.019 80.4281C340.426 80.2928 340.881 80.2574 341.317 80.3273C341.753 80.3971 342.147 80.5684 342.442 80.816C352.576 78.0308 357.837 71.7642 357.501 66.9896C357.097 61.2203 360.516 55.7295 361 50C360.028 50.0686 359.07 50.2222 358.147 50.4576C358.495 50.6749 358.807 50.922 359.076 51.1937C359.681 51.9994 359.17 52.5962 357.366 52.626C354.931 52.7537 352.531 53.1286 350.234 53.7401C348.117 54.3115 345.787 54.2724 343.707 53.6307C343.085 53.3935 342.4 53.2632 341.701 53.2494C341.001 53.2357 340.307 53.3388 339.67 53.5511C337.971 54.0795 336.122 54.2913 334.287 54.1678C333.751 54.1296 333.211 54.1531 332.685 54.2375C328.486 55.2322 323.938 54.894 319.497 54.9338C304.855 55.073 290.28 55.6499 275.665 55.9285C259.946 56.2567 244.201 56.3064 228.455 56.3761C219.506 56.3761 210.543 56.2169 201.54 56.1871C198.945 56.1857 196.359 56.3993 193.829 56.8237C194.636 56.8734 195.43 56.9729 196.224 56.963C198.525 56.963 200.84 56.8038 203.128 56.8336C204.104 56.8576 205.063 57.0339 205.941 57.3509C206.816 57.785 207.822 58.0545 208.87 58.1359C209.918 58.2174 210.978 58.1084 211.956 57.8184C214.198 57.291 216.605 57.291 218.847 57.8184C221.167 58.2392 223.538 58.4891 225.925 58.5644C230.784 58.7634 235.669 58.8131 240.54 58.9424C242.075 58.9424 243.811 58.833 245.022 59.5392C244.134 60.4643 242.209 60.6135 240.594 60.4643C235.379 60.0762 230.122 60.1062 224.916 60.5538C223.435 60.5722 221.954 60.5024 220.488 60.345C219.745 60.2209 218.989 60.1476 218.227 60.1261C214.476 60.4543 210.69 60.5143 206.923 60.3052C205.2 60.2554 203.464 60.1659 201.728 60.156C199.723 60.156 197.691 60.156 195.713 60.2355C192.093 60.4245 188.513 60.8622 184.947 60.892C170.022 60.9915 155.084 60.892 140.16 61.0412C122.113 61.1805 104.093 61.4491 86.1269 62.2647C69.1164 63.0505 52.0655 63.6076 34.9877 64.2541C31.4785 64.2978 27.9984 64.7338 24.6657 65.5472C29.6316 65.4577 34.5974 65.3483 39.5634 65.2787C41.4474 65.2787 43.3449 65.2787 45.2425 65.2787C48.4992 65.2787 51.756 65.398 54.9993 65.3483C62.576 65.2289 70.1661 65.0698 77.7293 64.8808C87.1497 64.6421 96.5701 64.9405 106.071 64.7415C118.277 64.4929 130.497 64.4829 142.703 64.3735C152.46 64.284 162.217 64.1049 171.973 64.1348C190.276 64.1348 208.592 64.3536 226.894 64.4829C227.271 64.4829 227.634 64.5327 228.859 64.6321C173.521 65.1096 118.991 64.841 63.9218 66.6215C66.7344 67.2979 68.0802 67.3576 73.3421 67.2482C76.3163 67.1885 79.3039 67.1985 82.2915 67.1388C85.2791 67.0791 88.5089 66.9697 91.6311 66.9299C94.7533 66.8901 97.5256 66.9299 100.486 67.0294C89.5856 67.6461 78.483 67.4571 67.6361 68.2727L67.6361 68.78C68.8876 68.78 70.1392 68.8596 71.3908 68.8298C80.4702 68.6574 89.5497 68.475 98.6291 68.2827C107.7 68.0738 116.77 67.7456 125.841 67.6461C136.297 67.5367 146.754 67.6461 157.21 67.6461C166.16 67.6461 175.123 67.5765 184.126 67.6461C199.853 67.7257 215.585 67.8384 231.322 67.9843C234.538 67.9843 237.728 68.0937 240.944 68.1534L240.944 68.5712C236.718 68.6408 232.493 68.7502 228.267 68.7801C215.769 68.8928 203.285 68.9923 190.814 69.0785ZM250.338 59.1314C252.354 59.027 254.377 59.027 256.393 59.1314C260.041 59.3801 263.62 59.778 268.021 60.1858C261.036 61.1805 255.021 60.4245 248.144 59.8973C249.274 59.4696 249.772 59.1314 250.338 59.1314Z" fill="white"/>
<path d="M170.186 48.9215C179.014 48.9215 187.842 48.8718 196.657 48.8121C211.043 48.7226 225.43 48.643 239.802 48.4739C247.393 48.3745 254.983 48.086 262.559 47.897L298.316 47.0415C307.737 46.8327 317.292 46.6636 326.779 46.4248C329.067 46.3751 331.328 46.1364 333.602 45.9872C335.163 45.8877 336.388 45.6788 336.859 44.883C337.048 44.5647 338.124 44.3459 338.811 44.0873L342 42.8538C341.301 42.7123 340.591 42.6027 339.874 42.5256C334.181 42.3863 328.502 42.1376 322.823 42.1376C309.796 42.1376 296.755 42.2868 283.728 42.3764C282.861 42.4147 281.992 42.3268 281.171 42.1177C281.727 41.9405 282.31 41.8136 282.907 41.7398C288.29 41.5408 293.7 41.3717 299.137 41.2325C310.509 40.9142 321.894 40.6257 333.266 40.3173C335.313 40.342 337.352 40.1272 339.308 39.6807V39.253C338.07 39.1834 336.832 39.054 335.594 39.054C329.917 39.1427 324.238 38.9466 318.597 38.4672C316.345 38.3751 314.086 38.4819 311.868 38.7855C310.555 38.9476 309.257 39.1668 307.979 39.442C304.467 37.184 299.339 37.0447 293.875 37.0746C284.388 37.0746 274.9 36.9851 265.412 36.9751C260.123 36.9751 254.835 37.0845 249.546 37.0945C237.326 37.0945 225.111 37.0945 212.9 37.0945C211.962 37.0774 211.032 36.9567 210.142 36.7364C223.788 36.0301 237.568 36.428 251.511 35.9904C251.134 35.7715 251.066 35.682 250.986 35.682C242.615 35.5626 234.473 34.3491 225.927 34.9161C222.509 35.1448 218.903 34.7967 215.39 34.7867C194.342 34.7867 173.295 34.7868 152.26 34.6574C137.887 34.558 123.515 34.0706 109.196 34.0109C92.9118 33.9512 76.6146 34.1501 60.3442 34.2894C51.6595 34.3557 42.9793 34.485 34.3036 34.6773C34.1556 34.6773 34.0479 34.6773 33.8999 34.6773L30.3067 35.3637C30.0605 35.532 29.7639 35.6549 29.4411 35.7224C29.1183 35.7898 28.7785 35.7998 28.4495 35.7516C25.8791 36.2987 23.376 36.8955 20.9805 37.5719C20.5737 37.7072 20.1189 37.7426 19.6829 37.6727C19.2469 37.6029 18.8527 37.4316 18.5581 37.184C8.4245 39.9692 3.16255 46.2358 3.49899 51.0104C3.90272 56.7797 0.484476 62.2705 0 68C0.972153 67.9315 1.92986 67.7779 2.85302 67.5424C2.50512 67.3251 2.1934 67.078 1.92444 66.8064C1.31884 66.0006 1.83024 65.4038 3.63357 65.374C6.06899 65.2463 8.46904 64.8714 10.7661 64.2599C12.883 63.6886 15.2134 63.7276 17.2931 64.3693C17.9145 64.6065 18.6004 64.7368 19.2994 64.7506C19.9985 64.7644 20.6928 64.6612 21.3304 64.4489C23.0293 63.9205 24.8779 63.7087 26.7135 63.8322C27.249 63.8704 27.7892 63.8469 28.3149 63.7626C32.5137 62.7678 37.0624 63.1061 41.5035 63.0663C56.1454 62.927 70.7201 62.3501 85.3351 62.0716C101.054 61.7433 116.799 61.6936 132.545 61.6239C141.494 61.6239 150.457 61.7831 159.46 61.8129C162.055 61.8143 164.641 61.6007 167.171 61.1763C166.364 61.1266 165.57 61.0271 164.776 61.0371C162.475 61.0371 160.16 61.1962 157.872 61.1664C156.896 61.1424 155.937 60.9661 155.059 60.6491C154.184 60.215 153.178 59.9456 152.13 59.8641C151.082 59.7826 150.022 59.8916 149.044 60.1816C146.802 60.709 144.395 60.709 142.153 60.1816C139.833 59.7608 137.462 59.5109 135.075 59.4356C130.216 59.2367 125.331 59.1869 120.46 59.0576C118.925 59.0576 117.189 59.167 115.978 58.4608C116.866 57.5357 118.791 57.3865 120.406 57.5357C125.621 57.9239 130.878 57.8938 136.084 57.4462C137.565 57.4278 139.046 57.4976 140.512 57.6551C141.255 57.7791 142.011 57.8524 142.773 57.8739C146.524 57.5457 150.31 57.4857 154.077 57.6949C155.8 57.7446 157.536 57.8341 159.272 57.8441C161.277 57.8441 163.309 57.8441 165.287 57.7645C168.907 57.5755 172.487 57.1378 176.053 57.108C190.978 57.0085 205.916 57.108 220.84 56.9588C238.887 56.8195 256.907 56.5509 274.873 55.7353C291.884 54.9495 308.934 54.3924 326.012 53.7459C329.521 53.7022 333.002 53.2662 336.334 52.4527C331.368 52.5423 326.403 52.6517 321.437 52.7213C319.553 52.7213 317.655 52.7213 315.758 52.7213C312.501 52.7213 309.244 52.6019 306.001 52.6517C298.424 52.771 290.834 52.9302 283.271 53.1192C273.85 53.3579 264.43 53.0595 254.929 53.2585C242.723 53.5071 230.503 53.5171 218.297 53.6265C208.54 53.716 198.783 53.8951 189.027 53.8652C170.724 53.8652 152.408 53.6464 134.106 53.5171C133.729 53.5171 133.366 53.4673 132.141 53.3679C187.479 52.8904 242.009 53.159 297.078 51.3785C294.266 50.7021 292.92 50.6424 287.658 50.7518C284.684 50.8115 281.696 50.8015 278.709 50.8612C275.721 50.9209 272.491 51.0303 269.369 51.0701C266.247 51.1099 263.474 51.0701 260.514 50.9706C271.414 50.3539 282.517 50.5429 293.364 49.7272V49.22C292.112 49.22 290.861 49.1404 289.609 49.1702C280.53 49.3426 271.45 49.525 262.371 49.7173C253.3 49.9262 244.23 50.2544 235.159 50.3539C224.703 50.4633 214.246 50.3539 203.79 50.3539C194.84 50.3539 185.877 50.4235 176.874 50.3539C161.147 50.2743 145.415 50.1616 129.678 50.0157C126.462 50.0157 123.272 49.9063 120.056 49.8466V49.4288C124.282 49.3592 128.507 49.2498 132.733 49.22C145.231 49.1072 157.715 49.0077 170.186 48.9215ZM110.662 58.8686C108.646 58.9731 106.623 58.9731 104.607 58.8686C100.959 58.6199 97.3798 58.222 92.9791 57.8142C99.9636 56.8195 105.979 57.5755 112.856 58.1027C111.726 58.5304 111.228 58.8686 110.662 58.8686Z" fill="white"/>
<path d="M180.814 19.0785C171.986 19.0785 163.158 19.1282 154.343 19.1879C139.957 19.2774 125.57 19.357 111.198 19.5261C103.607 19.6255 96.0174 19.914 88.4407 20.103L52.6837 20.9584C43.2633 21.1673 33.7083 21.3364 24.2206 21.5752C21.9328 21.6249 19.672 21.8636 17.3976 22.0128C15.8365 22.1123 14.6119 22.3212 14.1408 23.117C13.9525 23.4353 12.8758 23.6541 12.1895 23.9127L9 25.1462C9.69901 25.2877 10.4092 25.3973 11.1263 25.4744C16.8189 25.6137 22.498 25.8624 28.1772 25.8624C41.2042 25.8624 54.2448 25.7131 67.2718 25.6236C68.1388 25.5853 69.0075 25.6732 69.8287 25.8822C69.2728 26.0595 68.6899 26.1864 68.0927 26.2602C62.7096 26.4592 57.2996 26.6283 51.8627 26.7675C40.491 27.0858 29.1058 27.3743 17.7341 27.6827C15.6871 27.6579 13.6477 27.8728 11.6916 28.3193L11.6916 28.747C12.9297 28.8166 14.1678 28.9459 15.4059 28.9459C21.083 28.8573 26.7617 29.0534 32.4029 29.5328C34.655 29.6249 36.9139 29.518 39.1318 29.2145C40.4445 29.0524 41.7432 28.8332 43.021 28.558C46.5335 30.816 51.6609 30.9552 57.1247 30.9254C66.6123 30.9254 76.1 31.0149 85.5877 31.0249C90.8765 31.0249 96.1654 30.9155 101.454 30.9055C113.674 30.9055 125.889 30.9055 138.1 30.9055C139.038 30.9226 139.968 31.0433 140.858 31.2636C127.212 31.9698 113.432 31.572 99.4895 32.0096C99.8663 32.2285 99.9335 32.318 100.014 32.318C108.385 32.4374 116.527 33.6509 125.073 33.0839C128.491 32.8551 132.097 33.2033 135.61 33.2132C156.658 33.2132 177.705 33.2132 198.74 33.3425C213.113 33.442 227.485 33.9294 241.804 33.9891C258.088 34.0488 274.385 33.8499 290.656 33.7106C299.34 33.6443 308.021 33.515 316.696 33.3227C316.844 33.3227 316.952 33.3227 317.1 33.3227L320.693 32.6363C320.94 32.468 321.236 32.3451 321.559 32.2776C321.882 32.2102 322.221 32.2002 322.55 32.2484C325.121 31.7013 327.624 31.1045 330.019 30.4281C330.426 30.2928 330.881 30.2574 331.317 30.3273C331.753 30.3971 332.147 30.5684 332.442 30.816C342.576 28.0308 347.837 21.7642 347.501 16.9896C347.097 11.2203 350.516 5.72953 351 2.28882e-05C350.028 0.0685691 349.07 0.222156 348.147 0.45758C348.495 0.674873 348.807 0.921974 349.076 1.19367C349.681 1.99938 349.17 2.5962 347.366 2.62605C344.931 2.75375 342.531 3.12862 340.234 3.74011C338.117 4.31145 335.787 4.27238 333.707 3.63069C333.085 3.39354 332.4 3.26322 331.701 3.24944C331.001 3.23566 330.307 3.33878 329.67 3.55111C327.971 4.07951 326.122 4.29128 324.287 4.16783C323.751 4.1296 323.211 4.1531 322.685 4.23746C318.486 5.23217 313.938 4.89397 309.497 4.93375C294.855 5.07301 280.28 5.64994 265.665 5.92846C249.946 6.25671 234.201 6.30644 218.455 6.37607C209.506 6.37607 200.543 6.21691 191.54 6.18707C188.945 6.18574 186.359 6.39927 183.829 6.82368C184.636 6.87342 185.43 6.9729 186.224 6.96295C188.525 6.96295 190.84 6.8038 193.128 6.83364C194.104 6.85761 195.063 7.03388 195.941 7.35089C196.816 7.78497 197.822 8.05445 198.87 8.13593C199.918 8.2174 200.978 8.10839 201.956 7.81839C204.198 7.29104 206.605 7.29104 208.847 7.81839C211.167 8.23918 213.538 8.48908 215.925 8.56442C220.784 8.76336 225.669 8.8131 230.54 8.94241C232.075 8.94241 233.811 8.833 235.022 9.53924C234.134 10.4643 232.209 10.6135 230.594 10.4643C225.379 10.0762 220.122 10.1062 214.916 10.5538C213.435 10.5722 211.954 10.5024 210.488 10.345C209.745 10.2209 208.989 10.1476 208.227 10.1261C204.476 10.4543 200.69 10.5143 196.923 10.3052C195.2 10.2554 193.464 10.1659 191.728 10.156C189.723 10.156 187.691 10.156 185.713 10.2355C182.093 10.4245 178.513 10.8622 174.947 10.892C160.022 10.9915 145.084 10.892 130.16 11.0412C112.113 11.1805 94.0929 11.4491 76.1269 12.2647C59.1164 13.0505 42.0655 13.6076 24.9877 14.2541C21.4785 14.2978 17.9984 14.7338 14.6657 15.5472C19.6316 15.4577 24.5974 15.3483 29.5634 15.2787C31.4474 15.2787 33.3449 15.2787 35.2425 15.2787C38.4992 15.2787 41.756 15.398 44.9993 15.3483C52.576 15.2289 60.1661 15.0698 67.7293 14.8808C77.1497 14.6421 86.5701 14.9405 96.0712 14.7415C108.277 14.4929 120.497 14.4829 132.703 14.3735C142.46 14.284 152.217 14.1049 161.973 14.1348C180.276 14.1348 198.592 14.3536 216.894 14.4829C217.271 14.4829 217.634 14.5327 218.859 14.6321C163.521 15.1096 108.991 14.841 53.9218 16.6215C56.7344 17.2979 58.0802 17.3576 63.3421 17.2482C66.3163 17.1885 69.3039 17.1985 72.2915 17.1388C75.2791 17.0791 78.5089 16.9697 81.6311 16.9299C84.7533 16.8901 87.5256 16.9299 90.4863 17.0294C79.5856 17.6461 68.483 17.4571 57.6361 18.2727L57.6361 18.78C58.8876 18.78 60.1392 18.8596 61.3908 18.8298C70.4702 18.6574 79.5497 18.475 88.6291 18.2827C97.6996 18.0738 106.77 17.7456 115.841 17.6461C126.297 17.5367 136.754 17.6461 147.21 17.6461C156.16 17.6461 165.123 17.5765 174.126 17.6461C189.853 17.7257 205.585 17.8384 221.322 17.9843C224.538 17.9843 227.728 18.0937 230.944 18.1534L230.944 18.5712C226.718 18.6408 222.493 18.7502 218.267 18.7801C205.769 18.8928 193.285 18.9923 180.814 19.0785ZM240.338 9.13141C242.354 9.02696 244.377 9.02696 246.393 9.13141C250.041 9.38009 253.62 9.77797 258.021 10.1858C251.036 11.1805 245.021 10.4245 238.144 9.89734C239.274 9.46961 239.772 9.13141 240.338 9.13141Z" fill="white"/>
</mask>
<g mask="url(#mask0)">
<path fill-rule="evenodd" clip-rule="evenodd" d="M200 323C169.344 323 139.376 313.909 113.887 296.878C88.397 279.846 68.5303 255.638 56.7987 227.316C45.0672 198.993 41.9976 167.828 47.9783 137.761C53.9591 107.694 68.7213 80.0756 90.3984 58.3985C112.076 36.7214 139.694 21.9591 169.761 15.9783C199.828 9.99764 230.993 13.0672 259.316 24.7987C287.638 36.5303 311.846 56.397 328.878 81.8867C345.909 107.376 355 137.344 355 168C354.958 209.096 338.615 248.496 309.555 277.556C280.496 306.615 241.096 322.958 200 323ZM117.456 44.4887C128.468 37.1306 140.352 31.3187 152.775 27.1539L148.412 40.5635L200 78.0553L251.588 40.5635L247.257 27.203C268.812 34.4512 288.625 46.6158 305.008 62.9973C307.858 65.8468 310.581 68.8 313.172 71.8481L299.264 72.7863L283.536 134.598L337.483 168.57L348.321 159.538C348.484 162.348 348.568 165.17 348.571 168C348.574 191.049 343.216 213.693 333.028 234.178L326.572 221.574L263.66 231.62L253.83 294.532L266.41 300.922C263.289 302.482 260.107 303.934 256.869 305.276C229.722 316.524 199.849 319.469 171.027 313.738C157.963 311.141 145.381 306.814 133.592 300.923L146.191 294.532L136.361 231.62L73.4487 221.574L66.9898 234.214C61.1568 222.493 56.8674 209.99 54.2851 197.012C51.8182 184.613 50.9569 172.02 51.6715 159.532L62.5172 168.57L116.484 134.598L100.756 72.7863L86.7602 71.8421C95.6275 61.4017 105.943 52.1815 117.456 44.4887ZM144.166 149.873L165.497 215.518H234.523L255.855 149.873L200 109.295L144.166 149.873Z" fill="white"/>
</g>
</svg>
