<svg width="310" height="262" viewBox="0 0 310 262" fill="none" xmlns="http://www.w3.org/2000/svg">
<mask id="path-1-inside-1" fill="white">
<path fill-rule="evenodd" clip-rule="evenodd" d="M155 0H65.0313C63.7158 0.000839361 62.4168 0.39635 61.2283 1.15795C60.0398 1.91955 58.9916 3.02822 58.1593 4.40374C57.3271 5.77926 56.7317 7.38724 56.4161 9.11149C56.1006 10.8357 56.0728 12.6331 56.3347 14.3737C56.4225 14.9492 56.5117 15.5242 56.6023 16.0987L20.04 7.12607C17.0765 6.39606 14.0225 6.7429 11.191 8.13105C8.35955 9.51921 5.85239 11.8988 3.92638 15.0259C2.00037 18.153 0.724787 21.9152 0.230383 25.927C-0.26402 29.9389 0.0405659 34.056 1.11283 37.8566C6.07861 55.3191 15.5812 79.6263 32.6234 96.2464C52.9589 116.082 80.9525 119.986 97.2491 120.407C110.017 134.363 125.138 142.954 140.805 146.181V196.019H120.955C114.2 196.019 107.721 199.641 102.943 206.088C98.1653 212.535 95.4794 221.28 95.4759 230.4V261.288H214.525V230.4C214.525 225.884 213.865 221.411 212.585 217.239C211.304 213.066 209.427 209.276 207.061 206.083C204.695 202.89 201.886 200.358 198.795 198.631C195.704 196.904 192.391 196.017 189.046 196.019H169.209V146.195C184.901 142.979 200.051 134.381 212.84 120.403C229.111 119.963 257.077 115.981 277.39 96.2457C294.432 79.6256 303.921 55.3185 308.887 37.8559C309.959 34.0553 310.264 29.9382 309.77 25.9264C309.275 21.9146 308 18.1524 306.074 15.0253C304.148 11.8982 301.64 9.51854 298.809 8.13039C295.977 6.74223 292.923 6.3954 289.96 7.1254L253.494 16.0745C253.583 15.508 253.671 14.9411 253.757 14.3737C254.021 12.6342 253.995 10.8372 253.681 9.11288C253.368 7.38854 252.774 5.78006 251.942 4.40406C251.111 3.02807 250.063 1.91903 248.875 1.15731C247.687 0.395579 246.389 0.000255269 245.073 0H155ZM270.058 82.539C257.225 95.0543 240.192 100.23 226.22 102.266C230.219 95.5523 233.796 88.0932 236.858 79.8889C242.352 65.1959 246.806 49.852 250.168 34.0621L292.196 23.7456C292.983 23.5378 293.798 23.6241 294.551 23.9953C295.305 24.3664 295.969 25.0081 296.473 25.8515C296.985 26.6584 297.325 27.6389 297.456 28.6873C297.586 29.7356 297.503 30.8122 297.214 31.8011C292.846 47.1225 284.604 68.3583 270.058 82.539ZM83.8854 102.295C79.8804 95.5733 76.2986 88.1047 73.234 79.8889C67.7468 65.2011 63.2955 49.8653 59.9325 34.0849L17.804 23.7462C17.0168 23.5462 16.2041 23.6361 15.4515 24.0067C14.699 24.3773 14.0343 25.0148 13.5273 25.8522C13.0193 26.6627 12.6834 27.6438 12.5552 28.6913C12.4271 29.7389 12.5114 30.8137 12.7993 31.8017C17.1541 47.1231 25.3957 68.359 39.9421 82.5396C52.8118 95.085 69.8965 100.264 83.8854 102.295Z"/>
</mask>
<path d="M65.0313 0V-1L65.0307 -1L65.0313 0ZM61.2283 1.15795L61.7679 1.99991V1.9999L61.2283 1.15795ZM58.1593 4.40374L57.3038 3.88608L57.3038 3.88608L58.1593 4.40374ZM56.4161 9.11149L57.3998 9.29151V9.29151L56.4161 9.11149ZM56.3347 14.3737L55.3459 14.5225L55.3461 14.5245L56.3347 14.3737ZM56.6023 16.0987L56.3639 17.0699L57.8243 17.4283L57.5901 15.943L56.6023 16.0987ZM20.04 7.12607L19.8008 8.09704L19.8016 8.09725L20.04 7.12607ZM11.191 8.13105L10.7508 7.23315L11.191 8.13105ZM0.230383 25.927L1.22288 26.0494L0.230383 25.927ZM1.11283 37.8566L0.150395 38.1281L0.150962 38.1301L1.11283 37.8566ZM32.6234 96.2464L33.3217 95.5305L33.3216 95.5305L32.6234 96.2464ZM97.2491 120.407L97.9869 119.732L97.6999 119.418L97.2749 119.407L97.2491 120.407ZM140.805 146.181H141.805V145.366L141.007 145.202L140.805 146.181ZM140.805 196.019V197.019H141.805V196.019H140.805ZM102.943 206.088L102.14 205.492L102.943 206.088ZM95.4759 230.4L94.4759 230.4V230.4H95.4759ZM95.4759 261.288H94.4759V262.288H95.4759V261.288ZM214.525 261.288V262.288H215.525V261.288H214.525ZM212.585 217.239L213.541 216.945L212.585 217.239ZM207.061 206.083L207.865 205.487H207.865L207.061 206.083ZM198.795 198.631L198.307 199.504L198.795 198.631ZM189.046 196.019V197.019H189.046L189.046 196.019ZM169.209 196.019H168.209V197.019H169.209V196.019ZM169.209 146.195L169.008 145.216L168.209 145.379V146.195H169.209ZM212.84 120.403L212.813 119.403L212.389 119.415L212.102 119.728L212.84 120.403ZM277.39 96.2457L278.086 96.9629L278.088 96.9616L277.39 96.2457ZM308.887 37.8559L309.849 38.1295L309.85 38.1275L308.887 37.8559ZM309.77 25.9264L310.762 25.8041V25.8041L309.77 25.9264ZM306.074 15.0253L305.222 15.5497V15.5497L306.074 15.0253ZM298.809 8.13039L298.369 9.02829V9.02829L298.809 8.13039ZM289.96 7.1254L290.198 8.09659L290.199 8.09638L289.96 7.1254ZM253.494 16.0745L252.506 15.9191L252.272 17.404L253.732 17.0457L253.494 16.0745ZM253.757 14.3737L254.746 14.5242L254.746 14.5238L253.757 14.3737ZM253.681 9.11288L254.665 8.93379L253.681 9.11288ZM248.875 1.15731L248.336 1.99913L248.875 1.15731ZM245.073 0L245.074 -1H245.073V0ZM226.22 102.266L225.361 101.755L224.286 103.559L226.364 103.256L226.22 102.266ZM270.058 82.539L269.36 81.8229L269.36 81.8231L270.058 82.539ZM236.858 79.8889L235.921 79.5386L235.921 79.5392L236.858 79.8889ZM250.168 34.0621L249.93 33.0909L249.321 33.2405L249.19 33.8539L250.168 34.0621ZM292.196 23.7456L292.434 24.7167L292.443 24.7147L292.451 24.7125L292.196 23.7456ZM294.551 23.9953L294.993 23.0981V23.0981L294.551 23.9953ZM296.473 25.8515L295.614 26.364L295.621 26.376L295.629 26.3877L296.473 25.8515ZM297.456 28.6873L298.448 28.5637V28.5636L297.456 28.6873ZM297.214 31.8011L296.254 31.5206L296.252 31.5269L297.214 31.8011ZM73.234 79.8889L74.1709 79.5394L74.1707 79.5389L73.234 79.8889ZM83.8854 102.295L83.7418 103.284L85.8189 103.586L84.7445 101.783L83.8854 102.295ZM59.9325 34.0849L60.9106 33.8764L60.7799 33.2631L60.1709 33.1137L59.9325 34.0849ZM17.804 23.7462L17.5578 24.7155L17.5657 24.7174L17.804 23.7462ZM15.4515 24.0067L15.8933 24.9039L15.4515 24.0067ZM13.5273 25.8522L14.3746 26.3832L14.3787 26.3767L14.3827 26.3701L13.5273 25.8522ZM12.5552 28.6913L13.5478 28.8128L12.5552 28.6913ZM12.7993 31.8017L13.7612 31.5283L13.7594 31.522L12.7993 31.8017ZM39.9421 82.5396L39.244 83.2557L39.2441 83.2557L39.9421 82.5396ZM65.0313 1H155V-1H65.0313V1ZM61.7679 1.9999C62.8077 1.33353 63.9215 1.00071 65.032 1L65.0307 -1C63.5101 -0.99903 62.0258 -0.540834 60.6888 0.315994L61.7679 1.9999ZM59.0149 4.9214C59.7791 3.65845 60.725 2.6682 61.7679 1.99991L60.6888 0.315993C59.3547 1.1709 58.2041 2.39798 57.3038 3.88608L59.0149 4.9214ZM57.3998 9.29151C57.6955 7.67585 58.251 6.18409 59.0149 4.9214L57.3038 3.88608C56.4032 5.37444 55.7679 7.09863 55.4325 8.93146L57.3998 9.29151ZM57.3236 14.2248C57.078 12.593 57.1042 10.9067 57.3998 9.29151L55.4325 8.93146C55.0969 10.7647 55.0675 12.6733 55.3459 14.5225L57.3236 14.2248ZM57.5901 15.943C57.4997 15.3701 57.4108 14.7967 57.3233 14.2229L55.3461 14.5245C55.4342 15.1016 55.5236 15.6783 55.6145 16.2545L57.5901 15.943ZM19.8016 8.09725L56.3639 17.0699L56.8406 15.1275L20.2783 6.15488L19.8016 8.09725ZM11.6312 9.02895C14.2595 7.74043 17.0735 7.4252 19.8008 8.09704L20.2792 6.15509C17.0796 5.36692 13.7855 5.74536 10.7508 7.23315L11.6312 9.02895ZM4.77784 15.5504C6.62141 12.5571 8.99573 10.321 11.6312 9.02895L10.7508 7.23315C7.72337 8.71739 5.08337 11.2406 3.07492 14.5015L4.77784 15.5504ZM1.22288 26.0494C1.70149 22.1657 2.93448 18.5433 4.77784 15.5504L3.07492 14.5015C1.06626 17.7628 -0.251914 21.6648 -0.762108 25.8047L1.22288 26.0494ZM2.07526 37.5851C1.03996 33.9155 0.744344 29.9324 1.22288 26.0494L-0.762108 25.8047C-1.27238 29.9453 -0.95883 34.1965 0.150397 38.1281L2.07526 37.5851ZM33.3216 95.5305C16.4694 79.0957 7.02599 54.9947 2.07469 37.5831L0.150962 38.1301C5.13123 55.6436 14.6929 80.1568 31.9252 96.9623L33.3216 95.5305ZM97.2749 119.407C81.0598 118.989 53.3836 115.099 33.3217 95.5305L31.9252 96.9622C52.5342 117.065 80.8453 120.984 97.2233 121.406L97.2749 119.407ZM141.007 145.202C125.564 142.021 110.625 133.546 97.9869 119.732L96.5113 121.082C109.408 135.179 124.712 143.887 140.603 147.161L141.007 145.202ZM141.805 196.019V146.181H139.805V196.019H141.805ZM120.955 197.019H140.805V195.019H120.955V197.019ZM103.747 206.683C108.376 200.437 114.578 197.019 120.955 197.019V195.019C113.821 195.019 107.066 198.845 102.14 205.492L103.747 206.683ZM96.4759 230.4C96.4793 221.464 99.1133 212.935 103.747 206.683L102.14 205.492C97.2172 212.135 94.4794 221.096 94.4759 230.4L96.4759 230.4ZM96.4759 261.288V230.4H94.4759V261.288H96.4759ZM214.525 260.288H95.4759V262.288H214.525V260.288ZM213.525 230.4V261.288H215.525V230.4H213.525ZM211.629 217.532C212.879 221.606 213.525 225.979 213.525 230.4H215.525C215.525 225.788 214.852 221.216 213.541 216.945L211.629 217.532ZM206.258 206.678C208.55 209.771 210.378 213.458 211.629 217.532L213.541 216.945C212.23 212.675 210.305 208.78 207.865 205.487L206.258 206.678ZM198.307 199.504C201.261 201.154 203.966 203.585 206.258 206.678L207.865 205.487C205.425 202.195 202.512 199.562 199.283 197.758L198.307 199.504ZM189.046 197.019C192.211 197.017 195.357 197.856 198.307 199.504L199.283 197.758C196.051 195.953 192.571 195.017 189.045 195.019L189.046 197.019ZM169.209 197.019H189.046V195.019H169.209V197.019ZM168.209 146.195V196.019H170.209V146.195H168.209ZM212.102 119.728C199.443 133.565 184.476 142.045 169.008 145.216L169.409 147.175C185.327 143.912 200.66 135.198 213.578 121.078L212.102 119.728ZM276.693 95.5285C256.653 115 229.001 118.966 212.813 119.403L212.867 121.403C229.221 120.961 257.502 116.963 278.086 96.9629L276.693 95.5285ZM307.925 37.5824C302.974 54.9944 293.543 79.0952 276.691 95.5298L278.088 96.9616C295.32 80.156 304.869 55.6425 309.849 38.1295L307.925 37.5824ZM308.777 26.0487C309.256 29.9317 308.96 33.9148 307.925 37.5844L309.85 38.1275C310.959 34.1958 311.272 29.9447 310.762 25.8041L308.777 26.0487ZM305.222 15.5497C307.066 18.5426 308.298 22.165 308.777 26.0487L310.762 25.8041C310.252 21.6641 308.934 17.7621 306.925 14.5008L305.222 15.5497ZM298.369 9.02829C301.004 10.3204 303.379 12.5564 305.222 15.5497L306.925 14.5009C304.917 11.2399 302.277 8.71672 299.249 7.23249L298.369 9.02829ZM290.199 8.09638C292.927 7.42454 295.74 7.73977 298.369 9.02829L299.249 7.23249C296.214 5.7447 292.92 5.36625 289.721 6.15443L290.199 8.09638ZM253.732 17.0457L290.198 8.09659L289.722 6.15422L253.255 15.1033L253.732 17.0457ZM252.768 14.2232C252.682 14.7889 252.595 15.3542 252.506 15.9191L254.481 16.23C254.571 15.6618 254.659 15.0932 254.746 14.5242L252.768 14.2232ZM252.698 9.29196C252.992 10.9072 253.016 12.5929 252.768 14.2235L254.746 14.5238C255.026 12.6756 254.999 10.7673 254.665 8.93379L252.698 9.29196ZM251.086 4.92116C251.849 6.18417 252.404 7.67631 252.698 9.29196L254.665 8.93379C254.332 7.10077 253.698 5.37594 252.798 3.88697L251.086 4.92116ZM248.336 1.99913C249.378 2.66743 250.323 3.65788 251.086 4.92116L252.798 3.88697C251.899 2.39826 250.749 1.17064 249.415 0.315478L248.336 1.99913ZM245.073 1C246.183 1.00022 247.296 1.33277 248.336 1.99913L249.415 0.315478C248.078 -0.54161 246.594 -0.999705 245.074 -1L245.073 1ZM155 1H245.073V-1H155V1ZM226.364 103.256C240.437 101.205 257.709 95.979 270.756 83.2549L269.36 81.8231C256.741 94.1295 239.947 99.2548 226.076 101.277L226.364 103.256ZM235.921 79.5392C232.879 87.6906 229.327 95.0951 225.361 101.755L227.079 102.778C231.111 96.0096 234.713 88.4958 237.795 80.2385L235.921 79.5392ZM249.19 33.8539C245.838 49.597 241.397 64.8934 235.921 79.5386L237.794 80.2391C243.306 65.4985 247.774 50.107 251.146 34.2704L249.19 33.8539ZM291.958 22.7744L249.93 33.0909L250.406 35.0333L292.434 24.7167L291.958 22.7744ZM294.993 23.0981C294.031 22.6242 292.969 22.5073 291.941 22.7787L292.451 24.7125C292.997 24.5683 293.565 24.6241 294.11 24.8924L294.993 23.0981ZM297.331 25.339C296.746 24.3584 295.948 23.5681 294.993 23.0981L294.11 24.8924C294.663 25.1646 295.193 25.6579 295.614 26.364L297.331 25.339ZM298.448 28.5636C298.301 27.3841 297.917 26.2597 297.317 25.3153L295.629 26.3877C296.054 27.0572 296.349 27.8937 296.464 28.8109L298.448 28.5636ZM298.174 32.0816C298.502 30.9582 298.595 29.744 298.448 28.5637L296.464 28.8108C296.578 29.7272 296.504 30.6661 296.254 31.5206L298.174 32.0816ZM270.756 83.255C285.495 68.8867 293.795 47.4409 298.175 32.0752L296.252 31.5269C291.897 46.804 283.714 67.83 269.36 81.8229L270.756 83.255ZM72.297 80.2383C75.3814 88.5073 78.9888 96.0306 83.0264 102.807L84.7445 101.783C80.772 95.116 77.2157 87.7021 74.1709 79.5394L72.297 80.2383ZM58.9545 34.2933C62.3274 50.1203 66.7923 65.5036 72.2972 80.2388L74.1707 79.5389C68.7013 64.8987 64.2636 49.6103 60.9106 33.8764L58.9545 34.2933ZM17.5657 24.7174L59.6942 35.056L60.1709 33.1137L18.0424 22.775L17.5657 24.7174ZM15.8933 24.9039C16.44 24.6347 17.0092 24.576 17.5578 24.7154L18.0503 22.777C17.0244 22.5164 15.9682 22.6376 15.0098 23.1096L15.8933 24.9039ZM14.3827 26.3701C14.8076 25.6682 15.339 25.1768 15.8933 24.9039L15.0098 23.1096C14.059 23.5778 13.2609 24.3614 12.6718 25.3342L14.3827 26.3701ZM13.5478 28.8128C13.6601 27.8956 13.9523 27.0572 14.3746 26.3832L12.6799 25.3212C12.0864 26.2683 11.7068 27.392 11.5626 28.5699L13.5478 28.8128ZM13.7594 31.522C13.5104 30.6675 13.4357 29.7293 13.5478 28.8128L11.5626 28.5699C11.4184 29.7485 11.5125 30.96 11.8392 32.0815L13.7594 31.522ZM40.6401 81.8236C26.2864 67.8307 18.1032 46.8047 13.7612 31.5283L11.8374 32.0751C16.205 47.4416 24.5051 68.8873 39.244 83.2557L40.6401 81.8236ZM84.0291 101.305C70.1408 99.2887 53.2955 94.16 40.6401 81.8235L39.2441 83.2557C52.3281 96.01 69.6522 101.239 83.7418 103.284L84.0291 101.305Z" fill="white" mask="url(#path-1-inside-1)"/>
</svg>
