<svg width="252" height="380" viewBox="0 0 252 380" fill="none" xmlns="http://www.w3.org/2000/svg">
<mask id="path-1-inside-1" fill="white">
<path fill-rule="evenodd" clip-rule="evenodd" d="M30.9295 103.47V179.1H135.097V185.617H30.9295V348.475C33.5723 350.998 35.3987 354.256 36.1734 357.827C36.9481 361.398 36.6356 365.119 35.2761 368.511C33.9167 371.903 31.5726 374.81 28.546 376.858C25.5193 378.906 21.9489 380 18.2947 380C14.6404 380 11.0699 378.906 8.04327 376.858C5.01662 374.81 2.67254 371.903 1.31311 368.511C-0.0463302 365.119 -0.358855 361.398 0.415862 357.827C1.19058 354.256 3.01705 350.998 5.65982 348.475V12.6349C5.65982 9.28393 6.99097 6.07014 9.36046 3.70064C11.73 1.33115 14.9437 0 18.2947 0C21.6456 0 24.8593 1.33115 27.2288 3.70064C29.5983 6.07014 30.9295 9.28393 30.9295 12.6349V21.3039H135.097H251.88H251.9V103.45H245.383V27.8206H135.097L135.097 103.45H251.88V185.617L135.097 185.617V103.47H30.9295Z"/>
</mask>
<path d="M30.9295 179.1H29.9295V180.1H30.9295V179.1ZM30.9295 103.47V102.47H29.9295V103.47H30.9295ZM135.097 179.1H136.097V178.1H135.097V179.1ZM135.097 185.617V186.617H136.097V185.617H135.097ZM30.9295 185.617V184.617H29.9295V185.617H30.9295ZM30.9295 348.475H29.9295V348.902L30.2389 349.198L30.9295 348.475ZM36.1734 357.827L37.1507 357.615L36.1734 357.827ZM35.2761 368.511L36.2044 368.883H36.2044L35.2761 368.511ZM28.546 376.858L27.9856 376.03H27.9856L28.546 376.858ZM8.04327 376.858L8.60362 376.03H8.60361L8.04327 376.858ZM1.31311 368.511L0.384881 368.883H0.384882L1.31311 368.511ZM5.65982 348.475L6.35045 349.198L6.65982 348.902V348.475H5.65982ZM9.36046 3.70064L8.65335 2.99354L9.36046 3.70064ZM30.9295 21.3039H29.9295V22.3039H30.9295V21.3039ZM251.9 21.3039H252.9V20.3039H251.9V21.3039ZM251.9 103.45V104.45H252.9V103.45H251.9ZM245.383 103.45H244.383V104.45H245.383V103.45ZM245.383 27.8206H246.383V26.8206H245.383V27.8206ZM135.097 27.8206V26.8206H134.097V27.8206H135.097ZM135.097 103.45H134.097V104.45H135.097V103.45ZM251.88 103.45H252.88V102.45H251.88V103.45ZM251.88 185.617V186.617H252.88V185.617H251.88ZM135.097 185.617H134.097V186.617H135.097V185.617ZM135.097 103.47H136.097V102.47H135.097V103.47ZM31.9295 179.1V103.47H29.9295V179.1H31.9295ZM135.097 178.1H30.9295V180.1H135.097V178.1ZM136.097 185.617V179.1H134.097V185.617H136.097ZM30.9295 186.617H135.097V184.617H30.9295V186.617ZM31.9295 348.475V185.617H29.9295V348.475H31.9295ZM37.1507 357.615C36.3336 353.849 34.4074 350.413 31.6201 347.751L30.2389 349.198C32.7372 351.584 34.4637 354.663 35.1961 358.039L37.1507 357.615ZM36.2044 368.883C37.6381 365.306 37.9677 361.381 37.1507 357.615L35.1961 358.039C35.9285 361.415 35.633 364.933 34.3479 368.139L36.2044 368.883ZM29.1063 377.686C32.2984 375.527 34.7706 372.461 36.2044 368.883L34.3479 368.139C33.0628 371.346 30.8468 374.094 27.9856 376.03L29.1063 377.686ZM18.2947 381C22.1486 381 25.9143 379.846 29.1063 377.686L27.9856 376.03C25.1244 377.966 21.7491 379 18.2947 379V381ZM7.48291 377.686C10.675 379.846 14.4407 381 18.2947 381V379C14.8402 379 11.4648 377.966 8.60362 376.03L7.48291 377.686ZM0.384882 368.883C1.81863 372.461 4.29084 375.527 7.48292 377.686L8.60361 376.03C5.7424 374.094 3.52646 371.346 2.24133 368.139L0.384882 368.883ZM-0.561406 357.615C-1.37847 361.381 -1.04886 365.306 0.384881 368.883L2.24133 368.139C0.956201 364.933 0.660762 361.415 1.39313 358.039L-0.561406 357.615ZM4.96918 347.751C2.18196 350.413 0.255657 353.849 -0.561406 357.615L1.39313 358.039C2.1255 354.663 3.85214 351.584 6.35045 349.198L4.96918 347.751ZM4.65982 12.6349V348.475H6.65982V12.6349H4.65982ZM8.65335 2.99354C6.09631 5.55057 4.65982 9.01872 4.65982 12.6349H6.65982C6.65982 9.54914 7.88562 6.5897 10.0676 4.40775L8.65335 2.99354ZM18.2947 -1C14.6785 -1 11.2104 0.436502 8.65335 2.99354L10.0676 4.40775C12.2495 2.2258 15.2089 1 18.2947 1V-1ZM27.9359 2.99354C25.3789 0.436506 21.9108 -1 18.2947 -1V1C21.3804 1 24.3397 2.22579 26.5217 4.40775L27.9359 2.99354ZM31.9295 12.6349C31.9295 9.01871 30.4929 5.55056 27.9359 2.99354L26.5217 4.40775C28.7036 6.58971 29.9295 9.54915 29.9295 12.6349H31.9295ZM31.9295 21.3039V12.6349H29.9295V21.3039H31.9295ZM135.097 20.3039H30.9295V22.3039H135.097V20.3039ZM251.88 20.3039H135.097V22.3039H251.88V20.3039ZM251.9 20.3039H251.88V22.3039H251.9V20.3039ZM252.9 103.45V21.3039H250.9V103.45H252.9ZM245.383 104.45H251.9V102.45H245.383V104.45ZM244.383 27.8206V103.45H246.383V27.8206H244.383ZM135.097 28.8206H245.383V26.8206H135.097V28.8206ZM136.097 103.45L136.097 27.8206H134.097L134.097 103.45H136.097ZM251.88 102.45H135.097V104.45H251.88V102.45ZM252.88 185.617V103.45H250.88V185.617H252.88ZM135.097 186.617L251.88 186.617V184.617L135.097 184.617V186.617ZM134.097 103.47V185.617H136.097V103.47H134.097ZM30.9295 104.47H135.097V102.47H30.9295V104.47Z" fill="white" mask="url(#path-1-inside-1)"/>
</svg>
