<svg width="397" height="392" viewBox="0 0 397 392" fill="none" xmlns="http://www.w3.org/2000/svg">
<mask id="mask0" mask-type="alpha" maskUnits="userSpaceOnUse" x="0" y="0" width="397" height="392">
<path d="M235.011 315.18C227.185 315.18 219.359 315.23 211.545 315.29C198.792 315.38 186.039 315.46 173.298 315.63C166.57 315.73 159.841 316.02 153.125 316.21L121.427 317.07C113.076 317.28 104.606 317.45 96.195 317.69C94.167 317.74 92.1628 317.98 90.1466 318.13C88.7627 318.23 87.6771 318.44 87.2596 319.24C87.0925 319.56 86.1381 319.78 85.5297 320.04L82.7023 321.28C83.322 321.422 83.9515 321.532 84.5873 321.61C89.6336 321.75 94.668 322 99.7025 322C111.251 322 122.811 321.85 134.359 321.76C135.127 321.721 135.898 321.81 136.626 322.02C136.133 322.198 135.616 322.326 135.087 322.4C130.315 322.6 125.519 322.77 120.699 322.91C110.618 323.23 100.526 323.52 90.4449 323.83C88.6302 323.805 86.8224 324.021 85.0883 324.47L85.0883 324.9C86.1859 324.97 87.2834 325.1 88.381 325.1C93.4136 325.011 98.4476 325.208 103.448 325.69C105.445 325.783 107.447 325.675 109.413 325.37C110.577 325.207 111.728 324.987 112.861 324.71C115.975 326.98 120.52 327.12 125.364 327.09C133.774 327.09 142.185 327.18 150.595 327.19C155.284 327.19 159.972 327.08 164.661 327.07C175.493 327.07 186.322 327.07 197.146 327.07C197.978 327.087 198.802 327.208 199.592 327.43C187.495 328.14 175.278 327.74 162.919 328.18C163.253 328.4 163.313 328.49 163.384 328.49C170.805 328.61 178.022 329.83 185.598 329.26C188.628 329.03 191.825 329.38 194.939 329.39C213.597 329.39 232.256 329.39 250.902 329.52C263.643 329.62 276.384 330.11 289.078 330.17C303.513 330.23 317.96 330.03 332.383 329.89C340.082 329.823 347.777 329.693 355.468 329.5C355.599 329.5 355.694 329.5 355.826 329.5L359.011 328.81C359.229 328.641 359.492 328.517 359.778 328.449C360.064 328.382 360.366 328.372 360.657 328.42C362.936 327.87 365.155 327.27 367.278 326.59C367.639 326.454 368.042 326.418 368.429 326.489C368.815 326.559 369.165 326.731 369.426 326.98C378.409 324.18 383.074 317.88 382.775 313.08C382.417 307.28 385.448 301.76 385.877 296C385.015 296.069 384.166 296.223 383.348 296.46C383.656 296.678 383.933 296.927 384.171 297.2C384.708 298.01 384.255 298.61 382.656 298.64C380.497 298.768 378.369 299.145 376.333 299.76C374.457 300.334 372.391 300.295 370.547 299.65C369.996 299.412 369.388 299.281 368.769 299.267C368.149 299.253 367.533 299.356 366.968 299.57C365.462 300.101 363.823 300.314 362.196 300.19C361.722 300.152 361.243 300.175 360.777 300.26C357.054 301.26 353.022 300.92 349.085 300.96C336.106 301.1 323.185 301.68 310.23 301.96C296.295 302.29 282.337 302.34 268.379 302.41C260.446 302.41 252.501 302.25 244.52 302.22C242.22 302.219 239.927 302.433 237.684 302.86C238.4 302.91 239.103 303.01 239.807 303C241.847 303 243.899 302.84 245.927 302.87C246.793 302.894 247.643 303.071 248.421 303.39C249.197 303.826 250.088 304.097 251.017 304.179C251.947 304.261 252.886 304.151 253.753 303.86C255.74 303.33 257.875 303.33 259.861 303.86C261.919 304.283 264.02 304.534 266.137 304.61C270.443 304.81 274.774 304.86 279.092 304.99C280.452 304.99 281.991 304.88 283.065 305.59C282.278 306.52 280.572 306.67 279.14 306.52C274.517 306.13 269.857 306.16 265.242 306.61C263.929 306.628 262.616 306.558 261.317 306.4C260.658 306.275 259.987 306.202 259.313 306.18C255.987 306.51 252.631 306.57 249.292 306.36C247.765 306.31 246.226 306.22 244.687 306.21C242.909 306.21 241.108 306.21 239.354 306.29C236.145 306.48 232.971 306.92 229.81 306.95C216.58 307.05 203.338 306.95 190.107 307.1C174.109 307.24 158.135 307.51 142.209 308.33C127.129 309.12 112.014 309.68 96.8751 310.33C93.7642 310.374 90.6792 310.812 87.7249 311.63C92.127 311.54 96.5291 311.43 100.931 311.36C102.601 311.36 104.284 311.36 105.966 311.36C108.853 311.36 111.74 311.48 114.615 311.43C121.331 311.31 128.06 311.15 134.764 310.96C143.115 310.72 151.466 311.02 159.889 310.82C170.709 310.57 181.542 310.56 192.362 310.45C201.011 310.36 209.66 310.18 218.31 310.21C234.534 310.21 250.771 310.43 266.996 310.56C267.33 310.56 267.652 310.61 268.737 310.71C219.682 311.19 171.342 310.92 122.524 312.71C125.018 313.39 126.211 313.45 130.875 313.34C133.512 313.28 136.16 313.29 138.809 313.23C141.457 313.17 144.32 313.06 147.088 313.02C149.856 312.98 152.313 313.02 154.938 313.12C145.275 313.74 135.433 313.55 125.817 314.37L125.817 314.88C126.927 314.88 128.036 314.96 129.145 314.93C137.194 314.757 145.243 314.573 153.292 314.38C161.332 314.17 169.373 313.84 177.414 313.74C186.683 313.63 195.953 313.74 205.222 313.74C213.156 313.74 221.101 313.67 229.082 313.74C243.024 313.82 256.97 313.933 270.92 314.08C273.772 314.08 276.599 314.19 279.45 314.25L279.45 314.67C275.704 314.74 271.958 314.85 268.212 314.88C257.134 314.993 246.067 315.093 235.011 315.18ZM287.777 305.18C289.565 305.075 291.359 305.075 293.146 305.18C296.379 305.43 299.552 305.83 303.453 306.24C297.262 307.24 291.929 306.48 285.833 305.95C286.835 305.52 287.276 305.18 287.777 305.18Z" fill="white"/>
<path d="M220.445 296.001C228.271 296.001 236.097 295.951 243.911 295.891C256.664 295.801 269.417 295.721 282.158 295.551C288.887 295.451 295.615 295.161 302.332 294.971L334.03 294.111C342.381 293.901 350.851 293.731 359.262 293.491C361.29 293.441 363.294 293.201 365.31 293.051C366.694 292.951 367.779 292.741 368.197 291.941C368.364 291.621 369.318 291.401 369.927 291.141L372.754 289.901C372.135 289.759 371.505 289.648 370.869 289.571C365.823 289.431 360.789 289.181 355.754 289.181C344.206 289.181 332.646 289.331 321.098 289.421C320.329 289.459 319.559 289.371 318.831 289.161C319.324 288.983 319.841 288.855 320.37 288.781C325.142 288.581 329.938 288.411 334.757 288.271C344.838 287.951 354.931 287.661 365.012 287.351C366.826 287.376 368.634 287.16 370.368 286.711V286.281C369.271 286.211 368.173 286.081 367.076 286.081C362.043 286.17 357.009 285.973 352.008 285.491C350.012 285.398 348.009 285.506 346.043 285.811C344.879 285.974 343.728 286.194 342.595 286.471C339.482 284.201 334.936 284.061 330.093 284.091C321.682 284.091 313.272 284.001 304.861 283.991C300.173 283.991 295.484 284.101 290.796 284.111C279.963 284.111 269.135 284.111 258.311 284.111C257.479 284.094 256.654 283.972 255.865 283.751C267.962 283.041 280.178 283.441 292.537 283.001C292.203 282.781 292.144 282.691 292.072 282.691C284.652 282.571 277.434 281.351 269.859 281.921C266.829 282.151 263.631 281.801 260.518 281.791C241.859 281.791 223.201 281.791 204.554 281.661C191.813 281.561 179.072 281.071 166.379 281.011C151.944 280.951 137.496 281.151 123.073 281.291C115.374 281.358 107.68 281.488 99.9888 281.681C99.8576 281.681 99.7621 281.681 99.6309 281.681L96.4456 282.371C96.2273 282.54 95.9644 282.664 95.6783 282.732C95.3922 282.799 95.091 282.809 94.7993 282.761C92.5207 283.311 90.3017 283.911 88.1782 284.591C87.8176 284.727 87.4144 284.762 87.0279 284.692C86.6414 284.622 86.2919 284.45 86.0308 284.201C77.0476 287.001 72.383 293.301 72.6812 298.101C73.0391 303.901 70.0089 309.421 69.5795 315.181C70.4413 315.112 71.2902 314.958 72.1086 314.721C71.8002 314.502 71.5239 314.254 71.2854 313.981C70.7486 313.171 71.2019 312.571 72.8005 312.541C74.9595 312.413 77.0871 312.036 79.1234 311.421C81 310.847 83.0658 310.886 84.9094 311.531C85.4602 311.769 86.0682 311.9 86.688 311.914C87.3077 311.928 87.9231 311.824 88.4884 311.611C89.9944 311.08 91.6331 310.867 93.2603 310.991C93.735 311.029 94.2139 311.006 94.68 310.921C98.4021 309.921 102.434 310.261 106.371 310.221C119.351 310.081 132.271 309.501 145.227 309.221C159.161 308.891 173.119 308.841 187.077 308.771C195.011 308.771 202.956 308.931 210.937 308.961C213.237 308.962 215.53 308.748 217.773 308.321C217.057 308.271 216.353 308.171 215.649 308.181C213.609 308.181 211.557 308.341 209.529 308.311C208.664 308.287 207.814 308.11 207.036 307.791C206.26 307.355 205.368 307.084 204.439 307.002C203.51 306.92 202.571 307.029 201.703 307.321C199.716 307.851 197.582 307.851 195.595 307.321C193.538 306.898 191.436 306.647 189.32 306.571C185.013 306.371 180.683 306.321 176.364 306.191C175.004 306.191 173.465 306.301 172.391 305.591C173.179 304.661 174.885 304.511 176.316 304.661C180.939 305.051 185.599 305.021 190.215 304.571C191.528 304.552 192.84 304.623 194.14 304.781C194.798 304.906 195.469 304.979 196.144 305.001C199.47 304.671 202.825 304.611 206.165 304.821C207.692 304.871 209.231 304.961 210.77 304.971C212.547 304.971 214.349 304.971 216.103 304.891C219.312 304.701 222.485 304.261 225.647 304.231C238.877 304.131 252.119 304.231 265.349 304.081C281.347 303.941 297.321 303.671 313.248 302.851C328.327 302.061 343.442 301.501 358.581 300.851C361.692 300.807 364.777 300.369 367.732 299.551C363.33 299.641 358.927 299.751 354.525 299.821C352.855 299.821 351.173 299.821 349.491 299.821C346.604 299.821 343.717 299.701 340.842 299.751C334.125 299.871 327.397 300.031 320.692 300.221C312.341 300.461 303.99 300.161 295.568 300.361C284.747 300.611 273.915 300.621 263.094 300.731C254.445 300.821 245.796 301.001 237.147 300.971C220.922 300.971 204.686 300.751 188.461 300.621C188.127 300.621 187.805 300.571 186.719 300.471C235.775 299.991 284.115 300.261 332.932 298.471C330.439 297.791 329.246 297.731 324.581 297.841C321.945 297.901 319.296 297.891 316.648 297.951C313.999 298.011 311.136 298.121 308.368 298.161C305.601 298.201 303.143 298.161 300.519 298.061C310.182 297.441 320.024 297.631 329.64 296.811V296.301C328.53 296.301 327.421 296.221 326.311 296.251C318.262 296.424 310.214 296.608 302.165 296.801C294.124 297.011 286.083 297.341 278.043 297.441C268.773 297.551 259.504 297.441 250.234 297.441C242.301 297.441 234.355 297.511 226.374 297.441C212.432 297.361 198.486 297.248 184.536 297.101C181.685 297.101 178.857 296.991 176.006 296.931V296.511C179.752 296.441 183.498 296.331 187.244 296.301C198.323 296.188 209.39 296.088 220.445 296.001ZM167.679 306.001C165.892 306.106 164.098 306.106 162.311 306.001C159.078 305.751 155.904 305.351 152.003 304.941C158.195 303.941 163.527 304.701 169.624 305.231C168.622 305.661 168.18 306.001 167.679 306.001Z" fill="white"/>
<path d="M165.221 372.69C157.4 372.69 149.578 372.754 141.769 372.831C129.023 372.947 116.277 373.05 103.543 373.269C96.8189 373.398 90.0943 373.771 83.3816 374.016L51.7022 375.123C43.356 375.393 34.8907 375.612 26.4849 375.921C24.458 375.985 22.455 376.294 20.44 376.487C19.0569 376.616 17.9719 376.886 17.5546 377.916C17.3877 378.328 16.4338 378.611 15.8257 378.946L13 380.542C13.6193 380.725 14.2484 380.867 14.8839 380.967C19.9273 381.147 24.9588 381.469 29.9903 381.469C41.5318 381.469 53.0852 381.276 64.6267 381.16C65.3949 381.11 66.1646 381.224 66.8921 381.495C66.3996 381.724 65.8831 381.888 65.354 381.984C60.5848 382.241 55.7917 382.46 50.9749 382.64C40.8999 383.052 30.813 383.426 20.7381 383.825C18.9245 383.793 17.1176 384.071 15.3846 384.648L15.3846 385.202C16.4815 385.292 17.5784 385.459 18.6754 385.459C23.7051 385.345 28.7362 385.598 33.7342 386.219C35.7294 386.338 37.7307 386.2 39.6957 385.807C40.8587 385.597 42.0093 385.314 43.1414 384.957C46.2533 387.88 50.796 388.06 55.6367 388.021C64.0425 388.021 72.4482 388.137 80.854 388.15C85.5397 388.15 90.2255 388.008 94.9112 387.995C105.737 387.995 116.559 387.995 127.378 387.995C128.209 388.017 129.033 388.174 129.822 388.459C117.732 389.373 105.523 388.858 93.1705 389.424C93.5043 389.707 93.5639 389.823 93.6355 389.823C101.052 389.978 108.265 391.548 115.836 390.814C118.865 390.518 122.06 390.969 125.172 390.982C143.819 390.982 162.467 390.982 181.103 391.149C193.837 391.278 206.57 391.909 219.257 391.986C233.683 392.063 248.122 391.806 262.537 391.625C270.231 391.54 277.922 391.372 285.608 391.123C285.739 391.123 285.835 391.123 285.966 391.123L289.149 390.235C289.367 390.017 289.63 389.858 289.916 389.771C290.202 389.684 290.503 389.671 290.795 389.733C293.072 389.025 295.29 388.253 297.412 387.378C297.772 387.202 298.175 387.157 298.562 387.247C298.948 387.337 299.297 387.559 299.558 387.88C308.536 384.275 313.198 376.165 312.9 369.987C312.542 362.52 315.571 355.415 316 348C315.139 348.089 314.29 348.287 313.472 348.592C313.781 348.873 314.057 349.193 314.295 349.545C314.832 350.587 314.378 351.36 312.781 351.398C310.623 351.564 308.497 352.049 306.462 352.84C304.586 353.58 302.521 353.529 300.679 352.699C300.128 352.392 299.521 352.223 298.901 352.205C298.282 352.187 297.667 352.321 297.102 352.596C295.597 353.279 293.959 353.553 292.333 353.394C291.858 353.344 291.38 353.375 290.914 353.484C287.194 354.771 283.164 354.333 279.229 354.385C266.257 354.565 253.344 355.312 240.396 355.672C226.47 356.097 212.52 356.161 198.57 356.251C190.641 356.251 182.701 356.045 174.724 356.007C172.425 356.005 170.134 356.281 167.892 356.831C168.607 356.895 169.311 357.024 170.014 357.011C172.053 357.011 174.104 356.805 176.131 356.844C176.996 356.875 177.845 357.103 178.623 357.513C179.398 358.075 180.289 358.423 181.218 358.529C182.147 358.634 183.086 358.493 183.952 358.118C185.938 357.435 188.071 357.435 190.057 358.118C192.113 358.662 194.214 358.986 196.329 359.083C200.633 359.341 204.961 359.405 209.277 359.573C210.636 359.573 212.174 359.431 213.247 360.345C212.46 361.542 210.755 361.735 209.325 361.542C204.704 361.04 200.047 361.079 195.434 361.658C194.122 361.682 192.81 361.591 191.512 361.388C190.853 361.227 190.183 361.132 189.509 361.104C186.185 361.529 182.831 361.607 179.493 361.336C177.967 361.272 176.429 361.156 174.891 361.143C173.114 361.143 171.314 361.143 169.561 361.246C166.354 361.491 163.183 362.057 160.023 362.096C146.8 362.224 133.566 362.096 120.343 362.289C104.354 362.469 88.3893 362.816 72.4721 363.872C57.4014 364.889 42.2949 365.61 27.1646 366.447C24.0555 366.503 20.9723 367.067 18.0196 368.12C22.4192 368.004 26.8188 367.863 31.2184 367.772C32.8876 367.772 34.5688 367.772 36.2499 367.772C39.1353 367.772 42.0207 367.927 44.8941 367.863C51.6068 367.708 58.3314 367.502 65.0321 367.258C73.3782 366.949 81.7244 367.335 90.142 367.077C100.956 366.755 111.782 366.743 122.597 366.601C131.241 366.485 139.885 366.253 148.529 366.292C164.744 366.292 180.972 366.575 197.187 366.743C197.521 366.743 197.843 366.807 198.928 366.936C149.9 367.554 101.588 367.206 52.7991 369.51C55.291 370.386 56.4833 370.463 61.1452 370.321C63.7802 370.244 66.4271 370.257 69.074 370.18C71.7209 370.102 74.5824 369.961 77.3486 369.909C80.1147 369.858 82.5709 369.909 85.194 370.038C75.5363 370.836 65.6998 370.592 56.0898 371.647L56.0898 372.304C57.1987 372.304 58.3075 372.407 59.4164 372.368C67.4605 372.145 75.5045 371.909 83.5486 371.66C91.5847 371.39 99.6208 370.965 107.657 370.836C116.921 370.695 126.185 370.836 135.45 370.836C143.378 370.836 151.319 370.746 159.296 370.836C173.23 370.939 187.168 371.085 201.11 371.274C203.959 371.274 206.785 371.415 209.635 371.493L209.635 372.033C205.891 372.123 202.147 372.265 198.403 372.304C187.331 372.449 176.27 372.578 165.221 372.69ZM217.957 359.817C219.743 359.682 221.536 359.682 223.322 359.817C226.553 360.139 229.725 360.654 233.624 361.182C227.436 362.469 222.106 361.491 216.013 360.808C217.015 360.255 217.456 359.817 217.957 359.817Z" fill="white"/>
<path d="M150.779 347.31C158.6 347.31 166.422 347.246 174.231 347.169C186.977 347.053 199.723 346.95 212.457 346.731C219.181 346.602 225.906 346.229 232.618 345.984L264.298 344.877C272.644 344.607 281.109 344.388 289.515 344.079C291.542 344.015 293.545 343.706 295.56 343.513C296.943 343.384 298.028 343.114 298.445 342.084C298.612 341.672 299.566 341.389 300.174 341.054L303 339.458C302.381 339.275 301.752 339.133 301.116 339.033C296.073 338.853 291.041 338.531 286.01 338.531C274.468 338.531 262.915 338.724 251.373 338.84C250.605 338.89 249.835 338.776 249.108 338.505C249.6 338.276 250.117 338.112 250.646 338.016C255.415 337.759 260.208 337.54 265.025 337.36C275.1 336.948 285.187 336.574 295.262 336.175C297.076 336.207 298.882 335.929 300.615 335.352V334.798C299.518 334.708 298.422 334.541 297.325 334.541C292.295 334.655 287.264 334.401 282.266 333.781C280.271 333.662 278.269 333.8 276.304 334.193C275.141 334.403 273.991 334.686 272.859 335.043C269.747 332.12 265.204 331.94 260.363 331.979C251.958 331.979 243.552 331.863 235.146 331.85C230.46 331.85 225.775 331.992 221.089 332.005C210.263 332.005 199.441 332.005 188.622 332.005C187.791 331.983 186.967 331.826 186.178 331.541C198.268 330.627 210.477 331.142 222.83 330.576C222.496 330.293 222.436 330.177 222.365 330.177C214.948 330.022 207.735 328.452 200.164 329.185C197.135 329.482 193.94 329.031 190.828 329.018C172.181 329.018 153.533 329.018 134.897 328.851C122.163 328.722 109.43 328.091 96.7435 328.014C82.3166 327.937 67.8778 328.194 53.4629 328.375C45.7685 328.46 38.0782 328.628 30.3918 328.877C30.2607 328.877 30.1653 328.877 30.0341 328.877L26.8507 329.765C26.6325 329.983 26.3697 330.142 26.0838 330.229C25.7978 330.316 25.4968 330.329 25.2053 330.267C22.928 330.975 20.7103 331.747 18.588 332.622C18.2276 332.798 17.8246 332.843 17.4384 332.753C17.0521 332.663 16.7028 332.441 16.4419 332.12C7.46381 335.725 2.80191 343.835 3.09999 350.013C3.45768 357.48 0.429229 364.585 0 372C0.861294 371.911 1.70978 371.713 2.52768 371.408C2.21945 371.127 1.94328 370.807 1.70498 370.455C1.16845 369.413 1.62153 368.64 3.21921 368.602C5.37691 368.436 7.50327 367.951 9.53843 367.16C11.4139 366.421 13.4786 366.471 15.3211 367.301C15.8716 367.608 16.4793 367.777 17.0986 367.795C17.718 367.813 18.3331 367.679 18.898 367.404C20.4032 366.721 22.0409 366.447 23.6672 366.606C24.1416 366.656 24.6203 366.625 25.0861 366.516C28.806 365.229 32.836 365.667 36.7706 365.615C49.7429 365.435 62.6555 364.688 75.604 364.328C89.5301 363.903 103.48 363.839 117.43 363.749C125.359 363.749 133.299 363.955 141.276 363.993C143.575 363.995 145.866 363.719 148.108 363.169C147.393 363.105 146.689 362.976 145.986 362.989C143.947 362.989 141.896 363.195 139.869 363.156C139.004 363.125 138.155 362.897 137.377 362.487C136.602 361.925 135.711 361.577 134.782 361.471C133.853 361.366 132.914 361.507 132.048 361.882C130.062 362.565 127.929 362.565 125.943 361.882C123.887 361.338 121.786 361.014 119.671 360.917C115.367 360.659 111.039 360.595 106.723 360.427C105.364 360.427 103.826 360.569 102.753 359.655C103.54 358.458 105.245 358.265 106.675 358.458C111.296 358.96 115.953 358.921 120.566 358.342C121.878 358.318 123.19 358.409 124.488 358.612C125.147 358.773 125.817 358.868 126.491 358.896C129.815 358.471 133.169 358.393 136.507 358.664C138.033 358.728 139.571 358.844 141.109 358.857C142.886 358.857 144.686 358.857 146.439 358.754C149.646 358.509 152.817 357.943 155.977 357.904C169.2 357.776 182.434 357.904 195.657 357.711C211.646 357.531 227.611 357.184 243.528 356.128C258.599 355.111 273.705 354.39 288.835 353.553C291.944 353.497 295.028 352.933 297.98 351.88C293.581 351.996 289.181 352.137 284.782 352.228C283.112 352.228 281.431 352.228 279.75 352.228C276.865 352.228 273.979 352.073 271.106 352.137C264.393 352.292 257.669 352.498 250.968 352.742C242.622 353.051 234.276 352.665 225.858 352.923C215.044 353.245 204.218 353.257 193.403 353.399C184.759 353.515 176.115 353.747 167.471 353.708C151.256 353.708 135.028 353.425 118.813 353.257C118.479 353.257 118.157 353.193 117.072 353.064C166.1 352.446 214.412 352.794 263.201 350.49C260.709 349.614 259.517 349.537 254.855 349.679C252.22 349.756 249.573 349.743 246.926 349.82C244.279 349.898 241.418 350.039 238.651 350.091C235.885 350.142 233.429 350.091 230.806 349.962C240.464 349.164 250.3 349.408 259.91 348.353V347.696C258.801 347.696 257.692 347.593 256.584 347.632C248.54 347.855 240.495 348.091 232.451 348.34C224.415 348.61 216.379 349.035 208.343 349.164C199.079 349.305 189.815 349.164 180.55 349.164C172.622 349.164 164.681 349.254 156.704 349.164C142.77 349.061 128.832 348.915 114.89 348.726C112.041 348.726 109.215 348.585 106.365 348.507V347.967C110.109 347.877 113.853 347.735 117.597 347.696C128.669 347.551 139.73 347.422 150.779 347.31ZM98.0431 360.183C96.2568 360.318 94.464 360.318 92.6777 360.183C89.4466 359.861 86.2751 359.346 82.3762 358.818C88.5643 357.531 93.8939 358.509 99.9865 359.192C98.985 359.745 98.5439 360.183 98.0431 360.183Z" fill="white"/>
<path d="M230.24 266.18C222.414 266.18 214.588 266.23 206.774 266.29C194.02 266.38 181.267 266.46 168.526 266.63C161.798 266.73 155.069 267.02 148.353 267.21L116.655 268.07C108.304 268.28 99.8338 268.45 91.4232 268.69C89.3951 268.74 87.3909 268.98 85.3748 269.13C83.9909 269.23 82.9052 269.44 82.4877 270.24C82.3207 270.56 81.3663 270.78 80.7578 271.04L77.9305 272.28C78.5501 272.422 79.1796 272.532 79.8154 272.61C84.8618 272.75 89.8962 273 94.9306 273C106.479 273 118.039 272.85 129.587 272.76C130.356 272.721 131.126 272.81 131.854 273.02C131.361 273.198 130.844 273.326 130.315 273.4C125.543 273.6 120.747 273.77 115.927 273.91C105.846 274.23 95.7538 274.52 85.673 274.83C83.8584 274.805 82.0505 275.021 80.3165 275.47L80.3165 275.9C81.414 275.97 82.5116 276.1 83.6091 276.1C88.6418 276.011 93.6758 276.208 98.6766 276.69C100.673 276.783 102.676 276.675 104.642 276.37C105.805 276.207 106.957 275.987 108.089 275.71C111.203 277.98 115.748 278.12 120.592 278.09C129.002 278.09 137.413 278.18 145.824 278.19C150.512 278.19 155.201 278.08 159.889 278.07C170.721 278.07 181.55 278.07 192.374 278.07C193.206 278.087 194.03 278.208 194.82 278.43C182.723 279.14 170.507 278.74 158.147 279.18C158.481 279.4 158.541 279.49 158.612 279.49C166.033 279.61 173.25 280.83 180.826 280.26C183.856 280.03 187.053 280.38 190.167 280.39C208.825 280.39 227.484 280.39 246.13 280.52C258.871 280.62 271.613 281.11 284.306 281.17C298.741 281.23 313.188 281.03 327.612 280.89C335.31 280.823 343.005 280.693 350.696 280.5C350.827 280.5 350.923 280.5 351.054 280.5L354.239 279.81C354.457 279.641 354.72 279.517 355.006 279.449C355.293 279.382 355.594 279.372 355.885 279.42C358.164 278.87 360.383 278.27 362.507 277.59C362.867 277.454 363.27 277.418 363.657 277.489C364.043 277.559 364.393 277.731 364.654 277.98C373.637 275.18 378.302 268.88 378.003 264.08C377.646 258.28 380.676 252.76 381.105 247C380.243 247.069 379.394 247.223 378.576 247.46C378.884 247.678 379.161 247.927 379.399 248.2C379.936 249.01 379.483 249.61 377.884 249.64C375.725 249.768 373.598 250.145 371.561 250.76C369.685 251.334 367.619 251.295 365.775 250.65C365.224 250.412 364.616 250.281 363.997 250.267C363.377 250.253 362.762 250.356 362.196 250.57C360.69 251.101 359.052 251.314 357.424 251.19C356.95 251.152 356.471 251.175 356.005 251.26C352.283 252.26 348.25 251.92 344.313 251.96C331.334 252.1 318.414 252.68 305.458 252.96C291.524 253.29 277.566 253.34 263.608 253.41C255.674 253.41 247.729 253.25 239.748 253.22C237.448 253.219 235.155 253.433 232.912 253.86C233.628 253.91 234.332 254.01 235.035 254C237.075 254 239.127 253.84 241.155 253.87C242.021 253.894 242.871 254.071 243.649 254.39C244.425 254.826 245.316 255.097 246.246 255.179C247.175 255.261 248.114 255.151 248.981 254.86C250.968 254.33 253.103 254.33 255.09 254.86C257.147 255.283 259.249 255.534 261.365 255.61C265.671 255.81 270.002 255.86 274.321 255.99C275.681 255.99 277.22 255.88 278.293 256.59C277.506 257.52 275.8 257.67 274.368 257.52C269.745 257.13 265.085 257.16 260.47 257.61C259.157 257.628 257.845 257.558 256.545 257.4C255.886 257.275 255.216 257.202 254.541 257.18C251.215 257.51 247.859 257.57 244.52 257.36C242.993 257.31 241.454 257.22 239.915 257.21C238.137 257.21 236.336 257.21 234.582 257.29C231.373 257.48 228.2 257.92 225.038 257.95C211.808 258.05 198.566 257.95 185.335 258.1C169.337 258.24 153.363 258.51 137.437 259.33C122.357 260.12 107.242 260.68 92.1032 261.33C88.9924 261.374 85.9074 261.812 82.953 262.63C87.3551 262.54 91.7572 262.43 96.1594 262.36C97.8296 262.36 99.5117 262.36 101.194 262.36C104.081 262.36 106.968 262.48 109.843 262.43C116.56 262.31 123.288 262.15 129.993 261.96C138.344 261.72 146.694 262.02 155.117 261.82C165.937 261.57 176.77 261.56 187.59 261.45C196.239 261.36 204.889 261.18 213.538 261.21C229.762 261.21 245.999 261.43 262.224 261.56C262.558 261.56 262.88 261.61 263.965 261.71C214.91 262.19 166.57 261.92 117.753 263.71C120.246 264.39 121.439 264.45 126.103 264.34C128.74 264.28 131.388 264.29 134.037 264.23C136.685 264.17 139.548 264.06 142.316 264.02C145.084 263.98 147.542 264.02 150.166 264.12C140.503 264.74 130.661 264.55 121.045 265.37L121.045 265.88C122.155 265.88 123.264 265.96 124.374 265.93C132.422 265.757 140.471 265.573 148.52 265.38C156.561 265.17 164.601 264.84 172.642 264.74C181.912 264.63 191.181 264.74 200.451 264.74C208.384 264.74 216.329 264.67 224.31 264.74C238.253 264.82 252.199 264.933 266.149 265.08C269 265.08 271.827 265.19 274.679 265.25L274.679 265.67C270.933 265.74 267.187 265.85 263.441 265.88C252.362 265.993 241.295 266.093 230.24 266.18ZM283.006 256.18C284.793 256.075 286.587 256.075 288.374 256.18C291.607 256.43 294.78 256.83 298.681 257.24C292.49 258.24 287.157 257.48 281.061 256.95C282.063 256.52 282.505 256.18 283.006 256.18Z" fill="white"/>
<path d="M225.217 246.001C233.043 246.001 240.869 245.951 248.683 245.891C261.436 245.801 274.189 245.721 286.93 245.551C293.659 245.451 300.387 245.161 307.104 244.971L338.802 244.111C347.153 243.901 355.623 243.731 364.033 243.491C366.062 243.441 368.066 243.201 370.082 243.051C371.466 242.951 372.551 242.741 372.969 241.941C373.136 241.621 374.09 241.401 374.699 241.141L377.526 239.901C376.907 239.759 376.277 239.648 375.641 239.571C370.595 239.431 365.56 239.181 360.526 239.181C348.978 239.181 337.418 239.331 325.87 239.421C325.101 239.459 324.331 239.371 323.603 239.161C324.096 238.983 324.613 238.855 325.142 238.781C329.914 238.581 334.71 238.411 339.529 238.271C349.61 237.951 359.703 237.661 369.784 237.351C371.598 237.376 373.406 237.16 375.14 236.711V236.281C374.043 236.211 372.945 236.081 371.848 236.081C366.815 236.17 361.781 235.973 356.78 235.491C354.784 235.398 352.781 235.506 350.815 235.811C349.651 235.974 348.5 236.194 347.367 236.471C344.254 234.201 339.708 234.061 334.865 234.091C326.454 234.091 318.044 234.001 309.633 233.991C304.945 233.991 300.256 234.101 295.568 234.111C284.735 234.111 273.907 234.111 263.083 234.111C262.251 234.094 261.426 233.972 260.637 233.751C272.734 233.041 284.95 233.441 297.309 233.001C296.975 232.781 296.916 232.691 296.844 232.691C289.424 232.571 282.206 231.351 274.631 231.921C271.601 232.151 268.403 231.801 265.29 231.791C246.631 231.791 227.973 231.791 209.326 231.661C196.585 231.561 183.844 231.071 171.151 231.011C156.716 230.951 142.268 231.151 127.845 231.291C120.146 231.357 112.452 231.487 104.761 231.681C104.63 231.681 104.534 231.681 104.403 231.681L101.218 232.371C100.999 232.54 100.736 232.664 100.45 232.731C100.164 232.799 99.8629 232.809 99.5713 232.761C97.2927 233.311 95.0737 233.911 92.9502 234.591C92.5895 234.727 92.1864 234.762 91.7999 234.692C91.4134 234.622 91.0639 234.45 90.8028 234.201C81.8196 237.001 77.155 243.301 77.4532 248.101C77.8111 253.901 74.7809 259.421 74.3514 265.181C75.2132 265.112 76.0622 264.957 76.8806 264.721C76.5722 264.502 76.2958 264.254 76.0574 263.981C75.5206 263.171 75.9739 262.571 77.5725 262.541C79.7315 262.412 81.859 262.036 83.8954 261.421C85.7719 260.846 87.8378 260.886 89.6814 261.531C90.2322 261.769 90.8402 261.9 91.4599 261.914C92.0797 261.928 92.6951 261.824 93.2603 261.611C94.7664 261.08 96.4051 260.867 98.0323 260.991C98.507 261.029 98.9859 261.006 99.452 260.921C103.174 259.921 107.206 260.261 111.143 260.221C124.123 260.081 137.043 259.501 149.999 259.221C163.933 258.891 177.891 258.841 191.849 258.771C199.782 258.771 207.728 258.931 215.709 258.961C218.009 258.962 220.302 258.747 222.545 258.321C221.829 258.271 221.125 258.171 220.421 258.181C218.381 258.181 216.329 258.341 214.301 258.311C213.436 258.287 212.586 258.11 211.808 257.791C211.032 257.354 210.14 257.084 209.211 257.002C208.282 256.92 207.343 257.029 206.475 257.321C204.488 257.851 202.354 257.851 200.367 257.321C198.31 256.898 196.208 256.647 194.092 256.571C189.785 256.371 185.455 256.321 181.136 256.191C179.776 256.191 178.237 256.301 177.163 255.591C177.951 254.661 179.657 254.511 181.088 254.661C185.711 255.051 190.371 255.021 194.987 254.571C196.3 254.552 197.612 254.623 198.912 254.781C199.57 254.906 200.241 254.979 200.916 255.001C204.242 254.671 207.597 254.611 210.937 254.821C212.464 254.871 214.003 254.961 215.542 254.971C217.319 254.971 219.121 254.971 220.875 254.891C224.084 254.701 227.257 254.261 230.418 254.231C243.649 254.131 256.891 254.231 270.121 254.081C286.119 253.941 302.093 253.671 318.02 252.851C333.099 252.061 348.214 251.501 363.353 250.851C366.464 250.807 369.549 250.369 372.504 249.551C368.102 249.641 363.699 249.751 359.297 249.821C357.627 249.821 355.945 249.821 354.263 249.821C351.376 249.821 348.489 249.701 345.614 249.751C338.897 249.871 332.169 250.031 325.464 250.221C317.113 250.461 308.762 250.161 300.34 250.361C289.519 250.611 278.687 250.621 267.866 250.731C259.217 250.821 250.568 251.001 241.919 250.971C225.694 250.971 209.458 250.751 193.233 250.621C192.899 250.621 192.577 250.571 191.491 250.471C240.547 249.991 288.887 250.261 337.704 248.471C335.211 247.791 334.018 247.731 329.353 247.841C326.717 247.901 324.068 247.891 321.42 247.951C318.771 248.011 315.908 248.121 313.14 248.161C310.373 248.201 307.915 248.161 305.291 248.061C314.954 247.441 324.796 247.631 334.411 246.811V246.301C333.302 246.301 332.193 246.221 331.083 246.251C323.034 246.424 314.986 246.607 306.937 246.801C298.896 247.011 290.855 247.341 282.815 247.441C273.545 247.551 264.276 247.441 255.006 247.441C247.073 247.441 239.127 247.511 231.146 247.441C217.204 247.361 203.258 247.247 189.308 247.101C186.457 247.101 183.629 246.991 180.778 246.931V246.511C184.524 246.441 188.27 246.331 192.016 246.301C203.095 246.187 214.162 246.087 225.217 246.001ZM172.451 256.001C170.664 256.106 168.87 256.106 167.083 256.001C163.85 255.751 160.676 255.351 156.775 254.941C162.967 253.941 168.299 254.701 174.396 255.231C173.394 255.661 172.952 256.001 172.451 256.001Z" fill="white"/>
<path d="M221.288 216.078C212.744 216.078 204.199 216.128 195.668 216.188C181.745 216.277 167.821 216.357 153.911 216.526C146.565 216.626 139.219 216.914 131.886 217.103L97.2786 217.958C88.1613 218.167 78.9136 218.336 69.7311 218.575C67.5168 218.625 65.3287 218.864 63.1275 219.013C61.6166 219.112 60.4314 219.321 59.9755 220.117C59.7932 220.435 58.7511 220.654 58.0869 220.913L55 222.146C55.6765 222.288 56.3638 222.397 57.058 222.474C62.5674 222.614 68.0639 222.862 73.5604 222.862C86.1684 222.862 98.7895 222.713 111.398 222.624C112.237 222.585 113.077 222.673 113.872 222.882C113.334 223.06 112.77 223.186 112.192 223.26C106.982 223.459 101.746 223.628 96.4841 223.768C85.4781 224.086 74.4591 224.374 63.4531 224.683C61.472 224.658 59.4982 224.873 57.605 225.319L57.605 225.747C58.8033 225.817 60.0016 225.946 61.1998 225.946C66.6943 225.857 72.1904 226.053 77.6502 226.533C79.8299 226.625 82.0161 226.518 84.1626 226.215C85.4331 226.052 86.69 225.833 87.9268 225.558C91.3262 227.816 96.2887 227.955 101.577 227.925C110.759 227.925 119.942 228.015 129.124 228.025C134.243 228.025 139.362 227.915 144.481 227.906C156.307 227.906 168.129 227.906 179.947 227.906C180.856 227.923 181.756 228.043 182.617 228.264C169.41 228.97 156.073 228.572 142.579 229.01C142.944 229.228 143.009 229.318 143.087 229.318C151.188 229.437 159.068 230.651 167.339 230.084C170.647 229.855 174.138 230.203 177.538 230.213C197.908 230.213 218.279 230.213 238.637 230.343C252.548 230.442 266.458 230.929 280.317 230.989C296.077 231.049 311.85 230.85 327.597 230.711C336.002 230.644 344.403 230.515 352.8 230.323C352.943 230.323 353.047 230.323 353.19 230.323L356.668 229.636C356.906 229.468 357.193 229.345 357.506 229.278C357.818 229.21 358.147 229.2 358.466 229.248C360.953 228.701 363.376 228.104 365.694 227.428C366.088 227.293 366.528 227.257 366.95 227.327C367.372 227.397 367.754 227.568 368.039 227.816C377.846 225.031 382.939 218.764 382.614 213.99C382.223 208.22 385.531 202.73 386 197C385.059 197.069 384.132 197.222 383.239 197.458C383.575 197.675 383.877 197.922 384.137 198.194C384.724 198.999 384.229 199.596 382.483 199.626C380.126 199.754 377.803 200.129 375.58 200.74C373.531 201.311 371.276 201.272 369.263 200.631C368.662 200.394 367.998 200.263 367.321 200.249C366.645 200.236 365.973 200.339 365.356 200.551C363.711 201.08 361.922 201.291 360.146 201.168C359.627 201.13 359.105 201.153 358.596 201.237C354.532 202.232 350.13 201.894 345.831 201.934C331.66 202.073 317.555 202.65 303.41 202.928C288.197 203.257 272.958 203.306 257.718 203.376C249.057 203.376 240.382 203.217 231.669 203.187C229.158 203.186 226.654 203.399 224.206 203.824C224.987 203.873 225.756 203.973 226.524 203.963C228.751 203.963 230.992 203.804 233.206 203.834C234.151 203.858 235.078 204.034 235.928 204.351C236.775 204.785 237.748 205.054 238.763 205.136C239.778 205.217 240.803 205.108 241.75 204.818C243.919 204.291 246.249 204.291 248.419 204.818C250.665 205.239 252.959 205.489 255.27 205.564C259.972 205.763 264.7 205.813 269.415 205.942C270.9 205.942 272.58 205.833 273.752 206.539C272.892 207.464 271.03 207.614 269.467 207.464C264.419 207.076 259.332 207.106 254.293 207.554C252.86 207.572 251.426 207.502 250.008 207.345C249.289 207.221 248.556 207.148 247.82 207.126C244.189 207.454 240.525 207.514 236.879 207.305C235.212 207.255 233.531 207.166 231.851 207.156C229.91 207.156 227.944 207.156 226.029 207.236C222.525 207.425 219.061 207.862 215.609 207.892C201.165 207.992 186.707 207.892 172.263 208.041C154.796 208.18 137.356 208.449 119.968 209.265C103.504 210.051 87.002 210.608 70.4735 211.254C67.0772 211.298 63.709 211.734 60.4835 212.547C65.2896 212.458 70.0958 212.348 74.9019 212.279C76.7254 212.279 78.5619 212.279 80.3984 212.279C83.5504 212.279 86.7024 212.398 89.8414 212.348C97.1744 212.229 104.52 212.07 111.84 211.881C120.958 211.642 130.075 211.94 139.271 211.742C151.084 211.493 162.911 211.483 174.724 211.374C184.167 211.284 193.61 211.105 203.053 211.135C220.767 211.135 238.494 211.354 256.208 211.483C256.572 211.483 256.924 211.533 258.109 211.632C204.551 212.11 151.774 211.841 98.4769 213.622C101.199 214.298 102.502 214.358 107.594 214.248C110.473 214.189 113.364 214.198 116.256 214.139C119.147 214.079 122.273 213.97 125.295 213.93C128.317 213.89 131 213.93 133.865 214.029C123.315 214.646 112.57 214.457 102.072 215.273L102.072 215.78C103.283 215.78 104.494 215.86 105.706 215.83C114.493 215.657 123.281 215.475 132.068 215.283C140.847 215.074 149.625 214.746 158.404 214.646C168.524 214.537 178.645 214.646 188.765 214.646C197.427 214.646 206.101 214.576 214.815 214.646C230.036 214.726 245.262 214.838 260.493 214.984C263.606 214.984 266.693 215.094 269.806 215.153L269.806 215.571C265.716 215.641 261.626 215.75 257.536 215.78C245.44 215.893 233.358 215.992 221.288 216.078ZM278.897 206.131C280.848 206.027 282.807 206.027 284.758 206.131C288.288 206.38 291.752 206.778 296.011 207.186C289.252 208.181 283.429 207.425 276.774 206.897C277.868 206.47 278.35 206.131 278.897 206.131Z" fill="white"/>
<path d="M218.176 192.994C227.108 192.994 236.039 192.934 244.957 192.862C259.512 192.754 274.066 192.658 288.607 192.454C296.286 192.334 303.965 191.986 311.63 191.758L347.805 190.727C357.336 190.475 367.003 190.271 376.601 189.983C378.916 189.923 381.203 189.635 383.504 189.455C385.084 189.335 386.323 189.083 386.799 188.124C386.99 187.74 388.079 187.476 388.773 187.164L392 185.677C391.293 185.506 390.574 185.374 389.849 185.281C384.09 185.113 378.344 184.813 372.599 184.813C359.419 184.813 346.226 184.993 333.047 185.101C332.17 185.147 331.291 185.041 330.46 184.789C331.022 184.575 331.612 184.422 332.216 184.333C337.662 184.093 343.135 183.889 348.636 183.721C360.141 183.338 371.659 182.99 383.164 182.618C385.235 182.648 387.298 182.389 389.277 181.85V181.334C388.024 181.251 386.772 181.095 385.519 181.095C379.776 181.201 374.031 180.965 368.323 180.387C366.045 180.276 363.76 180.405 361.516 180.771C360.188 180.966 358.874 181.231 357.581 181.562C354.028 178.84 348.84 178.672 343.312 178.708C333.714 178.708 324.115 178.6 314.517 178.588C309.166 178.588 303.815 178.72 298.464 178.732C286.102 178.732 273.744 178.732 261.391 178.732C260.441 178.711 259.5 178.565 258.599 178.3C272.405 177.448 286.347 177.928 300.452 177.4C300.071 177.136 300.003 177.028 299.921 177.028C291.453 176.884 283.215 175.421 274.57 176.105C271.112 176.381 267.463 175.961 263.909 175.949C242.615 175.949 221.321 175.949 200.041 175.793C185.5 175.673 170.959 175.085 156.473 175.013C139.999 174.941 123.511 175.181 107.05 175.349C98.2637 175.429 89.482 175.585 80.7048 175.817C80.5551 175.817 80.4461 175.817 80.2964 175.817L76.6612 176.644C76.4121 176.847 76.112 176.996 75.7854 177.077C75.4589 177.158 75.1151 177.17 74.7823 177.112C72.1818 177.772 69.6494 178.492 67.2259 179.307C66.8143 179.47 66.3542 179.513 65.9131 179.429C65.472 179.345 65.0732 179.138 64.7752 178.84C54.523 182.198 49.1995 189.755 49.5399 195.513C49.9484 202.47 46.4901 209.091 46 216C46.9835 215.917 47.9524 215.732 48.8864 215.448C48.5344 215.186 48.2191 214.888 47.9469 214.561C47.3343 213.589 47.8516 212.869 49.6761 212.833C52.14 212.679 54.5681 212.227 56.8921 211.49C59.0337 210.801 61.3914 210.848 63.4954 211.622C64.124 211.908 64.8179 212.065 65.5252 212.082C66.2324 212.098 66.9348 211.974 67.5799 211.718C69.2987 211.081 71.1688 210.825 73.0259 210.974C73.5677 211.02 74.1142 210.992 74.6461 210.89C78.894 209.691 83.4959 210.098 87.9889 210.05C102.802 209.883 117.547 209.187 132.333 208.851C148.236 208.455 164.165 208.395 180.095 208.311C189.149 208.311 198.217 208.503 207.325 208.539C209.95 208.541 212.567 208.283 215.127 207.771C214.31 207.711 213.506 207.592 212.703 207.604C210.375 207.604 208.033 207.795 205.718 207.759C204.731 207.731 203.761 207.518 202.873 207.136C201.987 206.612 200.97 206.287 199.909 206.189C198.849 206.091 197.777 206.222 196.787 206.572C194.519 207.208 192.084 207.208 189.816 206.572C187.468 206.065 185.07 205.763 182.655 205.672C177.74 205.432 172.797 205.372 167.869 205.217C166.316 205.217 164.56 205.348 163.335 204.497C164.233 203.381 166.18 203.201 167.814 203.381C173.09 203.849 178.408 203.813 183.676 203.273C185.174 203.251 186.672 203.335 188.155 203.525C188.907 203.675 189.672 203.763 190.442 203.789C194.238 203.393 198.068 203.321 201.879 203.573C203.622 203.633 205.378 203.741 207.134 203.753C209.163 203.753 211.219 203.753 213.22 203.657C216.883 203.429 220.504 202.901 224.112 202.865C239.212 202.746 254.324 202.865 269.423 202.686C287.681 202.518 305.912 202.194 324.088 201.21C341.297 200.263 358.548 199.591 375.825 198.811C379.376 198.758 382.896 198.233 386.268 197.252C381.244 197.36 376.22 197.492 371.196 197.576C369.29 197.576 367.37 197.576 365.451 197.576C362.156 197.576 358.861 197.432 355.58 197.492C347.914 197.636 340.235 197.828 332.584 198.056C323.053 198.343 313.523 197.984 303.91 198.223C291.562 198.523 279.199 198.535 266.85 198.667C256.979 198.775 247.108 198.991 237.237 198.955C218.721 198.955 200.191 198.691 181.674 198.535C181.293 198.535 180.925 198.475 179.686 198.355C235.672 197.78 290.84 198.103 346.553 195.956C343.707 195.141 342.346 195.069 337.022 195.201C334.013 195.273 330.991 195.261 327.968 195.333C324.946 195.405 321.678 195.537 318.519 195.585C315.361 195.633 312.556 195.585 309.561 195.465C320.589 194.721 331.821 194.949 342.795 193.965V193.353C341.529 193.353 340.263 193.258 338.996 193.293C329.811 193.501 320.625 193.721 311.44 193.953C302.263 194.205 293.086 194.601 283.91 194.721C273.331 194.853 262.752 194.721 252.173 194.721C243.119 194.721 234.051 194.805 224.943 194.721C209.031 194.625 193.115 194.489 177.195 194.313C173.941 194.313 170.714 194.181 167.46 194.109V193.605C171.735 193.521 176.01 193.389 180.286 193.353C192.929 193.218 205.56 193.098 218.176 192.994ZM157.957 204.989C155.917 205.115 153.87 205.115 151.83 204.989C148.14 204.689 144.519 204.209 140.067 203.717C147.133 202.518 153.219 203.429 160.176 204.065C159.032 204.581 158.529 204.989 157.957 204.989Z" fill="white"/>
<path d="M226.814 168.078C217.986 168.078 209.158 168.128 200.343 168.188C185.957 168.277 171.57 168.357 157.198 168.526C149.607 168.626 142.017 168.914 134.441 169.103L98.6837 169.958C89.2633 170.167 79.7083 170.336 70.2206 170.575C67.9328 170.625 65.672 170.864 63.3976 171.013C61.8365 171.112 60.6119 171.321 60.1408 172.117C59.9525 172.435 58.8758 172.654 58.1895 172.913L55 174.146C55.699 174.288 56.4092 174.397 57.1263 174.474C62.8189 174.614 68.498 174.862 74.1772 174.862C87.2042 174.862 100.245 174.713 113.272 174.624C114.139 174.585 115.008 174.673 115.829 174.882C115.273 175.06 114.69 175.186 114.093 175.26C108.71 175.459 103.3 175.628 97.8627 175.768C86.491 176.086 75.1058 176.374 63.7341 176.683C61.6871 176.658 59.6477 176.873 57.6916 177.319L57.6916 177.747C58.9297 177.817 60.1678 177.946 61.4059 177.946C67.083 177.857 72.7617 178.053 78.4029 178.533C80.655 178.625 82.9139 178.518 85.1318 178.215C86.4445 178.052 87.7432 177.833 89.021 177.558C92.5335 179.816 97.6609 179.955 103.125 179.925C112.612 179.925 122.1 180.015 131.588 180.025C136.877 180.025 142.165 179.915 147.454 179.906C159.674 179.906 171.889 179.906 184.1 179.906C185.038 179.923 185.968 180.043 186.858 180.264C173.212 180.97 159.432 180.572 145.489 181.01C145.866 181.228 145.934 181.318 146.014 181.318C154.385 181.437 162.527 182.651 171.073 182.084C174.491 181.855 178.097 182.203 181.61 182.213C202.658 182.213 223.705 182.213 244.74 182.343C259.113 182.442 273.485 182.929 287.804 182.989C304.088 183.049 320.385 182.85 336.656 182.711C345.34 182.644 354.021 182.515 362.696 182.323C362.844 182.323 362.952 182.323 363.1 182.323L366.693 181.636C366.94 181.468 367.236 181.345 367.559 181.278C367.882 181.21 368.221 181.2 368.55 181.248C371.121 180.701 373.624 180.104 376.019 179.428C376.426 179.293 376.881 179.257 377.317 179.327C377.753 179.397 378.147 179.568 378.442 179.816C388.576 177.031 393.837 170.764 393.501 165.99C393.097 160.22 396.516 154.73 397 149C396.028 149.069 395.07 149.222 394.147 149.458C394.495 149.675 394.807 149.922 395.076 150.194C395.681 150.999 395.17 151.596 393.366 151.626C390.931 151.754 388.531 152.129 386.234 152.74C384.117 153.311 381.787 153.272 379.707 152.631C379.085 152.394 378.4 152.263 377.701 152.249C377.001 152.236 376.307 152.339 375.67 152.551C373.971 153.08 372.122 153.291 370.287 153.168C369.751 153.13 369.211 153.153 368.685 153.237C364.486 154.232 359.938 153.894 355.497 153.934C340.855 154.073 326.28 154.65 311.665 154.928C295.946 155.257 280.201 155.306 264.455 155.376C255.506 155.376 246.543 155.217 237.54 155.187C234.945 155.186 232.359 155.399 229.829 155.824C230.636 155.873 231.43 155.973 232.224 155.963C234.525 155.963 236.84 155.804 239.128 155.834C240.104 155.858 241.063 156.034 241.941 156.351C242.816 156.785 243.822 157.054 244.87 157.136C245.918 157.217 246.978 157.108 247.956 156.818C250.198 156.291 252.605 156.291 254.847 156.818C257.167 157.239 259.538 157.489 261.925 157.564C266.784 157.763 271.669 157.813 276.54 157.942C278.075 157.942 279.811 157.833 281.022 158.539C280.134 159.464 278.209 159.614 276.594 159.464C271.379 159.076 266.122 159.106 260.916 159.554C259.435 159.572 257.954 159.502 256.488 159.345C255.745 159.221 254.989 159.148 254.227 159.126C250.476 159.454 246.69 159.514 242.923 159.305C241.2 159.255 239.464 159.166 237.728 159.156C235.723 159.156 233.691 159.156 231.713 159.236C228.093 159.425 224.513 159.862 220.947 159.892C206.022 159.992 191.084 159.892 176.16 160.041C158.113 160.18 140.093 160.449 122.127 161.265C105.116 162.051 88.0655 162.608 70.9877 163.254C67.4785 163.298 63.9984 163.734 60.6657 164.547C65.6316 164.458 70.5974 164.348 75.5634 164.279C77.4474 164.279 79.3449 164.279 81.2425 164.279C84.4992 164.279 87.756 164.398 90.9993 164.348C98.576 164.229 106.166 164.07 113.729 163.881C123.15 163.642 132.57 163.94 142.071 163.742C154.277 163.493 166.497 163.483 178.703 163.374C188.46 163.284 198.217 163.105 207.973 163.135C226.276 163.135 244.592 163.354 262.894 163.483C263.271 163.483 263.634 163.533 264.859 163.632C209.521 164.11 154.991 163.841 99.9218 165.622C102.734 166.298 104.08 166.358 109.342 166.248C112.316 166.189 115.304 166.198 118.291 166.139C121.279 166.079 124.509 165.97 127.631 165.93C130.753 165.89 133.526 165.93 136.486 166.029C125.586 166.646 114.483 166.457 103.636 167.273L103.636 167.78C104.888 167.78 106.139 167.86 107.391 167.83C116.47 167.657 125.55 167.475 134.629 167.283C143.7 167.074 152.77 166.746 161.841 166.646C172.297 166.537 182.754 166.646 193.21 166.646C202.16 166.646 211.123 166.576 220.126 166.646C235.853 166.726 251.585 166.838 267.322 166.984C270.538 166.984 273.728 167.094 276.944 167.153L276.944 167.571C272.718 167.641 268.493 167.75 264.267 167.78C251.769 167.893 239.285 167.992 226.814 168.078ZM286.338 158.131C288.354 158.027 290.377 158.027 292.393 158.131C296.041 158.38 299.62 158.778 304.021 159.186C297.036 160.181 291.021 159.425 284.144 158.897C285.274 158.47 285.772 158.131 286.338 158.131Z" fill="white"/>
<path d="M206.186 148.922C215.014 148.922 223.842 148.872 232.657 148.812C247.043 148.723 261.43 148.643 275.802 148.474C283.393 148.374 290.983 148.086 298.559 147.897L334.316 147.042C343.737 146.833 353.292 146.664 362.779 146.425C365.067 146.375 367.328 146.136 369.602 145.987C371.163 145.888 372.388 145.679 372.859 144.883C373.048 144.565 374.124 144.346 374.811 144.087L378 142.854C377.301 142.712 376.591 142.603 375.874 142.526C370.181 142.386 364.502 142.138 358.823 142.138C345.796 142.138 332.755 142.287 319.728 142.376C318.861 142.415 317.992 142.327 317.171 142.118C317.727 141.94 318.31 141.814 318.907 141.74C324.29 141.541 329.7 141.372 335.137 141.232C346.509 140.914 357.894 140.626 369.266 140.317C371.313 140.342 373.352 140.127 375.308 139.681V139.253C374.07 139.183 372.832 139.054 371.594 139.054C365.917 139.143 360.238 138.947 354.597 138.467C352.345 138.375 350.086 138.482 347.868 138.785C346.555 138.948 345.257 139.167 343.979 139.442C340.467 137.184 335.339 137.045 329.875 137.075C320.388 137.075 310.9 136.985 301.412 136.975C296.123 136.975 290.835 137.085 285.546 137.094C273.326 137.094 261.111 137.094 248.9 137.094C247.962 137.077 247.032 136.957 246.142 136.736C259.788 136.03 273.568 136.428 287.511 135.99C287.134 135.772 287.066 135.682 286.986 135.682C278.615 135.563 270.473 134.349 261.927 134.916C258.509 135.145 254.903 134.797 251.39 134.787C230.342 134.787 209.295 134.787 188.26 134.657C173.887 134.558 159.515 134.071 145.196 134.011C128.912 133.951 112.615 134.15 96.3442 134.289C87.6595 134.356 78.9793 134.485 70.3036 134.677C70.1556 134.677 70.0479 134.677 69.8999 134.677L66.3067 135.364C66.0605 135.532 65.7639 135.655 65.4411 135.722C65.1183 135.79 64.7785 135.8 64.4495 135.752C61.8791 136.299 59.376 136.896 56.9805 137.572C56.5737 137.707 56.1189 137.743 55.6829 137.673C55.2469 137.603 54.8527 137.432 54.5581 137.184C44.4245 139.969 39.1626 146.236 39.499 151.01C39.9027 156.78 36.4845 162.27 36 168C36.9722 167.931 37.9299 167.778 38.853 167.542C38.5051 167.325 38.1934 167.078 37.9244 166.806C37.3188 166.001 37.8302 165.404 39.6336 165.374C42.069 165.246 44.469 164.871 46.7661 164.26C48.883 163.689 51.2134 163.728 53.2931 164.369C53.9145 164.606 54.6004 164.737 55.2994 164.751C55.9985 164.764 56.6928 164.661 57.3304 164.449C59.0293 163.921 60.8779 163.709 62.7135 163.832C63.249 163.87 63.7892 163.847 64.3149 163.763C68.5137 162.768 73.0624 163.106 77.5035 163.066C92.1454 162.927 106.72 162.35 121.335 162.072C137.054 161.743 152.799 161.694 168.545 161.624C177.494 161.624 186.457 161.783 195.46 161.813C198.055 161.814 200.641 161.601 203.171 161.176C202.364 161.127 201.57 161.027 200.776 161.037C198.475 161.037 196.16 161.196 193.872 161.166C192.896 161.142 191.937 160.966 191.059 160.649C190.184 160.215 189.178 159.946 188.13 159.864C187.082 159.783 186.022 159.892 185.044 160.182C182.802 160.709 180.395 160.709 178.153 160.182C175.833 159.761 173.462 159.511 171.075 159.436C166.216 159.237 161.331 159.187 156.46 159.058C154.925 159.058 153.189 159.167 151.978 158.461C152.866 157.536 154.791 157.386 156.406 157.536C161.621 157.924 166.878 157.894 172.084 157.446C173.565 157.428 175.046 157.498 176.512 157.655C177.255 157.779 178.011 157.852 178.773 157.874C182.524 157.546 186.31 157.486 190.077 157.695C191.8 157.745 193.536 157.834 195.272 157.844C197.277 157.844 199.309 157.844 201.287 157.764C204.907 157.575 208.487 157.138 212.053 157.108C226.978 157.008 241.916 157.108 256.84 156.959C274.887 156.82 292.907 156.551 310.873 155.735C327.884 154.949 344.934 154.392 362.012 153.746C365.521 153.702 369.002 153.266 372.334 152.453C367.368 152.542 362.403 152.652 357.437 152.721C355.553 152.721 353.655 152.721 351.758 152.721C348.501 152.721 345.244 152.602 342.001 152.652C334.424 152.771 326.834 152.93 319.271 153.119C309.85 153.358 300.43 153.06 290.929 153.258C278.723 153.507 266.503 153.517 254.297 153.626C244.54 153.716 234.783 153.895 225.027 153.865C206.724 153.865 188.408 153.646 170.106 153.517C169.729 153.517 169.366 153.467 168.141 153.368C223.479 152.89 278.009 153.159 333.078 151.378C330.266 150.702 328.92 150.642 323.658 150.752C320.684 150.811 317.696 150.802 314.709 150.861C311.721 150.921 308.491 151.03 305.369 151.07C302.247 151.11 299.474 151.07 296.514 150.971C307.414 150.354 318.517 150.543 329.364 149.727V149.22C328.112 149.22 326.861 149.14 325.609 149.17C316.53 149.343 307.45 149.525 298.371 149.717C289.3 149.926 280.23 150.254 271.159 150.354C260.703 150.463 250.246 150.354 239.79 150.354C230.84 150.354 221.877 150.424 212.874 150.354C197.147 150.274 181.415 150.162 165.678 150.016C162.462 150.016 159.272 149.906 156.056 149.847V149.429C160.282 149.359 164.507 149.25 168.733 149.22C181.231 149.107 193.715 149.008 206.186 148.922ZM146.662 158.869C144.646 158.973 142.623 158.973 140.607 158.869C136.959 158.62 133.38 158.222 128.979 157.814C135.964 156.82 141.979 157.575 148.856 158.103C147.726 158.53 147.228 158.869 146.662 158.869Z" fill="white"/>
<path d="M217.814 119.078C208.986 119.078 200.158 119.128 191.343 119.188C176.957 119.277 162.57 119.357 148.198 119.526C140.607 119.626 133.017 119.914 125.441 120.103L89.6837 120.958C80.2633 121.167 70.7083 121.336 61.2206 121.575C58.9328 121.625 56.672 121.864 54.3976 122.013C52.8365 122.112 51.6119 122.321 51.1408 123.117C50.9525 123.435 49.8758 123.654 49.1895 123.913L46 125.146C46.699 125.288 47.4092 125.397 48.1263 125.474C53.8189 125.614 59.498 125.862 65.1772 125.862C78.2042 125.862 91.2448 125.713 104.272 125.624C105.139 125.585 106.008 125.673 106.829 125.882C106.273 126.06 105.69 126.186 105.093 126.26C99.7096 126.459 94.2996 126.628 88.8627 126.768C77.491 127.086 66.1058 127.374 54.7341 127.683C52.6871 127.658 50.6477 127.873 48.6916 128.319L48.6916 128.747C49.9297 128.817 51.1678 128.946 52.4059 128.946C58.083 128.857 63.7617 129.053 69.4029 129.533C71.655 129.625 73.9139 129.518 76.1318 129.215C77.4445 129.052 78.7432 128.833 80.021 128.558C83.5335 130.816 88.6609 130.955 94.1247 130.925C103.612 130.925 113.1 131.015 122.588 131.025C127.877 131.025 133.165 130.915 138.454 130.906C150.674 130.906 162.889 130.906 175.1 130.906C176.038 130.923 176.968 131.043 177.858 131.264C164.212 131.97 150.432 131.572 136.489 132.01C136.866 132.228 136.934 132.318 137.014 132.318C145.385 132.437 153.527 133.651 162.073 133.084C165.491 132.855 169.097 133.203 172.61 133.213C193.658 133.213 214.705 133.213 235.74 133.343C250.113 133.442 264.485 133.929 278.804 133.989C295.088 134.049 311.385 133.85 327.656 133.711C336.34 133.644 345.021 133.515 353.696 133.323C353.844 133.323 353.952 133.323 354.1 133.323L357.693 132.636C357.94 132.468 358.236 132.345 358.559 132.278C358.882 132.21 359.221 132.2 359.55 132.248C362.121 131.701 364.624 131.104 367.019 130.428C367.426 130.293 367.881 130.257 368.317 130.327C368.753 130.397 369.147 130.568 369.442 130.816C379.576 128.031 384.837 121.764 384.501 116.99C384.097 111.22 387.516 105.73 388 100C387.028 100.069 386.07 100.222 385.147 100.458C385.495 100.675 385.807 100.922 386.076 101.194C386.681 101.999 386.17 102.596 384.366 102.626C381.931 102.754 379.531 103.129 377.234 103.74C375.117 104.311 372.787 104.272 370.707 103.631C370.085 103.394 369.4 103.263 368.701 103.249C368.001 103.236 367.307 103.339 366.67 103.551C364.971 104.08 363.122 104.291 361.287 104.168C360.751 104.13 360.211 104.153 359.685 104.237C355.486 105.232 350.938 104.894 346.497 104.934C331.855 105.073 317.28 105.65 302.665 105.928C286.946 106.257 271.201 106.306 255.455 106.376C246.506 106.376 237.543 106.217 228.54 106.187C225.945 106.186 223.359 106.399 220.829 106.824C221.636 106.873 222.43 106.973 223.224 106.963C225.525 106.963 227.84 106.804 230.128 106.834C231.104 106.858 232.063 107.034 232.941 107.351C233.816 107.785 234.822 108.054 235.87 108.136C236.918 108.217 237.978 108.108 238.956 107.818C241.198 107.291 243.605 107.291 245.847 107.818C248.167 108.239 250.538 108.489 252.925 108.564C257.784 108.763 262.669 108.813 267.54 108.942C269.075 108.942 270.811 108.833 272.022 109.539C271.134 110.464 269.209 110.614 267.594 110.464C262.379 110.076 257.122 110.106 251.916 110.554C250.435 110.572 248.954 110.502 247.488 110.345C246.745 110.221 245.989 110.148 245.227 110.126C241.476 110.454 237.69 110.514 233.923 110.305C232.2 110.255 230.464 110.166 228.728 110.156C226.723 110.156 224.691 110.156 222.713 110.236C219.093 110.425 215.513 110.862 211.947 110.892C197.022 110.992 182.084 110.892 167.16 111.041C149.113 111.18 131.093 111.449 113.127 112.265C96.1164 113.051 79.0655 113.608 61.9877 114.254C58.4785 114.298 54.9984 114.734 51.6657 115.547C56.6316 115.458 61.5974 115.348 66.5634 115.279C68.4474 115.279 70.3449 115.279 72.2425 115.279C75.4992 115.279 78.756 115.398 81.9993 115.348C89.576 115.229 97.1661 115.07 104.729 114.881C114.15 114.642 123.57 114.94 133.071 114.742C145.277 114.493 157.497 114.483 169.703 114.374C179.46 114.284 189.217 114.105 198.973 114.135C217.276 114.135 235.592 114.354 253.894 114.483C254.271 114.483 254.634 114.533 255.859 114.632C200.521 115.11 145.991 114.841 90.9218 116.622C93.7344 117.298 95.0802 117.358 100.342 117.248C103.316 117.189 106.304 117.198 109.291 117.139C112.279 117.079 115.509 116.97 118.631 116.93C121.753 116.89 124.526 116.93 127.486 117.029C116.586 117.646 105.483 117.457 94.6361 118.273L94.6361 118.78C95.8876 118.78 97.1392 118.86 98.3908 118.83C107.47 118.657 116.55 118.475 125.629 118.283C134.7 118.074 143.77 117.746 152.841 117.646C163.297 117.537 173.754 117.646 184.21 117.646C193.16 117.646 202.123 117.576 211.126 117.646C226.853 117.726 242.585 117.838 258.322 117.984C261.538 117.984 264.728 118.094 267.944 118.153L267.944 118.571C263.718 118.641 259.493 118.75 255.267 118.78C242.769 118.893 230.285 118.992 217.814 119.078ZM277.338 109.131C279.354 109.027 281.377 109.027 283.393 109.131C287.041 109.38 290.62 109.778 295.021 110.186C288.036 111.181 282.021 110.425 275.144 109.897C276.274 109.47 276.772 109.131 277.338 109.131Z" fill="white"/>
<path d="M206.186 98.9215C215.014 98.9215 223.842 98.8718 232.657 98.8121C247.043 98.7226 261.43 98.643 275.802 98.4739C283.393 98.3745 290.983 98.086 298.559 97.897L334.316 97.0415C343.737 96.8327 353.292 96.6636 362.779 96.4248C365.067 96.3751 367.328 96.1364 369.602 95.9872C371.163 95.8877 372.388 95.6788 372.859 94.883C373.048 94.5647 374.124 94.3459 374.811 94.0873L378 92.8538C377.301 92.7123 376.591 92.6027 375.874 92.5256C370.181 92.3863 364.502 92.1376 358.823 92.1376C345.796 92.1376 332.755 92.2868 319.728 92.3764C318.861 92.4147 317.992 92.3268 317.171 92.1177C317.727 91.9405 318.31 91.8136 318.907 91.7398C324.29 91.5408 329.7 91.3717 335.137 91.2325C346.509 90.9142 357.894 90.6257 369.266 90.3173C371.313 90.342 373.352 90.1272 375.308 89.6807V89.253C374.07 89.1834 372.832 89.054 371.594 89.054C365.917 89.1427 360.238 88.9466 354.597 88.4672C352.345 88.3751 350.086 88.4819 347.868 88.7855C346.555 88.9476 345.257 89.1668 343.979 89.442C340.467 87.184 335.339 87.0447 329.875 87.0746C320.388 87.0746 310.9 86.9851 301.412 86.9751C296.123 86.9751 290.835 87.0845 285.546 87.0945C273.326 87.0945 261.111 87.0945 248.9 87.0945C247.962 87.0774 247.032 86.9567 246.142 86.7364C259.788 86.0301 273.568 86.428 287.511 85.9904C287.134 85.7715 287.066 85.682 286.986 85.682C278.615 85.5626 270.473 84.3491 261.927 84.9161C258.509 85.1448 254.903 84.7967 251.39 84.7867C230.342 84.7867 209.295 84.7868 188.26 84.6574C173.887 84.558 159.515 84.0706 145.196 84.0109C128.912 83.9512 112.615 84.1501 96.3442 84.2894C87.6595 84.3557 78.9793 84.485 70.3036 84.6773C70.1556 84.6773 70.0479 84.6773 69.8999 84.6773L66.3067 85.3637C66.0605 85.532 65.7639 85.6549 65.4411 85.7224C65.1183 85.7898 64.7785 85.7998 64.4495 85.7516C61.8791 86.2987 59.376 86.8955 56.9805 87.5719C56.5737 87.7072 56.1189 87.7426 55.6829 87.6727C55.2469 87.6029 54.8527 87.4316 54.5581 87.184C44.4245 89.9692 39.1626 96.2358 39.499 101.01C39.9027 106.78 36.4845 112.27 36 118C36.9722 117.931 37.9299 117.778 38.853 117.542C38.5051 117.325 38.1934 117.078 37.9244 116.806C37.3188 116.001 37.8302 115.404 39.6336 115.374C42.069 115.246 44.469 114.871 46.7661 114.26C48.883 113.689 51.2134 113.728 53.2931 114.369C53.9145 114.606 54.6004 114.737 55.2994 114.751C55.9985 114.764 56.6928 114.661 57.3304 114.449C59.0293 113.921 60.8779 113.709 62.7135 113.832C63.249 113.87 63.7892 113.847 64.3149 113.763C68.5137 112.768 73.0624 113.106 77.5035 113.066C92.1454 112.927 106.72 112.35 121.335 112.072C137.054 111.743 152.799 111.694 168.545 111.624C177.494 111.624 186.457 111.783 195.46 111.813C198.055 111.814 200.641 111.601 203.171 111.176C202.364 111.127 201.57 111.027 200.776 111.037C198.475 111.037 196.16 111.196 193.872 111.166C192.896 111.142 191.937 110.966 191.059 110.649C190.184 110.215 189.178 109.946 188.13 109.864C187.082 109.783 186.022 109.892 185.044 110.182C182.802 110.709 180.395 110.709 178.153 110.182C175.833 109.761 173.462 109.511 171.075 109.436C166.216 109.237 161.331 109.187 156.46 109.058C154.925 109.058 153.189 109.167 151.978 108.461C152.866 107.536 154.791 107.386 156.406 107.536C161.621 107.924 166.878 107.894 172.084 107.446C173.565 107.428 175.046 107.498 176.512 107.655C177.255 107.779 178.011 107.852 178.773 107.874C182.524 107.546 186.31 107.486 190.077 107.695C191.8 107.745 193.536 107.834 195.272 107.844C197.277 107.844 199.309 107.844 201.287 107.764C204.907 107.575 208.487 107.138 212.053 107.108C226.978 107.008 241.916 107.108 256.84 106.959C274.887 106.82 292.907 106.551 310.873 105.735C327.884 104.949 344.934 104.392 362.012 103.746C365.521 103.702 369.002 103.266 372.334 102.453C367.368 102.542 362.403 102.652 357.437 102.721C355.553 102.721 353.655 102.721 351.758 102.721C348.501 102.721 345.244 102.602 342.001 102.652C334.424 102.771 326.834 102.93 319.271 103.119C309.85 103.358 300.43 103.06 290.929 103.258C278.723 103.507 266.503 103.517 254.297 103.626C244.54 103.716 234.783 103.895 225.027 103.865C206.724 103.865 188.408 103.646 170.106 103.517C169.729 103.517 169.366 103.467 168.141 103.368C223.479 102.89 278.009 103.159 333.078 101.378C330.266 100.702 328.92 100.642 323.658 100.752C320.684 100.811 317.696 100.802 314.709 100.861C311.721 100.921 308.491 101.03 305.369 101.07C302.247 101.11 299.474 101.07 296.514 100.971C307.414 100.354 318.517 100.543 329.364 99.7272V99.22C328.112 99.22 326.861 99.1404 325.609 99.1702C316.53 99.3426 307.45 99.525 298.371 99.7173C289.3 99.9262 280.23 100.254 271.159 100.354C260.703 100.463 250.246 100.354 239.79 100.354C230.84 100.354 221.877 100.424 212.874 100.354C197.147 100.274 181.415 100.162 165.678 100.016C162.462 100.016 159.272 99.9063 156.056 99.8466V99.4288C160.282 99.3592 164.507 99.2498 168.733 99.22C181.231 99.1072 193.715 99.0077 206.186 98.9215ZM146.662 108.869C144.646 108.973 142.623 108.973 140.607 108.869C136.959 108.62 133.38 108.222 128.979 107.814C135.964 106.82 141.979 107.575 148.856 108.103C147.726 108.53 147.228 108.869 146.662 108.869Z" fill="white"/>
<path d="M217.814 69.0785C208.986 69.0785 200.158 69.1282 191.343 69.1879C176.957 69.2774 162.57 69.357 148.198 69.5261C140.607 69.6255 133.017 69.914 125.441 70.103L89.6837 70.9584C80.2633 71.1673 70.7083 71.3364 61.2206 71.5752C58.9328 71.6249 56.672 71.8636 54.3976 72.0128C52.8365 72.1123 51.6119 72.3212 51.1408 73.117C50.9525 73.4353 49.8758 73.6541 49.1895 73.9127L46 75.1462C46.699 75.2877 47.4092 75.3973 48.1263 75.4744C53.8189 75.6137 59.498 75.8624 65.1772 75.8624C78.2042 75.8624 91.2448 75.7131 104.272 75.6236C105.139 75.5853 106.008 75.6732 106.829 75.8822C106.273 76.0595 105.69 76.1864 105.093 76.2602C99.7096 76.4592 94.2996 76.6283 88.8627 76.7675C77.491 77.0858 66.1058 77.3743 54.7341 77.6827C52.6871 77.6579 50.6477 77.8728 48.6916 78.3193L48.6916 78.747C49.9297 78.8166 51.1678 78.9459 52.4059 78.9459C58.083 78.8573 63.7617 79.0534 69.4029 79.5328C71.655 79.6249 73.9139 79.518 76.1318 79.2145C77.4445 79.0524 78.7432 78.8332 80.021 78.558C83.5335 80.816 88.6609 80.9552 94.1247 80.9254C103.612 80.9254 113.1 81.0149 122.588 81.0249C127.877 81.0249 133.165 80.9155 138.454 80.9055C150.674 80.9055 162.889 80.9055 175.1 80.9055C176.038 80.9226 176.968 81.0433 177.858 81.2636C164.212 81.9698 150.432 81.572 136.489 82.0096C136.866 82.2285 136.934 82.318 137.014 82.318C145.385 82.4374 153.527 83.6509 162.073 83.0839C165.491 82.8551 169.097 83.2033 172.61 83.2132C193.658 83.2132 214.705 83.2132 235.74 83.3425C250.113 83.442 264.485 83.9294 278.804 83.9891C295.088 84.0488 311.385 83.8499 327.656 83.7106C336.34 83.6443 345.021 83.515 353.696 83.3227C353.844 83.3227 353.952 83.3227 354.1 83.3227L357.693 82.6363C357.94 82.468 358.236 82.3451 358.559 82.2776C358.882 82.2102 359.221 82.2002 359.55 82.2484C362.121 81.7013 364.624 81.1045 367.019 80.4281C367.426 80.2928 367.881 80.2574 368.317 80.3273C368.753 80.3971 369.147 80.5684 369.442 80.816C379.576 78.0308 384.837 71.7642 384.501 66.9896C384.097 61.2203 387.516 55.7295 388 50C387.028 50.0686 386.07 50.2222 385.147 50.4576C385.495 50.6749 385.807 50.922 386.076 51.1937C386.681 51.9994 386.17 52.5962 384.366 52.626C381.931 52.7537 379.531 53.1286 377.234 53.7401C375.117 54.3115 372.787 54.2724 370.707 53.6307C370.085 53.3935 369.4 53.2632 368.701 53.2494C368.001 53.2357 367.307 53.3388 366.67 53.5511C364.971 54.0795 363.122 54.2913 361.287 54.1678C360.751 54.1296 360.211 54.1531 359.685 54.2375C355.486 55.2322 350.938 54.894 346.497 54.9338C331.855 55.073 317.28 55.6499 302.665 55.9285C286.946 56.2567 271.201 56.3064 255.455 56.3761C246.506 56.3761 237.543 56.2169 228.54 56.1871C225.945 56.1857 223.359 56.3993 220.829 56.8237C221.636 56.8734 222.43 56.9729 223.224 56.963C225.525 56.963 227.84 56.8038 230.128 56.8336C231.104 56.8576 232.063 57.0339 232.941 57.3509C233.816 57.785 234.822 58.0545 235.87 58.1359C236.918 58.2174 237.978 58.1084 238.956 57.8184C241.198 57.291 243.605 57.291 245.847 57.8184C248.167 58.2392 250.538 58.4891 252.925 58.5644C257.784 58.7634 262.669 58.8131 267.54 58.9424C269.075 58.9424 270.811 58.833 272.022 59.5392C271.134 60.4643 269.209 60.6135 267.594 60.4643C262.379 60.0762 257.122 60.1062 251.916 60.5538C250.435 60.5722 248.954 60.5024 247.488 60.345C246.745 60.2209 245.989 60.1476 245.227 60.1261C241.476 60.4543 237.69 60.5143 233.923 60.3052C232.2 60.2554 230.464 60.1659 228.728 60.156C226.723 60.156 224.691 60.156 222.713 60.2355C219.093 60.4245 215.513 60.8622 211.947 60.892C197.022 60.9915 182.084 60.892 167.16 61.0412C149.113 61.1805 131.093 61.4491 113.127 62.2647C96.1164 63.0505 79.0655 63.6076 61.9877 64.2541C58.4785 64.2978 54.9984 64.7338 51.6657 65.5472C56.6316 65.4577 61.5974 65.3483 66.5634 65.2787C68.4474 65.2787 70.3449 65.2787 72.2425 65.2787C75.4992 65.2787 78.756 65.398 81.9993 65.3483C89.576 65.2289 97.1661 65.0698 104.729 64.8808C114.15 64.6421 123.57 64.9405 133.071 64.7415C145.277 64.4929 157.497 64.4829 169.703 64.3735C179.46 64.284 189.217 64.1049 198.973 64.1348C217.276 64.1348 235.592 64.3536 253.894 64.4829C254.271 64.4829 254.634 64.5327 255.859 64.6321C200.521 65.1096 145.991 64.841 90.9218 66.6215C93.7344 67.2979 95.0802 67.3576 100.342 67.2482C103.316 67.1885 106.304 67.1985 109.291 67.1388C112.279 67.0791 115.509 66.9697 118.631 66.9299C121.753 66.8901 124.526 66.9299 127.486 67.0294C116.586 67.6461 105.483 67.4571 94.6361 68.2727L94.6361 68.78C95.8876 68.78 97.1392 68.8596 98.3908 68.8298C107.47 68.6574 116.55 68.475 125.629 68.2827C134.7 68.0738 143.77 67.7456 152.841 67.6461C163.297 67.5367 173.754 67.6461 184.21 67.6461C193.16 67.6461 202.123 67.5765 211.126 67.6461C226.853 67.7257 242.585 67.8384 258.322 67.9843C261.538 67.9843 264.728 68.0937 267.944 68.1534L267.944 68.5712C263.718 68.6408 259.493 68.7502 255.267 68.7801C242.769 68.8928 230.285 68.9923 217.814 69.0785ZM277.338 59.1314C279.354 59.027 281.377 59.027 283.393 59.1314C287.041 59.3801 290.62 59.778 295.021 60.1858C288.036 61.1805 282.021 60.4245 275.144 59.8973C276.274 59.4696 276.772 59.1314 277.338 59.1314Z" fill="white"/>
<path d="M197.186 48.9215C206.014 48.9215 214.842 48.8718 223.657 48.8121C238.043 48.7226 252.43 48.643 266.802 48.4739C274.393 48.3745 281.983 48.086 289.559 47.897L325.316 47.0415C334.737 46.8327 344.292 46.6636 353.779 46.4248C356.067 46.3751 358.328 46.1364 360.602 45.9872C362.163 45.8877 363.388 45.6788 363.859 44.883C364.048 44.5647 365.124 44.3459 365.811 44.0873L369 42.8538C368.301 42.7123 367.591 42.6027 366.874 42.5256C361.181 42.3863 355.502 42.1376 349.823 42.1376C336.796 42.1376 323.755 42.2868 310.728 42.3764C309.861 42.4147 308.992 42.3268 308.171 42.1177C308.727 41.9405 309.31 41.8136 309.907 41.7398C315.29 41.5408 320.7 41.3717 326.137 41.2325C337.509 40.9142 348.894 40.6257 360.266 40.3173C362.313 40.342 364.352 40.1272 366.308 39.6807V39.253C365.07 39.1834 363.832 39.054 362.594 39.054C356.917 39.1427 351.238 38.9466 345.597 38.4672C343.345 38.3751 341.086 38.4819 338.868 38.7855C337.555 38.9476 336.257 39.1668 334.979 39.442C331.467 37.184 326.339 37.0447 320.875 37.0746C311.388 37.0746 301.9 36.9851 292.412 36.9751C287.123 36.9751 281.835 37.0845 276.546 37.0945C264.326 37.0945 252.111 37.0945 239.9 37.0945C238.962 37.0774 238.032 36.9567 237.142 36.7364C250.788 36.0301 264.568 36.428 278.511 35.9904C278.134 35.7715 278.066 35.682 277.986 35.682C269.615 35.5626 261.473 34.3491 252.927 34.9161C249.509 35.1448 245.903 34.7967 242.39 34.7867C221.342 34.7867 200.295 34.7868 179.26 34.6574C164.887 34.558 150.515 34.0706 136.196 34.0109C119.912 33.9512 103.615 34.1501 87.3442 34.2894C78.6595 34.3557 69.9793 34.485 61.3036 34.6773C61.1556 34.6773 61.0479 34.6773 60.8999 34.6773L57.3067 35.3637C57.0605 35.532 56.7639 35.6549 56.4411 35.7224C56.1183 35.7898 55.7785 35.7998 55.4495 35.7516C52.8791 36.2987 50.376 36.8955 47.9805 37.5719C47.5737 37.7072 47.1189 37.7426 46.6829 37.6727C46.2469 37.6029 45.8527 37.4316 45.5581 37.184C35.4245 39.9692 30.1626 46.2358 30.499 51.0104C30.9027 56.7797 27.4845 62.2705 27 68C27.9722 67.9315 28.9299 67.7779 29.853 67.5424C29.5051 67.3251 29.1934 67.078 28.9244 66.8064C28.3188 66.0006 28.8302 65.4038 30.6336 65.374C33.069 65.2463 35.469 64.8714 37.7661 64.2599C39.883 63.6886 42.2134 63.7276 44.2931 64.3693C44.9145 64.6065 45.6004 64.7368 46.2994 64.7506C46.9985 64.7644 47.6928 64.6612 48.3304 64.4489C50.0293 63.9205 51.8779 63.7087 53.7135 63.8322C54.249 63.8704 54.7892 63.8469 55.3149 63.7626C59.5137 62.7678 64.0624 63.1061 68.5035 63.0663C83.1454 62.927 97.7201 62.3501 112.335 62.0716C128.054 61.7433 143.799 61.6936 159.545 61.6239C168.494 61.6239 177.457 61.7831 186.46 61.8129C189.055 61.8143 191.641 61.6007 194.171 61.1763C193.364 61.1266 192.57 61.0271 191.776 61.0371C189.475 61.0371 187.16 61.1962 184.872 61.1664C183.896 61.1424 182.937 60.9661 182.059 60.6491C181.184 60.215 180.178 59.9456 179.13 59.8641C178.082 59.7826 177.022 59.8916 176.044 60.1816C173.802 60.709 171.395 60.709 169.153 60.1816C166.833 59.7608 164.462 59.5109 162.075 59.4356C157.216 59.2367 152.331 59.1869 147.46 59.0576C145.925 59.0576 144.189 59.167 142.978 58.4608C143.866 57.5357 145.791 57.3865 147.406 57.5357C152.621 57.9239 157.878 57.8938 163.084 57.4462C164.565 57.4278 166.046 57.4976 167.512 57.6551C168.255 57.7791 169.011 57.8524 169.773 57.8739C173.524 57.5457 177.31 57.4857 181.077 57.6949C182.8 57.7446 184.536 57.8341 186.272 57.8441C188.277 57.8441 190.309 57.8441 192.287 57.7645C195.907 57.5755 199.487 57.1378 203.053 57.108C217.978 57.0085 232.916 57.108 247.84 56.9588C265.887 56.8195 283.907 56.5509 301.873 55.7353C318.884 54.9495 335.934 54.3924 353.012 53.7459C356.521 53.7022 360.002 53.2662 363.334 52.4527C358.368 52.5423 353.403 52.6517 348.437 52.7213C346.553 52.7213 344.655 52.7213 342.758 52.7213C339.501 52.7213 336.244 52.6019 333.001 52.6517C325.424 52.771 317.834 52.9302 310.271 53.1192C300.85 53.3579 291.43 53.0595 281.929 53.2585C269.723 53.5071 257.503 53.5171 245.297 53.6265C235.54 53.716 225.783 53.8951 216.027 53.8652C197.724 53.8652 179.408 53.6464 161.106 53.5171C160.729 53.5171 160.366 53.4673 159.141 53.3679C214.479 52.8904 269.009 53.159 324.078 51.3785C321.266 50.7021 319.92 50.6424 314.658 50.7518C311.684 50.8115 308.696 50.8015 305.709 50.8612C302.721 50.9209 299.491 51.0303 296.369 51.0701C293.247 51.1099 290.474 51.0701 287.514 50.9706C298.414 50.3539 309.517 50.5429 320.364 49.7272V49.22C319.112 49.22 317.861 49.1404 316.609 49.1702C307.53 49.3426 298.45 49.525 289.371 49.7173C280.3 49.9262 271.23 50.2544 262.159 50.3539C251.703 50.4633 241.246 50.3539 230.79 50.3539C221.84 50.3539 212.877 50.4235 203.874 50.3539C188.147 50.2743 172.415 50.1616 156.678 50.0157C153.462 50.0157 150.272 49.9063 147.056 49.8466V49.4288C151.282 49.3592 155.507 49.2498 159.733 49.22C172.231 49.1072 184.715 49.0077 197.186 48.9215ZM137.662 58.8686C135.646 58.9731 133.623 58.9731 131.607 58.8686C127.959 58.6199 124.38 58.222 119.979 57.8142C126.964 56.8195 132.979 57.5755 139.856 58.1027C138.726 58.5304 138.228 58.8686 137.662 58.8686Z" fill="white"/>
<path d="M207.814 19.0785C198.986 19.0785 190.158 19.1282 181.343 19.1879C166.957 19.2774 152.57 19.357 138.198 19.5261C130.607 19.6255 123.017 19.914 115.441 20.103L79.6837 20.9584C70.2633 21.1673 60.7083 21.3364 51.2206 21.5752C48.9328 21.6249 46.672 21.8636 44.3976 22.0128C42.8365 22.1123 41.6119 22.3212 41.1408 23.117C40.9525 23.4353 39.8758 23.6541 39.1895 23.9127L36 25.1462C36.699 25.2877 37.4092 25.3973 38.1263 25.4744C43.8189 25.6137 49.498 25.8624 55.1772 25.8624C68.2042 25.8624 81.2448 25.7131 94.2718 25.6236C95.1388 25.5853 96.0075 25.6732 96.8287 25.8822C96.2728 26.0595 95.6899 26.1864 95.0927 26.2602C89.7096 26.4592 84.2996 26.6283 78.8627 26.7675C67.491 27.0858 56.1058 27.3743 44.7341 27.6827C42.6871 27.6579 40.6477 27.8728 38.6916 28.3193L38.6916 28.747C39.9297 28.8166 41.1678 28.9459 42.4059 28.9459C48.083 28.8573 53.7617 29.0534 59.4029 29.5328C61.655 29.6249 63.9139 29.518 66.1318 29.2145C67.4445 29.0524 68.7432 28.8332 70.021 28.558C73.5335 30.816 78.6609 30.9552 84.1247 30.9254C93.6123 30.9254 103.1 31.0149 112.588 31.0249C117.877 31.0249 123.165 30.9155 128.454 30.9055C140.674 30.9055 152.889 30.9055 165.1 30.9055C166.038 30.9226 166.968 31.0433 167.858 31.2636C154.212 31.9698 140.432 31.572 126.489 32.0096C126.866 32.2285 126.934 32.318 127.014 32.318C135.385 32.4374 143.527 33.6509 152.073 33.0839C155.491 32.8551 159.097 33.2033 162.61 33.2132C183.658 33.2132 204.705 33.2132 225.74 33.3425C240.113 33.442 254.485 33.9294 268.804 33.9891C285.088 34.0488 301.385 33.8499 317.656 33.7106C326.34 33.6443 335.021 33.515 343.696 33.3227C343.844 33.3227 343.952 33.3227 344.1 33.3227L347.693 32.6363C347.94 32.468 348.236 32.3451 348.559 32.2776C348.882 32.2102 349.221 32.2002 349.55 32.2484C352.121 31.7013 354.624 31.1045 357.019 30.4281C357.426 30.2928 357.881 30.2574 358.317 30.3273C358.753 30.3971 359.147 30.5684 359.442 30.816C369.576 28.0308 374.837 21.7642 374.501 16.9896C374.097 11.2203 377.516 5.72953 378 2.28882e-05C377.028 0.0685691 376.07 0.222156 375.147 0.45758C375.495 0.674873 375.807 0.921974 376.076 1.19367C376.681 1.99938 376.17 2.5962 374.366 2.62605C371.931 2.75375 369.531 3.12862 367.234 3.74011C365.117 4.31145 362.787 4.27238 360.707 3.63069C360.085 3.39354 359.4 3.26322 358.701 3.24944C358.001 3.23566 357.307 3.33878 356.67 3.55111C354.971 4.07951 353.122 4.29128 351.287 4.16783C350.751 4.1296 350.211 4.1531 349.685 4.23746C345.486 5.23217 340.938 4.89397 336.497 4.93375C321.855 5.07301 307.28 5.64994 292.665 5.92846C276.946 6.25671 261.201 6.30644 245.455 6.37607C236.506 6.37607 227.543 6.21691 218.54 6.18707C215.945 6.18574 213.359 6.39927 210.829 6.82368C211.636 6.87342 212.43 6.9729 213.224 6.96295C215.525 6.96295 217.84 6.8038 220.128 6.83364C221.104 6.85761 222.063 7.03388 222.941 7.35089C223.816 7.78497 224.822 8.05445 225.87 8.13593C226.918 8.2174 227.978 8.10839 228.956 7.81839C231.198 7.29104 233.605 7.29104 235.847 7.81839C238.167 8.23918 240.538 8.48908 242.925 8.56442C247.784 8.76336 252.669 8.8131 257.54 8.94241C259.075 8.94241 260.811 8.833 262.022 9.53924C261.134 10.4643 259.209 10.6135 257.594 10.4643C252.379 10.0762 247.122 10.1062 241.916 10.5538C240.435 10.5722 238.954 10.5024 237.488 10.345C236.745 10.2209 235.989 10.1476 235.227 10.1261C231.476 10.4543 227.69 10.5143 223.923 10.3052C222.2 10.2554 220.464 10.1659 218.728 10.156C216.723 10.156 214.691 10.156 212.713 10.2355C209.093 10.4245 205.513 10.8622 201.947 10.892C187.022 10.9915 172.084 10.892 157.16 11.0412C139.113 11.1805 121.093 11.4491 103.127 12.2647C86.1164 13.0505 69.0655 13.6076 51.9877 14.2541C48.4785 14.2978 44.9984 14.7338 41.6657 15.5472C46.6316 15.4577 51.5974 15.3483 56.5634 15.2787C58.4474 15.2787 60.3449 15.2787 62.2425 15.2787C65.4992 15.2787 68.756 15.398 71.9993 15.3483C79.576 15.2289 87.1661 15.0698 94.7293 14.8808C104.15 14.6421 113.57 14.9405 123.071 14.7415C135.277 14.4929 147.497 14.4829 159.703 14.3735C169.46 14.284 179.217 14.1049 188.973 14.1348C207.276 14.1348 225.592 14.3536 243.894 14.4829C244.271 14.4829 244.634 14.5327 245.859 14.6321C190.521 15.1096 135.991 14.841 80.9218 16.6215C83.7344 17.2979 85.0802 17.3576 90.3421 17.2482C93.3163 17.1885 96.3039 17.1985 99.2915 17.1388C102.279 17.0791 105.509 16.9697 108.631 16.9299C111.753 16.8901 114.526 16.9299 117.486 17.0294C106.586 17.6461 95.483 17.4571 84.6361 18.2727L84.6361 18.78C85.8876 18.78 87.1392 18.8596 88.3908 18.8298C97.4702 18.6574 106.55 18.475 115.629 18.2827C124.7 18.0738 133.77 17.7456 142.841 17.6461C153.297 17.5367 163.754 17.6461 174.21 17.6461C183.16 17.6461 192.123 17.5765 201.126 17.6461C216.853 17.7257 232.585 17.8384 248.322 17.9843C251.538 17.9843 254.728 18.0937 257.944 18.1534L257.944 18.5712C253.718 18.6408 249.493 18.7502 245.267 18.7801C232.769 18.8928 220.285 18.9923 207.814 19.0785ZM267.338 9.13141C269.354 9.02696 271.377 9.02696 273.393 9.13141C277.041 9.38009 280.62 9.77797 285.021 10.1858C278.036 11.1805 272.021 10.4245 265.144 9.89734C266.274 9.46961 266.772 9.13141 267.338 9.13141Z" fill="white"/>
</mask>
<g mask="url(#mask0)">
<path fill-rule="evenodd" clip-rule="evenodd" d="M131.929 115.47V191.1H236.097V197.617H131.929V360.475C134.572 362.998 136.399 366.256 137.173 369.827C137.948 373.398 137.636 377.119 136.276 380.511C134.917 383.903 132.573 386.81 129.546 388.858C126.519 390.906 122.949 392 119.295 392C115.64 392 112.07 390.906 109.043 388.858C106.017 386.81 103.673 383.903 102.313 380.511C100.954 377.119 100.641 373.398 101.416 369.827C102.191 366.256 104.017 362.998 106.66 360.475V24.6349C106.66 21.2839 107.991 18.0701 110.36 15.7006C112.73 13.3311 115.944 12 119.295 12C122.646 12 125.859 13.3311 128.229 15.7006C130.598 18.0701 131.929 21.2839 131.929 24.6349V33.3039H236.097H352.88H352.9V115.45H346.383V39.8206H236.097L236.097 115.45H352.88V197.617L236.097 197.617V115.47H131.929Z" fill="white"/>
</g>
</svg>
