<svg width="114" height="32" viewBox="0 0 114 32" fill="none" xmlns="http://www.w3.org/2000/svg">
<mask id="path-1-outside-1" maskUnits="userSpaceOnUse" x="0" y="0" width="114" height="32" fill="black">
<rect fill="white" width="114" height="32"/>
<path fill-rule="evenodd" clip-rule="evenodd" d="M87.3394 7.85828C86.7047 7.87241 86.0701 7.88597 85.4355 7.89818C85.1806 7.92975 84.9251 7.85739 84.6836 7.6852C84.8471 7.53922 85.0185 7.4347 85.1941 7.37392C86.7771 7.21008 88.368 7.07083 89.9669 6.95614C91.9686 6.79923 93.9717 6.65113 95.9745 6.50305C97.3176 6.40374 98.6607 6.30444 100.003 6.20251C100.605 6.22286 101.205 6.04591 101.78 5.67824V5.32599C101.665 5.30788 101.55 5.28487 101.435 5.26186C101.186 5.21201 100.937 5.16216 100.688 5.16216C99.0182 5.23514 97.3483 5.07367 95.6894 4.67885C95.0271 4.60302 94.3628 4.69101 93.7106 4.94098C93.3246 5.07449 92.9427 5.25503 92.5669 5.48163C91.534 3.62212 90.0262 3.50743 88.4195 3.53201C86.9424 3.53201 85.4653 3.51134 83.9882 3.49068C82.6753 3.47232 81.3624 3.45395 80.0494 3.4501C79.2347 3.4501 78.4201 3.47482 77.6054 3.49954C76.8648 3.52202 76.1242 3.54449 75.3835 3.54839H64.6073C64.3313 3.53433 64.0579 3.43493 63.796 3.25349C66.082 2.92217 68.3809 2.88592 70.694 2.84945C72.4414 2.8219 74.197 2.79422 75.9613 2.63911C75.9118 2.55854 75.8804 2.49926 75.8588 2.45833C75.832 2.40771 75.8201 2.38517 75.807 2.38517C74.8707 2.34778 73.9442 2.18003 73.0171 2.01219C71.5069 1.73875 69.9953 1.46508 68.4382 1.75441C67.8049 1.87311 67.1496 1.80323 66.4931 1.73322C66.1076 1.6921 65.7216 1.65094 65.3395 1.64791H65.338C59.149 1.64791 52.96 1.64791 46.7749 1.54143C44.7621 1.50242 42.7492 1.39095 40.7381 1.27957C38.5262 1.15708 36.3164 1.0347 34.111 1.00896C30.2176 0.968997 26.3216 1.06983 22.4293 1.17057C21.5344 1.19373 20.6397 1.21689 19.7453 1.23833C17.1914 1.29294 14.6389 1.39943 12.0876 1.5578H11.9689L10.9122 2.12303C10.8398 2.26167 10.7526 2.36288 10.6577 2.41841C10.5628 2.47393 10.4629 2.48219 10.3661 2.44251C9.61023 2.89305 8.87414 3.38455 8.16971 3.94159C8.05008 4.05301 7.91634 4.08211 7.78813 4.02461C7.65992 3.96711 7.54399 3.82604 7.45736 3.62211C4.47738 5.91579 2.93001 11.0766 3.02894 15.0086C3.09604 17.6935 2.80422 20.3051 2.51199 22.9204C2.2871 24.9331 2.06196 26.948 2 29C2.28588 28.9436 2.56751 28.8171 2.83898 28.6232C2.73668 28.4442 2.64501 28.2407 2.56592 28.017C2.38783 27.3535 2.53822 26.862 3.06852 26.8374C3.7847 26.7322 4.49048 26.4235 5.16598 25.9199C5.7885 25.4494 6.47379 25.4816 7.08536 26.01C7.26809 26.2053 7.46978 26.3127 7.67536 26.324C7.88094 26.3354 8.0851 26.2504 8.2726 26.0756C8.7722 25.6404 9.3158 25.466 9.8556 25.5677C10.0131 25.5992 10.1719 25.5798 10.3265 25.5103C11.2885 24.8721 12.313 24.9002 13.3362 24.9283C13.6264 24.9362 13.9164 24.9442 14.2049 24.9369C16.7656 24.8687 19.3193 24.673 21.8726 24.4774C23.4683 24.3551 25.0638 24.2328 26.6608 24.1417C27.2954 24.1276 27.93 24.114 28.5645 24.1018C28.8194 24.0702 29.0749 24.1426 29.3164 24.3148C29.1529 24.4608 28.9815 24.5653 28.8059 24.6261C27.2229 24.7899 25.632 24.9292 24.0332 25.0439C22.0314 25.2008 20.0283 25.3489 18.0254 25.497C16.6823 25.5963 15.3393 25.6956 13.997 25.7975C13.395 25.7771 12.7953 25.9541 12.2201 26.3218L12.2201 26.674C12.335 26.6921 12.45 26.7151 12.565 26.7381C12.8141 26.788 13.0632 26.8378 13.3123 26.8378C14.9818 26.7649 16.6517 26.9263 18.3106 27.3211C18.9729 27.397 19.6372 27.309 20.2894 27.059C20.6754 26.9255 21.0573 26.745 21.4331 26.5184C22.466 28.3779 23.9738 28.4926 25.5805 28.468C27.0576 28.468 28.5347 28.4887 30.0118 28.5093C31.3247 28.5277 32.6377 28.546 33.9506 28.5499C34.7653 28.5499 35.58 28.5252 36.3946 28.5005C37.1352 28.478 37.8759 28.4555 38.6165 28.4516H49.3927C49.6687 28.4657 49.9421 28.5651 50.204 28.7465C47.918 29.0778 45.6191 29.1141 43.306 29.1505C41.5586 29.1781 39.803 29.2058 38.0387 29.3609C38.0882 29.4415 38.1196 29.5007 38.1412 29.5417C38.168 29.5923 38.1799 29.6148 38.193 29.6148C39.1293 29.6522 40.0558 29.82 40.9829 29.9878C42.4931 30.2612 44.0047 30.5349 45.5618 30.2456C46.1951 30.1269 46.8504 30.1968 47.5069 30.2668C47.8924 30.3079 48.2784 30.3491 48.6605 30.3521H48.6619C54.8509 30.3521 61.04 30.3521 67.2251 30.4586C69.2379 30.4976 71.2507 30.6091 73.2619 30.7204C75.4737 30.8429 77.6836 30.9653 79.889 30.991C83.7824 31.031 87.6784 30.9302 91.5706 30.8294C92.4655 30.8063 93.3602 30.7831 94.2547 30.7617C96.8086 30.7071 99.3611 30.6006 101.912 30.4422H102.031L103.088 29.877C103.16 29.7383 103.247 29.6371 103.342 29.5816C103.437 29.5261 103.537 29.5178 103.634 29.5575C104.39 29.1069 105.126 28.6154 105.83 28.0584C105.95 27.947 106.084 27.9179 106.212 27.9754C106.34 28.0329 106.456 28.174 106.543 28.3779C109.523 26.0842 111.07 20.9234 110.971 16.9914C110.904 14.3065 111.196 11.6949 111.488 9.07961C111.713 7.0669 111.938 5.05204 112 3.00001C111.714 3.05645 111.432 3.18294 111.161 3.37682C111.263 3.55576 111.355 3.75926 111.434 3.98301C111.612 4.64653 111.462 5.13804 110.931 5.16261C110.215 5.26778 109.51 5.5765 108.834 6.08008C108.212 6.55059 107.526 6.51842 106.915 5.98997C106.732 5.79467 106.53 5.68734 106.325 5.67599C106.119 5.66465 105.915 5.74957 105.727 5.92443C105.228 6.35958 104.684 6.53399 104.144 6.43232C103.987 6.40084 103.828 6.42019 103.673 6.48966C102.711 7.12788 101.687 7.0998 100.664 7.07175C100.374 7.06379 100.084 7.05584 99.7951 7.06308C97.2345 7.13128 94.6808 7.32697 92.1274 7.52263C90.5318 7.64489 88.9363 7.76715 87.3394 7.85828Z"/>
</mask>
<path fill-rule="evenodd" clip-rule="evenodd" d="M87.3394 7.85828C86.7047 7.87241 86.0701 7.88597 85.4355 7.89818C85.1806 7.92975 84.9251 7.85739 84.6836 7.6852C84.8471 7.53922 85.0185 7.4347 85.1941 7.37392C86.7771 7.21008 88.368 7.07083 89.9669 6.95614C91.9686 6.79923 93.9717 6.65113 95.9745 6.50305C97.3176 6.40374 98.6607 6.30444 100.003 6.20251C100.605 6.22286 101.205 6.04591 101.78 5.67824V5.32599C101.665 5.30788 101.55 5.28487 101.435 5.26186C101.186 5.21201 100.937 5.16216 100.688 5.16216C99.0182 5.23514 97.3483 5.07367 95.6894 4.67885C95.0271 4.60302 94.3628 4.69101 93.7106 4.94098C93.3246 5.07449 92.9427 5.25503 92.5669 5.48163C91.534 3.62212 90.0262 3.50743 88.4195 3.53201C86.9424 3.53201 85.4653 3.51134 83.9882 3.49068C82.6753 3.47232 81.3624 3.45395 80.0494 3.4501C79.2347 3.4501 78.4201 3.47482 77.6054 3.49954C76.8648 3.52202 76.1242 3.54449 75.3835 3.54839H64.6073C64.3313 3.53433 64.0579 3.43493 63.796 3.25349C66.082 2.92217 68.3809 2.88592 70.694 2.84945C72.4414 2.8219 74.197 2.79422 75.9613 2.63911C75.9118 2.55854 75.8804 2.49926 75.8588 2.45833C75.832 2.40771 75.8201 2.38517 75.807 2.38517C74.8707 2.34778 73.9442 2.18003 73.0171 2.01219C71.5069 1.73875 69.9953 1.46508 68.4382 1.75441C67.8049 1.87311 67.1496 1.80323 66.4931 1.73322C66.1076 1.6921 65.7216 1.65094 65.3395 1.64791H65.338C59.149 1.64791 52.96 1.64791 46.7749 1.54143C44.7621 1.50242 42.7492 1.39095 40.7381 1.27957C38.5262 1.15708 36.3164 1.0347 34.111 1.00896C30.2176 0.968997 26.3216 1.06983 22.4293 1.17057C21.5344 1.19373 20.6397 1.21689 19.7453 1.23833C17.1914 1.29294 14.6389 1.39943 12.0876 1.5578H11.9689L10.9122 2.12303C10.8398 2.26167 10.7526 2.36288 10.6577 2.41841C10.5628 2.47393 10.4629 2.48219 10.3661 2.44251C9.61023 2.89305 8.87414 3.38455 8.16971 3.94159C8.05008 4.05301 7.91634 4.08211 7.78813 4.02461C7.65992 3.96711 7.54399 3.82604 7.45736 3.62211C4.47738 5.91579 2.93001 11.0766 3.02894 15.0086C3.09604 17.6935 2.80422 20.3051 2.51199 22.9204C2.2871 24.9331 2.06196 26.948 2 29C2.28588 28.9436 2.56751 28.8171 2.83898 28.6232C2.73668 28.4442 2.64501 28.2407 2.56592 28.017C2.38783 27.3535 2.53822 26.862 3.06852 26.8374C3.7847 26.7322 4.49048 26.4235 5.16598 25.9199C5.7885 25.4494 6.47379 25.4816 7.08536 26.01C7.26809 26.2053 7.46978 26.3127 7.67536 26.324C7.88094 26.3354 8.0851 26.2504 8.2726 26.0756C8.7722 25.6404 9.3158 25.466 9.8556 25.5677C10.0131 25.5992 10.1719 25.5798 10.3265 25.5103C11.2885 24.8721 12.313 24.9002 13.3362 24.9283C13.6264 24.9362 13.9164 24.9442 14.2049 24.9369C16.7656 24.8687 19.3193 24.673 21.8726 24.4774C23.4683 24.3551 25.0638 24.2328 26.6608 24.1417C27.2954 24.1276 27.93 24.114 28.5645 24.1018C28.8194 24.0702 29.0749 24.1426 29.3164 24.3148C29.1529 24.4608 28.9815 24.5653 28.8059 24.6261C27.2229 24.7899 25.632 24.9292 24.0332 25.0439C22.0314 25.2008 20.0283 25.3489 18.0254 25.497C16.6823 25.5963 15.3393 25.6956 13.997 25.7975C13.395 25.7771 12.7953 25.9541 12.2201 26.3218L12.2201 26.674C12.335 26.6921 12.45 26.7151 12.565 26.7381C12.8141 26.788 13.0632 26.8378 13.3123 26.8378C14.9818 26.7649 16.6517 26.9263 18.3106 27.3211C18.9729 27.397 19.6372 27.309 20.2894 27.059C20.6754 26.9255 21.0573 26.745 21.4331 26.5184C22.466 28.3779 23.9738 28.4926 25.5805 28.468C27.0576 28.468 28.5347 28.4887 30.0118 28.5093C31.3247 28.5277 32.6377 28.546 33.9506 28.5499C34.7653 28.5499 35.58 28.5252 36.3946 28.5005C37.1352 28.478 37.8759 28.4555 38.6165 28.4516H49.3927C49.6687 28.4657 49.9421 28.5651 50.204 28.7465C47.918 29.0778 45.6191 29.1141 43.306 29.1505C41.5586 29.1781 39.803 29.2058 38.0387 29.3609C38.0882 29.4415 38.1196 29.5007 38.1412 29.5417C38.168 29.5923 38.1799 29.6148 38.193 29.6148C39.1293 29.6522 40.0558 29.82 40.9829 29.9878C42.4931 30.2612 44.0047 30.5349 45.5618 30.2456C46.1951 30.1269 46.8504 30.1968 47.5069 30.2668C47.8924 30.3079 48.2784 30.3491 48.6605 30.3521H48.6619C54.8509 30.3521 61.04 30.3521 67.2251 30.4586C69.2379 30.4976 71.2507 30.6091 73.2619 30.7204C75.4737 30.8429 77.6836 30.9653 79.889 30.991C83.7824 31.031 87.6784 30.9302 91.5706 30.8294C92.4655 30.8063 93.3602 30.7831 94.2547 30.7617C96.8086 30.7071 99.3611 30.6006 101.912 30.4422H102.031L103.088 29.877C103.16 29.7383 103.247 29.6371 103.342 29.5816C103.437 29.5261 103.537 29.5178 103.634 29.5575C104.39 29.1069 105.126 28.6154 105.83 28.0584C105.95 27.947 106.084 27.9179 106.212 27.9754C106.34 28.0329 106.456 28.174 106.543 28.3779C109.523 26.0842 111.07 20.9234 110.971 16.9914C110.904 14.3065 111.196 11.6949 111.488 9.07961C111.713 7.0669 111.938 5.05204 112 3.00001C111.714 3.05645 111.432 3.18294 111.161 3.37682C111.263 3.55576 111.355 3.75926 111.434 3.98301C111.612 4.64653 111.462 5.13804 110.931 5.16261C110.215 5.26778 109.51 5.5765 108.834 6.08008C108.212 6.55059 107.526 6.51842 106.915 5.98997C106.732 5.79467 106.53 5.68734 106.325 5.67599C106.119 5.66465 105.915 5.74957 105.727 5.92443C105.228 6.35958 104.684 6.53399 104.144 6.43232C103.987 6.40084 103.828 6.42019 103.673 6.48966C102.711 7.12788 101.687 7.0998 100.664 7.07175C100.374 7.06379 100.084 7.05584 99.7951 7.06308C97.2345 7.13128 94.6808 7.32697 92.1274 7.52263C90.5318 7.64489 88.9363 7.76715 87.3394 7.85828Z" fill="#C9452D"/>
<path d="M87.3394 7.85828L87.3616 8.85804L87.379 8.85765L87.3964 8.85666L87.3394 7.85828ZM85.4355 7.89818L85.4163 6.89837L85.3643 6.89937L85.3127 6.90576L85.4355 7.89818ZM84.6836 7.6852L84.0176 6.93929L83.084 7.77285L84.1031 8.49943L84.6836 7.6852ZM85.1941 7.37392L85.0912 6.37923L84.9762 6.39112L84.8671 6.42891L85.1941 7.37392ZM89.9669 6.95614L90.0384 7.9536L90.045 7.95308L89.9669 6.95614ZM95.9745 6.50305L95.9008 5.50577L95.9745 6.50305ZM100.003 6.20251L100.037 5.20308L99.982 5.20123L99.9273 5.20538L100.003 6.20251ZM101.78 5.67824L102.318 6.52083L102.78 6.22589V5.67824H101.78ZM101.78 5.32599H102.78V4.47115L101.936 4.33817L101.78 5.32599ZM101.435 5.26186L101.239 6.24242V6.24242L101.435 5.26186ZM100.688 5.16216V4.16216H100.666L100.644 4.16311L100.688 5.16216ZM95.6894 4.67885L95.9209 3.70602L95.8626 3.69216L95.8031 3.68534L95.6894 4.67885ZM93.7106 4.94098L94.0375 5.88605L94.0531 5.88066L94.0685 5.87474L93.7106 4.94098ZM92.5669 5.48163L91.6927 5.96722L92.1959 6.87312L93.0833 6.33797L92.5669 5.48163ZM88.4195 3.53201V4.53201H88.4271L88.4348 4.53189L88.4195 3.53201ZM83.9882 3.49068L83.9743 4.49058L83.9882 3.49068ZM80.0494 3.4501L80.0523 2.4501H80.0494V3.4501ZM77.6054 3.49954L77.6357 4.49908L77.6054 3.49954ZM75.3835 3.54839V4.54841L75.3888 4.54838L75.3835 3.54839ZM64.6073 3.54839L64.5564 4.5471L64.5819 4.54839H64.6073V3.54839ZM63.796 3.25349L63.6526 2.26383L61.1382 2.62826L63.2264 4.07542L63.796 3.25349ZM70.694 2.84945L70.6783 1.84957L70.694 2.84945ZM75.9613 2.63911L76.0489 3.63527L77.6606 3.49358L76.8132 2.11535L75.9613 2.63911ZM75.8588 2.45833L76.7429 1.99096L76.7428 1.99091L75.8588 2.45833ZM75.807 2.38517L75.7671 3.38438L75.787 3.38517H75.807V2.38517ZM73.0171 2.01219L73.1953 1.02819V1.02819L73.0171 2.01219ZM68.4382 1.75441L68.2555 0.771234L68.2539 0.771524L68.4382 1.75441ZM66.4931 1.73322L66.3871 2.72758V2.72758L66.4931 1.73322ZM65.3395 1.64791L65.3474 0.647911H65.3395V1.64791ZM46.7749 1.54143L46.7555 2.54124L46.7577 2.54128L46.7749 1.54143ZM40.7381 1.27957L40.7934 0.281102L40.7381 1.27957ZM34.111 1.00896L34.1227 0.00902683L34.1213 0.0090124L34.111 1.00896ZM22.4293 1.17057L22.4552 2.17024L22.4293 1.17057ZM19.7453 1.23833L19.7667 2.2381L19.7693 2.23804L19.7453 1.23833ZM12.0876 1.5578V2.5578H12.1186L12.1496 2.55588L12.0876 1.5578ZM11.9689 1.5578V0.557802H11.7182L11.4972 0.676034L11.9689 1.5578ZM10.9122 2.12303L10.4406 1.24126L10.1686 1.38673L10.0259 1.66009L10.9122 2.12303ZM10.6577 2.41841L11.1626 3.28157L11.1626 3.28157L10.6577 2.41841ZM10.3661 2.44251L10.7456 1.5173L10.2833 1.3277L9.85411 1.58352L10.3661 2.44251ZM8.16971 3.94159L7.54944 3.1572L7.51775 3.18226L7.48817 3.20981L8.16971 3.94159ZM7.78813 4.02461L7.37891 4.93705L7.37891 4.93705L7.78813 4.02461ZM7.45736 3.62211L8.37776 3.23113L7.87217 2.04093L6.84742 2.82967L7.45736 3.62211ZM3.02894 15.0086L4.02863 14.9836L4.02863 14.9834L3.02894 15.0086ZM2.51199 22.9204L3.50581 23.0314L2.51199 22.9204ZM2 29L1.00046 28.9698L0.962582 30.2242L2.19372 29.9811L2 29ZM2.83898 28.6232L3.42016 29.437L4.15577 28.9116L3.70712 28.1269L2.83898 28.6232ZM2.56592 28.017L1.6001 28.2762L1.61016 28.3137L1.62309 28.3503L2.56592 28.017ZM3.06852 26.8374L3.11481 27.8363L3.16454 27.834L3.2138 27.8268L3.06852 26.8374ZM5.16598 25.9199L5.76368 26.7217L5.76896 26.7177L5.16598 25.9199ZM7.08536 26.01L7.81557 25.3268L7.77932 25.2881L7.73918 25.2534L7.08536 26.01ZM7.67536 26.324L7.73048 25.3255L7.73047 25.3255L7.67536 26.324ZM8.2726 26.0756L7.61581 25.3215L7.603 25.3327L7.59057 25.3442L8.2726 26.0756ZM9.8556 25.5677L10.0516 24.587L10.0407 24.585L9.8556 25.5677ZM10.3265 25.5103L10.7364 26.4225L10.8111 26.3889L10.8794 26.3436L10.3265 25.5103ZM13.3362 24.9283L13.3088 25.9279L13.3362 24.9283ZM14.2049 24.9369L14.2299 25.9366L14.2315 25.9366L14.2049 24.9369ZM21.8726 24.4774L21.7962 23.4803L21.8726 24.4774ZM26.6608 24.1417L26.6385 23.142L26.6211 23.1423L26.6038 23.1433L26.6608 24.1417ZM28.5645 24.1018L28.5837 25.1016L28.6357 25.1006L28.6873 25.0942L28.5645 24.1018ZM29.3164 24.3148L29.9824 25.0607L30.9159 24.2271L29.8969 23.5006L29.3164 24.3148ZM28.8059 24.6261L28.9088 25.6208L29.0237 25.6089L29.1329 25.5711L28.8059 24.6261ZM24.0332 25.0439L23.9616 24.0464L23.955 24.0469L24.0332 25.0439ZM18.0254 25.497L17.9517 24.4997L18.0254 25.497ZM13.997 25.7975L13.9632 26.7969L14.018 26.7988L14.0727 26.7946L13.997 25.7975ZM12.2201 26.3218L11.6815 25.4792L11.2201 25.7741L11.2201 26.3218L12.2201 26.3218ZM12.2201 26.674L11.2201 26.674L11.2201 27.5288L12.0645 27.6618L12.2201 26.674ZM12.565 26.7381L12.3688 27.7187L12.3688 27.7187L12.565 26.7381ZM13.3123 26.8378V27.8378H13.3342L13.356 27.8369L13.3123 26.8378ZM18.3106 27.3211L18.0791 28.294L18.1374 28.3078L18.1969 28.3147L18.3106 27.3211ZM20.2894 27.059L19.9625 26.1139L19.9469 26.1193L19.9315 26.1253L20.2894 27.059ZM21.4331 26.5184L22.3073 26.0328L21.8041 25.1269L20.9167 25.662L21.4331 26.5184ZM25.5805 28.468V27.468H25.5729L25.5652 27.4681L25.5805 28.468ZM30.0118 28.5093L29.9978 29.5092L30.0118 28.5093ZM33.9506 28.5499L33.9477 29.5499H33.9506V28.5499ZM36.3946 28.5005L36.3643 27.5009H36.3643L36.3946 28.5005ZM38.6165 28.4516V27.4516L38.6112 27.4516L38.6165 28.4516ZM49.3927 28.4516L49.4436 27.4529L49.4181 27.4516H49.3927V28.4516ZM50.204 28.7465L50.3474 29.7362L52.8618 29.3717L50.7736 27.9246L50.204 28.7465ZM43.306 29.1505L43.3217 30.1504L43.306 29.1505ZM38.0387 29.3609L37.9511 28.3647L36.3394 28.5064L37.1868 29.8846L38.0387 29.3609ZM38.1412 29.5417L39.0252 29.0742L39.0252 29.0742L38.1412 29.5417ZM38.193 29.6148L38.2329 28.6156L38.213 28.6148H38.193V29.6148ZM40.9829 29.9878L41.161 29.0038L40.9829 29.9878ZM45.5618 30.2456L45.7445 31.2288L45.7461 31.2285L45.5618 30.2456ZM47.5069 30.2668L47.6129 29.2724L47.5069 30.2668ZM48.6605 30.3521L48.6526 31.3521H48.6605V30.3521ZM67.2251 30.4586L67.2445 29.4588L67.2423 29.4587L67.2251 30.4586ZM73.2619 30.7204L73.2066 31.7189L73.2619 30.7204ZM79.889 30.991L79.8773 31.991L79.8788 31.991L79.889 30.991ZM91.5706 30.8294L91.5448 29.8298L91.5706 30.8294ZM94.2547 30.7617L94.2333 29.7619L94.2307 29.762L94.2547 30.7617ZM101.912 30.4422V29.4422H101.881L101.85 29.4441L101.912 30.4422ZM102.031 30.4422V31.4422H102.282L102.503 31.324L102.031 30.4422ZM103.088 29.877L103.559 30.7587L103.831 30.6133L103.974 30.3399L103.088 29.877ZM103.342 29.5816L103.847 30.4447L103.847 30.4447L103.342 29.5816ZM103.634 29.5575L103.254 30.4827L103.717 30.6723L104.146 30.4165L103.634 29.5575ZM105.83 28.0584L106.451 28.8428L106.482 28.8177L106.512 28.7902L105.83 28.0584ZM106.212 27.9754L106.621 27.063L106.621 27.0629L106.212 27.9754ZM106.543 28.3779L105.622 28.7689L106.128 29.9591L107.153 29.1703L106.543 28.3779ZM110.971 16.9914L109.971 17.0164V17.0166L110.971 16.9914ZM111.488 9.07961L110.494 8.96856L111.488 9.07961ZM112 3.00001L113 3.03018L113.037 1.77585L111.806 2.01895L112 3.00001ZM111.161 3.37682L110.58 2.56303L109.844 3.08839L110.293 3.87315L111.161 3.37682ZM111.434 3.98301L112.4 3.72379L112.39 3.68631L112.377 3.64972L111.434 3.98301ZM110.931 5.16261L110.885 4.16369L110.835 4.16599L110.786 4.17322L110.931 5.16261ZM108.834 6.08008L108.236 5.27833L108.231 5.28232L108.834 6.08008ZM106.915 5.98997L106.184 6.67319L106.221 6.71193L106.261 6.74662L106.915 5.98997ZM106.325 5.67599L106.27 6.67447L106.325 5.67599ZM105.727 5.92443L106.384 6.67851L106.397 6.66735L106.409 6.65576L105.727 5.92443ZM104.144 6.43232L103.948 7.41298L103.959 7.41504L104.144 6.43232ZM103.673 6.48966L103.264 5.57753L103.189 5.6111L103.121 5.65637L103.673 6.48966ZM100.664 7.07175L100.636 8.07137L100.664 7.07175ZM99.7951 7.06308L99.7701 6.06339L99.7685 6.06343L99.7951 7.06308ZM92.1274 7.52263L92.2038 8.51971L92.1274 7.52263ZM87.3171 6.85853C86.683 6.87265 86.0494 6.88618 85.4163 6.89837L85.4548 8.898C86.0907 8.88576 86.7264 8.87218 87.3616 8.85804L87.3171 6.85853ZM85.3127 6.90576C85.3158 6.90538 85.3196 6.90526 85.3234 6.90556C85.3271 6.90585 85.3285 6.90638 85.327 6.90595C85.3244 6.90521 85.303 6.89871 85.2642 6.87098L84.1031 8.49943C84.5148 8.79299 85.0167 8.95767 85.5584 8.89061L85.3127 6.90576ZM85.3496 8.43112C85.4319 8.3577 85.491 8.32937 85.5212 8.31892L84.8671 6.42891C84.5461 6.54002 84.2623 6.72074 84.0176 6.93929L85.3496 8.43112ZM85.2971 8.3686C86.8695 8.20586 88.45 8.06752 90.0384 7.95358L89.8953 5.95871C88.2861 6.07414 86.6847 6.2143 85.0912 6.37923L85.2971 8.3686ZM90.045 7.95308C92.0441 7.79638 94.045 7.64844 96.0483 7.50032L95.9008 5.50577C93.8983 5.65382 91.893 5.80209 89.8887 5.9592L90.045 7.95308ZM96.0483 7.50032C97.3912 7.40103 98.7352 7.30166 100.079 7.19964L99.9273 5.20538C98.5861 5.30723 97.2441 5.40645 95.9008 5.50577L96.0483 7.50032ZM99.9692 7.20194C100.8 7.23001 101.596 6.98242 102.318 6.52083L101.241 4.83565C100.813 5.10941 100.41 5.2157 100.037 5.20308L99.9692 7.20194ZM102.78 5.67824V5.32599H100.78V5.67824H102.78ZM101.936 4.33817C101.844 4.32381 101.75 4.30501 101.631 4.28131L101.239 6.24242C101.35 6.26473 101.486 6.29195 101.624 6.31381L101.936 4.33817ZM101.631 4.28131C101.4 4.23507 101.053 4.16216 100.688 4.16216V6.16216C100.821 6.16216 100.972 6.18895 101.239 6.24242L101.631 4.28131ZM100.644 4.16311C99.0689 4.23197 97.4916 4.07984 95.9209 3.70602L95.4578 5.65168C97.205 6.06749 98.9675 6.23831 100.731 6.1612L100.644 4.16311ZM95.8031 3.68534C94.9734 3.59034 94.1477 3.70254 93.3527 4.00722L94.0685 5.87474C94.578 5.67948 95.0807 5.61569 95.5756 5.67236L95.8031 3.68534ZM93.3838 3.9959C92.9269 4.15391 92.4818 4.36522 92.0505 4.6253L93.0833 6.33797C93.4036 6.14483 93.7222 5.99508 94.0375 5.88605L93.3838 3.9959ZM93.4411 4.99605C92.8151 3.8691 91.9977 3.20638 91.0513 2.86091C90.1553 2.53384 89.2115 2.51977 88.4042 2.53212L88.4348 4.53189C89.2342 4.51966 89.8477 4.55065 90.3655 4.73966C90.8329 4.91027 91.2858 5.23465 91.6927 5.96722L93.4411 4.99605ZM88.4195 2.53201C86.9505 2.53201 85.4805 2.51146 84.0022 2.49078L83.9743 4.49058C85.4502 4.51123 86.9342 4.53201 88.4195 4.53201V2.53201ZM84.0022 2.49078C82.6902 2.47243 81.3717 2.45397 80.0523 2.4501L80.0465 4.45009C81.353 4.45393 82.6604 4.47221 83.9743 4.49058L84.0022 2.49078ZM80.0494 2.4501C79.217 2.4501 78.3872 2.47536 77.5751 2.5L77.6357 4.49908C78.4529 4.47428 79.2524 4.4501 80.0494 4.4501V2.4501ZM77.5751 2.5C76.8323 2.52254 76.1043 2.54458 75.3783 2.54841L75.3888 4.54838C76.144 4.5444 76.8972 4.52149 77.6357 4.49908L77.5751 2.5ZM75.3835 2.54839H64.6073V4.54839H75.3835V2.54839ZM64.6582 2.54969C64.5951 2.54647 64.4982 2.52343 64.3656 2.43156L63.2264 4.07542C63.6175 4.34642 64.0675 4.52218 64.5564 4.5471L64.6582 2.54969ZM63.9395 4.24315C66.1514 3.92256 68.386 3.88597 70.7098 3.84933L70.6783 1.84957C68.3758 1.88588 66.0127 1.92177 63.6526 2.26383L63.9395 4.24315ZM70.7098 3.84933C72.4514 3.82187 74.2428 3.79405 76.0489 3.63527L75.8737 1.64295C74.1511 1.79439 72.4314 1.82193 70.6783 1.84957L70.7098 3.84933ZM76.8132 2.11535C76.781 2.06291 76.7617 2.0265 76.7429 1.99096L74.9747 2.9257C74.9992 2.97202 75.0426 3.05417 75.1095 3.16287L76.8132 2.11535ZM76.7428 1.99091C76.7414 1.98813 76.7033 1.91336 76.6601 1.84849C76.638 1.8153 76.5747 1.72217 76.4683 1.63081C76.3506 1.52971 76.1248 1.38517 75.807 1.38517V3.38517C75.4957 3.38517 75.2764 3.24345 75.1654 3.14816C75.0658 3.06261 75.0096 2.97828 74.9955 2.95705C74.9682 2.9161 74.9495 2.87791 74.9748 2.92575L76.7428 1.99091ZM75.8469 1.38597C74.992 1.35183 74.1342 1.19817 73.1953 1.02819L72.839 2.99619C73.7542 3.16189 74.7495 3.34374 75.7671 3.38438L75.8469 1.38597ZM73.1953 1.02819C71.7137 0.759944 70.0218 0.443043 68.2555 0.771235L68.6208 2.73758C69.9688 2.48712 71.3001 2.71757 72.839 2.99619L73.1953 1.02819ZM68.2539 0.771524C67.7899 0.858496 67.284 0.811885 66.5992 0.738856L66.3871 2.72758C67.0153 2.79457 67.8198 2.88771 68.6224 2.73729L68.2539 0.771524ZM66.5992 0.738856C66.2224 0.698675 65.7871 0.65143 65.3474 0.647943L65.3315 2.64788C65.6561 2.65045 65.9928 2.68553 66.3871 2.72758L66.5992 0.738856ZM65.3395 0.647911H65.338V2.64791H65.3395V0.647911ZM65.338 0.647911C59.1475 0.647911 52.9671 0.647887 46.7921 0.541576L46.7577 2.54128C52.9528 2.64794 59.1504 2.64791 65.338 2.64791V0.647911ZM46.7943 0.541616C44.8024 0.503011 42.8076 0.392643 40.7934 0.281102L40.6828 2.27804C42.6909 2.38925 44.7217 2.50182 46.7555 2.54124L46.7943 0.541616ZM40.7934 0.281102C38.5852 0.158815 36.3536 0.0350686 34.1227 0.00902784L34.0993 2.00889C36.2793 2.03434 38.4673 2.15535 40.6828 2.27804L40.7934 0.281102ZM34.1213 0.0090124C30.2068 -0.0311663 26.2927 0.0702459 22.4034 0.170906L22.4552 2.17024C26.3505 2.06942 30.2284 1.96916 34.1007 2.00891L34.1213 0.0090124ZM22.4034 0.170906C21.5084 0.194071 20.6147 0.217202 19.7214 0.238613L19.7693 2.23804C20.6648 2.21657 21.5605 2.19339 22.4552 2.17024L22.4034 0.170906ZM19.724 0.238555C17.1565 0.293456 14.5904 0.400512 12.0257 0.559723L12.1496 2.55588C14.6873 2.39835 17.2264 2.29242 19.7667 2.2381L19.724 0.238555ZM12.0876 0.557802H11.9689V2.5578H12.0876V0.557802ZM11.4972 0.676034L10.4406 1.24126L11.3839 3.0048L12.4406 2.43957L11.4972 0.676034ZM10.0259 1.66009C10.0189 1.67337 10.0204 1.66706 10.0359 1.64908C10.051 1.6315 10.0879 1.59317 10.1528 1.55525L11.1626 3.28157C11.4745 3.0991 11.6742 2.82424 11.7986 2.58597L10.0259 1.66009ZM10.1528 1.55525C10.2203 1.51574 10.3146 1.47911 10.4302 1.46956C10.5472 1.45989 10.6559 1.48052 10.7456 1.5173L9.98664 3.36771C10.3886 3.53259 10.8148 3.48502 11.1626 3.28157L10.1528 1.55525ZM9.85411 1.58352C9.06893 2.05153 8.29518 2.5675 7.54944 3.1572L8.78997 4.72598C9.4531 4.20161 10.1515 3.73457 10.8781 3.30149L9.85411 1.58352ZM7.48817 3.20981C7.53132 3.16962 7.62396 3.10098 7.76952 3.06931C7.92396 3.03571 8.07595 3.05773 8.19734 3.11217L7.37891 4.93705C7.94433 5.19063 8.49827 5.00211 8.85124 4.67338L7.48817 3.20981ZM8.19734 3.11217C8.30756 3.1616 8.36374 3.22389 8.37974 3.24337C8.3969 3.26425 8.39215 3.265 8.37776 3.23113L6.53696 4.0131C6.66771 4.32089 6.91915 4.73085 7.37891 4.93705L8.19734 3.11217ZM6.84742 2.82967C5.15103 4.13537 3.93109 6.19293 3.14801 8.36131C2.36045 10.5421 1.97655 12.9388 2.02926 15.0337L4.02863 14.9834C3.9824 13.1463 4.32271 10.9967 5.0291 9.04064C5.73998 7.0722 6.78371 5.40254 8.0673 4.41456L6.84742 2.82967ZM2.02926 15.0336C2.09437 17.6392 1.81156 20.1837 1.51818 22.8093L3.50581 23.0314C3.79687 20.4265 4.0977 17.7477 4.02863 14.9836L2.02926 15.0336ZM1.51818 22.8093C1.29399 24.8157 1.06384 26.8706 1.00046 28.9698L2.99954 29.0302C3.06008 27.0253 3.2802 25.0505 3.50581 23.0314L1.51818 22.8093ZM2.19372 29.9811C2.63801 29.8933 3.04961 29.7016 3.42016 29.437L2.25781 27.8094C2.0854 27.9325 1.93375 27.9938 1.80628 28.0189L2.19372 29.9811ZM3.70712 28.1269C3.6386 28.007 3.5708 27.8593 3.50874 27.6837L1.62309 28.3503C1.71922 28.6222 1.83475 28.8815 1.97085 29.1195L3.70712 28.1269ZM3.53174 27.7578C3.50361 27.653 3.49537 27.5797 3.49456 27.5372C3.49371 27.4925 3.50132 27.5046 3.48299 27.5515C3.46153 27.6065 3.41031 27.6913 3.31327 27.759C3.2182 27.8253 3.13632 27.8353 3.11481 27.8363L3.02223 25.8385C2.73557 25.8517 2.43603 25.9324 2.16918 26.1185C1.90035 26.306 1.72324 26.5598 1.62015 26.8236C1.4273 27.3172 1.48575 27.8502 1.6001 28.2762L3.53174 27.7578ZM3.2138 27.8268C4.11905 27.6938 4.97714 27.308 5.76367 26.7217L4.5683 25.1182C4.00381 25.539 3.45034 25.7706 2.92323 25.848L3.2138 27.8268ZM5.76896 26.7177C5.92638 26.5987 6.0286 26.5867 6.08288 26.5893C6.14099 26.592 6.25881 26.6174 6.43154 26.7667L7.73918 25.2534C7.30034 24.8742 6.76973 24.6193 6.17667 24.5915C5.57978 24.5634 5.0281 24.7706 4.56301 25.1222L5.76896 26.7177ZM6.35515 26.6933C6.6594 27.0184 7.08749 27.2931 7.62025 27.3225L7.73047 25.3255C7.78654 25.3286 7.82521 25.3445 7.84158 25.3532C7.85565 25.3607 7.84503 25.3583 7.81557 25.3268L6.35515 26.6933ZM7.62024 27.3225C8.16126 27.3524 8.61999 27.119 8.95464 26.8069L7.59057 25.3442C7.56936 25.364 7.56992 25.3575 7.59669 25.3463C7.62632 25.334 7.67357 25.3224 7.73048 25.3255L7.62024 27.3225ZM8.9294 26.8296C9.25108 26.5495 9.49435 26.5172 9.6705 26.5504L10.0407 24.585C9.13725 24.4148 8.29333 24.7314 7.61581 25.3215L8.9294 26.8296ZM9.65958 26.5483C10.0329 26.6229 10.4031 26.5723 10.7364 26.4225L9.91663 24.5982C9.92521 24.5944 9.94395 24.5875 9.97125 24.5842C9.99897 24.5808 10.0269 24.5821 10.0516 24.5871L9.65958 26.5483ZM10.8794 26.3436C11.5414 25.9044 12.2478 25.8988 13.3088 25.9279L13.3636 23.9286C12.3782 23.9016 11.0357 23.8398 9.7737 24.6771L10.8794 26.3436ZM13.3088 25.9279C13.5945 25.9357 13.9108 25.9446 14.2299 25.9366L14.1798 23.9372C13.922 23.9437 13.6583 23.9367 13.3636 23.9286L13.3088 25.9279ZM14.2315 25.9366C16.8213 25.8676 19.3998 25.6698 21.949 25.4745L21.7962 23.4803C19.2387 23.6763 16.7099 23.8698 14.1782 23.9373L14.2315 25.9366ZM21.949 25.4745C23.5463 25.3521 25.1321 25.2306 26.7177 25.1401L26.6038 23.1433C24.9954 23.2351 23.3902 23.3582 21.7962 23.4803L21.949 25.4745ZM26.683 25.1415C27.3171 25.1273 27.9506 25.1138 28.5837 25.1016L28.5452 23.102C27.9094 23.1142 27.2737 23.1278 26.6385 23.142L26.683 25.1415ZM28.6873 25.0942C28.6842 25.0946 28.6804 25.0947 28.6766 25.0944C28.6729 25.0941 28.6715 25.0936 28.673 25.094C28.6756 25.0948 28.697 25.1013 28.7358 25.129L29.8969 23.5006C29.4852 23.207 28.9833 23.0423 28.4416 23.1094L28.6873 25.0942ZM28.6503 23.5689C28.5681 23.6423 28.509 23.6706 28.4788 23.6811L29.1329 25.5711C29.4539 25.46 29.7377 25.2793 29.9824 25.0607L28.6503 23.5689ZM28.7029 23.6314C27.1305 23.7941 25.55 23.9325 23.9616 24.0464L24.1047 26.0413C25.7139 25.9259 27.3153 25.7857 28.9088 25.6208L28.7029 23.6314ZM23.955 24.0469C21.9558 24.2036 19.9549 24.3516 17.9517 24.4997L18.0991 26.4942C20.1016 26.3462 22.107 26.1979 24.1113 26.0408L23.955 24.0469ZM17.9517 24.4997C16.6087 24.599 15.2648 24.6983 13.9213 24.8004L14.0727 26.7946C15.4139 26.6928 16.7559 26.5935 18.0991 26.4942L17.9517 24.4997ZM14.0308 24.7981C13.2003 24.77 12.4037 25.0176 11.6815 25.4792L12.7586 27.1643C13.1869 26.8906 13.5898 26.7843 13.9632 26.7969L14.0308 24.7981ZM11.2201 26.3218L11.2201 26.674L13.2201 26.674L13.2201 26.3218L11.2201 26.3218ZM12.0645 27.6618C12.1556 27.6762 12.2503 27.695 12.3688 27.7187L12.7612 25.7576C12.6497 25.7353 12.5145 25.708 12.3757 25.6862L12.0645 27.6618ZM12.3688 27.7187C12.5998 27.7649 12.9471 27.8378 13.3123 27.8378V25.8378C13.1793 25.8378 13.0284 25.811 12.7612 25.7576L12.3688 27.7187ZM13.356 27.8369C14.9311 27.768 16.5084 27.9202 18.0791 28.294L18.5422 26.3483C16.795 25.9325 15.0325 25.7617 13.2687 25.8388L13.356 27.8369ZM18.1969 28.3147C19.0266 28.4097 19.8523 28.2975 20.6473 27.9928L19.9315 26.1253C19.422 26.3205 18.9192 26.3843 18.4244 26.3276L18.1969 28.3147ZM20.6162 28.0041C21.0731 27.8461 21.5182 27.6348 21.9495 27.3747L20.9167 25.662C20.5964 25.8552 20.2778 26.0049 19.9625 26.1139L20.6162 28.0041ZM20.5589 27.0039C21.1849 28.1309 22.0023 28.7936 22.9487 29.1391C23.8447 29.4662 24.7885 29.4802 25.5958 29.4679L25.5652 27.4681C24.7658 27.4803 24.1523 27.4493 23.6345 27.2603C23.1671 27.0897 22.7142 26.7653 22.3073 26.0328L20.5589 27.0039ZM25.5805 29.468C27.0494 29.468 28.5195 29.4885 29.9978 29.5092L30.0258 27.5094C28.5498 27.4888 27.0658 27.468 25.5805 27.468V29.468ZM29.9978 29.5092C31.3098 29.5276 32.6283 29.546 33.9477 29.5499L33.9535 27.5499C32.647 27.5461 31.3396 27.5278 30.0258 27.5094L29.9978 29.5092ZM33.9506 29.5499C34.783 29.5499 35.6128 29.5246 36.425 29.5L36.3643 27.5009C35.5471 27.5257 34.7476 27.5499 33.9506 27.5499V29.5499ZM36.425 29.5C37.1677 29.4775 37.8957 29.4554 38.6217 29.4516L38.6112 27.4516C37.856 27.4556 37.1028 27.4785 36.3643 27.5009L36.425 29.5ZM38.6165 29.4516H49.3927V27.4516H38.6165V29.4516ZM49.3418 29.4503C49.4049 29.4535 49.5018 29.4766 49.6344 29.5684L50.7736 27.9246C50.3825 27.6536 49.9325 27.4778 49.4436 27.4529L49.3418 29.4503ZM50.0605 27.7568C47.8486 28.0774 45.614 28.114 43.2902 28.1507L43.3217 30.1504C45.6242 30.1141 47.9873 30.0782 50.3474 29.7362L50.0605 27.7568ZM43.2902 28.1507C41.5485 28.1781 39.7572 28.2059 37.9511 28.3647L38.1263 30.357C39.8489 30.2056 41.5686 30.1781 43.3217 30.1504L43.2902 28.1507ZM37.1868 29.8846C37.219 29.9371 37.2383 29.9735 37.2572 30.0091L39.0252 29.0742C39.0008 29.028 38.9574 28.9458 38.8905 28.8371L37.1868 29.8846ZM37.2572 30.0091C37.2586 30.0119 37.2967 30.0866 37.3399 30.1515C37.362 30.1847 37.4253 30.2778 37.5317 30.3692C37.6494 30.4703 37.8752 30.6148 38.193 30.6148V28.6148C38.5043 28.6148 38.7236 28.7565 38.8346 28.8518C38.9342 28.9374 38.9904 29.0217 39.0046 29.0429C39.0318 29.0839 39.0505 29.1221 39.0252 29.0742L37.2572 30.0091ZM38.1531 30.614C39.008 30.6482 39.8658 30.8018 40.8047 30.9718L41.161 29.0038C40.2458 28.8381 39.2506 28.6563 38.2329 28.6156L38.1531 30.614ZM40.8047 30.9718C42.2863 31.2401 43.9782 31.557 45.7445 31.2288L45.3792 29.2624C44.0312 29.5129 42.6999 29.2824 41.161 29.0038L40.8047 30.9718ZM45.7461 31.2285C46.2101 31.1415 46.716 31.1881 47.4008 31.2611L47.6129 29.2724C46.9847 29.2054 46.1802 29.1123 45.3776 29.2627L45.7461 31.2285ZM47.4008 31.2611C47.7776 31.3013 48.2129 31.3486 48.6526 31.3521L48.6685 29.3521C48.3439 29.3495 48.0072 29.3145 47.6129 29.2724L47.4008 31.2611ZM48.6605 31.3521H48.6619V29.3521H48.6605V31.3521ZM48.6619 31.3521C54.8524 31.3521 61.0328 31.3521 67.2079 31.4584L67.2423 29.4587C61.0472 29.3521 54.8495 29.3521 48.6619 29.3521V31.3521ZM67.2057 31.4584C69.1976 31.497 71.1924 31.6074 73.2066 31.7189L73.3172 29.722C71.3091 29.6107 69.2783 29.4982 67.2445 29.4588L67.2057 31.4584ZM73.2066 31.7189C75.4148 31.8412 77.6464 31.9649 79.8773 31.991L79.9007 29.9911C77.7207 29.9657 75.5327 29.8447 73.3172 29.722L73.2066 31.7189ZM79.8788 31.991C83.7932 32.0312 87.7073 31.9298 91.5965 31.8291L91.5448 29.8298C87.6495 29.9306 83.7716 30.0308 79.8993 29.9911L79.8788 31.991ZM91.5965 31.8291C92.4916 31.8059 93.3853 31.7828 94.2786 31.7614L94.2307 29.762C93.3352 29.7834 92.4395 29.8066 91.5448 29.8298L91.5965 31.8291ZM94.276 31.7614C96.8435 31.7065 99.4096 31.5995 101.974 31.4403L101.85 29.4441C99.3127 29.6017 96.7736 29.7076 94.2333 29.7619L94.276 31.7614ZM101.912 31.4422H102.031V29.4422H101.912V31.4422ZM102.503 31.324L103.559 30.7587L102.616 28.9952L101.559 29.5604L102.503 31.324ZM103.974 30.3399C103.981 30.3266 103.98 30.3329 103.964 30.3509C103.949 30.3685 103.912 30.4068 103.847 30.4447L102.837 28.7184C102.525 28.9009 102.326 29.1757 102.201 29.414L103.974 30.3399ZM103.847 30.4447C103.78 30.4843 103.685 30.5209 103.57 30.5304C103.453 30.5401 103.344 30.5195 103.254 30.4827L104.013 28.6323C103.611 28.4674 103.185 28.515 102.837 28.7184L103.847 30.4447ZM104.146 30.4165C104.931 29.9485 105.705 29.4325 106.451 28.8428L105.21 27.274C104.547 27.7984 103.848 28.2654 103.122 28.6985L104.146 30.4165ZM106.512 28.7902C106.469 28.8304 106.376 28.899 106.23 28.9307C106.076 28.9643 105.924 28.9423 105.803 28.8878L106.621 27.0629C106.056 26.8094 105.502 26.9979 105.149 27.3266L106.512 28.7902ZM105.803 28.8878C105.692 28.8384 105.636 28.7761 105.62 28.7566C105.603 28.7358 105.608 28.735 105.622 28.7689L107.463 27.9869C107.332 27.6791 107.081 27.2692 106.621 27.063L105.803 28.8878ZM107.153 29.1703C108.849 27.8646 110.069 25.8071 110.852 23.6387C111.64 21.4579 112.023 19.0612 111.971 16.9663L109.971 17.0166C110.018 18.8537 109.677 21.0033 108.971 22.9594C108.26 24.9278 107.216 26.5975 105.933 27.5854L107.153 29.1703ZM111.971 16.9664C111.906 14.3608 112.188 11.8163 112.482 9.19065L110.494 8.96856C110.203 11.5735 109.902 14.2523 109.971 17.0164L111.971 16.9664ZM112.482 9.19065C112.706 7.18431 112.936 5.1294 113 3.03018L111 2.96983C110.94 4.97469 110.72 6.94949 110.494 8.96856L112.482 9.19065ZM111.806 2.01895C111.362 2.10668 110.95 2.29841 110.58 2.56303L111.742 4.1906C111.915 4.06747 112.066 4.00623 112.194 3.98106L111.806 2.01895ZM110.293 3.87315C110.361 3.99299 110.429 4.14074 110.491 4.31629L112.377 3.64972C112.281 3.37777 112.165 3.11853 112.029 2.88048L110.293 3.87315ZM110.468 4.24222C110.496 4.34702 110.505 4.42033 110.505 4.46281C110.506 4.50747 110.499 4.49539 110.517 4.44847C110.538 4.39354 110.59 4.3087 110.687 4.24102C110.782 4.17471 110.864 4.16468 110.885 4.16369L110.978 6.16154C111.264 6.14826 111.564 6.06757 111.831 5.88146C112.1 5.69398 112.277 5.44018 112.38 5.17637C112.573 4.68283 112.514 4.14984 112.4 3.72379L110.468 4.24222ZM110.786 4.17322C109.881 4.30615 109.023 4.692 108.236 5.27835L109.432 6.88181C109.996 6.46099 110.55 6.22941 111.077 6.152L110.786 4.17322ZM108.231 5.28232C108.074 5.4013 107.971 5.41328 107.917 5.41074C107.859 5.40801 107.741 5.38257 107.568 5.23332L106.261 6.74662C106.7 7.12582 107.23 7.38069 107.823 7.40854C108.42 7.43656 108.972 7.22937 109.437 6.87784L108.231 5.28232ZM107.645 5.30675C107.341 4.98158 106.913 4.70692 106.38 4.67751L106.27 6.67447C106.213 6.67138 106.175 6.65549 106.158 6.64678C106.144 6.63929 106.155 6.64171 106.184 6.67319L107.645 5.30675ZM106.38 4.67751C105.839 4.64765 105.38 4.88102 105.045 5.19311L106.409 6.65576C106.431 6.63598 106.43 6.64255 106.403 6.65369C106.374 6.66601 106.326 6.67762 106.27 6.67447L106.38 4.67751ZM105.071 5.17036C104.749 5.45055 104.506 5.48277 104.33 5.4496L103.959 7.41504C104.863 7.5852 105.707 7.26862 106.384 6.67851L105.071 5.17036ZM104.34 5.45172C103.967 5.37708 103.597 5.42775 103.264 5.57753L104.083 7.4018C104.075 7.40565 104.056 7.41247 104.029 7.4158C104.001 7.41917 103.973 7.41786 103.948 7.41292L104.34 5.45172ZM103.121 5.65637C102.459 6.09557 101.752 6.10121 100.691 6.07212L100.636 8.07137C101.622 8.09839 102.964 8.1602 104.226 7.32295L103.121 5.65637ZM100.691 6.07212C100.406 6.06429 100.089 6.05539 99.7701 6.06339L99.8202 8.06277C100.078 8.0563 100.342 8.06329 100.636 8.07137L100.691 6.07212ZM99.7685 6.06343C97.1787 6.13241 94.6002 6.33021 92.051 6.52555L92.2038 8.51971C94.7613 8.32373 97.2902 8.13016 99.8218 8.06273L99.7685 6.06343ZM92.051 6.52555C90.4538 6.64794 88.868 6.76942 87.2824 6.85991L87.3964 8.85666C89.0046 8.76488 90.6098 8.64185 92.2038 8.51971L92.051 6.52555Z" fill="white" mask="url(#path-1-outside-1)"/>
</svg>
