<svg width="74" height="32" viewBox="0 0 74 32" fill="none" xmlns="http://www.w3.org/2000/svg">
<mask id="path-1-outside-1" maskUnits="userSpaceOnUse" x="0" y="0" width="74" height="32" fill="black">
<rect fill="white" width="74" height="32"/>
<path fill-rule="evenodd" clip-rule="evenodd" d="M56.3069 7.85828C55.903 7.87241 55.4991 7.88597 55.0953 7.89818C54.9331 7.92975 54.7705 7.85739 54.6168 7.6852C54.7209 7.53922 54.83 7.4347 54.9417 7.37392C55.9491 7.21008 56.9615 7.07083 57.9789 6.95614C59.2527 6.79923 60.5274 6.65113 61.802 6.50305C62.6567 6.40374 63.5113 6.30444 64.3656 6.20251C64.7486 6.22286 65.1303 6.04591 65.4963 5.67824V5.32599C65.4232 5.30788 65.35 5.28487 65.2768 5.26186C65.1183 5.21201 64.9598 5.16216 64.8012 5.16216C63.7389 5.23514 62.6762 5.07367 61.6205 4.67885C61.1991 4.60302 60.7763 4.69101 60.3613 4.94098C60.1156 5.07449 59.8726 5.25503 59.6335 5.48163C58.9762 3.62212 58.0167 3.50743 56.9942 3.53201C56.0543 3.53201 55.1143 3.51134 54.1743 3.49068C53.3388 3.47232 52.5033 3.45395 51.6678 3.4501C51.1494 3.4501 50.6309 3.47482 50.1125 3.49954C49.6412 3.52202 49.1699 3.54449 48.6986 3.54839H41.841C41.6654 3.53433 41.4914 3.43493 41.3248 3.25349C42.7795 2.92217 44.2424 2.88592 45.7144 2.84945C46.8264 2.8219 47.9435 2.79422 49.0663 2.63911C49.0348 2.55854 49.0148 2.49926 49.0011 2.45833C48.984 2.40771 48.9764 2.38517 48.9681 2.38517C48.3723 2.34778 47.7827 2.18003 47.1927 2.01219C46.2317 1.73875 45.2698 1.46508 44.2788 1.75441C43.8758 1.87311 43.4588 1.80323 43.0411 1.73322C42.7957 1.6921 42.5501 1.65094 42.3069 1.64791H42.306C38.3675 1.64791 34.4291 1.64791 30.4931 1.54143C29.2122 1.50242 27.9313 1.39095 26.6515 1.27957C25.244 1.15708 23.8377 1.0347 22.4343 1.00896C19.9566 0.968997 17.4774 1.06983 15.0005 1.17057C14.431 1.19373 13.8617 1.21689 13.2925 1.23833C11.6673 1.29294 10.0429 1.39943 8.41939 1.5578H8.34384L7.67143 2.12303C7.62535 2.26167 7.56984 2.36288 7.50944 2.41841C7.44904 2.47393 7.38546 2.48219 7.32389 2.44251C6.84288 2.89305 6.37445 3.38455 5.92618 3.94159C5.85005 4.05301 5.76494 4.08211 5.68335 4.02461C5.60177 3.96711 5.52799 3.82604 5.47287 3.62211C3.57651 5.91579 2.59182 11.0766 2.65478 15.0086C2.69748 17.6935 2.51177 20.3051 2.32581 22.9204C2.1827 24.9331 2.03943 26.948 2 29C2.18192 28.9436 2.36114 28.8171 2.5339 28.6232C2.46879 28.4442 2.41046 28.2407 2.36013 28.017C2.2468 27.3535 2.3425 26.862 2.67997 26.8374C3.13572 26.7322 3.58485 26.4235 4.01472 25.9199C4.41086 25.4494 4.84696 25.4816 5.23614 26.01C5.35242 26.2053 5.48077 26.3127 5.61159 26.324C5.74242 26.3354 5.87234 26.2504 5.99166 26.0756C6.30958 25.6404 6.65551 25.466 6.99902 25.5677C7.09922 25.5992 7.20032 25.5798 7.2987 25.5103C7.91088 24.8721 8.5628 24.9002 9.21397 24.9283C9.39859 24.9362 9.58316 24.9442 9.76673 24.9369C11.3963 24.8687 13.0213 24.673 14.6462 24.4774C15.6616 24.3551 16.6769 24.2328 17.6932 24.1417C18.0971 24.1276 18.5009 24.114 18.9047 24.1018C19.0669 24.0702 19.2295 24.1426 19.3832 24.3148C19.2791 24.4608 19.17 24.5653 19.0583 24.6261C18.0509 24.7899 17.0385 24.9292 16.0211 25.0439C14.7473 25.2008 13.4725 25.3489 12.198 25.497C11.3433 25.5963 10.4887 25.6956 9.63444 25.7975C9.25138 25.7771 8.86974 25.9541 8.50368 26.3218V26.674C8.57684 26.6921 8.65001 26.7151 8.72317 26.7381C8.8817 26.788 9.04023 26.8378 9.19876 26.8378C10.2611 26.7649 11.3238 26.9263 12.3795 27.3211C12.8009 27.397 13.2237 27.309 13.6387 27.059C13.8844 26.9255 14.1274 26.745 14.3665 26.5184C15.0238 28.3779 15.9833 28.4926 17.0058 28.468C17.9457 28.468 18.8857 28.4887 19.8257 28.5093C20.6612 28.5277 21.4967 28.546 22.3322 28.5499C22.8506 28.5499 23.3691 28.5252 23.8875 28.5005C24.3588 28.478 24.8301 28.4555 25.3014 28.4516H32.159C32.3346 28.4657 32.5086 28.5651 32.6752 28.7465C31.2205 29.0778 29.7576 29.1141 28.2856 29.1505C27.1736 29.1781 26.0565 29.2058 24.9337 29.3609C24.9652 29.4415 24.9852 29.5007 24.9989 29.5417C25.016 29.5923 25.0236 29.6148 25.0319 29.6148C25.6277 29.6522 26.2173 29.82 26.8073 29.9878C27.7683 30.2612 28.7302 30.5349 29.7212 30.2456C30.1242 30.1269 30.5412 30.1968 30.9589 30.2668C31.2043 30.3079 31.4499 30.3491 31.6931 30.3521H31.6939C35.6324 30.3521 39.5709 30.3521 43.5069 30.4586C44.7878 30.4976 46.0687 30.6091 47.3485 30.7204C48.756 30.8429 50.1623 30.9653 51.5657 30.991C54.0433 31.031 56.5226 30.9302 58.9995 30.8294C59.569 30.8063 60.1383 30.7831 60.7075 30.7617C62.3327 30.7071 63.9571 30.6006 65.5806 30.4422H65.6562L66.3286 29.877C66.3746 29.7383 66.4302 29.6371 66.4906 29.5816C66.551 29.5261 66.6145 29.5178 66.6761 29.5575C67.1571 29.1069 67.6255 28.6154 68.0738 28.0584C68.15 27.947 68.2351 27.9179 68.3166 27.9754C68.3982 28.0329 68.472 28.174 68.5271 28.3779C70.4235 26.0842 71.4082 20.9234 71.3452 16.9914C71.3025 14.3065 71.4882 11.6949 71.6742 9.07963C71.8173 7.06691 71.9606 5.05205 72 3.00001C71.8181 3.05645 71.6389 3.18294 71.4661 3.37682C71.5312 3.55576 71.5895 3.75926 71.6399 3.98301C71.7532 4.64653 71.6575 5.13804 71.32 5.16261C70.8643 5.26778 70.4152 5.5765 69.9853 6.08008C69.5891 6.55059 69.153 6.51842 68.7639 5.98997C68.6476 5.79467 68.5192 5.68734 68.3884 5.67599C68.2576 5.66465 68.1277 5.74957 68.0083 5.92443C67.6904 6.35958 67.3445 6.53399 67.001 6.43232C66.9008 6.40084 66.7997 6.42019 66.7013 6.48966C66.0891 7.12788 65.4372 7.0998 64.786 7.07175C64.6014 7.06379 64.4168 7.05584 64.2333 7.06308C62.6037 7.13128 60.9787 7.32697 59.3538 7.52263C58.3384 7.6449 57.3232 7.76715 56.3069 7.85828Z"/>
</mask>
<path fill-rule="evenodd" clip-rule="evenodd" d="M56.3069 7.85828C55.903 7.87241 55.4991 7.88597 55.0953 7.89818C54.9331 7.92975 54.7705 7.85739 54.6168 7.6852C54.7209 7.53922 54.83 7.4347 54.9417 7.37392C55.9491 7.21008 56.9615 7.07083 57.9789 6.95614C59.2527 6.79923 60.5274 6.65113 61.802 6.50305C62.6567 6.40374 63.5113 6.30444 64.3656 6.20251C64.7486 6.22286 65.1303 6.04591 65.4963 5.67824V5.32599C65.4232 5.30788 65.35 5.28487 65.2768 5.26186C65.1183 5.21201 64.9598 5.16216 64.8012 5.16216C63.7389 5.23514 62.6762 5.07367 61.6205 4.67885C61.1991 4.60302 60.7763 4.69101 60.3613 4.94098C60.1156 5.07449 59.8726 5.25503 59.6335 5.48163C58.9762 3.62212 58.0167 3.50743 56.9942 3.53201C56.0543 3.53201 55.1143 3.51134 54.1743 3.49068C53.3388 3.47232 52.5033 3.45395 51.6678 3.4501C51.1494 3.4501 50.6309 3.47482 50.1125 3.49954C49.6412 3.52202 49.1699 3.54449 48.6986 3.54839H41.841C41.6654 3.53433 41.4914 3.43493 41.3248 3.25349C42.7795 2.92217 44.2424 2.88592 45.7144 2.84945C46.8264 2.8219 47.9435 2.79422 49.0663 2.63911C49.0348 2.55854 49.0148 2.49926 49.0011 2.45833C48.984 2.40771 48.9764 2.38517 48.9681 2.38517C48.3723 2.34778 47.7827 2.18003 47.1927 2.01219C46.2317 1.73875 45.2698 1.46508 44.2788 1.75441C43.8758 1.87311 43.4588 1.80323 43.0411 1.73322C42.7957 1.6921 42.5501 1.65094 42.3069 1.64791H42.306C38.3675 1.64791 34.4291 1.64791 30.4931 1.54143C29.2122 1.50242 27.9313 1.39095 26.6515 1.27957C25.244 1.15708 23.8377 1.0347 22.4343 1.00896C19.9566 0.968997 17.4774 1.06983 15.0005 1.17057C14.431 1.19373 13.8617 1.21689 13.2925 1.23833C11.6673 1.29294 10.0429 1.39943 8.41939 1.5578H8.34384L7.67143 2.12303C7.62535 2.26167 7.56984 2.36288 7.50944 2.41841C7.44904 2.47393 7.38546 2.48219 7.32389 2.44251C6.84288 2.89305 6.37445 3.38455 5.92618 3.94159C5.85005 4.05301 5.76494 4.08211 5.68335 4.02461C5.60177 3.96711 5.52799 3.82604 5.47287 3.62211C3.57651 5.91579 2.59182 11.0766 2.65478 15.0086C2.69748 17.6935 2.51177 20.3051 2.32581 22.9204C2.1827 24.9331 2.03943 26.948 2 29C2.18192 28.9436 2.36114 28.8171 2.5339 28.6232C2.46879 28.4442 2.41046 28.2407 2.36013 28.017C2.2468 27.3535 2.3425 26.862 2.67997 26.8374C3.13572 26.7322 3.58485 26.4235 4.01472 25.9199C4.41086 25.4494 4.84696 25.4816 5.23614 26.01C5.35242 26.2053 5.48077 26.3127 5.61159 26.324C5.74242 26.3354 5.87234 26.2504 5.99166 26.0756C6.30958 25.6404 6.65551 25.466 6.99902 25.5677C7.09922 25.5992 7.20032 25.5798 7.2987 25.5103C7.91088 24.8721 8.5628 24.9002 9.21397 24.9283C9.39859 24.9362 9.58316 24.9442 9.76673 24.9369C11.3963 24.8687 13.0213 24.673 14.6462 24.4774C15.6616 24.3551 16.6769 24.2328 17.6932 24.1417C18.0971 24.1276 18.5009 24.114 18.9047 24.1018C19.0669 24.0702 19.2295 24.1426 19.3832 24.3148C19.2791 24.4608 19.17 24.5653 19.0583 24.6261C18.0509 24.7899 17.0385 24.9292 16.0211 25.0439C14.7473 25.2008 13.4725 25.3489 12.198 25.497C11.3433 25.5963 10.4887 25.6956 9.63444 25.7975C9.25138 25.7771 8.86974 25.9541 8.50368 26.3218V26.674C8.57684 26.6921 8.65001 26.7151 8.72317 26.7381C8.8817 26.788 9.04023 26.8378 9.19876 26.8378C10.2611 26.7649 11.3238 26.9263 12.3795 27.3211C12.8009 27.397 13.2237 27.309 13.6387 27.059C13.8844 26.9255 14.1274 26.745 14.3665 26.5184C15.0238 28.3779 15.9833 28.4926 17.0058 28.468C17.9457 28.468 18.8857 28.4887 19.8257 28.5093C20.6612 28.5277 21.4967 28.546 22.3322 28.5499C22.8506 28.5499 23.3691 28.5252 23.8875 28.5005C24.3588 28.478 24.8301 28.4555 25.3014 28.4516H32.159C32.3346 28.4657 32.5086 28.5651 32.6752 28.7465C31.2205 29.0778 29.7576 29.1141 28.2856 29.1505C27.1736 29.1781 26.0565 29.2058 24.9337 29.3609C24.9652 29.4415 24.9852 29.5007 24.9989 29.5417C25.016 29.5923 25.0236 29.6148 25.0319 29.6148C25.6277 29.6522 26.2173 29.82 26.8073 29.9878C27.7683 30.2612 28.7302 30.5349 29.7212 30.2456C30.1242 30.1269 30.5412 30.1968 30.9589 30.2668C31.2043 30.3079 31.4499 30.3491 31.6931 30.3521H31.6939C35.6324 30.3521 39.5709 30.3521 43.5069 30.4586C44.7878 30.4976 46.0687 30.6091 47.3485 30.7204C48.756 30.8429 50.1623 30.9653 51.5657 30.991C54.0433 31.031 56.5226 30.9302 58.9995 30.8294C59.569 30.8063 60.1383 30.7831 60.7075 30.7617C62.3327 30.7071 63.9571 30.6006 65.5806 30.4422H65.6562L66.3286 29.877C66.3746 29.7383 66.4302 29.6371 66.4906 29.5816C66.551 29.5261 66.6145 29.5178 66.6761 29.5575C67.1571 29.1069 67.6255 28.6154 68.0738 28.0584C68.15 27.947 68.2351 27.9179 68.3166 27.9754C68.3982 28.0329 68.472 28.174 68.5271 28.3779C70.4235 26.0842 71.4082 20.9234 71.3452 16.9914C71.3025 14.3065 71.4882 11.6949 71.6742 9.07963C71.8173 7.06691 71.9606 5.05205 72 3.00001C71.8181 3.05645 71.6389 3.18294 71.4661 3.37682C71.5312 3.55576 71.5895 3.75926 71.6399 3.98301C71.7532 4.64653 71.6575 5.13804 71.32 5.16261C70.8643 5.26778 70.4152 5.5765 69.9853 6.08008C69.5891 6.55059 69.153 6.51842 68.7639 5.98997C68.6476 5.79467 68.5192 5.68734 68.3884 5.67599C68.2576 5.66465 68.1277 5.74957 68.0083 5.92443C67.6904 6.35958 67.3445 6.53399 67.001 6.43232C66.9008 6.40084 66.7997 6.42019 66.7013 6.48966C66.0891 7.12788 65.4372 7.0998 64.786 7.07175C64.6014 7.06379 64.4168 7.05584 64.2333 7.06308C62.6037 7.13128 60.9787 7.32697 59.3538 7.52263C58.3384 7.6449 57.3232 7.76715 56.3069 7.85828Z" fill="#2DC29F"/>
<path d="M56.3069 7.85828L56.3419 8.85767L56.3691 8.85672L56.3962 8.85429L56.3069 7.85828ZM55.0953 7.89818L55.0651 6.89864L54.984 6.90109L54.9044 6.91659L55.0953 7.89818ZM54.6168 7.6852L53.8025 7.10484L53.339 7.75522L53.8708 8.35107L54.6168 7.6852ZM54.9417 7.37392L54.7812 6.38688L54.6133 6.41419L54.4639 6.49544L54.9417 7.37392ZM57.9789 6.95614L58.0909 7.9499L58.1012 7.94864L57.9789 6.95614ZM61.802 6.50305L61.9174 7.49636L61.802 6.50305ZM64.3656 6.20251L64.4186 5.20392L64.3326 5.19935L64.2471 5.20955L64.3656 6.20251ZM65.4963 5.67824L66.205 6.38379L66.4963 6.09116V5.67824H65.4963ZM65.4963 5.32599H66.4963V4.54331L65.7366 4.35528L65.4963 5.32599ZM65.2768 5.26186L64.9768 6.21581V6.21581L65.2768 5.26186ZM64.8012 5.16216V4.16216H64.7669L64.7327 4.16451L64.8012 5.16216ZM61.6205 4.67885L61.9708 3.74221L61.8863 3.71063L61.7976 3.69466L61.6205 4.67885ZM60.3613 4.94098L60.8388 5.8196L60.8583 5.80903L60.8772 5.7976L60.3613 4.94098ZM59.6335 5.48163L58.6907 5.8149L59.2038 7.26654L60.3213 6.20749L59.6335 5.48163ZM56.9942 3.53201V4.53201H57.0062L57.0182 4.53172L56.9942 3.53201ZM54.1743 3.49068L54.1963 2.49092L54.1743 3.49068ZM51.6678 3.4501L51.6724 2.4501H51.6678V3.4501ZM50.1125 3.49954L50.1601 4.49841L50.1125 3.49954ZM48.6986 3.54839V4.54843L48.7069 4.54836L48.6986 3.54839ZM41.841 3.54839L41.7612 4.5452L41.801 4.54839H41.841V3.54839ZM41.3248 3.25349L41.1027 2.27846L39.423 2.66101L40.5882 3.92986L41.3248 3.25349ZM45.7144 2.84945L45.7392 3.84914L45.7144 2.84945ZM49.0663 2.63911L49.2031 3.6297L50.4598 3.4561L49.9976 2.27474L49.0663 2.63911ZM49.0011 2.45833L49.9488 2.13943L49.9488 2.13942L49.0011 2.45833ZM48.9681 2.38517L48.9055 3.38321L48.9367 3.38517H48.9681V2.38517ZM47.1927 2.01219L46.9191 2.97402V2.97402L47.1927 2.01219ZM44.2788 1.75441L43.9986 0.794485L43.9963 0.795152L44.2788 1.75441ZM43.0411 1.73322L42.8758 2.71947V2.71947L43.0411 1.73322ZM42.3069 1.64791L42.3194 0.647911H42.3069V1.64791ZM30.4931 1.54143L30.4627 2.54097L30.4661 2.54106L30.4931 1.54143ZM26.6515 1.27957L26.5648 2.27581L26.6515 1.27957ZM22.4343 1.00896L22.4526 0.00912547L22.4504 0.00908977L22.4343 1.00896ZM15.0005 1.17057L14.9598 0.171397L15.0005 1.17057ZM13.2925 1.23833L13.3261 2.23777L13.3301 2.23762L13.2925 1.23833ZM8.41939 1.5578V2.5578H8.46805L8.51648 2.55308L8.41939 1.5578ZM8.34384 1.5578V0.557802H7.97937L7.70038 0.792324L8.34384 1.5578ZM7.67143 2.12303L7.02797 1.35755L6.81161 1.53942L6.72247 1.80764L7.67143 2.12303ZM7.50944 2.41841L6.83268 1.6822L6.83268 1.68221L7.50944 2.41841ZM7.32389 2.44251L7.86564 1.60197L7.20977 1.17924L6.64028 1.71266L7.32389 2.44251ZM5.92618 3.94159L5.14712 3.31464L5.12259 3.34512L5.10051 3.37743L5.92618 3.94159ZM5.68335 4.02461L6.25943 3.20721L6.25943 3.20721L5.68335 4.02461ZM5.47287 3.62211L6.43822 3.36116L5.93381 1.49522L4.70216 2.98492L5.47287 3.62211ZM2.65478 15.0086L3.65466 14.9927L3.65465 14.9926L2.65478 15.0086ZM2.32581 22.9204L3.32329 22.9913L2.32581 22.9204ZM2 29L1.00018 28.9808L0.973577 30.3655L2.29636 29.9551L2 29ZM2.5339 28.6232L3.2805 29.2885L3.67783 28.8426L3.47364 28.2813L2.5339 28.6232ZM2.36013 28.017L1.3744 28.1854L1.37879 28.211L1.38451 28.2365L2.36013 28.017ZM2.67997 26.8374L2.75259 27.8348L2.82959 27.8291L2.90481 27.8118L2.67997 26.8374ZM4.01472 25.9199L4.77532 26.5692L4.77969 26.564L4.01472 25.9199ZM5.23614 26.01L6.09537 25.4984L6.07035 25.4564L6.04134 25.417L5.23614 26.01ZM5.61159 26.324L5.69802 25.3278H5.698L5.61159 26.324ZM5.99166 26.0756L5.18421 25.4856L5.17471 25.4986L5.16564 25.5119L5.99166 26.0756ZM6.99902 25.5677L7.2987 24.6137L7.29079 24.6112L7.28283 24.6088L6.99902 25.5677ZM7.2987 25.5103L7.87555 26.3272L7.95395 26.2718L8.02038 26.2026L7.2987 25.5103ZM9.21397 24.9283L9.17093 25.9273L9.21397 24.9283ZM9.76673 24.9369L9.80613 25.9361L9.80855 25.936L9.76673 24.9369ZM14.6462 24.4774L14.5267 23.4845H14.5267L14.6462 24.4774ZM17.6932 24.1417L17.6583 23.1423L17.631 23.1433L17.6039 23.1457L17.6932 24.1417ZM18.9047 24.1018L18.9349 25.1014L19.016 25.0989L19.0956 25.0834L18.9047 24.1018ZM19.3832 24.3148L20.1975 24.8952L20.661 24.2448L20.1292 23.6489L19.3832 24.3148ZM19.0583 24.6261L19.2188 25.6131L19.3867 25.5858L19.5361 25.5046L19.0583 24.6261ZM16.0211 25.0439L15.9091 24.0501L15.8988 24.0514L16.0211 25.0439ZM12.198 25.497L12.0826 24.5036H12.0826L12.198 25.497ZM9.63444 25.7975L9.5814 26.7961L9.66741 26.8006L9.75293 26.7904L9.63444 25.7975ZM8.50368 26.3218L7.79502 25.6162L7.50368 25.9088V26.3218H8.50368ZM8.50368 26.674H7.50368V27.4567L8.26342 27.6447L8.50368 26.674ZM8.72317 26.7381L8.42317 27.6921L8.42319 27.6921L8.72317 26.7381ZM9.19876 26.8378V27.8378H9.23307L9.26729 27.8355L9.19876 26.8378ZM12.3795 27.3211L12.0292 28.2578L12.1137 28.2894L12.2024 28.3053L12.3795 27.3211ZM13.6387 27.059L13.1612 26.1804L13.1417 26.191L13.1228 26.2024L13.6387 27.059ZM14.3665 26.5184L15.3093 26.1851L14.7962 24.7335L13.6787 25.7925L14.3665 26.5184ZM17.0058 28.468V27.468H16.9938L16.9818 27.4683L17.0058 28.468ZM19.8257 28.5093L19.8037 29.5091L19.8257 28.5093ZM22.3322 28.5499L22.3276 29.5499H22.3322V28.5499ZM23.8875 28.5005L23.8399 27.5016H23.8399L23.8875 28.5005ZM25.3014 28.4516V27.4516L25.2931 27.4516L25.3014 28.4516ZM32.159 28.4516L32.2388 27.4548L32.199 27.4516H32.159V28.4516ZM32.6752 28.7465L32.8973 29.7215L34.577 29.339L33.4118 28.0701L32.6752 28.7465ZM28.2856 29.1505L28.3104 30.1502L28.2856 29.1505ZM24.9337 29.3609L24.7969 28.3703L23.5402 28.5439L24.0024 29.7253L24.9337 29.3609ZM24.9989 29.5417L24.0512 29.8606L24.0512 29.8606L24.9989 29.5417ZM25.0319 29.6148L25.0945 28.6168L25.0633 28.6148H25.0319V29.6148ZM26.8073 29.9878L27.0809 29.026L26.8073 29.9878ZM29.7212 30.2456L30.0014 31.2055L30.0037 31.2048L29.7212 30.2456ZM30.9589 30.2668L31.1242 29.2805L30.9589 30.2668ZM31.6931 30.3521L31.6806 31.3521H31.6931V30.3521ZM43.5069 30.4586L43.5373 29.459L43.5339 29.4589L43.5069 30.4586ZM47.3485 30.7204L47.2618 31.7167V31.7167L47.3485 30.7204ZM51.5657 30.991L51.5474 31.9909L51.5496 31.9909L51.5657 30.991ZM58.9995 30.8294L58.9589 29.8303L58.9995 30.8294ZM60.7075 30.7617L60.6739 29.7622L60.6699 29.7624L60.7075 30.7617ZM65.5806 30.4422V29.4422H65.5319L65.4835 29.4469L65.5806 30.4422ZM65.6562 30.4422V31.4422H66.0206L66.2996 31.2077L65.6562 30.4422ZM66.3286 29.877L66.972 30.6424L67.1884 30.4606L67.2775 30.1923L66.3286 29.877ZM66.4906 29.5816L65.8138 28.8454L65.8138 28.8454L66.4906 29.5816ZM66.6761 29.5575L66.1343 30.398L66.7902 30.8208L67.3597 30.2873L66.6761 29.5575ZM68.0738 28.0584L68.8529 28.6854L68.8774 28.6549L68.8995 28.6226L68.0738 28.0584ZM68.3166 27.9754L67.7405 28.7928L67.7406 28.7928L68.3166 27.9754ZM68.5271 28.3779L67.5618 28.6388L68.0662 30.5048L69.2978 29.0151L68.5271 28.3779ZM71.3452 16.9914L70.3454 17.0073V17.0074L71.3452 16.9914ZM71.6742 9.07963L70.6767 9.0087V9.0087L71.6742 9.07963ZM72 3.00001L72.9998 3.01922L73.0264 1.63448L71.7036 2.04493L72 3.00001ZM71.4661 3.37682L70.7195 2.71154L70.3222 3.15746L70.5264 3.71873L71.4661 3.37682ZM71.6399 3.98301L72.6256 3.81465L72.6212 3.78895L72.6155 3.76351L71.6399 3.98301ZM71.32 5.16261L71.2474 4.16525L71.1704 4.17086L71.0952 4.18822L71.32 5.16261ZM69.9853 6.08008L69.2247 5.43082L69.2203 5.43602L69.9853 6.08008ZM68.7639 5.98997L67.9046 6.50155L67.9296 6.54358L67.9587 6.58297L68.7639 5.98997ZM68.3884 5.67599L68.4748 4.67973H68.4748L68.3884 5.67599ZM68.0083 5.92443L68.8158 6.51437L68.8253 6.50137L68.8344 6.48806L68.0083 5.92443ZM67.001 6.43232L66.7013 7.38635L66.7092 7.38884L66.7172 7.3912L67.001 6.43232ZM66.7013 6.48966L66.1245 5.67281L66.0461 5.72817L65.9796 5.79744L66.7013 6.48966ZM64.786 7.07175L64.743 8.07082L64.786 7.07175ZM64.2333 7.06308L64.1939 6.06385L64.1915 6.06395L64.2333 7.06308ZM59.3538 7.52263L59.2342 6.5298L59.3538 7.52263ZM56.272 6.85889C55.8689 6.87299 55.4668 6.88649 55.0651 6.89864L55.1256 8.89773C55.5315 8.88545 55.9371 8.87183 56.3419 8.85767L56.272 6.85889ZM54.9044 6.91659C55.0389 6.89042 55.1658 6.91279 55.2595 6.95451C55.342 6.99122 55.3731 7.0307 55.3629 7.01934L53.8708 8.35107C54.1557 8.67036 54.6485 9.00387 55.2863 8.87978L54.9044 6.91659ZM55.4312 8.26557C55.4421 8.25029 55.451 8.23913 55.4575 8.23142C55.4641 8.22369 55.4678 8.22009 55.4682 8.21965C55.4687 8.21921 55.4653 8.22257 55.4576 8.22834C55.4498 8.23413 55.4372 8.24276 55.4195 8.25239L54.4639 6.49544C54.1757 6.65218 53.9609 6.88257 53.8025 7.10484L55.4312 8.26557ZM55.1022 8.36095C56.0934 8.19974 57.0897 8.06271 58.0909 7.94985L57.8669 5.96244C56.8333 6.07894 55.8047 6.22042 54.7812 6.38688L55.1022 8.36095ZM58.1012 7.94864C59.371 7.79222 60.6423 7.64451 61.9174 7.49636L61.6866 5.50973C60.4126 5.65775 59.1345 5.80624 57.8567 5.96364L58.1012 7.94864ZM61.9174 7.49636C62.7718 7.39709 63.628 7.29761 64.484 7.19546L64.2471 5.20955C63.3946 5.31128 62.5415 5.41039 61.6866 5.50973L61.9174 7.49636ZM64.3125 7.2011C65.0698 7.24133 65.7123 6.87868 66.205 6.38379L64.7877 4.97269C64.5483 5.21314 64.4275 5.20439 64.4186 5.20392L64.3125 7.2011ZM66.4963 5.67824V5.32599H64.4963V5.67824H66.4963ZM65.7366 4.35528C65.6987 4.3459 65.6553 4.33261 65.5768 4.30792L64.9768 6.21581C65.0447 6.23714 65.1476 6.26986 65.2561 6.2967L65.7366 4.35528ZM65.5768 4.30792C65.4495 4.26787 65.1408 4.16216 64.8012 4.16216V6.16216C64.7777 6.16216 64.7757 6.15864 64.8095 6.16661C64.8471 6.17548 64.8912 6.18888 64.9768 6.21581L65.5768 4.30792ZM64.7327 4.16451C63.8209 4.22714 62.9008 4.09002 61.9708 3.74221L61.2702 5.61549C62.4516 6.05732 63.6568 6.24313 64.8698 6.15981L64.7327 4.16451ZM61.7976 3.69466C61.1058 3.57017 60.4391 3.72676 59.8454 4.08435L60.8772 5.7976C61.1136 5.65526 61.2923 5.63586 61.4434 5.66304L61.7976 3.69466ZM59.8838 4.06236C59.5495 4.24404 59.237 4.47965 58.9456 4.75578L60.3213 6.20749C60.5082 6.0304 60.6818 5.90495 60.8388 5.8196L59.8838 4.06236ZM60.5763 5.14836C60.2012 4.08702 59.6784 3.35161 58.9484 2.93286C58.2412 2.52723 57.5003 2.51955 56.9702 2.53229L57.0182 4.53172C57.5106 4.51988 57.7607 4.55726 57.9532 4.66771C58.1229 4.76504 58.4085 5.01673 58.6907 5.8149L60.5763 5.14836ZM56.9942 2.532C56.0671 2.532 55.1381 2.51163 54.1963 2.49092L54.1524 4.49044C55.0905 4.51106 56.0414 4.53201 56.9942 4.53201V2.532ZM54.1963 2.49092C53.3623 2.47259 52.5181 2.45401 51.6724 2.45011L51.6632 4.45008C52.4886 4.45389 53.3154 4.47204 54.1524 4.49044L54.1963 2.49092ZM51.6678 2.4501C51.1216 2.4501 50.5793 2.47614 50.0649 2.50068L50.1601 4.49841C50.6826 4.47349 51.1772 4.4501 51.6678 4.4501V2.4501ZM50.0649 2.50068C49.5903 2.52331 49.1387 2.54472 48.6903 2.54843L48.7069 4.54836C49.2012 4.54427 49.6921 4.52072 50.1601 4.49841L50.0649 2.50068ZM48.6986 2.54839H41.841V4.54839H48.6986V2.54839ZM41.9209 2.55158C41.9978 2.55775 42.0512 2.58147 42.0755 2.59538C42.097 2.60764 42.0905 2.6089 42.0613 2.57712L40.5882 3.92986C40.8573 4.22288 41.2489 4.50418 41.7612 4.5452L41.9209 2.55158ZM41.5468 4.22852C42.8883 3.92299 44.2513 3.88601 45.7392 3.84914L45.6896 1.84976C44.2334 1.88584 42.6707 1.92134 41.1027 2.27846L41.5468 4.22852ZM45.7392 3.84914C46.8423 3.82181 48.0155 3.79377 49.2031 3.6297L48.9295 1.64852C47.8715 1.79467 46.8104 1.82199 45.6896 1.84976L45.7392 3.84914ZM49.9976 2.27474C49.9751 2.21729 49.9613 2.17646 49.9488 2.13943L48.0533 2.77724C48.0684 2.82206 48.0945 2.8998 48.135 3.00349L49.9976 2.27474ZM49.9488 2.13942C49.9467 2.133 49.9259 2.0688 49.9021 2.01259C49.8924 1.98987 49.8531 1.89569 49.7778 1.79412C49.7236 1.72101 49.4618 1.38517 48.9681 1.38517V3.38517C48.4786 3.38517 48.2208 3.05215 48.1709 2.98485C48.1 2.88909 48.0651 2.80371 48.0606 2.79294C48.0469 2.76066 48.0384 2.73304 48.0533 2.77724L49.9488 2.13942ZM49.0307 1.38714C48.561 1.35766 48.0762 1.22386 47.4664 1.05036L46.9191 2.97402C47.4891 3.1362 48.1835 3.33791 48.9055 3.38321L49.0307 1.38714ZM47.4664 1.05036C46.5552 0.791109 45.3107 0.411363 43.9986 0.794488L44.5591 2.71433C45.2288 2.5188 45.9082 2.6864 46.9191 2.97402L47.4664 1.05036ZM43.9963 0.795152C43.8517 0.837754 43.6687 0.824442 43.2064 0.746971L42.8758 2.71947C43.249 2.78201 43.9 2.90846 44.5614 2.71366L43.9963 0.795152ZM43.2064 0.746971C42.9752 0.708231 42.6528 0.652144 42.3194 0.647989L42.2945 2.64783C42.4475 2.64974 42.6163 2.67597 42.8758 2.71947L43.2064 0.746971ZM42.3069 0.647911H42.306V2.64791H42.3069V0.647911ZM42.306 0.647911C38.3653 0.647911 34.4403 0.64785 30.5202 0.541794L30.4661 2.54106C34.4178 2.64797 38.3698 2.64791 42.306 2.64791V0.647911ZM30.5236 0.541891C29.2756 0.503882 28.0228 0.395126 26.7382 0.283338L26.5648 2.27581C27.8399 2.38677 29.1489 2.50095 30.4627 2.54096L30.5236 0.541891ZM26.7382 0.283338C25.3365 0.161355 23.8961 0.0356049 22.4526 0.00912791L22.4159 2.00879C23.7794 2.0338 25.1514 2.15281 26.5648 2.27581L26.7382 0.283338ZM22.4504 0.00908977C19.9396 -0.031407 17.432 0.0708526 14.9598 0.171397L15.0411 2.16974C17.5228 2.06881 19.9737 1.9694 22.4181 2.00883L22.4504 0.00908977ZM14.9598 0.171397C14.3901 0.194568 13.8223 0.217662 13.2548 0.239035L13.3301 2.23762C13.901 2.21611 14.4719 2.1929 15.0411 2.16974L14.9598 0.171397ZM13.2589 0.23889C11.6124 0.294217 9.96688 0.4021 8.3223 0.562526L8.51648 2.55308C10.119 2.39676 11.7221 2.29166 13.3261 2.23776L13.2589 0.23889ZM8.41939 0.557802H8.34384V2.5578H8.41939V0.557802ZM7.70038 0.792324L7.02797 1.35755L8.31489 2.88851L8.9873 2.32328L7.70038 0.792324ZM6.72247 1.80764C6.71348 1.83469 6.7105 1.83655 6.719 1.82105C6.72364 1.81258 6.73356 1.79556 6.75021 1.77309C6.76662 1.75093 6.79336 1.71835 6.83268 1.6822L8.1862 3.15461C8.43477 2.92611 8.55667 2.63016 8.62039 2.43842L6.72247 1.80764ZM6.83268 1.68221C6.91007 1.61107 7.06226 1.50385 7.28831 1.47449C7.52708 1.44348 7.73017 1.51465 7.86564 1.60197L6.78214 3.28305C6.97918 3.41005 7.24485 3.49693 7.5459 3.45783C7.83423 3.42038 8.04841 3.28128 8.1862 3.15461L6.83268 1.68221ZM6.64028 1.71266C6.13042 2.19022 5.62902 2.71582 5.14712 3.31464L6.70524 4.56854C7.11989 4.05328 7.55533 3.59588 8.0075 3.17235L6.64028 1.71266ZM5.10051 3.37743C5.12353 3.34374 5.23751 3.18426 5.48328 3.10023C5.78834 2.99592 6.07767 3.07912 6.25943 3.20721L5.10728 4.84201C5.37063 5.02761 5.74331 5.125 6.13034 4.99266C6.4581 4.8806 6.6527 4.65085 6.75184 4.50575L5.10051 3.37743ZM6.25943 3.20721C6.33625 3.26135 6.38448 3.3157 6.41008 3.34827C6.43644 3.38181 6.45 3.40658 6.45433 3.41486C6.46188 3.4293 6.45296 3.41571 6.43822 3.36116L4.50752 3.88307C4.54789 4.03244 4.60343 4.19135 4.68204 4.34168C4.75368 4.47867 4.88326 4.68413 5.10728 4.84201L6.25943 3.20721ZM4.70216 2.98492C3.60454 4.31252 2.84121 6.35909 2.35449 8.477C1.86109 10.6239 1.62214 12.9777 1.65491 15.0246L3.65465 14.9926C3.62447 13.1074 3.84638 10.9148 4.30368 8.92495C4.76765 6.90604 5.44484 5.22539 6.24357 4.25931L4.70216 2.98492ZM1.65491 15.0245C1.6968 17.6589 1.51475 20.2277 1.32833 22.8495L3.32329 22.9913C3.5088 20.3825 3.69815 17.728 3.65466 14.9927L1.65491 15.0245ZM1.32833 22.8495C1.1855 24.8582 1.04019 26.8986 1.00018 28.9808L2.99982 29.0192C3.03867 26.9973 3.17989 25.008 3.32329 22.9913L1.32833 22.8495ZM2.29636 29.9551C2.70397 29.8286 3.02909 29.5706 3.2805 29.2885L1.78729 27.9579C1.74249 28.0082 1.71036 28.0344 1.69377 28.0461C1.67776 28.0574 1.68092 28.052 1.70364 28.0449L2.29636 29.9551ZM3.47364 28.2813C3.42567 28.1494 3.37856 27.9878 3.33575 27.7975L1.38451 28.2365C1.44237 28.4937 1.51192 28.739 1.59416 28.9651L3.47364 28.2813ZM3.34585 27.8486C3.3246 27.7242 3.31571 27.6221 3.31476 27.5441C3.31378 27.4628 3.3217 27.4279 3.32145 27.4289C3.32093 27.431 3.31606 27.4503 3.30131 27.4809C3.28646 27.5117 3.25866 27.5599 3.21039 27.6128C3.16071 27.6672 3.09299 27.7224 3.00654 27.765C2.91961 27.8078 2.83177 27.829 2.75259 27.8348L2.60734 25.84C1.81188 25.898 1.48011 26.5459 1.38055 26.9463C1.28097 27.3468 1.30714 27.7915 1.3744 28.1854L3.34585 27.8486ZM2.90481 27.8118C3.64023 27.6421 4.2624 27.17 4.7753 26.5692L3.25414 25.2707C2.9073 25.677 2.6312 25.8224 2.45512 25.863L2.90481 27.8118ZM4.77969 26.564C4.81995 26.5162 4.82657 26.5232 4.78944 26.5431C4.74461 26.567 4.66081 26.5955 4.55447 26.5877C4.4516 26.5801 4.3879 26.543 4.37035 26.5309C4.35717 26.5219 4.38084 26.535 4.43093 26.603L6.04134 25.417C5.76718 25.0448 5.32725 24.6392 4.70161 24.5931C4.04925 24.545 3.55757 24.9102 3.24974 25.2759L4.77969 26.564ZM4.37691 26.5216C4.53978 26.7952 4.89794 27.2659 5.52518 27.3203L5.698 25.3278C5.88456 25.3439 6.00707 25.4247 6.05992 25.4689C6.10889 25.5098 6.11574 25.5327 6.09537 25.4984L4.37691 26.5216ZM5.52517 27.3203C6.20056 27.3789 6.62672 26.9191 6.81768 26.6392L5.16564 25.5119C5.15398 25.529 5.17947 25.4844 5.25879 25.4326C5.34906 25.3736 5.50364 25.3109 5.69802 25.3278L5.52517 27.3203ZM6.79911 26.6655C6.84714 26.5998 6.88579 26.5583 6.91217 26.534C6.93852 26.5098 6.94727 26.5075 6.93593 26.5133C6.92298 26.5198 6.89129 26.5328 6.84414 26.5377C6.79586 26.5427 6.75065 26.5371 6.7152 26.5266L7.28283 24.6088C6.33645 24.3287 5.60268 24.9129 5.18421 25.4856L6.79911 26.6655ZM6.69933 26.5217C7.14349 26.6612 7.56489 26.5466 7.87555 26.3272L6.72186 24.6935C6.76884 24.6603 6.84936 24.6162 6.96159 24.5947C7.07802 24.5724 7.19517 24.5811 7.2987 24.6137L6.69933 26.5217ZM8.02038 26.2026C8.18278 26.0333 8.31844 25.9759 8.45266 25.9469C8.62717 25.9093 8.82364 25.9124 9.17093 25.9273L9.25702 23.9292C8.61073 23.9013 7.52665 23.8281 6.57702 24.8181L8.02038 26.2026ZM9.17093 25.9273C9.34847 25.935 9.5744 25.9453 9.80613 25.9361L9.72733 23.9377C9.59191 23.943 9.44872 23.9374 9.25702 23.9292L9.17093 25.9273ZM9.80855 25.936C11.4836 25.8659 13.1475 25.6651 14.7658 25.4702L14.5267 23.4845C12.8952 23.681 11.3089 23.8715 9.72491 23.9378L9.80855 25.936ZM14.7658 25.4702C15.7837 25.3476 16.7839 25.2273 17.7825 25.1377L17.6039 23.1457C16.5699 23.2384 15.5395 23.3626 14.5267 23.4845L14.7658 25.4702ZM17.7282 25.1411C18.1312 25.127 18.5333 25.1135 18.9349 25.1014L18.8744 23.1023C18.4685 23.1145 18.063 23.1282 17.6583 23.1423L17.7282 25.1411ZM19.0956 25.0834C18.9611 25.1096 18.8342 25.0872 18.7405 25.0455C18.658 25.0088 18.6269 24.9693 18.6371 24.9807L20.1292 23.6489C19.8443 23.3296 19.3515 22.9961 18.7137 23.1202L19.0956 25.0834ZM18.5688 23.7344C18.5579 23.7497 18.549 23.7609 18.5425 23.7686C18.5359 23.7763 18.5322 23.7799 18.5318 23.7803C18.5313 23.7808 18.5347 23.7774 18.5425 23.7717C18.5502 23.7659 18.5628 23.7572 18.5805 23.7476L19.5361 25.5046C19.8243 25.3478 20.0391 25.1174 20.1975 24.8952L18.5688 23.7344ZM18.8977 23.639C17.9066 23.8003 16.9103 23.9373 15.9091 24.0501L16.1331 26.0376C17.1667 25.9211 18.1953 25.7796 19.2188 25.6131L18.8977 23.639ZM15.8988 24.0514C14.629 24.2078 13.3577 24.3555 12.0826 24.5036L12.3134 26.4903C13.5874 26.3423 14.8655 26.1938 16.1433 26.0364L15.8988 24.0514ZM12.0826 24.5036C11.2281 24.6029 10.372 24.7024 9.51595 24.8045L9.75293 26.7904C10.6053 26.6887 11.4584 26.5896 12.3134 26.4903L12.0826 24.5036ZM9.68749 24.7989C8.93024 24.7587 8.28774 25.1213 7.79502 25.6162L9.21234 27.0273C9.45173 26.7869 9.57252 26.7956 9.5814 26.7961L9.68749 24.7989ZM7.50368 26.3218V26.674H9.50368V26.3218H7.50368ZM8.26342 27.6447C8.3013 27.6541 8.34468 27.6674 8.42317 27.6921L9.02316 25.7842C8.95533 25.7629 8.85238 25.7301 8.74394 25.7033L8.26342 27.6447ZM8.42319 27.6921C8.55053 27.7321 8.85924 27.8378 9.19876 27.8378V25.8378C9.22234 25.8378 9.22433 25.8414 9.19052 25.8334C9.15293 25.8245 9.10878 25.8111 9.02315 25.7842L8.42319 27.6921ZM9.26729 27.8355C10.1791 27.7729 11.0992 27.91 12.0292 28.2578L12.7298 26.3845C11.5484 25.9427 10.3432 25.7569 9.13023 25.8402L9.26729 27.8355ZM12.2024 28.3053C12.8942 28.4298 13.5609 28.2732 14.1546 27.9156L13.1228 26.2024C12.8864 26.3447 12.7077 26.3641 12.5566 26.337L12.2024 28.3053ZM14.1162 27.9376C14.4505 27.756 14.763 27.5203 15.0544 27.2442L13.6787 25.7925C13.4918 25.9696 13.3182 26.095 13.1612 26.1804L14.1162 27.9376ZM13.4237 26.8516C13.7988 27.913 14.3216 28.6484 15.0516 29.0671C15.7588 29.4728 16.4997 29.4804 17.0298 29.4677L16.9818 27.4683C16.4894 27.4801 16.2393 27.4427 16.0468 27.3323C15.8771 27.235 15.5915 26.9833 15.3093 26.1851L13.4237 26.8516ZM17.0058 29.468C17.9329 29.468 18.8619 29.4884 19.8037 29.5091L19.8476 27.5096C18.9095 27.4889 17.9586 27.468 17.0058 27.468V29.468ZM19.8037 29.5091C20.6378 29.5274 21.4819 29.546 22.3276 29.5499L22.3368 27.5499C21.5114 27.5461 20.6846 27.528 19.8476 27.5096L19.8037 29.5091ZM22.3322 29.5499C22.8784 29.5499 23.4207 29.5239 23.9351 29.4993L23.8399 27.5016C23.3174 27.5265 22.8228 27.5499 22.3322 27.5499V29.5499ZM23.9351 29.4993C24.4097 29.4767 24.8613 29.4553 25.3097 29.4516L25.2931 27.4516C24.7988 27.4557 24.3079 27.4793 23.8399 27.5016L23.9351 29.4993ZM25.3014 29.4516H32.159V27.4516H25.3014V29.4516ZM32.0791 29.4484C32.0022 29.4422 31.9488 29.4185 31.9245 29.4046C31.903 29.3924 31.9095 29.3911 31.9387 29.4229L33.4118 28.0701C33.1427 27.7771 32.7511 27.4958 32.2388 27.4548L32.0791 29.4484ZM32.4532 27.7715C31.1117 28.077 29.7487 28.114 28.2608 28.1509L28.3104 30.1502C29.7666 30.1142 31.3293 30.0787 32.8973 29.7215L32.4532 27.7715ZM28.2608 28.1509C27.1577 28.1782 25.9845 28.2062 24.7969 28.3703L25.0705 30.3515C26.1285 30.2053 27.1896 30.178 28.3104 30.1502L28.2608 28.1509ZM24.0024 29.7253C24.0249 29.7827 24.0387 29.8235 24.0512 29.8606L25.9467 29.2228C25.9317 29.1779 25.9055 29.1002 25.865 28.9965L24.0024 29.7253ZM24.0512 29.8606C24.0533 29.867 24.0741 29.9312 24.0979 29.9874C24.1076 30.0101 24.1469 30.1043 24.2222 30.2059C24.2764 30.279 24.5382 30.6148 25.0319 30.6148V28.6148C25.5214 28.6148 25.7792 28.9478 25.8291 29.0151C25.9 29.1109 25.9349 29.1963 25.9394 29.207C25.9531 29.2393 25.9616 29.267 25.9467 29.2228L24.0512 29.8606ZM24.9693 30.6129C25.439 30.6423 25.9238 30.7761 26.5336 30.9496L27.0809 29.026C26.5109 28.8638 25.8165 28.6621 25.0945 28.6168L24.9693 30.6129ZM26.5336 30.9496C27.4448 31.2089 28.6893 31.5886 30.0014 31.2055L29.4409 29.2857C28.7712 29.4812 28.0918 29.3136 27.0809 29.026L26.5336 30.9496ZM30.0037 31.2048C30.1483 31.1622 30.3313 31.1756 30.7936 31.253L31.1242 29.2805C30.751 29.218 30.1 29.0915 29.4386 29.2863L30.0037 31.2048ZM30.7936 31.253C31.0248 31.2918 31.3472 31.3479 31.6806 31.352L31.7055 29.3522C31.5525 29.3503 31.3837 29.324 31.1242 29.2805L30.7936 31.253ZM31.6931 31.3521H31.6939V29.3521H31.6931V31.3521ZM31.6939 31.3521C35.6347 31.3521 39.5596 31.3521 43.4798 31.4582L43.5339 29.4589C39.5822 29.352 35.6301 29.3521 31.6939 29.3521V31.3521ZM43.4764 31.4581C44.7244 31.4961 45.9772 31.6049 47.2618 31.7167L47.4352 29.7242C46.1601 29.6132 44.8511 29.499 43.5373 29.459L43.4764 31.4581ZM47.2618 31.7167C48.6635 31.8386 50.1039 31.9644 51.5474 31.9909L51.5841 29.9912C50.2206 29.9662 48.8486 29.8472 47.4352 29.7242L47.2618 31.7167ZM51.5496 31.9909C54.0604 32.0314 56.568 31.9291 59.0401 31.8286L58.9589 29.8303C56.4772 29.9312 54.0263 30.0306 51.5819 29.9912L51.5496 31.9909ZM59.0401 31.8286C59.6099 31.8054 60.1777 31.7823 60.7452 31.761L60.6699 29.7624C60.0989 29.7839 59.5281 29.8071 58.9589 29.8303L59.0401 31.8286ZM60.7411 31.7611C62.3876 31.7058 64.0331 31.5979 65.6777 31.4375L65.4835 29.4469C63.8811 29.6032 62.2779 29.7083 60.6739 29.7622L60.7411 31.7611ZM65.5806 31.4422H65.6562V29.4422H65.5806V31.4422ZM66.2996 31.2077L66.972 30.6424L65.6851 29.1115L65.0127 29.6767L66.2996 31.2077ZM67.2775 30.1923C67.2865 30.1653 67.2895 30.1634 67.281 30.1789C67.2764 30.1874 67.2664 30.2044 67.2498 30.2269C67.2334 30.2491 67.2066 30.2816 67.1673 30.3178L65.8138 28.8454C65.5652 29.0739 65.4433 29.3699 65.3796 29.5616L67.2775 30.1923ZM67.1673 30.3178C67.0899 30.3889 66.9377 30.4962 66.7117 30.5255C66.4729 30.5565 66.2698 30.4853 66.1343 30.398L67.2179 28.717C67.0208 28.59 66.7552 28.5031 66.4541 28.5422C66.1658 28.5796 65.9516 28.7187 65.8138 28.8454L67.1673 30.3178ZM67.3597 30.2873C67.8696 29.8098 68.371 29.2842 68.8529 28.6854L67.2948 27.4315C66.8801 27.9467 66.4447 28.4041 65.9925 28.8276L67.3597 30.2873ZM68.8995 28.6226C68.8765 28.6563 68.7625 28.8157 68.5167 28.8998C68.2117 29.0041 67.9223 28.9209 67.7405 28.7928L68.8927 27.158C68.6294 26.9724 68.2567 26.875 67.8697 27.0073C67.5419 27.1194 67.3473 27.3491 67.2482 27.4942L68.8995 28.6226ZM67.7406 28.7928C67.6637 28.7386 67.6155 28.6843 67.5899 28.6517C67.5636 28.6182 67.55 28.5934 67.5457 28.5851C67.5381 28.5707 67.547 28.5843 67.5618 28.6388L69.4925 28.1169C69.4521 27.9676 69.3966 27.8087 69.318 27.6583C69.2463 27.5213 69.1167 27.3159 68.8927 27.158L67.7406 28.7928ZM69.2978 29.0151C70.3955 27.6875 71.1588 25.6409 71.6455 23.523C72.1389 21.3761 72.3779 19.0223 72.3451 16.9754L70.3454 17.0074C70.3755 18.8926 70.1536 21.0852 69.6963 23.0751C69.2324 25.094 68.5552 26.7746 67.7564 27.7407L69.2978 29.0151ZM72.3451 16.9755C72.3032 14.3411 72.4853 11.7723 72.6717 9.15055L70.6767 9.0087C70.4912 11.6175 70.3018 14.272 70.3454 17.0073L72.3451 16.9755ZM72.6717 9.15055C72.8145 7.14183 72.9598 5.10136 72.9998 3.01922L71.0002 2.98079C70.9613 5.00274 70.8201 6.99199 70.6767 9.0087L72.6717 9.15055ZM71.7036 2.04493C71.296 2.17141 70.9709 2.42941 70.7195 2.71154L72.2127 4.04209C72.2575 3.9918 72.2896 3.9656 72.3062 3.95389C72.3222 3.94259 72.3191 3.94803 72.2964 3.95508L71.7036 2.04493ZM70.5264 3.71873C70.5743 3.85055 70.6214 4.01216 70.6643 4.2025L72.6155 3.76351C72.5576 3.50636 72.4881 3.26098 72.4058 3.0349L70.5264 3.71873ZM70.6542 4.15136C70.6754 4.27579 70.6843 4.3779 70.6852 4.45589C70.6862 4.53718 70.6783 4.5721 70.6786 4.5711C70.6791 4.56904 70.6839 4.54972 70.6987 4.51913C70.7135 4.48835 70.7413 4.44011 70.7896 4.38721C70.8393 4.33276 70.907 4.27758 70.9935 4.235C71.0804 4.19218 71.1682 4.17102 71.2474 4.16525L71.3927 6.15997C72.1881 6.10204 72.5199 5.4541 72.6195 5.05373C72.719 4.65325 72.6929 4.20846 72.6256 3.81465L70.6542 4.15136ZM71.0952 4.18822C70.3598 4.35792 69.7376 4.82999 69.2247 5.43083L70.7459 6.72933C71.0927 6.32301 71.3688 6.17764 71.5449 6.13701L71.0952 4.18822ZM69.2203 5.43602C69.18 5.48384 69.1734 5.47679 69.2106 5.45694C69.2554 5.43297 69.3392 5.4045 69.4455 5.41235C69.5484 5.41994 69.6121 5.457 69.6297 5.46907C69.6428 5.47813 69.6192 5.465 69.5691 5.39697L67.9587 6.58297C68.2328 6.95524 68.6728 7.36077 69.2984 7.40693C69.9508 7.45505 70.4424 7.08975 70.7503 6.72414L69.2203 5.43602ZM69.6231 5.47839C69.4602 5.20484 69.1021 4.73414 68.4748 4.67973L68.302 6.67225C68.1154 6.65607 67.9929 6.57531 67.9401 6.53112C67.8911 6.49017 67.8843 6.46735 67.9046 6.50155L69.6231 5.47839ZM68.4748 4.67973C67.7994 4.62115 67.3733 5.08093 67.1823 5.36081L68.8344 6.48806C68.846 6.47098 68.8205 6.51557 68.7412 6.56742C68.6509 6.62643 68.4964 6.68911 68.302 6.67225L68.4748 4.67973ZM67.2009 5.3345C67.1529 5.40024 67.1142 5.44167 67.0878 5.46595C67.0615 5.49021 67.0527 5.49246 67.0641 5.48675C67.077 5.48022 67.1087 5.46721 67.1559 5.46234C67.2041 5.45735 67.2493 5.46294 67.2848 5.47344L66.7172 7.3912C67.6635 7.67131 68.3973 7.08715 68.8158 6.51437L67.2009 5.3345ZM67.3007 5.47828C66.8565 5.33875 66.4351 5.45343 66.1245 5.67281L67.2782 7.30652C67.2312 7.33969 67.1507 7.38383 67.0384 7.40531C66.922 7.42759 66.8048 7.41887 66.7013 7.38635L67.3007 5.47828ZM65.9796 5.79744C65.8172 5.96674 65.6816 6.0241 65.5473 6.05306C65.3728 6.09072 65.1764 6.08764 64.8291 6.07267L64.743 8.07082C65.3893 8.09866 66.4734 8.17192 67.423 7.18189L65.9796 5.79744ZM64.8291 6.07267C64.6515 6.06502 64.4256 6.05472 64.1939 6.06386L64.2727 8.0623C64.4081 8.05696 64.5513 8.06256 64.743 8.07082L64.8291 6.07267ZM64.1915 6.06395C62.5164 6.13406 60.8525 6.33493 59.2342 6.5298L59.4734 8.51546C61.1048 8.319 62.6911 8.1285 64.2751 8.06221L64.1915 6.06395ZM59.2342 6.5298C58.2163 6.65237 57.2162 6.77273 56.2176 6.86228L56.3962 8.85429C57.4301 8.76157 58.4605 8.63742 59.4734 8.51546L59.2342 6.5298Z" fill="white" mask="url(#path-1-outside-1)"/>
</svg>
