<svg width="254" height="300" viewBox="0 0 254 300" fill="none" xmlns="http://www.w3.org/2000/svg">
<mask id="path-1-inside-1" fill="white">
<path fill-rule="evenodd" clip-rule="evenodd" d="M101.092 0H152.81V29.2542H143.646V47.2005C154.579 48.6509 165.3 51.5229 175.533 55.7616C185.037 59.6983 194.005 64.7663 202.25 70.8402L218.272 52.4293L245.747 78.7031L226.815 94.6663C233.938 103.742 239.805 113.764 244.238 124.467C250.618 139.869 253.902 156.378 253.902 173.049C253.902 198.157 246.457 222.702 232.507 243.579C218.557 264.456 198.73 280.728 175.533 290.336C152.336 299.945 126.81 302.459 102.184 297.561C77.558 292.662 54.9376 280.571 37.1832 262.817C19.4288 245.062 7.33785 222.442 2.43941 197.816C-2.45902 173.19 0.0549204 147.664 9.66354 124.467C14.1116 113.728 19.9876 103.712 27.0874 94.6665L8.15491 78.7031L35.6297 52.4293L51.6519 70.8403C53.2132 69.69 54.8032 68.5739 56.4208 67.4931C72.6375 56.6574 91.0673 49.7461 110.255 47.2005V29.2542H101.092V0ZM71.9567 255.349C88.232 266.236 107.37 272.054 126.951 272.065C139.959 272.073 152.841 269.518 164.861 264.545C176.881 259.573 187.804 252.28 197.004 243.085C206.205 233.89 213.504 222.972 218.484 210.955C223.464 198.937 226.027 186.057 226.027 173.049C226.027 153.468 220.221 134.326 209.344 118.045C198.466 101.763 183.005 89.0715 164.916 81.5754C146.826 74.0794 126.921 72.115 107.715 75.9308C88.5093 79.7465 70.8662 89.1711 57.0161 103.013C43.166 116.855 33.731 134.492 29.9037 153.695C26.0764 172.899 28.0288 192.806 35.514 210.9C42.9993 228.994 55.6813 244.462 71.9567 255.349ZM189.953 106.713C206.955 122.859 217.108 144.918 218.317 168.334C169.921 170.261 126.951 173.049 126.951 173.049V81.5648C150.399 81.564 172.951 90.5662 189.953 106.713Z"/>
</mask>
<path d="M152.81 0H153.81V-1H152.81V0ZM101.092 0V-1H100.092V0H101.092ZM152.81 29.2542V30.2542H153.81V29.2542H152.81ZM143.646 29.2542V28.2542H142.646V29.2542H143.646ZM143.646 47.2005H142.646V48.0766L143.515 48.1919L143.646 47.2005ZM175.533 55.7616L175.15 56.6854L175.533 55.7616ZM202.25 70.8402L201.657 71.6453L202.399 72.1921L203.004 71.4967L202.25 70.8402ZM218.272 52.4293L218.963 51.7065L218.206 50.9822L217.518 51.7728L218.272 52.4293ZM245.747 78.7031L246.392 79.4676L247.243 78.7499L246.438 77.9804L245.747 78.7031ZM226.815 94.6663L226.17 93.9018L225.432 94.5242L226.028 95.2837L226.815 94.6663ZM244.238 124.467L245.162 124.084L244.238 124.467ZM232.507 243.579L233.338 244.135L232.507 243.579ZM175.533 290.336L175.916 291.26L175.533 290.336ZM37.1832 262.817L37.8903 262.11L37.1832 262.817ZM2.43941 197.816L3.4202 197.621L2.43941 197.816ZM9.66354 124.467L8.73966 124.084L9.66354 124.467ZM27.0874 94.6665L27.874 95.2839L28.4701 94.5243L27.732 93.9019L27.0874 94.6665ZM8.15491 78.7031L7.46378 77.9804L6.65909 78.7499L7.5103 79.4676L8.15491 78.7031ZM35.6297 52.4293L36.384 51.7728L35.696 50.9822L34.9385 51.7065L35.6297 52.4293ZM51.6519 70.8403L50.8975 71.4968L51.5028 72.1922L52.245 71.6454L51.6519 70.8403ZM56.4208 67.4931L55.8652 66.6616L56.4208 67.4931ZM110.255 47.2005L110.387 48.1918L111.255 48.0766V47.2005H110.255ZM110.255 29.2542H111.255V28.2542H110.255V29.2542ZM101.092 29.2542H100.092V30.2542H101.092V29.2542ZM126.951 272.065L126.952 271.065H126.952L126.951 272.065ZM71.9567 255.349L71.4007 256.18L71.9567 255.349ZM164.861 264.545L164.479 263.621L164.861 264.545ZM197.004 243.085L197.711 243.792L197.004 243.085ZM218.484 210.955L217.56 210.572L218.484 210.955ZM164.916 81.5754L164.533 82.4992L164.916 81.5754ZM107.715 75.9308L107.52 74.9499L107.715 75.9308ZM29.9037 153.695L30.8844 153.891L29.9037 153.695ZM35.514 210.9L34.59 211.282L35.514 210.9ZM218.317 168.334L218.357 169.333L219.368 169.293L219.315 168.282L218.317 168.334ZM189.953 106.713L190.642 105.988L189.953 106.713ZM126.951 173.049H125.951V174.116L127.016 174.047L126.951 173.049ZM126.951 81.5648L126.951 80.5648L125.951 80.5648V81.5648H126.951ZM152.81 -1H101.092V1H152.81V-1ZM153.81 29.2542V0H151.81V29.2542H153.81ZM143.646 30.2542H152.81V28.2542H143.646V30.2542ZM142.646 29.2542V47.2005H144.646V29.2542H142.646ZM143.515 48.1919C154.361 49.6308 164.998 52.4802 175.15 56.6854L175.916 54.8377C165.602 50.5657 154.797 47.671 143.778 46.2092L143.515 48.1919ZM175.15 56.6854C184.58 60.5912 193.477 65.6193 201.657 71.6453L202.843 70.0351C194.533 63.9134 185.495 58.8054 175.916 54.8377L175.15 56.6854ZM203.004 71.4967L219.026 53.0857L217.518 51.7728L201.496 70.1837L203.004 71.4967ZM217.581 53.152L245.056 79.4258L246.438 77.9804L218.963 51.7065L217.581 53.152ZM245.102 77.9386L226.17 93.9018L227.459 95.4308L246.392 79.4676L245.102 77.9386ZM226.028 95.2837C233.095 104.288 238.916 114.231 243.315 124.85L245.162 124.084C240.694 113.297 234.78 103.196 227.601 94.0489L226.028 95.2837ZM243.315 124.85C249.644 140.131 252.902 156.509 252.902 173.049H254.902C254.902 156.246 251.592 139.608 245.162 124.084L243.315 124.85ZM252.902 173.049C252.902 197.96 245.515 222.311 231.676 243.024L233.338 244.135C247.398 223.093 254.902 198.355 254.902 173.049H252.902ZM231.676 243.024C217.836 263.736 198.165 279.88 175.15 289.413L175.916 291.26C199.296 281.576 219.279 265.176 233.338 244.135L231.676 243.024ZM175.15 289.413C152.136 298.945 126.811 301.44 102.379 296.58L101.989 298.541C126.809 303.478 152.536 300.945 175.916 291.26L175.15 289.413ZM102.379 296.58C77.947 291.72 55.5049 279.724 37.8903 262.11L36.4761 263.524C54.3704 281.418 77.1689 293.604 101.989 298.541L102.379 296.58ZM37.8903 262.11C20.2757 244.495 8.28005 222.053 3.4202 197.621L1.45863 198.011C6.39565 222.831 18.5818 245.63 36.4761 263.524L37.8903 262.11ZM3.4202 197.621C-1.43965 173.189 1.05449 147.864 10.5874 124.85L8.73966 124.084C-0.944648 147.464 -3.47839 173.191 1.45863 198.011L3.4202 197.621ZM10.5874 124.85C15.0005 114.196 20.8302 104.258 27.874 95.2839L26.3007 94.049C19.1451 103.166 13.2228 113.261 8.73966 124.084L10.5874 124.85ZM27.732 93.9019L8.79953 77.9386L7.5103 79.4676L26.4427 95.431L27.732 93.9019ZM8.84605 79.4258L36.3208 53.152L34.9385 51.7065L7.46378 77.9804L8.84605 79.4258ZM34.8753 53.0857L50.8975 71.4968L52.4062 70.1838L36.384 51.7728L34.8753 53.0857ZM52.245 71.6454C53.7941 70.5042 55.3715 69.3969 56.9764 68.3245L55.8652 66.6616C54.2349 67.7509 52.6324 68.8759 51.0588 70.0352L52.245 71.6454ZM56.9764 68.3245C73.0653 57.5742 91.35 50.7174 110.387 48.1918L110.124 46.2092C90.7847 48.7748 72.2097 55.7406 55.8652 66.6616L56.9764 68.3245ZM111.255 47.2005V29.2542H109.255V47.2005H111.255ZM101.092 30.2542H110.255V28.2542H101.092V30.2542ZM100.092 0V29.2542H102.092V0H100.092ZM126.952 271.065C107.568 271.054 88.6237 265.295 72.5127 254.518L71.4007 256.18C87.8404 267.178 107.172 273.054 126.951 273.065L126.952 271.065ZM164.479 263.621C152.58 268.544 139.828 271.073 126.952 271.065L126.95 273.065C140.09 273.073 153.102 270.492 165.243 265.469L164.479 263.621ZM196.298 242.378C187.19 251.48 176.378 258.699 164.479 263.621L165.243 265.469C177.385 260.447 188.418 253.081 197.711 243.792L196.298 242.378ZM217.56 210.572C212.631 222.467 205.405 233.275 196.298 242.378L197.711 243.792C207.005 234.504 214.378 223.476 219.408 211.337L217.56 210.572ZM225.027 173.049C225.027 185.926 222.49 198.676 217.56 210.572L219.408 211.337C224.438 199.199 227.027 186.188 227.027 173.049H225.027ZM208.512 118.6C219.28 134.717 225.027 153.666 225.027 173.049H227.027C227.027 153.27 221.162 133.935 210.175 117.489L208.512 118.6ZM164.533 82.4992C182.44 89.9196 197.744 102.483 208.512 118.6L210.175 117.489C199.188 101.043 183.571 88.2234 165.299 80.6516L164.533 82.4992ZM107.91 76.9116C126.922 73.1344 146.626 75.0789 164.533 82.4992L165.299 80.6516C147.027 73.0798 126.92 71.0956 107.52 74.9499L107.91 76.9116ZM57.723 103.72C71.4332 90.0182 88.8981 80.6888 107.91 76.9116L107.52 74.9499C88.1204 78.8042 70.2991 88.324 56.3092 102.306L57.723 103.72ZM30.8844 153.891C34.673 134.882 44.0128 117.422 57.723 103.72L56.3092 102.306C42.3193 116.287 32.7889 134.103 28.923 153.5L30.8844 153.891ZM36.4381 210.518C29.0285 192.606 27.0958 172.9 30.8844 153.891L28.923 153.5C25.0571 172.897 27.0292 193.005 34.59 211.282L36.4381 210.518ZM72.5127 254.518C56.4017 243.741 43.8477 228.429 36.4381 210.518L34.59 211.282C42.1508 229.559 54.9609 245.183 71.4007 256.18L72.5127 254.518ZM219.315 168.282C218.094 144.61 207.829 122.311 190.642 105.988L189.264 107.438C206.08 123.408 216.123 145.225 217.318 168.385L219.315 168.282ZM126.951 173.049C127.016 174.047 127.016 174.047 127.016 174.047C127.017 174.047 127.017 174.047 127.018 174.047C127.019 174.047 127.021 174.047 127.024 174.046C127.029 174.046 127.037 174.046 127.047 174.045C127.068 174.044 127.099 174.042 127.14 174.039C127.223 174.034 127.346 174.026 127.509 174.015C127.836 173.994 128.321 173.963 128.955 173.923C130.224 173.844 132.091 173.727 134.482 173.581C139.265 173.29 146.147 172.882 154.541 172.413C171.33 171.475 194.165 170.297 218.357 169.333L218.277 167.335C194.072 168.299 171.225 169.478 154.43 170.416C146.032 170.885 139.147 171.294 134.361 171.585C131.968 171.731 130.099 171.847 128.829 171.927C128.194 171.967 127.709 171.998 127.382 172.019C127.218 172.03 127.095 172.038 127.012 172.043C126.97 172.046 126.939 172.048 126.918 172.049C126.908 172.05 126.9 172.05 126.894 172.051C126.892 172.051 126.89 172.051 126.888 172.051C126.888 172.051 126.887 172.051 126.887 172.051C126.887 172.051 126.886 172.051 126.951 173.049ZM125.951 81.5648V173.049H127.951V81.5648H125.951ZM190.642 105.988C173.454 89.6646 150.655 80.564 126.951 80.5648L126.951 82.5648C150.142 82.564 172.448 91.4678 189.264 107.438L190.642 105.988Z" fill="white" mask="url(#path-1-inside-1)"/>
</svg>
