<svg width="337" height="416" viewBox="0 0 337 416" fill="none" xmlns="http://www.w3.org/2000/svg">
<mask id="mask0" mask-type="alpha" maskUnits="userSpaceOnUse" x="0" y="0" width="337" height="416">
<path d="M208.46 396.001C215.02 396.001 221.58 395.951 228.13 395.891C238.82 395.801 249.51 395.721 260.19 395.551C265.83 395.451 271.47 395.161 277.1 394.971L303.67 394.111C310.67 393.901 317.77 393.731 324.82 393.491C326.52 393.441 328.2 393.201 329.89 393.051C331.05 392.951 331.96 392.741 332.31 391.941C332.45 391.621 333.25 391.401 333.76 391.141L336.13 389.901C335.611 389.759 335.083 389.648 334.55 389.571C330.32 389.431 326.1 389.181 321.88 389.181C312.2 389.181 302.51 389.331 292.83 389.421C292.186 389.459 291.54 389.371 290.93 389.161C291.343 388.983 291.776 388.855 292.22 388.781C296.22 388.581 300.24 388.411 304.28 388.271C312.73 387.951 321.19 387.661 329.64 387.351C331.161 387.376 332.676 387.16 334.13 386.711V386.281C333.21 386.211 332.29 386.081 331.37 386.081C327.152 386.17 322.932 385.973 318.74 385.491C317.067 385.398 315.388 385.506 313.74 385.811C312.765 385.974 311.8 386.194 310.85 386.471C308.24 384.201 304.43 384.061 300.37 384.091C293.32 384.091 286.27 384.001 279.22 383.991C275.29 383.991 271.36 384.101 267.43 384.111C258.35 384.111 249.273 384.111 240.2 384.111C239.503 384.094 238.812 383.972 238.15 383.751C248.29 383.041 258.53 383.441 268.89 383.001C268.61 382.781 268.56 382.691 268.5 382.691C262.28 382.571 256.23 381.351 249.88 381.921C247.34 382.151 244.66 381.801 242.05 381.791C226.41 381.791 210.77 381.791 195.14 381.661C184.46 381.561 173.78 381.071 163.14 381.011C151.04 380.951 138.93 381.151 126.84 381.291C120.387 381.358 113.937 381.488 107.49 381.681C107.38 381.681 107.3 381.681 107.19 381.681L104.52 382.371C104.337 382.54 104.117 382.664 103.877 382.732C103.637 382.799 103.384 382.809 103.14 382.761C101.23 383.311 99.37 383.911 97.59 384.591C97.2877 384.727 96.9498 384.762 96.6258 384.692C96.3018 384.622 96.0089 384.45 95.79 384.201C88.26 387.001 84.35 393.301 84.6 398.101C84.9 403.901 82.36 409.421 82 415.181C82.7224 415.112 83.434 414.958 84.12 414.721C83.8615 414.502 83.6299 414.254 83.43 413.981C82.98 413.171 83.36 412.571 84.7 412.541C86.5097 412.413 88.2931 412.036 90 411.421C91.573 410.847 93.3047 410.886 94.85 411.531C95.3117 411.769 95.8214 411.9 96.3408 411.914C96.8603 411.928 97.3762 411.824 97.85 411.611C99.1124 411.08 100.486 410.867 101.85 410.991C102.248 411.029 102.649 411.006 103.04 410.921C106.16 409.921 109.54 410.261 112.84 410.221C123.72 410.081 134.55 409.501 145.41 409.221C157.09 408.891 168.79 408.841 180.49 408.771C187.14 408.771 193.8 408.931 200.49 408.961C202.418 408.962 204.34 408.748 206.22 408.321C205.62 408.271 205.03 408.171 204.44 408.181C202.73 408.181 201.01 408.341 199.31 408.311C198.584 408.287 197.872 408.11 197.22 407.791C196.57 407.355 195.822 407.084 195.043 407.002C194.264 406.92 193.477 407.029 192.75 407.321C191.085 407.851 189.295 407.851 187.63 407.321C185.906 406.898 184.144 406.647 182.37 406.571C178.76 406.371 175.13 406.321 171.51 406.191C170.37 406.191 169.08 406.301 168.18 405.591C168.84 404.661 170.27 404.511 171.47 404.661C175.345 405.051 179.251 405.021 183.12 404.571C184.221 404.552 185.321 404.623 186.41 404.781C186.962 404.906 187.524 404.979 188.09 405.001C190.878 404.671 193.691 404.611 196.49 404.821C197.77 404.871 199.06 404.961 200.35 404.971C201.84 404.971 203.35 404.971 204.82 404.891C207.51 404.701 210.17 404.261 212.82 404.231C223.91 404.131 235.01 404.231 246.1 404.081C259.51 403.941 272.9 403.671 286.25 402.851C298.89 402.061 311.56 401.501 324.25 400.851C326.858 400.807 329.444 400.369 331.92 399.551C328.23 399.641 324.54 399.751 320.85 399.821C319.45 399.821 318.04 399.821 316.63 399.821C314.21 399.821 311.79 399.701 309.38 399.751C303.75 399.871 298.11 400.031 292.49 400.221C285.49 400.461 278.49 400.161 271.43 400.361C262.36 400.611 253.28 400.621 244.21 400.731C236.96 400.821 229.71 401.001 222.46 400.971C208.86 400.971 195.25 400.751 181.65 400.621C181.37 400.621 181.1 400.571 180.19 400.471C221.31 399.991 261.83 400.261 302.75 398.471C300.66 397.791 299.66 397.731 295.75 397.841C293.54 397.901 291.32 397.891 289.1 397.951C286.88 398.011 284.48 398.121 282.16 398.161C279.84 398.201 277.78 398.161 275.58 398.061C283.68 397.441 291.93 397.631 299.99 396.811V396.301C299.06 396.301 298.13 396.221 297.2 396.251C290.453 396.424 283.707 396.608 276.96 396.801C270.22 397.011 263.48 397.341 256.74 397.441C248.97 397.551 241.2 397.441 233.43 397.441C226.78 397.441 220.12 397.511 213.43 397.441C201.743 397.361 190.053 397.248 178.36 397.101C175.97 397.101 173.6 396.991 171.21 396.931V396.511C174.35 396.441 177.49 396.331 180.63 396.301C189.917 396.188 199.193 396.088 208.46 396.001ZM164.23 406.001C162.732 406.106 161.228 406.106 159.73 406.001C157.02 405.751 154.36 405.351 151.09 404.941C156.28 403.941 160.75 404.701 165.86 405.231C165.02 405.661 164.65 406.001 164.23 406.001Z" fill="white"/>
<path d="M190.46 372.001C197.02 372.001 203.58 371.951 210.13 371.891C220.82 371.801 231.51 371.721 242.19 371.551C247.83 371.451 253.47 371.161 259.1 370.971L285.67 370.111C292.67 369.901 299.77 369.731 306.82 369.491C308.52 369.441 310.2 369.201 311.89 369.051C313.05 368.951 313.96 368.741 314.31 367.941C314.45 367.621 315.25 367.401 315.76 367.141L318.13 365.901C317.611 365.759 317.083 365.648 316.55 365.571C312.32 365.431 308.1 365.181 303.88 365.181C294.2 365.181 284.51 365.331 274.83 365.421C274.186 365.459 273.54 365.371 272.93 365.161C273.343 364.983 273.776 364.855 274.22 364.781C278.22 364.581 282.24 364.411 286.28 364.271C294.73 363.951 303.19 363.661 311.64 363.351C313.161 363.376 314.676 363.16 316.13 362.711V362.281C315.21 362.211 314.29 362.081 313.37 362.081C309.152 362.17 304.932 361.973 300.74 361.491C299.067 361.398 297.388 361.506 295.74 361.811C294.765 361.974 293.8 362.194 292.85 362.471C290.24 360.201 286.43 360.061 282.37 360.091C275.32 360.091 268.27 360.001 261.22 359.991C257.29 359.991 253.36 360.101 249.43 360.111C240.35 360.111 231.273 360.111 222.2 360.111C221.503 360.094 220.812 359.972 220.15 359.751C230.29 359.041 240.53 359.441 250.89 359.001C250.61 358.781 250.56 358.691 250.5 358.691C244.28 358.571 238.23 357.351 231.88 357.921C229.34 358.151 226.66 357.801 224.05 357.791C208.41 357.791 192.77 357.791 177.14 357.661C166.46 357.561 155.78 357.071 145.14 357.011C133.04 356.951 120.93 357.151 108.84 357.291C102.387 357.358 95.9367 357.488 89.49 357.681C89.38 357.681 89.3 357.681 89.19 357.681L86.52 358.371C86.337 358.54 86.1166 358.664 85.8768 358.732C85.637 358.799 85.3845 358.809 85.14 358.761C83.23 359.311 81.37 359.911 79.59 360.591C79.2877 360.727 78.9498 360.762 78.6258 360.692C78.3018 360.622 78.0089 360.45 77.79 360.201C70.26 363.001 66.35 369.301 66.6 374.101C66.9 379.901 64.36 385.421 64 391.181C64.7224 391.112 65.434 390.958 66.12 390.721C65.8615 390.502 65.6299 390.254 65.43 389.981C64.98 389.171 65.36 388.571 66.7 388.541C68.5097 388.413 70.2931 388.036 72 387.421C73.573 386.847 75.3047 386.886 76.85 387.531C77.3117 387.769 77.8214 387.9 78.3408 387.914C78.8603 387.928 79.3762 387.824 79.85 387.611C81.1124 387.08 82.486 386.867 83.85 386.991C84.2479 387.029 84.6493 387.006 85.04 386.921C88.16 385.921 91.54 386.261 94.84 386.221C105.72 386.081 116.55 385.501 127.41 385.221C139.09 384.891 150.79 384.841 162.49 384.771C169.14 384.771 175.8 384.931 182.49 384.961C184.418 384.962 186.34 384.748 188.22 384.321C187.62 384.271 187.03 384.171 186.44 384.181C184.73 384.181 183.01 384.341 181.31 384.311C180.584 384.287 179.872 384.11 179.22 383.791C178.57 383.355 177.822 383.084 177.043 383.002C176.264 382.92 175.477 383.029 174.75 383.321C173.085 383.851 171.295 383.851 169.63 383.321C167.906 382.898 166.144 382.647 164.37 382.571C160.76 382.371 157.13 382.321 153.51 382.191C152.37 382.191 151.08 382.301 150.18 381.591C150.84 380.661 152.27 380.511 153.47 380.661C157.345 381.051 161.251 381.021 165.12 380.571C166.221 380.552 167.321 380.623 168.41 380.781C168.962 380.906 169.524 380.979 170.09 381.001C172.878 380.671 175.691 380.611 178.49 380.821C179.77 380.871 181.06 380.961 182.35 380.971C183.84 380.971 185.35 380.971 186.82 380.891C189.51 380.701 192.17 380.261 194.82 380.231C205.91 380.131 217.01 380.231 228.1 380.081C241.51 379.941 254.9 379.671 268.25 378.851C280.89 378.061 293.56 377.501 306.25 376.851C308.858 376.807 311.444 376.369 313.92 375.551C310.23 375.641 306.54 375.751 302.85 375.821C301.45 375.821 300.04 375.821 298.63 375.821C296.21 375.821 293.79 375.701 291.38 375.751C285.75 375.871 280.11 376.031 274.49 376.221C267.49 376.461 260.49 376.161 253.43 376.361C244.36 376.611 235.28 376.621 226.21 376.731C218.96 376.821 211.71 377.001 204.46 376.971C190.86 376.971 177.25 376.751 163.65 376.621C163.37 376.621 163.1 376.571 162.19 376.471C203.31 375.991 243.83 376.261 284.75 374.471C282.66 373.791 281.66 373.731 277.75 373.841C275.54 373.901 273.32 373.891 271.1 373.951C268.88 374.011 266.48 374.121 264.16 374.161C261.84 374.201 259.78 374.161 257.58 374.061C265.68 373.441 273.93 373.631 281.99 372.811V372.301C281.06 372.301 280.13 372.221 279.2 372.251C272.453 372.424 265.707 372.608 258.96 372.801C252.22 373.011 245.48 373.341 238.74 373.441C230.97 373.551 223.2 373.441 215.43 373.441C208.78 373.441 202.12 373.511 195.43 373.441C183.743 373.361 172.053 373.248 160.36 373.101C157.97 373.101 155.6 372.991 153.21 372.931V372.511C156.35 372.441 159.49 372.331 162.63 372.301C171.917 372.188 181.193 372.088 190.46 372.001ZM146.23 382.001C144.732 382.106 143.228 382.106 141.73 382.001C139.02 381.751 136.36 381.351 133.09 380.941C138.28 379.941 142.75 380.701 147.86 381.231C147.02 381.661 146.65 382.001 146.23 382.001Z" fill="white"/>
<path d="M190.46 346.001C197.02 346.001 203.58 345.951 210.13 345.891C220.82 345.801 231.51 345.721 242.19 345.551C247.83 345.451 253.47 345.161 259.1 344.971L285.67 344.111C292.67 343.901 299.77 343.731 306.82 343.491C308.52 343.441 310.2 343.201 311.89 343.051C313.05 342.951 313.96 342.741 314.31 341.941C314.45 341.621 315.25 341.401 315.76 341.141L318.13 339.901C317.611 339.759 317.083 339.648 316.55 339.571C312.32 339.431 308.1 339.181 303.88 339.181C294.2 339.181 284.51 339.331 274.83 339.421C274.186 339.459 273.54 339.371 272.93 339.161C273.343 338.983 273.776 338.855 274.22 338.781C278.22 338.581 282.24 338.411 286.28 338.271C294.73 337.951 303.19 337.661 311.64 337.351C313.161 337.376 314.676 337.16 316.13 336.711V336.281C315.21 336.211 314.29 336.081 313.37 336.081C309.152 336.17 304.932 335.973 300.74 335.491C299.067 335.398 297.388 335.506 295.74 335.811C294.765 335.974 293.8 336.194 292.85 336.471C290.24 334.201 286.43 334.061 282.37 334.091C275.32 334.091 268.27 334.001 261.22 333.991C257.29 333.991 253.36 334.101 249.43 334.111C240.35 334.111 231.273 334.111 222.2 334.111C221.503 334.094 220.812 333.972 220.15 333.751C230.29 333.041 240.53 333.441 250.89 333.001C250.61 332.781 250.56 332.691 250.5 332.691C244.28 332.571 238.23 331.351 231.88 331.921C229.34 332.151 226.66 331.801 224.05 331.791C208.41 331.791 192.77 331.791 177.14 331.661C166.46 331.561 155.78 331.071 145.14 331.011C133.04 330.951 120.93 331.151 108.84 331.291C102.387 331.358 95.9367 331.488 89.49 331.681C89.38 331.681 89.3 331.681 89.19 331.681L86.52 332.371C86.337 332.54 86.1166 332.664 85.8768 332.732C85.637 332.799 85.3845 332.809 85.14 332.761C83.23 333.311 81.37 333.911 79.59 334.591C79.2877 334.727 78.9498 334.762 78.6258 334.692C78.3018 334.622 78.0089 334.45 77.79 334.201C70.26 337.001 66.35 343.301 66.6 348.101C66.9 353.901 64.36 359.421 64 365.181C64.7224 365.112 65.434 364.958 66.12 364.721C65.8615 364.502 65.6299 364.254 65.43 363.981C64.98 363.171 65.36 362.571 66.7 362.541C68.5097 362.413 70.2931 362.036 72 361.421C73.573 360.847 75.3047 360.886 76.85 361.531C77.3117 361.769 77.8214 361.9 78.3408 361.914C78.8603 361.928 79.3762 361.824 79.85 361.611C81.1124 361.08 82.486 360.867 83.85 360.991C84.2479 361.029 84.6493 361.006 85.04 360.921C88.16 359.921 91.54 360.261 94.84 360.221C105.72 360.081 116.55 359.501 127.41 359.221C139.09 358.891 150.79 358.841 162.49 358.771C169.14 358.771 175.8 358.931 182.49 358.961C184.418 358.962 186.34 358.748 188.22 358.321C187.62 358.271 187.03 358.171 186.44 358.181C184.73 358.181 183.01 358.341 181.31 358.311C180.584 358.287 179.872 358.11 179.22 357.791C178.57 357.355 177.822 357.084 177.043 357.002C176.264 356.92 175.477 357.029 174.75 357.321C173.085 357.851 171.295 357.851 169.63 357.321C167.906 356.898 166.144 356.647 164.37 356.571C160.76 356.371 157.13 356.321 153.51 356.191C152.37 356.191 151.08 356.301 150.18 355.591C150.84 354.661 152.27 354.511 153.47 354.661C157.345 355.051 161.251 355.021 165.12 354.571C166.221 354.552 167.321 354.623 168.41 354.781C168.962 354.906 169.524 354.979 170.09 355.001C172.878 354.671 175.691 354.611 178.49 354.821C179.77 354.871 181.06 354.961 182.35 354.971C183.84 354.971 185.35 354.971 186.82 354.891C189.51 354.701 192.17 354.261 194.82 354.231C205.91 354.131 217.01 354.231 228.1 354.081C241.51 353.941 254.9 353.671 268.25 352.851C280.89 352.061 293.56 351.501 306.25 350.851C308.858 350.807 311.444 350.369 313.92 349.551C310.23 349.641 306.54 349.751 302.85 349.821C301.45 349.821 300.04 349.821 298.63 349.821C296.21 349.821 293.79 349.701 291.38 349.751C285.75 349.871 280.11 350.031 274.49 350.221C267.49 350.461 260.49 350.161 253.43 350.361C244.36 350.611 235.28 350.621 226.21 350.731C218.96 350.821 211.71 351.001 204.46 350.971C190.86 350.971 177.25 350.751 163.65 350.621C163.37 350.621 163.1 350.571 162.19 350.471C203.31 349.991 243.83 350.261 284.75 348.471C282.66 347.791 281.66 347.731 277.75 347.841C275.54 347.901 273.32 347.891 271.1 347.951C268.88 348.011 266.48 348.121 264.16 348.161C261.84 348.201 259.78 348.161 257.58 348.061C265.68 347.441 273.93 347.631 281.99 346.811V346.301C281.06 346.301 280.13 346.221 279.2 346.251C272.453 346.424 265.707 346.608 258.96 346.801C252.22 347.011 245.48 347.341 238.74 347.441C230.97 347.551 223.2 347.441 215.43 347.441C208.78 347.441 202.12 347.511 195.43 347.441C183.743 347.361 172.053 347.248 160.36 347.101C157.97 347.101 155.6 346.991 153.21 346.931V346.511C156.35 346.441 159.49 346.331 162.63 346.301C171.917 346.188 181.193 346.088 190.46 346.001ZM146.23 356.001C144.732 356.106 143.228 356.106 141.73 356.001C139.02 355.751 136.36 355.351 133.09 354.941C138.28 353.941 142.75 354.701 147.86 355.231C147.02 355.661 146.65 356.001 146.23 356.001Z" fill="white"/>
<path d="M198.67 316.18C192.11 316.18 185.55 316.23 179 316.29C168.31 316.38 157.62 316.46 146.94 316.63C141.3 316.73 135.66 317.02 130.03 317.21L103.46 318.07C96.4599 318.28 89.3599 318.45 82.3099 318.69C80.6099 318.74 78.9299 318.98 77.2399 319.13C76.0799 319.23 75.1699 319.44 74.8199 320.24C74.6799 320.56 73.8799 320.78 73.3699 321.04L70.9999 322.28C71.5193 322.422 72.047 322.532 72.5799 322.61C76.8099 322.75 81.0299 323 85.2499 323C94.9299 323 104.62 322.85 114.3 322.76C114.944 322.721 115.59 322.81 116.2 323.02C115.787 323.198 115.354 323.326 114.91 323.4C110.91 323.6 106.89 323.77 102.85 323.91C94.3999 324.23 85.9399 324.52 77.4899 324.83C75.9688 324.805 74.4534 325.021 72.9999 325.47L72.9999 325.9C73.9199 325.97 74.8399 326.1 75.7599 326.1C79.9784 326.011 84.1981 326.208 88.3899 326.69C90.0634 326.783 91.7419 326.675 93.3899 326.37C94.3654 326.207 95.3304 325.987 96.2799 325.71C98.8899 327.98 102.7 328.12 106.76 328.09C113.81 328.09 120.86 328.18 127.91 328.19C131.84 328.19 135.77 328.08 139.7 328.07C148.78 328.07 157.857 328.07 166.93 328.07C167.627 328.087 168.318 328.208 168.98 328.43C158.84 329.14 148.6 328.74 138.24 329.18C138.52 329.4 138.57 329.49 138.63 329.49C144.85 329.61 150.9 330.83 157.25 330.26C159.79 330.03 162.47 330.38 165.08 330.39C180.72 330.39 196.36 330.39 211.99 330.52C222.67 330.62 233.35 331.11 243.99 331.17C256.09 331.23 268.2 331.03 280.29 330.89C286.743 330.823 293.193 330.693 299.64 330.5C299.75 330.5 299.83 330.5 299.94 330.5L302.61 329.81C302.793 329.641 303.013 329.517 303.253 329.449C303.493 329.382 303.745 329.372 303.99 329.42C305.9 328.87 307.76 328.27 309.54 327.59C309.842 327.454 310.18 327.418 310.504 327.489C310.828 327.559 311.121 327.731 311.34 327.98C318.87 325.18 322.78 318.88 322.53 314.08C322.23 308.28 324.77 302.76 325.13 297C324.408 297.069 323.696 297.223 323.01 297.46C323.268 297.678 323.5 297.927 323.7 298.2C324.15 299.01 323.77 299.61 322.43 299.64C320.62 299.768 318.837 300.145 317.13 300.76C315.557 301.334 313.825 301.295 312.28 300.65C311.818 300.412 311.309 300.281 310.789 300.267C310.27 300.253 309.754 300.356 309.28 300.57C308.017 301.101 306.644 301.314 305.28 301.19C304.882 301.152 304.481 301.175 304.09 301.26C300.97 302.26 297.59 301.92 294.29 301.96C283.41 302.1 272.58 302.68 261.72 302.96C250.04 303.29 238.34 303.34 226.64 303.41C219.99 303.41 213.33 303.25 206.64 303.22C204.712 303.219 202.79 303.433 200.91 303.86C201.51 303.91 202.1 304.01 202.69 304C204.4 304 206.12 303.84 207.82 303.87C208.545 303.894 209.258 304.071 209.91 304.39C210.56 304.826 211.308 305.097 212.087 305.179C212.866 305.261 213.653 305.151 214.38 304.86C216.045 304.33 217.834 304.33 219.5 304.86C221.224 305.283 222.986 305.534 224.76 305.61C228.37 305.81 232 305.86 235.62 305.99C236.76 305.99 238.05 305.88 238.95 306.59C238.29 307.52 236.86 307.67 235.66 307.52C231.785 307.13 227.879 307.16 224.01 307.61C222.909 307.628 221.809 307.558 220.72 307.4C220.168 307.275 219.605 307.202 219.04 307.18C216.252 307.51 213.439 307.57 210.64 307.36C209.36 307.31 208.07 307.22 206.78 307.21C205.29 307.21 203.78 307.21 202.31 307.29C199.62 307.48 196.96 307.92 194.31 307.95C183.22 308.05 172.12 307.95 161.03 308.1C147.62 308.24 134.23 308.51 120.88 309.33C108.24 310.12 95.5699 310.68 82.8799 311.33C80.2723 311.374 77.6864 311.812 75.2099 312.63C78.8999 312.54 82.5899 312.43 86.2799 312.36C87.6799 312.36 89.0899 312.36 90.4999 312.36C92.9199 312.36 95.3399 312.48 97.7499 312.43C103.38 312.31 109.02 312.15 114.64 311.96C121.64 311.72 128.64 312.02 135.7 311.82C144.77 311.57 153.85 311.56 162.92 311.45C170.17 311.36 177.42 311.18 184.67 311.21C198.27 311.21 211.88 311.43 225.48 311.56C225.76 311.56 226.03 311.61 226.94 311.71C185.82 312.19 145.3 311.92 104.38 313.71C106.47 314.39 107.47 314.45 111.38 314.34C113.59 314.28 115.81 314.29 118.03 314.23C120.25 314.17 122.65 314.06 124.97 314.02C127.29 313.98 129.35 314.02 131.55 314.12C123.45 314.74 115.2 314.55 107.14 315.37L107.14 315.88C108.07 315.88 109 315.96 109.93 315.93C116.677 315.757 123.423 315.573 130.17 315.38C136.91 315.17 143.65 314.84 150.39 314.74C158.16 314.63 165.93 314.74 173.7 314.74C180.35 314.74 187.01 314.67 193.7 314.74C205.387 314.82 217.077 314.933 228.77 315.08C231.16 315.08 233.53 315.19 235.92 315.25L235.92 315.67C232.78 315.74 229.64 315.85 226.5 315.88C217.213 315.993 207.937 316.093 198.67 316.18ZM242.9 306.18C244.398 306.075 245.902 306.075 247.4 306.18C250.11 306.43 252.77 306.83 256.04 307.24C250.85 308.24 246.38 307.48 241.27 306.95C242.11 306.52 242.48 306.18 242.9 306.18Z" fill="white"/>
<path d="M186.46 297.001C193.02 297.001 199.58 296.951 206.13 296.891C216.82 296.801 227.51 296.721 238.19 296.551C243.83 296.451 249.47 296.161 255.1 295.971L281.67 295.111C288.67 294.901 295.77 294.731 302.82 294.491C304.52 294.441 306.2 294.201 307.89 294.051C309.05 293.951 309.96 293.741 310.31 292.941C310.45 292.621 311.25 292.401 311.76 292.141L314.13 290.901C313.611 290.759 313.083 290.648 312.55 290.571C308.32 290.431 304.1 290.181 299.88 290.181C290.2 290.181 280.51 290.331 270.83 290.421C270.186 290.459 269.54 290.371 268.93 290.161C269.343 289.983 269.776 289.855 270.22 289.781C274.22 289.581 278.24 289.411 282.28 289.271C290.73 288.951 299.19 288.661 307.64 288.351C309.161 288.376 310.676 288.16 312.13 287.711V287.281C311.21 287.211 310.29 287.081 309.37 287.081C305.152 287.17 300.932 286.973 296.74 286.491C295.067 286.398 293.388 286.506 291.74 286.811C290.765 286.974 289.8 287.194 288.85 287.471C286.24 285.201 282.43 285.061 278.37 285.091C271.32 285.091 264.27 285.001 257.22 284.991C253.29 284.991 249.36 285.101 245.43 285.111C236.35 285.111 227.273 285.111 218.2 285.111C217.503 285.094 216.812 284.972 216.15 284.751C226.29 284.041 236.53 284.441 246.89 284.001C246.61 283.781 246.56 283.691 246.5 283.691C240.28 283.571 234.23 282.351 227.88 282.921C225.34 283.151 222.66 282.801 220.05 282.791C204.41 282.791 188.77 282.791 173.14 282.661C162.46 282.561 151.78 282.071 141.14 282.011C129.04 281.951 116.93 282.151 104.84 282.291C98.3867 282.358 91.9367 282.488 85.49 282.681C85.38 282.681 85.3 282.681 85.19 282.681L82.52 283.371C82.337 283.54 82.1166 283.664 81.8768 283.732C81.637 283.799 81.3845 283.809 81.14 283.761C79.23 284.311 77.37 284.911 75.59 285.591C75.2877 285.727 74.9498 285.762 74.6258 285.692C74.3018 285.622 74.0089 285.45 73.79 285.201C66.26 288.001 62.35 294.301 62.6 299.101C62.9 304.901 60.36 310.421 60 316.181C60.7224 316.112 61.434 315.958 62.12 315.721C61.8615 315.502 61.6299 315.254 61.43 314.981C60.98 314.171 61.36 313.571 62.7 313.541C64.5097 313.413 66.2931 313.036 68 312.421C69.573 311.847 71.3047 311.886 72.85 312.531C73.3117 312.769 73.8214 312.9 74.3408 312.914C74.8603 312.928 75.3762 312.824 75.85 312.611C77.1124 312.08 78.486 311.867 79.85 311.991C80.2479 312.029 80.6493 312.006 81.04 311.921C84.16 310.921 87.54 311.261 90.84 311.221C101.72 311.081 112.55 310.501 123.41 310.221C135.09 309.891 146.79 309.841 158.49 309.771C165.14 309.771 171.8 309.931 178.49 309.961C180.418 309.962 182.34 309.748 184.22 309.321C183.62 309.271 183.03 309.171 182.44 309.181C180.73 309.181 179.01 309.341 177.31 309.311C176.584 309.287 175.872 309.11 175.22 308.791C174.57 308.355 173.822 308.084 173.043 308.002C172.264 307.92 171.477 308.029 170.75 308.321C169.085 308.851 167.295 308.851 165.63 308.321C163.906 307.898 162.144 307.647 160.37 307.571C156.76 307.371 153.13 307.321 149.51 307.191C148.37 307.191 147.08 307.301 146.18 306.591C146.84 305.661 148.27 305.511 149.47 305.661C153.345 306.051 157.251 306.021 161.12 305.571C162.221 305.552 163.321 305.623 164.41 305.781C164.962 305.906 165.524 305.979 166.09 306.001C168.878 305.671 171.691 305.611 174.49 305.821C175.77 305.871 177.06 305.961 178.35 305.971C179.84 305.971 181.35 305.971 182.82 305.891C185.51 305.701 188.17 305.261 190.82 305.231C201.91 305.131 213.01 305.231 224.1 305.081C237.51 304.941 250.9 304.671 264.25 303.851C276.89 303.061 289.56 302.501 302.25 301.851C304.858 301.807 307.444 301.369 309.92 300.551C306.23 300.641 302.54 300.751 298.85 300.821C297.45 300.821 296.04 300.821 294.63 300.821C292.21 300.821 289.79 300.701 287.38 300.751C281.75 300.871 276.11 301.031 270.49 301.221C263.49 301.461 256.49 301.161 249.43 301.361C240.36 301.611 231.28 301.621 222.21 301.731C214.96 301.821 207.71 302.001 200.46 301.971C186.86 301.971 173.25 301.751 159.65 301.621C159.37 301.621 159.1 301.571 158.19 301.471C199.31 300.991 239.83 301.261 280.75 299.471C278.66 298.791 277.66 298.731 273.75 298.841C271.54 298.901 269.32 298.891 267.1 298.951C264.88 299.011 262.48 299.121 260.16 299.161C257.84 299.201 255.78 299.161 253.58 299.061C261.68 298.441 269.93 298.631 277.99 297.811V297.301C277.06 297.301 276.13 297.221 275.2 297.251C268.453 297.424 261.707 297.608 254.96 297.801C248.22 298.011 241.48 298.341 234.74 298.441C226.97 298.551 219.2 298.441 211.43 298.441C204.78 298.441 198.12 298.511 191.43 298.441C179.743 298.361 168.053 298.248 156.36 298.101C153.97 298.101 151.6 297.991 149.21 297.931V297.511C152.35 297.441 155.49 297.331 158.63 297.301C167.917 297.188 177.193 297.088 186.46 297.001ZM142.23 307.001C140.732 307.106 139.228 307.106 137.73 307.001C135.02 306.751 132.36 306.351 129.09 305.941C134.28 304.941 138.75 305.701 143.86 306.231C143.02 306.661 142.65 307.001 142.23 307.001Z" fill="white"/>
<path d="M194.67 267.18C188.11 267.18 181.55 267.23 175 267.29C164.31 267.38 153.62 267.46 142.94 267.63C137.3 267.73 131.66 268.02 126.03 268.21L99.4599 269.07C92.4599 269.28 85.3599 269.45 78.3099 269.69C76.6099 269.74 74.9299 269.98 73.2399 270.13C72.0799 270.23 71.1699 270.44 70.8199 271.24C70.6799 271.56 69.8799 271.78 69.3699 272.04L66.9999 273.28C67.5193 273.422 68.047 273.532 68.5799 273.61C72.8099 273.75 77.0299 274 81.2499 274C90.9299 274 100.62 273.85 110.3 273.76C110.944 273.721 111.59 273.81 112.2 274.02C111.787 274.198 111.354 274.326 110.91 274.4C106.91 274.6 102.89 274.77 98.8499 274.91C90.3999 275.23 81.9399 275.52 73.4899 275.83C71.9688 275.805 70.4534 276.021 68.9999 276.47L68.9999 276.9C69.9199 276.97 70.8399 277.1 71.7599 277.1C75.9784 277.011 80.1981 277.208 84.3899 277.69C86.0634 277.783 87.7419 277.675 89.3899 277.37C90.3654 277.207 91.3304 276.987 92.2799 276.71C94.8899 278.98 98.6999 279.12 102.76 279.09C109.81 279.09 116.86 279.18 123.91 279.19C127.84 279.19 131.77 279.08 135.7 279.07C144.78 279.07 153.857 279.07 162.93 279.07C163.627 279.087 164.318 279.208 164.98 279.43C154.84 280.14 144.6 279.74 134.24 280.18C134.52 280.4 134.57 280.49 134.63 280.49C140.85 280.61 146.9 281.83 153.25 281.26C155.79 281.03 158.47 281.38 161.08 281.39C176.72 281.39 192.36 281.39 207.99 281.52C218.67 281.62 229.35 282.11 239.99 282.17C252.09 282.23 264.2 282.03 276.29 281.89C282.743 281.823 289.193 281.693 295.64 281.5C295.75 281.5 295.83 281.5 295.94 281.5L298.61 280.81C298.793 280.641 299.013 280.517 299.253 280.449C299.493 280.382 299.745 280.372 299.99 280.42C301.9 279.87 303.76 279.27 305.54 278.59C305.842 278.454 306.18 278.418 306.504 278.489C306.828 278.559 307.121 278.731 307.34 278.98C314.87 276.18 318.78 269.88 318.53 265.08C318.23 259.28 320.77 253.76 321.13 248C320.408 248.069 319.696 248.223 319.01 248.46C319.268 248.678 319.5 248.927 319.7 249.2C320.15 250.01 319.77 250.61 318.43 250.64C316.62 250.768 314.837 251.145 313.13 251.76C311.557 252.334 309.825 252.295 308.28 251.65C307.818 251.412 307.309 251.281 306.789 251.267C306.27 251.253 305.754 251.356 305.28 251.57C304.017 252.101 302.644 252.314 301.28 252.19C300.882 252.152 300.481 252.175 300.09 252.26C296.97 253.26 293.59 252.92 290.29 252.96C279.41 253.1 268.58 253.68 257.72 253.96C246.04 254.29 234.34 254.34 222.64 254.41C215.99 254.41 209.33 254.25 202.64 254.22C200.712 254.219 198.79 254.433 196.91 254.86C197.51 254.91 198.1 255.01 198.69 255C200.4 255 202.12 254.84 203.82 254.87C204.545 254.894 205.258 255.071 205.91 255.39C206.56 255.826 207.308 256.097 208.087 256.179C208.866 256.261 209.653 256.151 210.38 255.86C212.045 255.33 213.834 255.33 215.5 255.86C217.224 256.283 218.986 256.534 220.76 256.61C224.37 256.81 228 256.86 231.62 256.99C232.76 256.99 234.05 256.88 234.95 257.59C234.29 258.52 232.86 258.67 231.66 258.52C227.785 258.13 223.879 258.16 220.01 258.61C218.909 258.628 217.809 258.558 216.72 258.4C216.168 258.275 215.605 258.202 215.04 258.18C212.252 258.51 209.439 258.57 206.64 258.36C205.36 258.31 204.07 258.22 202.78 258.21C201.29 258.21 199.78 258.21 198.31 258.29C195.62 258.48 192.96 258.92 190.31 258.95C179.22 259.05 168.12 258.95 157.03 259.1C143.62 259.24 130.23 259.51 116.88 260.33C104.24 261.12 91.5699 261.68 78.8799 262.33C76.2723 262.374 73.6864 262.812 71.2099 263.63C74.8999 263.54 78.5899 263.43 82.2799 263.36C83.6799 263.36 85.0899 263.36 86.4999 263.36C88.9199 263.36 91.3399 263.48 93.7499 263.43C99.3799 263.31 105.02 263.15 110.64 262.96C117.64 262.72 124.64 263.02 131.7 262.82C140.77 262.57 149.85 262.56 158.92 262.45C166.17 262.36 173.42 262.18 180.67 262.21C194.27 262.21 207.88 262.43 221.48 262.56C221.76 262.56 222.03 262.61 222.94 262.71C181.82 263.19 141.3 262.92 100.38 264.71C102.47 265.39 103.47 265.45 107.38 265.34C109.59 265.28 111.81 265.29 114.03 265.23C116.25 265.17 118.65 265.06 120.97 265.02C123.29 264.98 125.35 265.02 127.55 265.12C119.45 265.74 111.2 265.55 103.14 266.37L103.14 266.88C104.07 266.88 105 266.96 105.93 266.93C112.677 266.757 119.423 266.573 126.17 266.38C132.91 266.17 139.65 265.84 146.39 265.74C154.16 265.63 161.93 265.74 169.7 265.74C176.35 265.74 183.01 265.67 189.7 265.74C201.387 265.82 213.077 265.933 224.77 266.08C227.16 266.08 229.53 266.19 231.92 266.25L231.92 266.67C228.78 266.74 225.64 266.85 222.5 266.88C213.213 266.993 203.937 267.093 194.67 267.18ZM238.9 257.18C240.398 257.075 241.902 257.075 243.4 257.18C246.11 257.43 248.77 257.83 252.04 258.24C246.85 259.24 242.38 258.48 237.27 257.95C238.11 257.52 238.48 257.18 238.9 257.18Z" fill="white"/>
<path d="M190.46 247.001C197.02 247.001 203.58 246.951 210.13 246.891C220.82 246.801 231.51 246.721 242.19 246.551C247.83 246.451 253.47 246.161 259.1 245.971L285.67 245.111C292.67 244.901 299.77 244.731 306.82 244.491C308.52 244.441 310.2 244.201 311.89 244.051C313.05 243.951 313.96 243.741 314.31 242.941C314.45 242.621 315.25 242.401 315.76 242.141L318.13 240.901C317.611 240.759 317.083 240.648 316.55 240.571C312.32 240.431 308.1 240.181 303.88 240.181C294.2 240.181 284.51 240.331 274.83 240.421C274.186 240.459 273.54 240.371 272.93 240.161C273.343 239.983 273.776 239.855 274.22 239.781C278.22 239.581 282.24 239.411 286.28 239.271C294.73 238.951 303.19 238.661 311.64 238.351C313.161 238.376 314.676 238.16 316.13 237.711V237.281C315.21 237.211 314.29 237.081 313.37 237.081C309.152 237.17 304.932 236.973 300.74 236.491C299.067 236.398 297.388 236.506 295.74 236.811C294.765 236.974 293.8 237.194 292.85 237.471C290.24 235.201 286.43 235.061 282.37 235.091C275.32 235.091 268.27 235.001 261.22 234.991C257.29 234.991 253.36 235.101 249.43 235.111C240.35 235.111 231.273 235.111 222.2 235.111C221.503 235.094 220.812 234.972 220.15 234.751C230.29 234.041 240.53 234.441 250.89 234.001C250.61 233.781 250.56 233.691 250.5 233.691C244.28 233.571 238.23 232.351 231.88 232.921C229.34 233.151 226.66 232.801 224.05 232.791C208.41 232.791 192.77 232.791 177.14 232.661C166.46 232.561 155.78 232.071 145.14 232.011C133.04 231.951 120.93 232.151 108.84 232.291C102.387 232.358 95.9367 232.488 89.49 232.681C89.38 232.681 89.3 232.681 89.19 232.681L86.52 233.371C86.337 233.54 86.1166 233.664 85.8768 233.732C85.637 233.799 85.3845 233.809 85.14 233.761C83.23 234.311 81.37 234.911 79.59 235.591C79.2877 235.727 78.9498 235.762 78.6258 235.692C78.3018 235.622 78.0089 235.45 77.79 235.201C70.26 238.001 66.35 244.301 66.6 249.101C66.9 254.901 64.36 260.421 64 266.181C64.7224 266.112 65.434 265.958 66.12 265.721C65.8615 265.502 65.6299 265.254 65.43 264.981C64.98 264.171 65.36 263.571 66.7 263.541C68.5097 263.413 70.2931 263.036 72 262.421C73.573 261.847 75.3047 261.886 76.85 262.531C77.3117 262.769 77.8214 262.9 78.3408 262.914C78.8603 262.928 79.3762 262.824 79.85 262.611C81.1124 262.08 82.486 261.867 83.85 261.991C84.2479 262.029 84.6493 262.006 85.04 261.921C88.16 260.921 91.54 261.261 94.84 261.221C105.72 261.081 116.55 260.501 127.41 260.221C139.09 259.891 150.79 259.841 162.49 259.771C169.14 259.771 175.8 259.931 182.49 259.961C184.418 259.962 186.34 259.748 188.22 259.321C187.62 259.271 187.03 259.171 186.44 259.181C184.73 259.181 183.01 259.341 181.31 259.311C180.584 259.287 179.872 259.11 179.22 258.791C178.57 258.355 177.822 258.084 177.043 258.002C176.264 257.92 175.477 258.029 174.75 258.321C173.085 258.851 171.295 258.851 169.63 258.321C167.906 257.898 166.144 257.647 164.37 257.571C160.76 257.371 157.13 257.321 153.51 257.191C152.37 257.191 151.08 257.301 150.18 256.591C150.84 255.661 152.27 255.511 153.47 255.661C157.345 256.051 161.251 256.021 165.12 255.571C166.221 255.552 167.321 255.623 168.41 255.781C168.962 255.906 169.524 255.979 170.09 256.001C172.878 255.671 175.691 255.611 178.49 255.821C179.77 255.871 181.06 255.961 182.35 255.971C183.84 255.971 185.35 255.971 186.82 255.891C189.51 255.701 192.17 255.261 194.82 255.231C205.91 255.131 217.01 255.231 228.1 255.081C241.51 254.941 254.9 254.671 268.25 253.851C280.89 253.061 293.56 252.501 306.25 251.851C308.858 251.807 311.444 251.369 313.92 250.551C310.23 250.641 306.54 250.751 302.85 250.821C301.45 250.821 300.04 250.821 298.63 250.821C296.21 250.821 293.79 250.701 291.38 250.751C285.75 250.871 280.11 251.031 274.49 251.221C267.49 251.461 260.49 251.161 253.43 251.361C244.36 251.611 235.28 251.621 226.21 251.731C218.96 251.821 211.71 252.001 204.46 251.971C190.86 251.971 177.25 251.751 163.65 251.621C163.37 251.621 163.1 251.571 162.19 251.471C203.31 250.991 243.83 251.261 284.75 249.471C282.66 248.791 281.66 248.731 277.75 248.841C275.54 248.901 273.32 248.891 271.1 248.951C268.88 249.011 266.48 249.121 264.16 249.161C261.84 249.201 259.78 249.161 257.58 249.061C265.68 248.441 273.93 248.631 281.99 247.811V247.301C281.06 247.301 280.13 247.221 279.2 247.251C272.453 247.424 265.707 247.608 258.96 247.801C252.22 248.011 245.48 248.341 238.74 248.441C230.97 248.551 223.2 248.441 215.43 248.441C208.78 248.441 202.12 248.511 195.43 248.441C183.743 248.361 172.053 248.248 160.36 248.101C157.97 248.101 155.6 247.991 153.21 247.931V247.511C156.35 247.441 159.49 247.331 162.63 247.301C171.917 247.188 181.193 247.088 190.46 247.001ZM146.23 257.001C144.732 257.106 143.228 257.106 141.73 257.001C139.02 256.751 136.36 256.351 133.09 255.941C138.28 254.941 142.75 255.701 147.86 256.231C147.02 256.661 146.65 257.001 146.23 257.001Z" fill="white"/>
<path d="M198.67 217.18C192.11 217.18 185.55 217.23 179 217.29C168.31 217.38 157.62 217.46 146.94 217.63C141.3 217.73 135.66 218.02 130.03 218.21L103.46 219.07C96.4599 219.28 89.3599 219.45 82.3099 219.69C80.6099 219.74 78.9299 219.98 77.2399 220.13C76.0799 220.23 75.1699 220.44 74.8199 221.24C74.6799 221.56 73.8799 221.78 73.3699 222.04L70.9999 223.28C71.5193 223.422 72.047 223.532 72.5799 223.61C76.8099 223.75 81.0299 224 85.2499 224C94.9299 224 104.62 223.85 114.3 223.76C114.944 223.721 115.59 223.81 116.2 224.02C115.787 224.198 115.354 224.326 114.91 224.4C110.91 224.6 106.89 224.77 102.85 224.91C94.3999 225.23 85.9399 225.52 77.4899 225.83C75.9688 225.805 74.4534 226.021 72.9999 226.47L72.9999 226.9C73.9199 226.97 74.8399 227.1 75.7599 227.1C79.9784 227.011 84.1981 227.208 88.3899 227.69C90.0634 227.783 91.7419 227.675 93.3899 227.37C94.3654 227.207 95.3304 226.987 96.2799 226.71C98.8899 228.98 102.7 229.12 106.76 229.09C113.81 229.09 120.86 229.18 127.91 229.19C131.84 229.19 135.77 229.08 139.7 229.07C148.78 229.07 157.857 229.07 166.93 229.07C167.627 229.087 168.318 229.208 168.98 229.43C158.84 230.14 148.6 229.74 138.24 230.18C138.52 230.4 138.57 230.49 138.63 230.49C144.85 230.61 150.9 231.83 157.25 231.26C159.79 231.03 162.47 231.38 165.08 231.39C180.72 231.39 196.36 231.39 211.99 231.52C222.67 231.62 233.35 232.11 243.99 232.17C256.09 232.23 268.2 232.03 280.29 231.89C286.743 231.823 293.193 231.693 299.64 231.5C299.75 231.5 299.83 231.5 299.94 231.5L302.61 230.81C302.793 230.641 303.013 230.517 303.253 230.449C303.493 230.382 303.745 230.372 303.99 230.42C305.9 229.87 307.76 229.27 309.54 228.59C309.842 228.454 310.18 228.418 310.504 228.489C310.828 228.559 311.121 228.731 311.34 228.98C318.87 226.18 322.78 219.88 322.53 215.08C322.23 209.28 324.77 203.76 325.13 198C324.408 198.069 323.696 198.223 323.01 198.46C323.268 198.678 323.5 198.927 323.7 199.2C324.15 200.01 323.77 200.61 322.43 200.64C320.62 200.768 318.837 201.145 317.13 201.76C315.557 202.334 313.825 202.295 312.28 201.65C311.818 201.412 311.309 201.281 310.789 201.267C310.27 201.253 309.754 201.356 309.28 201.57C308.017 202.101 306.644 202.314 305.28 202.19C304.882 202.152 304.481 202.175 304.09 202.26C300.97 203.26 297.59 202.92 294.29 202.96C283.41 203.1 272.58 203.68 261.72 203.96C250.04 204.29 238.34 204.34 226.64 204.41C219.99 204.41 213.33 204.25 206.64 204.22C204.712 204.219 202.79 204.433 200.91 204.86C201.51 204.91 202.1 205.01 202.69 205C204.4 205 206.12 204.84 207.82 204.87C208.545 204.894 209.258 205.071 209.91 205.39C210.56 205.826 211.308 206.097 212.087 206.179C212.866 206.261 213.653 206.151 214.38 205.86C216.045 205.33 217.834 205.33 219.5 205.86C221.224 206.283 222.986 206.534 224.76 206.61C228.37 206.81 232 206.86 235.62 206.99C236.76 206.99 238.05 206.88 238.95 207.59C238.29 208.52 236.86 208.67 235.66 208.52C231.785 208.13 227.879 208.16 224.01 208.61C222.909 208.628 221.809 208.558 220.72 208.4C220.168 208.275 219.605 208.202 219.04 208.18C216.252 208.51 213.439 208.57 210.64 208.36C209.36 208.31 208.07 208.22 206.78 208.21C205.29 208.21 203.78 208.21 202.31 208.29C199.62 208.48 196.96 208.92 194.31 208.95C183.22 209.05 172.12 208.95 161.03 209.1C147.62 209.24 134.23 209.51 120.88 210.33C108.24 211.12 95.5699 211.68 82.8799 212.33C80.2723 212.374 77.6864 212.812 75.2099 213.63C78.8999 213.54 82.5899 213.43 86.2799 213.36C87.6799 213.36 89.0899 213.36 90.4999 213.36C92.9199 213.36 95.3399 213.48 97.7499 213.43C103.38 213.31 109.02 213.15 114.64 212.96C121.64 212.72 128.64 213.02 135.7 212.82C144.77 212.57 153.85 212.56 162.92 212.45C170.17 212.36 177.42 212.18 184.67 212.21C198.27 212.21 211.88 212.43 225.48 212.56C225.76 212.56 226.03 212.61 226.94 212.71C185.82 213.19 145.3 212.92 104.38 214.71C106.47 215.39 107.47 215.45 111.38 215.34C113.59 215.28 115.81 215.29 118.03 215.23C120.25 215.17 122.65 215.06 124.97 215.02C127.29 214.98 129.35 215.02 131.55 215.12C123.45 215.74 115.2 215.55 107.14 216.37L107.14 216.88C108.07 216.88 109 216.96 109.93 216.93C116.677 216.757 123.423 216.573 130.17 216.38C136.91 216.17 143.65 215.84 150.39 215.74C158.16 215.63 165.93 215.74 173.7 215.74C180.35 215.74 187.01 215.67 193.7 215.74C205.387 215.82 217.077 215.933 228.77 216.08C231.16 216.08 233.53 216.19 235.92 216.25L235.92 216.67C232.78 216.74 229.64 216.85 226.5 216.88C217.213 216.993 207.937 217.093 198.67 217.18ZM242.9 207.18C244.398 207.075 245.902 207.075 247.4 207.18C250.11 207.43 252.77 207.83 256.04 208.24C250.85 209.24 246.38 208.48 241.27 207.95C242.11 207.52 242.48 207.18 242.9 207.18Z" fill="white"/>
<path d="M166.46 198.001C173.02 198.001 179.58 197.951 186.13 197.891C196.82 197.801 207.51 197.721 218.19 197.551C223.83 197.451 229.47 197.161 235.1 196.971L261.67 196.111C268.67 195.901 275.77 195.731 282.82 195.491C284.52 195.441 286.2 195.201 287.89 195.051C289.05 194.951 289.96 194.741 290.31 193.941C290.45 193.621 291.25 193.401 291.76 193.141L294.13 191.901C293.611 191.759 293.083 191.648 292.55 191.571C288.32 191.431 284.1 191.181 279.88 191.181C270.2 191.181 260.51 191.331 250.83 191.421C250.186 191.459 249.54 191.371 248.93 191.161C249.343 190.983 249.776 190.855 250.22 190.781C254.22 190.581 258.24 190.411 262.28 190.271C270.73 189.951 279.19 189.661 287.64 189.351C289.161 189.376 290.676 189.16 292.13 188.711V188.281C291.21 188.211 290.29 188.081 289.37 188.081C285.152 188.17 280.932 187.973 276.74 187.491C275.067 187.398 273.388 187.506 271.74 187.811C270.765 187.974 269.8 188.194 268.85 188.471C266.24 186.201 262.43 186.061 258.37 186.091C251.32 186.091 244.27 186.001 237.22 185.991C233.29 185.991 229.36 186.101 225.43 186.111C216.35 186.111 207.273 186.111 198.2 186.111C197.503 186.094 196.812 185.972 196.15 185.751C206.29 185.041 216.53 185.441 226.89 185.001C226.61 184.781 226.56 184.691 226.5 184.691C220.28 184.571 214.23 183.351 207.88 183.921C205.34 184.151 202.66 183.801 200.05 183.791C184.41 183.791 168.77 183.791 153.14 183.661C142.46 183.561 131.78 183.071 121.14 183.011C109.04 182.951 96.93 183.151 84.84 183.291C78.3867 183.358 71.9367 183.488 65.49 183.681C65.38 183.681 65.3 183.681 65.19 183.681L62.52 184.371C62.337 184.54 62.1166 184.664 61.8768 184.732C61.637 184.799 61.3845 184.809 61.14 184.761C59.23 185.311 57.37 185.911 55.59 186.591C55.2877 186.727 54.9498 186.762 54.6258 186.692C54.3018 186.622 54.0089 186.45 53.79 186.201C46.26 189.001 42.35 195.301 42.6 200.101C42.9 205.901 40.36 211.421 40 217.181C40.7224 217.112 41.434 216.958 42.12 216.721C41.8615 216.502 41.6299 216.254 41.43 215.981C40.98 215.171 41.36 214.571 42.7 214.541C44.5097 214.413 46.2931 214.036 48 213.421C49.573 212.847 51.3047 212.886 52.85 213.531C53.3117 213.769 53.8214 213.9 54.3408 213.914C54.8603 213.928 55.3762 213.824 55.85 213.611C57.1124 213.08 58.486 212.867 59.85 212.991C60.2479 213.029 60.6493 213.006 61.04 212.921C64.16 211.921 67.54 212.261 70.84 212.221C81.72 212.081 92.55 211.501 103.41 211.221C115.09 210.891 126.79 210.841 138.49 210.771C145.14 210.771 151.8 210.931 158.49 210.961C160.418 210.962 162.34 210.748 164.22 210.321C163.62 210.271 163.03 210.171 162.44 210.181C160.73 210.181 159.01 210.341 157.31 210.311C156.584 210.287 155.872 210.11 155.22 209.791C154.57 209.355 153.822 209.084 153.043 209.002C152.264 208.92 151.477 209.029 150.75 209.321C149.085 209.851 147.295 209.851 145.63 209.321C143.906 208.898 142.144 208.647 140.37 208.571C136.76 208.371 133.13 208.321 129.51 208.191C128.37 208.191 127.08 208.301 126.18 207.591C126.84 206.661 128.27 206.511 129.47 206.661C133.345 207.051 137.251 207.021 141.12 206.571C142.221 206.552 143.321 206.623 144.41 206.781C144.962 206.906 145.524 206.979 146.09 207.001C148.878 206.671 151.691 206.611 154.49 206.821C155.77 206.871 157.06 206.961 158.35 206.971C159.84 206.971 161.35 206.971 162.82 206.891C165.51 206.701 168.17 206.261 170.82 206.231C181.91 206.131 193.01 206.231 204.1 206.081C217.51 205.941 230.9 205.671 244.25 204.851C256.89 204.061 269.56 203.501 282.25 202.851C284.858 202.807 287.444 202.369 289.92 201.551C286.23 201.641 282.54 201.751 278.85 201.821C277.45 201.821 276.04 201.821 274.63 201.821C272.21 201.821 269.79 201.701 267.38 201.751C261.75 201.871 256.11 202.031 250.49 202.221C243.49 202.461 236.49 202.161 229.43 202.361C220.36 202.611 211.28 202.621 202.21 202.731C194.96 202.821 187.71 203.001 180.46 202.971C166.86 202.971 153.25 202.751 139.65 202.621C139.37 202.621 139.1 202.571 138.19 202.471C179.31 201.991 219.83 202.261 260.75 200.471C258.66 199.791 257.66 199.731 253.75 199.841C251.54 199.901 249.32 199.891 247.1 199.951C244.88 200.011 242.48 200.121 240.16 200.161C237.84 200.201 235.78 200.161 233.58 200.061C241.68 199.441 249.93 199.631 257.99 198.811V198.301C257.06 198.301 256.13 198.221 255.2 198.251C248.453 198.424 241.707 198.608 234.96 198.801C228.22 199.011 221.48 199.341 214.74 199.441C206.97 199.551 199.2 199.441 191.43 199.441C184.78 199.441 178.12 199.511 171.43 199.441C159.743 199.361 148.053 199.248 136.36 199.101C133.97 199.101 131.6 198.991 129.21 198.931V198.511C132.35 198.441 135.49 198.331 138.63 198.301C147.917 198.188 157.193 198.088 166.46 198.001ZM122.23 208.001C120.732 208.106 119.228 208.106 117.73 208.001C115.02 207.751 112.36 207.351 109.09 206.941C114.28 205.941 118.75 206.701 123.86 207.231C123.02 207.661 122.65 208.001 122.23 208.001Z" fill="white"/>
<path d="M174.67 168.18C168.11 168.18 161.55 168.23 155 168.29C144.31 168.38 133.62 168.46 122.94 168.63C117.3 168.73 111.66 169.02 106.03 169.21L79.4599 170.07C72.4599 170.28 65.3599 170.45 58.3099 170.69C56.6099 170.74 54.9299 170.98 53.2399 171.13C52.0799 171.23 51.1699 171.44 50.8199 172.24C50.6799 172.56 49.8799 172.78 49.3699 173.04L46.9999 174.28C47.5193 174.422 48.047 174.532 48.5799 174.61C52.8099 174.75 57.0299 175 61.2499 175C70.9299 175 80.6199 174.85 90.2999 174.76C90.9441 174.721 91.5897 174.81 92.1999 175.02C91.7868 175.198 91.3536 175.326 90.9099 175.4C86.9099 175.6 82.8899 175.77 78.8499 175.91C70.3999 176.23 61.9399 176.52 53.4899 176.83C51.9688 176.805 50.4534 177.021 48.9999 177.47L48.9999 177.9C49.9199 177.97 50.8399 178.1 51.7599 178.1C55.9784 178.011 60.1981 178.208 64.3899 178.69C66.0634 178.783 67.7419 178.675 69.3899 178.37C70.3654 178.207 71.3304 177.987 72.2799 177.71C74.8899 179.98 78.6999 180.12 82.7599 180.09C89.8099 180.09 96.8599 180.18 103.91 180.19C107.84 180.19 111.77 180.08 115.7 180.07C124.78 180.07 133.857 180.07 142.93 180.07C143.627 180.087 144.318 180.208 144.98 180.43C134.84 181.14 124.6 180.74 114.24 181.18C114.52 181.4 114.57 181.49 114.63 181.49C120.85 181.61 126.9 182.83 133.25 182.26C135.79 182.03 138.47 182.38 141.08 182.39C156.72 182.39 172.36 182.39 187.99 182.52C198.67 182.62 209.35 183.11 219.99 183.17C232.09 183.23 244.2 183.03 256.29 182.89C262.743 182.823 269.193 182.693 275.64 182.5C275.75 182.5 275.83 182.5 275.94 182.5L278.61 181.81C278.793 181.641 279.013 181.517 279.253 181.449C279.493 181.382 279.745 181.372 279.99 181.42C281.9 180.87 283.76 180.27 285.54 179.59C285.842 179.454 286.18 179.418 286.504 179.489C286.828 179.559 287.121 179.731 287.34 179.98C294.87 177.18 298.78 170.88 298.53 166.08C298.23 160.28 300.77 154.76 301.13 149C300.408 149.069 299.696 149.223 299.01 149.46C299.268 149.678 299.5 149.927 299.7 150.2C300.15 151.01 299.77 151.61 298.43 151.64C296.62 151.768 294.837 152.145 293.13 152.76C291.557 153.334 289.825 153.295 288.28 152.65C287.818 152.412 287.309 152.281 286.789 152.267C286.27 152.253 285.754 152.356 285.28 152.57C284.017 153.101 282.644 153.314 281.28 153.19C280.882 153.152 280.481 153.175 280.09 153.26C276.97 154.26 273.59 153.92 270.29 153.96C259.41 154.1 248.58 154.68 237.72 154.96C226.04 155.29 214.34 155.34 202.64 155.41C195.99 155.41 189.33 155.25 182.64 155.22C180.712 155.219 178.79 155.433 176.91 155.86C177.51 155.91 178.1 156.01 178.69 156C180.4 156 182.12 155.84 183.82 155.87C184.545 155.894 185.258 156.071 185.91 156.39C186.56 156.826 187.308 157.097 188.087 157.179C188.866 157.261 189.653 157.151 190.38 156.86C192.045 156.33 193.834 156.33 195.5 156.86C197.224 157.283 198.986 157.534 200.76 157.61C204.37 157.81 208 157.86 211.62 157.99C212.76 157.99 214.05 157.88 214.95 158.59C214.29 159.52 212.86 159.67 211.66 159.52C207.785 159.13 203.879 159.16 200.01 159.61C198.909 159.628 197.809 159.558 196.72 159.4C196.168 159.275 195.605 159.202 195.04 159.18C192.252 159.51 189.439 159.57 186.64 159.36C185.36 159.31 184.07 159.22 182.78 159.21C181.29 159.21 179.78 159.21 178.31 159.29C175.62 159.48 172.96 159.92 170.31 159.95C159.22 160.05 148.12 159.95 137.03 160.1C123.62 160.24 110.23 160.51 96.8799 161.33C84.2399 162.12 71.5699 162.68 58.8799 163.33C56.2723 163.374 53.6864 163.812 51.2099 164.63C54.8999 164.54 58.5899 164.43 62.2799 164.36C63.6799 164.36 65.0899 164.36 66.4999 164.36C68.9199 164.36 71.3399 164.48 73.7499 164.43C79.3799 164.31 85.0199 164.15 90.6399 163.96C97.6399 163.72 104.64 164.02 111.7 163.82C120.77 163.57 129.85 163.56 138.92 163.45C146.17 163.36 153.42 163.18 160.67 163.21C174.27 163.21 187.88 163.43 201.48 163.56C201.76 163.56 202.03 163.61 202.94 163.71C161.82 164.19 121.3 163.92 80.3799 165.71C82.4699 166.39 83.4699 166.45 87.3799 166.34C89.5899 166.28 91.8099 166.29 94.0299 166.23C96.2499 166.17 98.6499 166.06 100.97 166.02C103.29 165.98 105.35 166.02 107.55 166.12C99.4499 166.74 91.1999 166.55 83.1399 167.37L83.1399 167.88C84.0699 167.88 84.9999 167.96 85.9299 167.93C92.6766 167.757 99.4232 167.573 106.17 167.38C112.91 167.17 119.65 166.84 126.39 166.74C134.16 166.63 141.93 166.74 149.7 166.74C156.35 166.74 163.01 166.67 169.7 166.74C181.387 166.82 193.077 166.933 204.77 167.08C207.16 167.08 209.53 167.19 211.92 167.25L211.92 167.67C208.78 167.74 205.64 167.85 202.5 167.88C193.213 167.993 183.937 168.093 174.67 168.18ZM218.9 158.18C220.398 158.075 221.902 158.075 223.4 158.18C226.11 158.43 228.77 158.83 232.04 159.24C226.85 160.24 222.38 159.48 217.27 158.95C218.11 158.52 218.48 158.18 218.9 158.18Z" fill="white"/>
<path d="M133.46 149.001C140.02 149.001 146.58 148.951 153.13 148.891C163.82 148.801 174.51 148.721 185.19 148.551C190.83 148.451 196.47 148.161 202.1 147.971L228.67 147.111C235.67 146.901 242.77 146.731 249.82 146.491C251.52 146.441 253.2 146.201 254.89 146.051C256.05 145.951 256.96 145.741 257.31 144.941C257.45 144.621 258.25 144.401 258.76 144.141L261.13 142.901C260.611 142.759 260.083 142.648 259.55 142.571C255.32 142.431 251.1 142.181 246.88 142.181C237.2 142.181 227.51 142.331 217.83 142.421C217.186 142.459 216.54 142.371 215.93 142.161C216.343 141.983 216.776 141.855 217.22 141.781C221.22 141.581 225.24 141.411 229.28 141.271C237.73 140.951 246.19 140.661 254.64 140.351C256.161 140.376 257.676 140.16 259.13 139.711V139.281C258.21 139.211 257.29 139.081 256.37 139.081C252.152 139.17 247.932 138.973 243.74 138.491C242.067 138.398 240.388 138.506 238.74 138.811C237.765 138.974 236.8 139.194 235.85 139.471C233.24 137.201 229.43 137.061 225.37 137.091C218.32 137.091 211.27 137.001 204.22 136.991C200.29 136.991 196.36 137.101 192.43 137.111C183.35 137.111 174.273 137.111 165.2 137.111C164.503 137.094 163.812 136.972 163.15 136.751C173.29 136.041 183.53 136.441 193.89 136.001C193.61 135.781 193.56 135.691 193.5 135.691C187.28 135.571 181.23 134.351 174.88 134.921C172.34 135.151 169.66 134.801 167.05 134.791C151.41 134.791 135.77 134.791 120.14 134.661C109.46 134.561 98.78 134.071 88.14 134.011C76.04 133.951 63.93 134.151 51.84 134.291C45.3867 134.358 38.9367 134.488 32.49 134.681C32.38 134.681 32.3 134.681 32.19 134.681L29.52 135.371C29.337 135.54 29.1166 135.664 28.8768 135.732C28.637 135.799 28.3845 135.809 28.14 135.761C26.23 136.311 24.37 136.911 22.59 137.591C22.2877 137.727 21.9498 137.762 21.6258 137.692C21.3018 137.622 21.0089 137.45 20.79 137.201C13.26 140.001 9.35 146.301 9.6 151.101C9.9 156.901 7.36 162.421 7 168.181C7.72238 168.112 8.43402 167.958 9.12 167.721C8.86148 167.502 8.62985 167.254 8.42999 166.981C7.97999 166.171 8.36 165.571 9.7 165.541C11.5097 165.413 13.2931 165.036 15 164.421C16.573 163.847 18.3047 163.886 19.85 164.531C20.3117 164.769 20.8214 164.9 21.3408 164.914C21.8603 164.928 22.3762 164.824 22.85 164.611C24.1124 164.08 25.486 163.867 26.85 163.991C27.2479 164.029 27.6493 164.006 28.04 163.921C31.16 162.921 34.54 163.261 37.84 163.221C48.72 163.081 59.55 162.501 70.41 162.221C82.09 161.891 93.79 161.841 105.49 161.771C112.14 161.771 118.8 161.931 125.49 161.961C127.418 161.962 129.34 161.748 131.22 161.321C130.62 161.271 130.03 161.171 129.44 161.181C127.73 161.181 126.01 161.341 124.31 161.311C123.584 161.287 122.872 161.11 122.22 160.791C121.57 160.355 120.822 160.084 120.043 160.002C119.264 159.92 118.477 160.029 117.75 160.321C116.085 160.851 114.295 160.851 112.63 160.321C110.906 159.898 109.144 159.647 107.37 159.571C103.76 159.371 100.13 159.321 96.51 159.191C95.37 159.191 94.08 159.301 93.18 158.591C93.84 157.661 95.27 157.511 96.47 157.661C100.345 158.051 104.251 158.021 108.12 157.571C109.221 157.552 110.321 157.623 111.41 157.781C111.962 157.906 112.524 157.979 113.09 158.001C115.878 157.671 118.691 157.611 121.49 157.821C122.77 157.871 124.06 157.961 125.35 157.971C126.84 157.971 128.35 157.971 129.82 157.891C132.51 157.701 135.17 157.261 137.82 157.231C148.91 157.131 160.01 157.231 171.1 157.081C184.51 156.941 197.9 156.671 211.25 155.851C223.89 155.061 236.56 154.501 249.25 153.851C251.858 153.807 254.444 153.369 256.92 152.551C253.23 152.641 249.54 152.751 245.85 152.821C244.45 152.821 243.04 152.821 241.63 152.821C239.21 152.821 236.79 152.701 234.38 152.751C228.75 152.871 223.11 153.031 217.49 153.221C210.49 153.461 203.49 153.161 196.43 153.361C187.36 153.611 178.28 153.621 169.21 153.731C161.96 153.821 154.71 154.001 147.46 153.971C133.86 153.971 120.25 153.751 106.65 153.621C106.37 153.621 106.1 153.571 105.19 153.471C146.31 152.991 186.83 153.261 227.75 151.471C225.66 150.791 224.66 150.731 220.75 150.841C218.54 150.901 216.32 150.891 214.1 150.951C211.88 151.011 209.48 151.121 207.16 151.161C204.84 151.201 202.78 151.161 200.58 151.061C208.68 150.441 216.93 150.631 224.99 149.811V149.301C224.06 149.301 223.13 149.221 222.2 149.251C215.453 149.424 208.707 149.608 201.96 149.801C195.22 150.011 188.48 150.341 181.74 150.441C173.97 150.551 166.2 150.441 158.43 150.441C151.78 150.441 145.12 150.511 138.43 150.441C126.743 150.361 115.053 150.248 103.36 150.101C100.97 150.101 98.6 149.991 96.21 149.931V149.511C99.35 149.441 102.49 149.331 105.63 149.301C114.917 149.188 124.193 149.088 133.46 149.001ZM89.23 159.001C87.7318 159.106 86.2282 159.106 84.73 159.001C82.02 158.751 79.36 158.351 76.09 157.941C81.28 156.941 85.75 157.701 90.86 158.231C90.02 158.661 89.65 159.001 89.23 159.001Z" fill="white"/>
<path d="M141.67 119.18C135.11 119.18 128.55 119.23 122 119.29C111.31 119.38 100.62 119.46 89.9399 119.63C84.2999 119.73 78.6599 120.02 73.0299 120.21L46.4599 121.07C39.4599 121.28 32.3599 121.45 25.3099 121.69C23.6099 121.74 21.9299 121.98 20.2399 122.13C19.0799 122.23 18.1699 122.44 17.8199 123.24C17.6799 123.56 16.8799 123.78 16.3699 124.04L13.9999 125.28C14.5193 125.422 15.047 125.532 15.5799 125.61C19.8099 125.75 24.0299 126 28.2499 126C37.9299 126 47.6199 125.85 57.2999 125.76C57.9441 125.721 58.5897 125.81 59.1999 126.02C58.7868 126.198 58.3536 126.326 57.9099 126.4C53.9099 126.6 49.8899 126.77 45.8499 126.91C37.3999 127.23 28.9399 127.52 20.4899 127.83C18.9688 127.805 17.4534 128.021 15.9999 128.47L15.9999 128.9C16.9199 128.97 17.8399 129.1 18.7599 129.1C22.9784 129.011 27.1981 129.208 31.3899 129.69C33.0634 129.783 34.7419 129.675 36.3899 129.37C37.3654 129.207 38.3304 128.987 39.2799 128.71C41.8899 130.98 45.6999 131.12 49.7599 131.09C56.8099 131.09 63.8599 131.18 70.9099 131.19C74.8399 131.19 78.7699 131.08 82.6999 131.07C91.7799 131.07 100.857 131.07 109.93 131.07C110.627 131.087 111.318 131.208 111.98 131.43C101.84 132.14 91.5999 131.74 81.2399 132.18C81.5199 132.4 81.5699 132.49 81.6299 132.49C87.8499 132.61 93.8999 133.83 100.25 133.26C102.79 133.03 105.47 133.38 108.08 133.39C123.72 133.39 139.36 133.39 154.99 133.52C165.67 133.62 176.35 134.11 186.99 134.17C199.09 134.23 211.2 134.03 223.29 133.89C229.743 133.823 236.193 133.693 242.64 133.5C242.75 133.5 242.83 133.5 242.94 133.5L245.61 132.81C245.793 132.641 246.013 132.517 246.253 132.449C246.493 132.382 246.745 132.372 246.99 132.42C248.9 131.87 250.76 131.27 252.54 130.59C252.842 130.454 253.18 130.418 253.504 130.489C253.828 130.559 254.121 130.731 254.34 130.98C261.87 128.18 265.78 121.88 265.53 117.08C265.23 111.28 267.77 105.76 268.13 100C267.408 100.069 266.696 100.223 266.01 100.46C266.268 100.678 266.5 100.927 266.7 101.2C267.15 102.01 266.77 102.61 265.43 102.64C263.62 102.768 261.837 103.145 260.13 103.76C258.557 104.334 256.825 104.295 255.28 103.65C254.818 103.412 254.309 103.281 253.789 103.267C253.27 103.253 252.754 103.356 252.28 103.57C251.017 104.101 249.644 104.314 248.28 104.19C247.882 104.152 247.481 104.175 247.09 104.26C243.97 105.26 240.59 104.92 237.29 104.96C226.41 105.1 215.58 105.68 204.72 105.96C193.04 106.29 181.34 106.34 169.64 106.41C162.99 106.41 156.33 106.25 149.64 106.22C147.712 106.219 145.79 106.433 143.91 106.86C144.51 106.91 145.1 107.01 145.69 107C147.4 107 149.12 106.84 150.82 106.87C151.545 106.894 152.258 107.071 152.91 107.39C153.56 107.826 154.308 108.097 155.087 108.179C155.866 108.261 156.653 108.151 157.38 107.86C159.045 107.33 160.834 107.33 162.5 107.86C164.224 108.283 165.986 108.534 167.76 108.61C171.37 108.81 175 108.86 178.62 108.99C179.76 108.99 181.05 108.88 181.95 109.59C181.29 110.52 179.86 110.67 178.66 110.52C174.785 110.13 170.879 110.16 167.01 110.61C165.909 110.628 164.809 110.558 163.72 110.4C163.168 110.275 162.605 110.202 162.04 110.18C159.252 110.51 156.439 110.57 153.64 110.36C152.36 110.31 151.07 110.22 149.78 110.21C148.29 110.21 146.78 110.21 145.31 110.29C142.62 110.48 139.96 110.92 137.31 110.95C126.22 111.05 115.12 110.95 104.03 111.1C90.6199 111.24 77.2299 111.51 63.8799 112.33C51.2399 113.12 38.5699 113.68 25.8799 114.33C23.2723 114.374 20.6864 114.812 18.2099 115.63C21.8999 115.54 25.5899 115.43 29.2799 115.36C30.6799 115.36 32.0899 115.36 33.4999 115.36C35.9199 115.36 38.3399 115.48 40.7499 115.43C46.3799 115.31 52.0199 115.15 57.6399 114.96C64.6399 114.72 71.6399 115.02 78.6999 114.82C87.7699 114.57 96.8499 114.56 105.92 114.45C113.17 114.36 120.42 114.18 127.67 114.21C141.27 114.21 154.88 114.43 168.48 114.56C168.76 114.56 169.03 114.61 169.94 114.71C128.82 115.19 88.2999 114.92 47.3799 116.71C49.4699 117.39 50.4699 117.45 54.3799 117.34C56.5899 117.28 58.8099 117.29 61.0299 117.23C63.2499 117.17 65.6499 117.06 67.9699 117.02C70.2899 116.98 72.3499 117.02 74.5499 117.12C66.4499 117.74 58.1999 117.55 50.1399 118.37L50.1399 118.88C51.0699 118.88 51.9999 118.96 52.9299 118.93C59.6766 118.757 66.4232 118.573 73.1699 118.38C79.9099 118.17 86.6499 117.84 93.3899 117.74C101.16 117.63 108.93 117.74 116.7 117.74C123.35 117.74 130.01 117.67 136.7 117.74C148.387 117.82 160.077 117.933 171.77 118.08C174.16 118.08 176.53 118.19 178.92 118.25L178.92 118.67C175.78 118.74 172.64 118.85 169.5 118.88C160.213 118.993 150.937 119.093 141.67 119.18ZM185.9 109.18C187.398 109.075 188.902 109.075 190.4 109.18C193.11 109.43 195.77 109.83 199.04 110.24C193.85 111.24 189.38 110.48 184.27 109.95C185.11 109.52 185.48 109.18 185.9 109.18Z" fill="white"/>
<path d="M133.46 99.0009C140.02 99.0009 146.58 98.9509 153.13 98.8909C163.82 98.8009 174.51 98.7209 185.19 98.5509C190.83 98.4509 196.47 98.1609 202.1 97.9709L228.67 97.1109C235.67 96.9009 242.77 96.7309 249.82 96.4909C251.52 96.4409 253.2 96.2009 254.89 96.0509C256.05 95.9509 256.96 95.7409 257.31 94.9409C257.45 94.6209 258.25 94.4009 258.76 94.1409L261.13 92.9009C260.611 92.7586 260.083 92.6484 259.55 92.571C255.32 92.431 251.1 92.1809 246.88 92.1809C237.2 92.1809 227.51 92.3309 217.83 92.4209C217.186 92.4595 216.54 92.3711 215.93 92.1609C216.343 91.9827 216.776 91.8551 217.22 91.7809C221.22 91.5809 225.24 91.4109 229.28 91.2709C237.73 90.9509 246.19 90.6609 254.64 90.3509C256.161 90.3758 257.676 90.1598 259.13 89.7109V89.2809C258.21 89.2109 257.29 89.0809 256.37 89.0809C252.152 89.17 247.932 88.9729 243.74 88.4909C242.067 88.3984 240.388 88.5058 238.74 88.8109C237.765 88.9739 236.8 89.1943 235.85 89.4709C233.24 87.2009 229.43 87.0609 225.37 87.0909C218.32 87.0909 211.27 87.0009 204.22 86.9909C200.29 86.9909 196.36 87.1009 192.43 87.1109C183.35 87.1109 174.273 87.1109 165.2 87.1109C164.503 87.0938 163.812 86.9724 163.15 86.7509C173.29 86.0409 183.53 86.4409 193.89 86.0009C193.61 85.7809 193.56 85.6909 193.5 85.6909C187.28 85.5709 181.23 84.3509 174.88 84.9209C172.34 85.1509 169.66 84.8009 167.05 84.7909C151.41 84.7909 135.77 84.7909 120.14 84.6609C109.46 84.5609 98.78 84.0709 88.14 84.0109C76.04 83.9509 63.93 84.1509 51.84 84.2909C45.3867 84.3576 38.9367 84.4876 32.49 84.6809C32.38 84.6809 32.3 84.6809 32.19 84.6809L29.52 85.3709C29.337 85.5402 29.1166 85.6637 28.8768 85.7315C28.637 85.7993 28.3845 85.8094 28.14 85.7609C26.23 86.3109 24.37 86.9109 22.59 87.5909C22.2877 87.727 21.9498 87.7625 21.6258 87.6923C21.3018 87.6221 21.0089 87.4499 20.79 87.2009C13.26 90.0009 9.35 96.3009 9.6 101.101C9.9 106.901 7.36 112.421 7 118.181C7.72238 118.112 8.43402 117.958 9.12 117.721C8.86148 117.502 8.62985 117.254 8.42999 116.981C7.97999 116.171 8.36 115.571 9.7 115.541C11.5097 115.413 13.2931 115.036 15 114.421C16.573 113.847 18.3047 113.886 19.85 114.531C20.3117 114.769 20.8214 114.9 21.3408 114.914C21.8603 114.928 22.3762 114.824 22.85 114.611C24.1124 114.08 25.486 113.867 26.85 113.991C27.2479 114.029 27.6493 114.006 28.04 113.921C31.16 112.921 34.54 113.261 37.84 113.221C48.72 113.081 59.55 112.501 70.41 112.221C82.09 111.891 93.79 111.841 105.49 111.771C112.14 111.771 118.8 111.931 125.49 111.961C127.418 111.962 129.34 111.748 131.22 111.321C130.62 111.271 130.03 111.171 129.44 111.181C127.73 111.181 126.01 111.341 124.31 111.311C123.584 111.287 122.872 111.11 122.22 110.791C121.57 110.355 120.822 110.084 120.043 110.002C119.264 109.92 118.477 110.029 117.75 110.321C116.085 110.851 114.295 110.851 112.63 110.321C110.906 109.898 109.144 109.647 107.37 109.571C103.76 109.371 100.13 109.321 96.51 109.191C95.37 109.191 94.08 109.301 93.18 108.591C93.84 107.661 95.27 107.511 96.47 107.661C100.345 108.051 104.251 108.021 108.12 107.571C109.221 107.552 110.321 107.623 111.41 107.781C111.962 107.906 112.524 107.979 113.09 108.001C115.878 107.671 118.691 107.611 121.49 107.821C122.77 107.871 124.06 107.961 125.35 107.971C126.84 107.971 128.35 107.971 129.82 107.891C132.51 107.701 135.17 107.261 137.82 107.231C148.91 107.131 160.01 107.231 171.1 107.081C184.51 106.941 197.9 106.671 211.25 105.851C223.89 105.061 236.56 104.501 249.25 103.851C251.858 103.807 254.444 103.369 256.92 102.551C253.23 102.641 249.54 102.751 245.85 102.821C244.45 102.821 243.04 102.821 241.63 102.821C239.21 102.821 236.79 102.701 234.38 102.751C228.75 102.871 223.11 103.031 217.49 103.221C210.49 103.461 203.49 103.161 196.43 103.361C187.36 103.611 178.28 103.621 169.21 103.731C161.96 103.821 154.71 104.001 147.46 103.971C133.86 103.971 120.25 103.751 106.65 103.621C106.37 103.621 106.1 103.571 105.19 103.471C146.31 102.991 186.83 103.261 227.75 101.471C225.66 100.791 224.66 100.731 220.75 100.841C218.54 100.901 216.32 100.891 214.1 100.951C211.88 101.011 209.48 101.121 207.16 101.161C204.84 101.201 202.78 101.161 200.58 101.061C208.68 100.441 216.93 100.631 224.99 99.8109V99.3009C224.06 99.3009 223.13 99.2209 222.2 99.2509C215.453 99.4243 208.707 99.6076 201.96 99.8009C195.22 100.011 188.48 100.341 181.74 100.441C173.97 100.551 166.2 100.441 158.43 100.441C151.78 100.441 145.12 100.511 138.43 100.441C126.743 100.361 115.053 100.248 103.36 100.101C100.97 100.101 98.6 99.9909 96.21 99.9309V99.5109C99.35 99.4409 102.49 99.3309 105.63 99.3009C114.917 99.1876 124.193 99.0876 133.46 99.0009ZM89.23 109.001C87.7318 109.106 86.2282 109.106 84.73 109.001C82.02 108.751 79.36 108.351 76.09 107.941C81.28 106.941 85.75 107.701 90.86 108.231C90.02 108.661 89.65 109.001 89.23 109.001Z" fill="white"/>
<path d="M141.67 69.18C135.11 69.18 128.55 69.23 122 69.29C111.31 69.38 100.62 69.4599 89.9399 69.6299C84.2999 69.7299 78.6599 70.0199 73.0299 70.2099L46.4599 71.0699C39.4599 71.2799 32.3599 71.4499 25.3099 71.6899C23.6099 71.7399 21.9299 71.9799 20.2399 72.1299C19.0799 72.2299 18.1699 72.4399 17.8199 73.2399C17.6799 73.5599 16.8799 73.7799 16.3699 74.0399L13.9999 75.2799C14.5193 75.4222 15.047 75.5324 15.5799 75.6099C19.8099 75.7499 24.0299 76 28.2499 76C37.9299 76 47.6199 75.8499 57.2999 75.7599C57.9441 75.7214 58.5897 75.8097 59.1999 76.0199C58.7868 76.1982 58.3536 76.3257 57.9099 76.3999C53.9099 76.5999 49.8899 76.7699 45.8499 76.9099C37.3999 77.2299 28.9399 77.5199 20.4899 77.8299C18.9688 77.8051 17.4534 78.0211 15.9999 78.4699L15.9999 78.8999C16.9199 78.9699 17.8399 79.0999 18.7599 79.0999C22.9784 79.0109 27.1981 79.208 31.3899 79.6899C33.0634 79.7825 34.7419 79.6751 36.3899 79.3699C37.3654 79.207 38.3304 78.9866 39.2799 78.7099C41.8899 80.9799 45.6999 81.1199 49.7599 81.0899C56.8099 81.09 63.8599 81.1799 70.9099 81.1899C74.8399 81.1899 78.7699 81.0799 82.6999 81.0699C91.7799 81.0699 100.857 81.07 109.93 81.07C110.627 81.0871 111.318 81.2085 111.98 81.43C101.84 82.14 91.5999 81.7399 81.2399 82.1799C81.5199 82.3999 81.5699 82.4899 81.6299 82.4899C87.8499 82.6099 93.8999 83.83 100.25 83.26C102.79 83.03 105.47 83.38 108.08 83.39C123.72 83.39 139.36 83.39 154.99 83.52C165.67 83.62 176.35 84.11 186.99 84.17C199.09 84.23 211.2 84.03 223.29 83.89C229.743 83.8233 236.193 83.6933 242.64 83.5C242.75 83.5 242.83 83.5 242.94 83.5L245.61 82.81C245.793 82.6407 246.013 82.5172 246.253 82.4494C246.493 82.3816 246.745 82.3715 246.99 82.42C248.9 81.87 250.76 81.27 252.54 80.59C252.842 80.454 253.18 80.4184 253.504 80.4886C253.828 80.5588 254.121 80.731 254.34 80.98C261.87 78.18 265.78 71.88 265.53 67.08C265.23 61.28 267.77 55.76 268.13 50C267.408 50.0689 266.696 50.2233 266.01 50.46C266.268 50.6784 266.5 50.9268 266.7 51.2C267.15 52.01 266.77 52.61 265.43 52.64C263.62 52.7684 261.837 53.1452 260.13 53.76C258.557 54.3343 256.825 54.2951 255.28 53.65C254.818 53.4116 254.309 53.2805 253.789 53.2667C253.27 53.2528 252.754 53.3565 252.28 53.57C251.017 54.1012 249.644 54.3141 248.28 54.19C247.882 54.1515 247.481 54.1752 247.09 54.26C243.97 55.26 240.59 54.92 237.29 54.96C226.41 55.1 215.58 55.68 204.72 55.96C193.04 56.29 181.34 56.34 169.64 56.41C162.99 56.41 156.33 56.25 149.64 56.2199C147.712 56.2186 145.79 56.4333 143.91 56.8599C144.51 56.9099 145.1 57.01 145.69 57C147.4 57 149.12 56.84 150.82 56.87C151.545 56.8941 152.258 57.0713 152.91 57.39C153.56 57.8264 154.308 58.0973 155.087 58.1792C155.866 58.2611 156.653 58.1515 157.38 57.8599C159.045 57.3298 160.834 57.3298 162.5 57.8599C164.224 58.283 165.986 58.5342 167.76 58.6099C171.37 58.81 175 58.86 178.62 58.99C179.76 58.99 181.05 58.88 181.95 59.59C181.29 60.52 179.86 60.67 178.66 60.52C174.785 60.1297 170.879 60.1599 167.01 60.6099C165.909 60.6284 164.809 60.5582 163.72 60.4C163.168 60.2752 162.605 60.2016 162.04 60.18C159.252 60.5099 156.439 60.5702 153.64 60.3599C152.36 60.3099 151.07 60.22 149.78 60.21C148.29 60.21 146.78 60.21 145.31 60.29C142.62 60.48 139.96 60.92 137.31 60.95C126.22 61.05 115.12 60.95 104.03 61.0999C90.6199 61.2399 77.2299 61.5099 63.8799 62.3299C51.2399 63.1199 38.5699 63.6799 25.8799 64.3299C23.2723 64.3739 20.6864 64.8122 18.2099 65.6299C21.8999 65.5399 25.5899 65.4299 29.2799 65.3599C30.6799 65.3599 32.0899 65.3599 33.4999 65.3599C35.9199 65.3599 38.3399 65.4799 40.7499 65.4299C46.3799 65.3099 52.0199 65.1499 57.6399 64.9599C64.6399 64.7199 71.6399 65.0199 78.6999 64.8199C87.7699 64.5699 96.8499 64.56 105.92 64.45C113.17 64.36 120.42 64.18 127.67 64.21C141.27 64.21 154.88 64.43 168.48 64.56C168.76 64.56 169.03 64.61 169.94 64.71C128.82 65.19 88.2999 64.9199 47.3799 66.7099C49.4699 67.3899 50.4699 67.45 54.3799 67.34C56.5899 67.28 58.8099 67.29 61.0299 67.23C63.2499 67.17 65.6499 67.0599 67.9699 67.0199C70.2899 66.9799 72.3499 67.02 74.5499 67.12C66.4499 67.74 58.1999 67.5499 50.1399 68.3699L50.1399 68.8799C51.0699 68.8799 51.9999 68.9599 52.9299 68.9299C59.6766 68.7566 66.4232 68.5733 73.1699 68.3799C79.9099 68.1699 86.6499 67.8399 93.3899 67.7399C101.16 67.6299 108.93 67.7399 116.7 67.74C123.35 67.74 130.01 67.67 136.7 67.74C148.387 67.82 160.077 67.9333 171.77 68.08C174.16 68.08 176.53 68.19 178.92 68.25L178.92 68.67C175.78 68.74 172.64 68.85 169.5 68.88C160.213 68.9933 150.937 69.0933 141.67 69.18ZM185.9 59.18C187.398 59.075 188.902 59.075 190.4 59.18C193.11 59.43 195.77 59.83 199.04 60.24C193.85 61.24 189.38 60.48 184.27 59.95C185.11 59.52 185.48 59.18 185.9 59.18Z" fill="white"/>
<path d="M126.46 49.0009C133.02 49.0009 139.58 48.9509 146.13 48.8909C156.82 48.8009 167.51 48.7209 178.19 48.5509C183.83 48.4509 189.47 48.1609 195.1 47.9709L221.67 47.1109C228.67 46.9009 235.77 46.7309 242.82 46.4909C244.52 46.4409 246.2 46.2009 247.89 46.0509C249.05 45.9509 249.96 45.7409 250.31 44.9409C250.45 44.6209 251.25 44.4009 251.76 44.1409L254.13 42.9009C253.611 42.7586 253.083 42.6484 252.55 42.571C248.32 42.431 244.1 42.1809 239.88 42.1809C230.2 42.1809 220.51 42.3309 210.83 42.4209C210.186 42.4595 209.54 42.3711 208.93 42.1609C209.343 41.9827 209.776 41.8551 210.22 41.7809C214.22 41.5809 218.24 41.4109 222.28 41.2709C230.73 40.9509 239.19 40.6609 247.64 40.3509C249.161 40.3758 250.676 40.1598 252.13 39.7109V39.2809C251.21 39.2109 250.29 39.0809 249.37 39.0809C245.152 39.17 240.932 38.9729 236.74 38.4909C235.067 38.3984 233.388 38.5058 231.74 38.8109C230.765 38.9739 229.8 39.1943 228.85 39.4709C226.24 37.2009 222.43 37.0609 218.37 37.0909C211.32 37.0909 204.27 37.0009 197.22 36.9909C193.29 36.9909 189.36 37.1009 185.43 37.1109C176.35 37.1109 167.273 37.1109 158.2 37.1109C157.503 37.0938 156.812 36.9724 156.15 36.7509C166.29 36.0409 176.53 36.4409 186.89 36.0009C186.61 35.7809 186.56 35.6909 186.5 35.6909C180.28 35.5709 174.23 34.3509 167.88 34.9209C165.34 35.1509 162.66 34.8009 160.05 34.7909C144.41 34.7909 128.77 34.7909 113.14 34.6609C102.46 34.5609 91.78 34.0709 81.14 34.0109C69.04 33.9509 56.93 34.1509 44.84 34.2909C38.3867 34.3576 31.9367 34.4876 25.49 34.6809C25.38 34.6809 25.3 34.6809 25.19 34.6809L22.52 35.3709C22.337 35.5402 22.1166 35.6637 21.8768 35.7315C21.637 35.7993 21.3845 35.8094 21.14 35.7609C19.23 36.3109 17.37 36.9109 15.59 37.5909C15.2877 37.727 14.9498 37.7625 14.6258 37.6923C14.3018 37.6221 14.0089 37.4499 13.79 37.2009C6.25999 40.0009 2.35 46.3009 2.6 51.1009C2.9 56.9009 0.36 62.4209 0 68.1809C0.722378 68.112 1.43402 67.9576 2.12 67.7209C1.86148 67.5025 1.62985 67.2541 1.42999 66.9809C0.979993 66.1709 1.36 65.5709 2.7 65.5409C4.50968 65.4126 6.29309 65.0357 8 64.4209C9.573 63.8466 11.3047 63.8858 12.85 64.5309C13.3117 64.7694 13.8214 64.9004 14.3408 64.9142C14.8603 64.9281 15.3762 64.8244 15.85 64.6109C17.1124 64.0797 18.486 63.8668 19.85 63.9909C20.2479 64.0294 20.6493 64.0058 21.04 63.9209C24.16 62.9209 27.54 63.2609 30.84 63.2209C41.72 63.0809 52.55 62.5009 63.41 62.2209C75.09 61.8909 86.79 61.8409 98.49 61.7709C105.14 61.7709 111.8 61.9309 118.49 61.9609C120.418 61.9623 122.34 61.7476 124.22 61.3209C123.62 61.271 123.03 61.1709 122.44 61.1809C120.73 61.1809 119.01 61.3409 117.31 61.3109C116.584 61.2868 115.872 61.1096 115.22 60.7909C114.57 60.3545 113.822 60.0836 113.043 60.0017C112.264 59.9198 111.477 60.0294 110.75 60.3209C109.085 60.8511 107.295 60.8511 105.63 60.3209C103.906 59.8979 102.144 59.6467 100.37 59.5709C96.76 59.3709 93.13 59.3209 89.51 59.1909C88.37 59.1909 87.08 59.3009 86.18 58.5909C86.84 57.6609 88.27 57.5109 89.47 57.6609C93.3452 58.0512 97.2513 58.021 101.12 57.5709C102.221 57.5525 103.321 57.6227 104.41 57.7809C104.962 57.9057 105.524 57.9793 106.09 58.0009C108.878 57.671 111.691 57.6107 114.49 57.8209C115.77 57.8709 117.06 57.9609 118.35 57.9709C119.84 57.9709 121.35 57.9709 122.82 57.8909C125.51 57.7009 128.17 57.2609 130.82 57.2309C141.91 57.1309 153.01 57.2309 164.1 57.0809C177.51 56.9409 190.9 56.6709 204.25 55.8509C216.89 55.0609 229.56 54.5009 242.25 53.8509C244.858 53.807 247.444 53.3687 249.92 52.5509C246.23 52.6409 242.54 52.7509 238.85 52.8209C237.45 52.8209 236.04 52.8209 234.63 52.8209C232.21 52.8209 229.79 52.7009 227.38 52.7509C221.75 52.8709 216.11 53.0309 210.49 53.2209C203.49 53.4609 196.49 53.1609 189.43 53.3609C180.36 53.6109 171.28 53.6209 162.21 53.7309C154.96 53.8209 147.71 54.0009 140.46 53.9709C126.86 53.9709 113.25 53.7509 99.65 53.6209C99.37 53.6209 99.1 53.5709 98.19 53.4709C139.31 52.9909 179.83 53.2609 220.75 51.4709C218.66 50.7909 217.66 50.7309 213.75 50.8409C211.54 50.9009 209.32 50.8909 207.1 50.9509C204.88 51.0109 202.48 51.1209 200.16 51.1609C197.84 51.2009 195.78 51.1609 193.58 51.0609C201.68 50.4409 209.93 50.6309 217.99 49.8109V49.3009C217.06 49.3009 216.13 49.2209 215.2 49.2509C208.453 49.4243 201.707 49.6076 194.96 49.8009C188.22 50.0109 181.48 50.3409 174.74 50.4409C166.97 50.5509 159.2 50.4409 151.43 50.4409C144.78 50.4409 138.12 50.5109 131.43 50.4409C119.743 50.3609 108.053 50.2476 96.36 50.1009C93.97 50.1009 91.6 49.9909 89.21 49.9309V49.5109C92.35 49.4409 95.49 49.3309 98.63 49.3009C107.917 49.1876 117.193 49.0876 126.46 49.0009ZM82.23 59.0009C80.7318 59.1059 79.2282 59.1059 77.73 59.0009C75.02 58.7509 72.36 58.3509 69.09 57.9409C74.28 56.9409 78.75 57.7009 83.86 58.2309C83.02 58.6609 82.65 59.0009 82.23 59.0009Z" fill="white"/>
<path d="M134.67 19.18C128.11 19.18 121.55 19.23 115 19.29C104.31 19.38 93.6199 19.4599 82.9399 19.6299C77.2999 19.7299 71.6599 20.0199 66.0299 20.2099L39.4599 21.0699C32.4599 21.2799 25.3599 21.4499 18.3099 21.6899C16.6099 21.7399 14.9299 21.9799 13.2399 22.1299C12.0799 22.2299 11.1699 22.4399 10.8199 23.2399C10.6799 23.5599 9.87987 23.7799 9.36987 24.0399L6.99988 25.2799C7.51927 25.4222 8.04697 25.5324 8.5799 25.6099C12.8099 25.7499 17.0299 26 21.2499 26C30.9299 26 40.6199 25.8499 50.2999 25.7599C50.9441 25.7214 51.5897 25.8097 52.1999 26.0199C51.7868 26.1982 51.3536 26.3257 50.9099 26.3999C46.9099 26.5999 42.8899 26.7699 38.8499 26.9099C30.3999 27.2299 21.9399 27.5199 13.4899 27.8299C11.9688 27.8051 10.4534 28.0211 8.99988 28.4699L8.99988 28.8999C9.91988 28.9699 10.8399 29.0999 11.7599 29.0999C15.9784 29.0109 20.1981 29.208 24.3899 29.6899C26.0634 29.7825 27.7419 29.6751 29.3899 29.3699C30.3654 29.207 31.3304 28.9866 32.2799 28.7099C34.8899 30.9799 38.6999 31.1199 42.7599 31.0899C49.8099 31.09 56.8599 31.1799 63.9099 31.1899C67.8399 31.1899 71.7699 31.0799 75.6999 31.0699C84.7799 31.0699 93.8566 31.07 102.93 31.07C103.627 31.0871 104.318 31.2085 104.98 31.43C94.8399 32.14 84.5999 31.7399 74.2399 32.1799C74.5199 32.3999 74.5699 32.4899 74.6299 32.4899C80.8499 32.6099 86.8999 33.83 93.2499 33.26C95.7899 33.03 98.4699 33.38 101.08 33.39C116.72 33.39 132.36 33.39 147.99 33.52C158.67 33.62 169.35 34.11 179.99 34.17C192.09 34.23 204.2 34.03 216.29 33.89C222.743 33.8233 229.193 33.6933 235.64 33.5C235.75 33.5 235.83 33.5 235.94 33.5L238.61 32.81C238.793 32.6407 239.013 32.5172 239.253 32.4494C239.493 32.3816 239.745 32.3715 239.99 32.42C241.9 31.87 243.76 31.27 245.54 30.59C245.842 30.454 246.18 30.4184 246.504 30.4886C246.828 30.5588 247.121 30.731 247.34 30.98C254.87 28.18 258.78 21.88 258.53 17.08C258.23 11.28 260.77 5.75997 261.13 -2.67029e-05C260.408 0.0688857 259.696 0.223289 259.01 0.459965C259.268 0.678413 259.5 0.92683 259.7 1.19997C260.15 2.00997 259.77 2.60997 258.43 2.63997C256.62 2.76835 254.837 3.14522 253.13 3.75997C251.557 4.33435 249.825 4.29507 248.28 3.64997C247.818 3.41156 247.309 3.28053 246.789 3.26668C246.27 3.25283 245.754 3.3565 245.28 3.56996C244.017 4.10117 242.644 4.31407 241.28 4.18996C240.882 4.15153 240.481 4.17515 240.09 4.25997C236.97 5.25997 233.59 4.91996 230.29 4.95996C219.41 5.09996 208.58 5.67996 197.72 5.95996C186.04 6.28996 174.34 6.33995 162.64 6.40995C155.99 6.40995 149.33 6.24995 142.64 6.21995C140.712 6.21861 138.79 6.43328 136.91 6.85995C137.51 6.90995 138.1 7.00996 138.69 6.99996C140.4 6.99996 142.12 6.83996 143.82 6.86996C144.545 6.89405 145.258 7.07127 145.91 7.38996C146.56 7.82635 147.308 8.09727 148.087 8.17918C148.866 8.26109 149.653 8.1515 150.38 7.85995C152.045 7.3298 153.834 7.3298 155.5 7.85995C157.224 8.28298 158.986 8.53421 160.76 8.60995C164.37 8.80995 168 8.85996 171.62 8.98996C172.76 8.98996 174.05 8.87996 174.95 9.58996C174.29 10.52 172.86 10.67 171.66 10.52C167.785 10.1297 163.879 10.1599 160.01 10.6099C158.909 10.6284 157.809 10.5582 156.72 10.4C156.168 10.2752 155.605 10.2016 155.04 10.18C152.252 10.5099 149.439 10.5702 146.64 10.3599C145.36 10.3099 144.07 10.22 142.78 10.21C141.29 10.21 139.78 10.21 138.31 10.29C135.62 10.48 132.96 10.92 130.31 10.95C119.22 11.05 108.12 10.95 97.0299 11.0999C83.6199 11.2399 70.2299 11.5099 56.8799 12.3299C44.2399 13.1199 31.5699 13.6799 18.8799 14.3299C16.2723 14.3739 13.6864 14.8122 11.2099 15.6299C14.8999 15.5399 18.5899 15.4299 22.2799 15.3599C23.6799 15.3599 25.0899 15.3599 26.4999 15.3599C28.9199 15.3599 31.3399 15.4799 33.7499 15.4299C39.3799 15.3099 45.0199 15.1499 50.6399 14.9599C57.6399 14.7199 64.6399 15.0199 71.6999 14.8199C80.7699 14.5699 89.8499 14.56 98.9199 14.45C106.17 14.36 113.42 14.18 120.67 14.21C134.27 14.21 147.88 14.43 161.48 14.56C161.76 14.56 162.03 14.61 162.94 14.71C121.82 15.19 81.2999 14.9199 40.3799 16.7099C42.4699 17.3899 43.4699 17.45 47.3799 17.34C49.5899 17.28 51.8099 17.29 54.0299 17.23C56.2499 17.17 58.6499 17.0599 60.9699 17.0199C63.2899 16.9799 65.3499 17.02 67.5499 17.12C59.4499 17.74 51.1999 17.5499 43.1399 18.3699L43.1399 18.8799C44.0699 18.8799 44.9999 18.9599 45.9299 18.9299C52.6766 18.7566 59.4232 18.5733 66.1699 18.3799C72.9099 18.1699 79.6499 17.8399 86.3899 17.7399C94.1599 17.6299 101.93 17.7399 109.7 17.74C116.35 17.74 123.01 17.67 129.7 17.74C141.387 17.82 153.077 17.9333 164.77 18.08C167.16 18.08 169.53 18.19 171.92 18.25L171.92 18.67C168.78 18.74 165.64 18.85 162.5 18.88C153.213 18.9933 143.937 19.0933 134.67 19.18ZM178.9 9.17996C180.398 9.07495 181.902 9.07495 183.4 9.17996C186.11 9.42996 188.77 9.82996 192.04 10.24C186.85 11.24 182.38 10.48 177.27 9.94996C178.11 9.51996 178.48 9.17996 178.9 9.17996Z" fill="white"/>
</mask>
<g mask="url(#mask0)">
<path fill-rule="evenodd" clip-rule="evenodd" d="M82 266.854C82.0071 286.532 87.327 305.844 97.398 322.751C107.469 339.657 121.918 353.532 139.219 362.909C145.486 366.306 152.044 369.067 158.794 371.169L158.794 385.034C158.704 388.411 159.291 391.772 160.522 394.918C161.752 398.064 163.6 400.932 165.957 403.352C168.313 405.773 171.131 407.696 174.244 409.01C177.356 410.323 180.7 411 184.078 411C187.457 411 190.801 410.323 193.913 409.01C197.025 407.696 199.843 405.773 202.2 403.352C204.557 400.932 206.405 398.064 207.635 394.918C208.865 391.772 209.453 388.411 209.363 385.034L209.363 374.613C224.138 372.137 238.297 366.641 250.934 358.415C267.426 347.678 280.714 332.689 289.394 315.028C298.075 297.367 301.826 277.69 300.252 258.074C298.679 238.458 291.839 219.631 280.454 203.58C269.069 187.529 253.562 174.849 235.57 166.879C221.747 160.83 209.734 151.292 200.708 139.201C191.683 127.109 185.955 112.88 184.087 97.9073L173.544 10.9999L82 10.9999L82 266.854ZM168.55 373.721C177.427 375.61 186.544 376.395 195.694 376.027C197.001 375.974 198.306 375.898 199.607 375.799L199.607 385.034C199.678 387.117 199.329 389.194 198.58 391.14C197.831 393.086 196.699 394.861 195.25 396.36C193.801 397.859 192.065 399.051 190.146 399.865C188.227 400.679 186.163 401.099 184.078 401.099C181.993 401.099 179.93 400.679 178.011 399.865C176.091 399.051 174.356 397.859 172.907 396.36C171.458 394.861 170.325 393.086 169.577 391.14C168.828 389.194 168.479 387.117 168.55 385.034L168.55 373.721ZM265.875 264.67C265.875 223.494 232.495 190.114 191.319 190.114C150.143 190.114 116.763 223.494 116.763 264.67C116.763 305.846 150.143 339.226 191.319 339.226C232.495 339.226 265.875 305.846 265.875 264.67Z" fill="white"/>
</g>
</svg>
