<svg width="219" height="400" viewBox="0 0 219 400" fill="none" xmlns="http://www.w3.org/2000/svg">
<mask id="path-1-inside-1" fill="white">
<path fill-rule="evenodd" clip-rule="evenodd" d="M-6.30084e-06 255.854C0.00712993 275.532 5.32695 294.844 15.398 311.751C25.469 328.657 39.9176 342.532 57.2186 351.909C63.4862 355.306 70.0438 358.067 76.7937 360.169L76.7937 374.034C76.7038 377.411 77.2914 380.772 78.5216 383.918C79.7519 387.064 81.5999 389.932 83.9567 392.352C86.3135 394.773 89.1313 396.696 92.2437 398.01C95.3561 399.323 98.7001 400 102.078 400C105.457 400 108.801 399.323 111.913 398.01C115.025 396.696 117.843 394.773 120.2 392.352C122.557 389.932 124.405 387.064 125.635 383.918C126.865 380.772 127.453 377.411 127.363 374.034L127.363 363.613C142.138 361.137 156.297 355.641 168.934 347.415C185.426 336.678 198.714 321.689 207.394 304.028C216.075 286.367 219.826 266.69 218.252 247.074C216.679 227.458 209.839 208.631 198.454 192.58C187.069 176.529 171.562 163.849 153.57 155.879C139.747 149.83 127.734 140.292 118.708 128.201C109.683 116.109 103.955 101.88 102.087 86.9073L91.5438 -6.50367e-05L-1.74846e-05 -6.10352e-05L-6.30084e-06 255.854ZM86.5495 362.721C95.4267 364.61 104.544 365.395 113.694 365.027C115.001 364.974 116.306 364.898 117.607 364.799L117.607 374.034C117.678 376.117 117.329 378.194 116.58 380.14C115.831 382.086 114.699 383.861 113.25 385.36C111.801 386.859 110.065 388.051 108.146 388.865C106.227 389.679 104.163 390.099 102.078 390.099C99.9935 390.099 97.93 389.679 96.0107 388.865C94.0914 388.051 92.3556 386.859 90.9066 385.36C89.4576 383.861 88.3252 382.086 87.5766 380.14C86.8281 378.194 86.4788 376.117 86.5495 374.034L86.5495 362.721ZM183.875 253.67C183.875 212.494 150.495 179.114 109.319 179.114C68.1429 179.114 34.763 212.494 34.763 253.67C34.763 294.846 68.1429 328.226 109.319 328.226C150.495 328.226 183.875 294.846 183.875 253.67Z"/>
</mask>
<path d="M15.398 311.751L16.2571 311.239L15.398 311.751ZM-6.30084e-06 255.854L-1.00001 255.854L-1.00001 255.854L-6.30084e-06 255.854ZM57.2186 351.909L57.6952 351.029L57.2186 351.909ZM76.7937 360.169L77.7937 360.169L77.7937 359.433L77.0911 359.215L76.7937 360.169ZM76.7937 374.034L77.7933 374.06L77.7937 374.047L77.7937 374.034L76.7937 374.034ZM83.9567 392.352L84.6732 391.655L84.6732 391.655L83.9567 392.352ZM92.2437 398.01L91.8549 398.931L92.2437 398.01ZM111.913 398.01L112.302 398.931L112.302 398.931L111.913 398.01ZM120.2 392.352L119.483 391.655L119.483 391.655L120.2 392.352ZM125.635 383.918L124.704 383.554L124.704 383.554L125.635 383.918ZM127.363 374.034L126.363 374.034L126.363 374.047L126.363 374.06L127.363 374.034ZM127.363 363.613L127.198 362.626L126.363 362.766L126.363 363.613L127.363 363.613ZM168.934 347.415L169.48 348.253L168.934 347.415ZM207.394 304.028L208.292 304.469L208.292 304.469L207.394 304.028ZM198.454 192.58L199.27 192.001L198.454 192.58ZM153.57 155.879L153.975 154.964L153.97 154.962L153.57 155.879ZM118.708 128.201L117.907 128.799L118.708 128.201ZM102.087 86.9073L101.095 87.0278L101.095 87.0312L102.087 86.9073ZM91.5438 -6.50367e-05L92.5365 -0.120518L92.4298 -1.00007L91.5438 -1.00007L91.5438 -6.50367e-05ZM-1.74846e-05 -6.10352e-05L-1.75283e-05 -1.00006L-1.00002 -1.00006L-1.00002 -6.09914e-05L-1.74846e-05 -6.10352e-05ZM113.694 365.027L113.654 364.028L113.694 365.027ZM86.5495 362.721L86.7577 361.743L85.5495 361.486L85.5495 362.721L86.5495 362.721ZM117.607 364.799L118.607 364.799L118.607 363.72L117.531 363.802L117.607 364.799ZM117.607 374.034L116.607 374.034L116.607 374.051L116.608 374.068L117.607 374.034ZM116.58 380.14L117.513 380.499L116.58 380.14ZM108.146 388.865L107.755 387.944L107.755 387.944L108.146 388.865ZM96.0107 388.865L96.4012 387.944L96.4012 387.944L96.0107 388.865ZM87.5766 380.14L86.6433 380.499L87.5766 380.14ZM86.5495 374.034L87.549 374.068L87.5495 374.051L87.5495 374.034L86.5495 374.034ZM16.2571 311.239C6.27822 294.487 1.00706 275.352 0.999994 255.853L-1.00001 255.854C-0.992805 275.713 4.37569 295.201 14.5388 312.263L16.2571 311.239ZM57.6952 351.029C40.5524 341.738 26.236 327.991 16.2571 311.239L14.5388 312.263C24.702 329.324 39.2828 343.325 56.7421 352.788L57.6952 351.029ZM77.0911 359.215C70.403 357.131 63.9053 354.395 57.6952 351.029L56.7421 352.788C63.067 356.216 69.6847 359.002 76.4963 361.124L77.0911 359.215ZM77.7937 374.034L77.7937 360.169L75.7937 360.169L75.7937 374.034L77.7937 374.034ZM79.453 383.554C78.2713 380.532 77.707 377.304 77.7933 374.06L75.794 374.007C75.7006 377.518 76.3114 381.011 77.5903 384.282L79.453 383.554ZM84.6732 391.655C82.4096 389.33 80.6346 386.576 79.453 383.554L77.5903 384.282C78.8692 387.553 80.7903 390.534 83.2403 393.05L84.6732 391.655ZM92.6325 397.088C89.6431 395.827 86.9368 393.979 84.6732 391.655L83.2403 393.05C85.6902 395.566 88.6194 397.566 91.8549 398.931L92.6325 397.088ZM102.078 399C98.8336 399 95.6219 398.35 92.6325 397.088L91.8549 398.931C95.0903 400.297 98.5665 401 102.078 401L102.078 399ZM111.524 397.088C108.535 398.35 105.323 399 102.078 399L102.078 401C105.59 401 109.066 400.297 112.302 398.931L111.524 397.088ZM119.483 391.655C117.22 393.979 114.514 395.827 111.524 397.088L112.302 398.931C115.537 397.566 118.466 395.566 120.916 393.05L119.483 391.655ZM124.704 383.554C123.522 386.576 121.747 389.33 119.483 391.655L120.916 393.05C123.366 390.534 125.287 387.553 126.566 384.282L124.704 383.554ZM126.363 374.06C126.45 377.304 125.885 380.532 124.704 383.554L126.566 384.282C127.845 381.011 128.456 377.518 128.363 374.007L126.363 374.06ZM126.363 363.613L126.363 374.034L128.363 374.034L128.363 363.613L126.363 363.613ZM168.388 346.577C155.867 354.728 141.838 360.173 127.198 362.626L127.528 364.599C142.438 362.101 156.727 356.555 169.48 348.253L168.388 346.577ZM206.497 303.587C197.896 321.086 184.73 335.938 168.388 346.577L169.48 348.253C186.122 337.418 199.532 322.291 208.292 304.469L206.497 303.587ZM217.256 247.154C218.815 266.59 215.098 286.087 206.497 303.587L208.292 304.469C217.051 286.646 220.837 266.789 219.249 246.994L217.256 247.154ZM197.638 193.158C208.919 209.063 215.697 227.718 217.256 247.154L219.249 246.994C217.661 227.199 210.759 208.199 199.27 192.001L197.638 193.158ZM153.164 156.793C170.992 164.69 186.358 177.254 197.638 193.158L199.27 192.001C187.781 175.803 172.132 163.007 153.975 154.964L153.164 156.793ZM117.907 128.799C127.036 141.029 139.187 150.676 153.169 156.795L153.97 154.962C140.307 148.983 128.431 139.555 119.51 127.602L117.907 128.799ZM101.095 87.0312C102.985 102.175 108.778 116.568 117.907 128.799L119.51 127.602C110.588 115.65 104.926 101.584 103.08 86.7835L101.095 87.0312ZM90.5511 0.120357L101.095 87.0278L103.08 86.7869L92.5365 -0.120518L90.5511 0.120357ZM-1.74408e-05 0.999939L91.5438 0.999935L91.5438 -1.00007L-1.75283e-05 -1.00006L-1.74408e-05 0.999939ZM0.999994 255.854L0.999983 -6.10789e-05L-1.00002 -6.09914e-05L-1.00001 255.854L0.999994 255.854ZM113.654 364.028C104.588 364.392 95.5537 363.615 86.7577 361.743L86.3414 363.699C95.2998 365.606 104.501 366.397 113.735 366.026L113.654 364.028ZM117.531 363.802C116.242 363.9 114.949 363.976 113.654 364.028L113.735 366.026C115.054 365.973 116.37 365.896 117.683 365.796L117.531 363.802ZM118.607 374.034L118.607 364.799L116.607 364.799L116.607 374.034L118.607 374.034ZM117.513 380.499C118.31 378.428 118.682 376.217 118.607 374L116.608 374.068C116.674 376.017 116.347 377.96 115.647 379.781L117.513 380.499ZM113.969 386.055C115.511 384.459 116.717 382.57 117.513 380.499L115.647 379.781C114.946 381.601 113.887 383.262 112.531 384.665L113.969 386.055ZM108.536 389.786C110.579 388.919 112.427 387.65 113.969 386.055L112.531 384.665C111.175 386.067 109.551 387.183 107.755 387.944L108.536 389.786ZM102.078 391.099C104.297 391.099 106.494 390.652 108.536 389.786L107.755 387.944C105.96 388.706 104.029 389.099 102.078 389.099L102.078 391.099ZM95.6202 389.786C97.663 390.652 99.8593 391.099 102.078 391.099L102.078 389.099C100.128 389.099 98.197 388.706 96.4012 387.944L95.6202 389.786ZM90.1876 386.055C91.7298 387.65 93.5774 388.919 95.6202 389.786L96.4012 387.944C94.6054 387.183 92.9813 386.067 91.6256 384.665L90.1876 386.055ZM86.6433 380.499C87.44 382.57 88.6454 384.459 90.1876 386.055L91.6256 384.665C90.2699 383.262 89.2103 381.601 88.5099 379.781L86.6433 380.499ZM85.5501 374C85.4748 376.217 85.8466 378.428 86.6433 380.499L88.5099 379.781C87.8096 377.96 87.4828 376.017 87.549 374.068L85.5501 374ZM85.5495 362.721L85.5495 374.034L87.5495 374.034L87.5495 362.721L85.5495 362.721ZM109.319 180.114C149.943 180.114 182.875 213.046 182.875 253.67L184.875 253.67C184.875 211.942 151.048 178.114 109.319 178.114L109.319 180.114ZM35.763 253.67C35.763 213.046 68.6952 180.114 109.319 180.114L109.319 178.114C67.5906 178.114 33.763 211.942 33.763 253.67L35.763 253.67ZM109.319 327.226C68.6952 327.226 35.763 294.294 35.763 253.67L33.763 253.67C33.763 295.399 67.5906 329.226 109.319 329.226L109.319 327.226ZM182.875 253.67C182.875 294.294 149.943 327.226 109.319 327.226L109.319 329.226C151.048 329.226 184.875 295.399 184.875 253.67L182.875 253.67Z" fill="white" mask="url(#path-1-inside-1)"/>
</svg>
