<svg width="60" height="60" viewBox="0 0 60 60" fill="none" xmlns="http://www.w3.org/2000/svg">
<path fill-rule="evenodd" clip-rule="evenodd" d="M46.5488 13.7166C46.2026 13.7448 45.8564 13.7719 45.5103 13.7964C45.3712 13.8595 45.2319 13.7148 45.1002 13.3704C45.1893 13.0784 45.2828 12.8694 45.3786 12.7478C46.2421 12.4202 47.1098 12.1417 47.9819 11.9123C49.0738 11.5985 50.1664 11.3023 51.2588 11.0061C51.9914 10.8075 52.724 10.6089 53.4562 10.405C53.7845 10.4457 54.1116 10.0918 54.4254 9.35648V8.65198C54.3627 8.61576 54.3 8.56975 54.2373 8.52373C54.1014 8.42402 53.9655 8.32432 53.8296 8.32432C52.919 8.47028 52.0081 8.14734 51.1033 7.3577C50.742 7.20603 50.3797 7.38202 50.024 7.88196C49.8134 8.14898 49.6051 8.51005 49.4001 8.96327C48.8367 5.24424 48.0143 5.01486 47.1379 5.06401C46.3322 5.06401 45.5265 5.02269 44.7209 4.98136C44.0047 4.94463 43.2886 4.9079 42.5724 4.90019C42.128 4.90019 41.6837 4.94964 41.2393 4.99908C40.8353 5.04403 40.4314 5.08898 40.0274 5.09678H34.1494C33.9989 5.06865 33.8497 4.86985 33.7069 4.50698C34.9538 3.84433 36.2078 3.77184 37.4695 3.6989C38.4226 3.6438 39.3802 3.58844 40.3425 3.27823C40.3155 3.1171 40.2984 2.99853 40.2866 2.91668C40.272 2.81543 40.2655 2.77034 40.2584 2.77034C39.7477 2.69557 39.2423 2.36006 38.7366 2.02438C37.9129 1.47751 37.0884 0.93016 36.239 1.50882C35.8936 1.74621 35.5362 1.60645 35.1781 1.46644C34.9678 1.3842 34.7573 1.30188 34.5488 1.29582H34.548C31.1722 1.29582 27.7963 1.29582 24.4227 1.08286C23.3248 1.00483 22.2269 0.781894 21.1299 0.559144C19.9234 0.314161 18.7181 0.069406 17.5151 0.0179194C15.3914 -0.0620052 13.2663 0.139666 11.1433 0.341142C10.6551 0.387464 10.1671 0.433776 9.67927 0.476653C8.28624 0.585875 6.89393 0.798859 5.50233 1.1156H5.43758L4.86122 2.24606C4.82173 2.52334 4.77415 2.72577 4.72238 2.83682C4.67061 2.94787 4.61611 2.96438 4.56333 2.88502C4.15104 3.7861 3.74953 4.76911 3.3653 5.88318C3.30004 6.10602 3.22709 6.16422 3.15716 6.04922C3.08723 5.93422 3.02399 5.65207 2.97674 5.24423C1.3513 9.83158 0.507277 20.1531 0.561242 28.0172C0.597837 33.387 0.438663 38.6102 0.279268 43.8408C0.156598 47.8662 0.0337964 51.8959 0 56C0.155934 55.8871 0.309551 55.6341 0.457627 55.2464C0.401824 54.8885 0.351824 54.4815 0.308682 54.034C0.211544 52.7069 0.293572 51.7239 0.582828 51.6748C0.973472 51.4645 1.35844 50.847 1.7269 49.8399C2.06645 48.8988 2.44025 48.9632 2.77383 50.0201C2.87351 50.4107 2.98352 50.6253 3.09565 50.648C3.20778 50.6707 3.31915 50.5009 3.42142 50.1511C3.69393 49.2808 3.99044 48.932 4.28487 49.1354C4.37076 49.1983 4.45742 49.1596 4.54175 49.0207C5.06647 47.7442 5.62526 47.8004 6.1834 47.8565C6.34165 47.8724 6.49985 47.8883 6.6572 47.8738C8.05394 47.7374 9.44687 47.3461 10.8396 46.9548C11.71 46.7102 12.5802 46.4657 13.4513 46.2834C13.7975 46.2552 14.1436 46.228 14.4897 46.2036C14.6288 46.1405 14.7681 46.2852 14.8998 46.6296C14.8107 46.9216 14.7172 47.1306 14.6214 47.2522C13.7579 47.5798 12.8902 47.8583 12.0181 48.0877C10.9262 48.4015 9.83359 48.6977 8.74111 48.9939C8.00852 49.1925 7.27599 49.3911 6.54381 49.595C6.21547 49.5543 5.88834 49.9082 5.57458 50.6435V51.348C5.63729 51.3842 5.7 51.4302 5.76272 51.4763C5.8986 51.576 6.03448 51.6757 6.17036 51.6757C7.08098 51.5297 7.99185 51.8527 8.89671 52.6423C9.25795 52.794 9.62028 52.618 9.97602 52.118C10.1866 51.851 10.3949 51.4899 10.5999 51.0367C11.1633 54.7558 11.9857 54.9851 12.8621 54.936C13.6678 54.936 14.4735 54.9773 15.2791 55.0186C15.9953 55.0554 16.7114 55.0921 17.4276 55.0998C17.872 55.0998 18.3163 55.0504 18.7607 55.0009C19.1647 54.956 19.5686 54.911 19.9726 54.9032H25.8505C26.0011 54.9313 26.1503 55.1301 26.2931 55.493C25.0462 56.1557 23.7922 56.2282 22.5305 56.3011C21.5774 56.3562 20.6198 56.4116 19.6575 56.7218C19.6845 56.8829 19.7016 57.0015 19.7134 57.0833C19.728 57.1846 19.7345 57.2296 19.7416 57.2296C20.2523 57.3044 20.7577 57.6399 21.2634 57.9756C22.0871 58.5225 22.9116 59.0698 23.761 58.4912C24.1064 58.2538 24.4638 58.3935 24.8219 58.5336C25.0322 58.6158 25.2427 58.6981 25.4512 58.7042H25.4519C28.8278 58.7042 32.2036 58.7042 35.5773 58.9171C36.6752 58.9952 37.7731 59.2181 38.8701 59.4409C40.0766 59.6858 41.2819 59.9306 42.4849 59.9821C44.6086 60.062 46.7337 59.8603 48.8567 59.6589C49.3448 59.6125 49.8329 59.5662 50.3207 59.5233C51.7138 59.4141 53.1061 59.2011 54.4977 58.8844H54.5624L55.1388 57.7539C55.1783 57.4767 55.2258 57.2742 55.2776 57.1632C55.3294 57.0521 55.3839 57.0356 55.4367 57.115C55.849 56.2139 56.2505 55.2309 56.6347 54.1168C56.7 53.894 56.7729 53.8358 56.8428 53.9508C56.9128 54.0658 56.976 54.3479 57.0233 54.7558C58.6487 50.1684 59.4927 39.8469 59.4388 31.9828C59.4022 26.613 59.5613 21.3898 59.7207 16.1592C59.8434 12.1338 59.9662 8.10409 60 4.00001C59.8441 4.11291 59.6905 4.36588 59.5424 4.75363C59.5982 5.11153 59.6482 5.51852 59.6913 5.96601C59.7885 7.29307 59.7064 8.27608 59.4172 8.32523C59.0265 8.53556 58.6416 9.15299 58.2731 10.1602C57.9335 11.1012 57.5597 11.0368 57.2262 9.97994C57.1265 9.58934 57.0165 9.37468 56.9044 9.35199C56.7922 9.32929 56.6809 9.49914 56.5786 9.84887C56.3061 10.7192 56.0096 11.068 55.7151 10.8646C55.6292 10.8017 55.5426 10.8404 55.4583 10.9793C54.9335 12.2558 54.3747 12.1996 53.8166 12.1435C53.6584 12.1276 53.5002 12.1117 53.3428 12.1262C51.9461 12.2626 50.5531 12.6539 49.1604 13.0453C48.2901 13.2898 47.4198 13.5343 46.5488 13.7166Z" fill="#20552A"/>
<mask id="path-2-outside-1" maskUnits="userSpaceOnUse" x="2" y="3" width="54" height="52" fill="black">
<rect fill="white" x="2" y="3" width="54" height="52"/>
<path fill-rule="evenodd" clip-rule="evenodd" d="M42.7906 15.4305C42.5021 15.454 42.2137 15.4766 41.9252 15.497C41.8093 15.5496 41.6932 15.429 41.5835 15.142C41.6578 14.8987 41.7357 14.7245 41.8155 14.6232C42.535 14.3501 43.2582 14.118 43.9849 13.9269C44.8948 13.6654 45.8053 13.4185 46.7157 13.1717C47.3262 13.0062 47.9367 12.8407 48.5468 12.6708C48.8204 12.7048 49.093 12.4099 49.3545 11.7971V11.21C49.3022 11.1798 49.25 11.1415 49.1977 11.1031C49.0845 11.02 48.9713 10.9369 48.858 10.9369C48.0992 11.0586 47.3401 10.7894 46.5861 10.1314C46.285 10.005 45.9831 10.1517 45.6866 10.5683C45.5112 10.7908 45.3376 11.0917 45.1668 11.4694C44.6973 8.3702 44.0119 8.17905 43.2816 8.22001C42.6102 8.22001 41.9388 8.18557 41.2674 8.15114C40.6706 8.12053 40.0738 8.08992 39.477 8.08349C39.1067 8.08349 38.7364 8.1247 38.3661 8.1659C38.0294 8.20336 37.6928 8.24082 37.3561 8.24732H32.4579C32.3324 8.22388 32.2081 8.05821 32.0891 7.75582C33.1282 7.20361 34.1731 7.1432 35.2246 7.08242C36.0188 7.0365 36.8168 6.99037 37.6188 6.73185C37.5963 6.59759 37.582 6.49879 37.5722 6.43058C37.56 6.34619 37.5546 6.30862 37.5486 6.30862C37.1231 6.2463 36.7019 5.96672 36.2805 5.68698C35.594 5.23126 34.907 4.77513 34.1992 5.25735C33.9113 5.45518 33.6135 5.33871 33.3151 5.22203C33.1398 5.1535 32.9644 5.0849 32.7907 5.07985H32.79C29.9768 5.07985 27.1636 5.07985 24.3522 4.90238C23.4373 4.83736 22.5224 4.65158 21.6082 4.46595C20.6028 4.2618 19.5984 4.05784 18.5959 4.01493C16.8262 3.94833 15.0553 4.11639 13.2861 4.28428C12.8793 4.32289 12.4726 4.36148 12.0661 4.39721C10.9052 4.48823 9.74494 4.66572 8.58528 4.92967H8.53131L8.05102 5.87172C8.01811 6.10278 7.97846 6.27147 7.93532 6.36401C7.89217 6.45655 7.84676 6.47032 7.80278 6.40418C7.4592 7.15509 7.12461 7.97426 6.80441 8.90265C6.75003 9.08835 6.68924 9.13685 6.63097 9.04102C6.57269 8.94519 6.51999 8.71006 6.48062 8.37019C5.12608 12.193 4.42273 20.7943 4.4677 27.3476C4.4982 31.8225 4.36555 36.1752 4.23272 40.534C4.1305 43.8885 4.02816 47.2466 4 50.6667C4.12995 50.5726 4.25796 50.3618 4.38136 50.0386C4.33485 49.7404 4.29319 49.4012 4.25723 49.0283C4.17629 47.9225 4.24464 47.1033 4.48569 47.0623C4.81123 46.887 5.13204 46.3725 5.43908 45.5332C5.72204 44.749 6.03354 44.8026 6.31153 45.6834C6.39459 46.0089 6.48626 46.1878 6.57971 46.2067C6.67315 46.2256 6.76596 46.0841 6.85118 45.7926C7.07827 45.0674 7.32536 44.7767 7.57072 44.9461C7.6423 44.9986 7.71452 44.9664 7.78479 44.8506C8.22206 43.7869 8.68771 43.8337 9.15284 43.8804C9.28471 43.8937 9.41654 43.9069 9.54767 43.8949C10.7116 43.7812 11.8724 43.4551 13.033 43.129C13.7583 42.9252 14.4835 42.7214 15.2094 42.5695C15.4979 42.546 15.7864 42.5234 16.0748 42.503C16.1906 42.4504 16.3068 42.571 16.4165 42.858C16.3422 43.1013 16.2643 43.2755 16.1845 43.3768C15.4649 43.6499 14.7418 43.882 14.0151 44.0731C13.1052 44.3346 12.1947 44.5815 11.2843 44.8283C10.6738 44.9938 10.0633 45.1593 9.45317 45.3291C9.17956 45.2952 8.90696 45.5901 8.64549 46.2029V46.79C8.69775 46.8202 8.75001 46.8585 8.80227 46.8969C8.9155 46.98 9.02874 47.0631 9.14197 47.0631C9.90082 46.9414 10.6599 47.2105 11.4139 47.8686C11.715 47.995 12.0169 47.8483 12.3134 47.4317C12.4888 47.2092 12.6624 46.9083 12.8332 46.5306C13.3027 49.6298 13.9881 49.8209 14.7184 49.78C15.3898 49.78 16.0612 49.8144 16.7326 49.8489C17.3294 49.8795 17.9262 49.9101 18.523 49.9165C18.8933 49.9165 19.2636 49.8753 19.6339 49.8341C19.9706 49.7966 20.3072 49.7592 20.6438 49.7527H25.5421C25.6676 49.7761 25.7919 49.9418 25.9109 50.2442C24.8718 50.7964 23.8269 50.8568 22.7754 50.9176C21.9812 50.9635 21.1832 51.0096 20.3812 51.2681C20.4037 51.4024 20.418 51.5012 20.4278 51.5695C20.44 51.6538 20.4454 51.6914 20.4514 51.6914C20.8769 51.7537 21.2981 52.0333 21.7195 52.313C22.406 52.7687 23.093 53.2249 23.8008 52.7426C24.0887 52.5448 24.3865 52.6613 24.6849 52.778C24.8602 52.8465 25.0356 52.9151 25.2093 52.9201H25.2101C28.0232 52.9201 30.8364 52.9201 33.6478 53.0976C34.5627 53.1626 35.4776 53.3484 36.3918 53.534C37.3972 53.7382 38.4016 53.9422 39.4041 53.9851C41.1738 54.0517 42.9447 53.8836 44.7139 53.7157C45.1207 53.6771 45.5274 53.6385 45.9339 53.6028C47.0948 53.5118 48.2551 53.3343 49.4147 53.0703H49.4687L49.949 52.1283C49.9819 51.8972 50.0215 51.7285 50.0647 51.636C50.1078 51.5434 50.1532 51.5297 50.1972 51.5958C50.5408 50.8449 50.8754 50.0257 51.1956 49.0974C51.25 48.9117 51.3108 48.8631 51.369 48.959C51.4273 49.0548 51.48 49.2899 51.5194 49.6298C52.8739 45.807 53.5773 37.2057 53.5323 30.6524C53.5018 26.1775 53.6344 21.8248 53.7673 17.466C53.8695 14.1115 53.9718 10.7534 54 7.33334C53.8701 7.42742 53.742 7.63823 53.6186 7.96136C53.6651 8.2596 53.7068 8.59876 53.7428 8.97168C53.8237 10.0776 53.7554 10.8967 53.5143 10.9377C53.1888 11.113 52.868 11.6275 52.5609 12.4668C52.278 13.251 51.9665 13.1974 51.6885 12.3166C51.6054 11.9911 51.5137 11.8122 51.4203 11.7933C51.3268 11.7744 51.234 11.916 51.1488 12.2074C50.9217 12.9326 50.6746 13.2233 50.4293 13.0539C50.3577 13.0014 50.2855 13.0336 50.2152 13.1494C49.7779 14.2131 49.3123 14.1663 48.8472 14.1196C48.7153 14.1063 48.5835 14.0931 48.4523 14.1051C47.2884 14.2188 46.1276 14.5449 44.967 14.871C44.2417 15.0748 43.5165 15.2786 42.7906 15.4305Z"/>
</mask>
<path fill-rule="evenodd" clip-rule="evenodd" d="M42.7906 15.4305C42.5021 15.454 42.2137 15.4766 41.9252 15.497C41.8093 15.5496 41.6932 15.429 41.5835 15.142C41.6578 14.8987 41.7357 14.7245 41.8155 14.6232C42.535 14.3501 43.2582 14.118 43.9849 13.9269C44.8948 13.6654 45.8053 13.4185 46.7157 13.1717C47.3262 13.0062 47.9367 12.8407 48.5468 12.6708C48.8204 12.7048 49.093 12.4099 49.3545 11.7971V11.21C49.3022 11.1798 49.25 11.1415 49.1977 11.1031C49.0845 11.02 48.9713 10.9369 48.858 10.9369C48.0992 11.0586 47.3401 10.7894 46.5861 10.1314C46.285 10.005 45.9831 10.1517 45.6866 10.5683C45.5112 10.7908 45.3376 11.0917 45.1668 11.4694C44.6973 8.3702 44.0119 8.17905 43.2816 8.22001C42.6102 8.22001 41.9388 8.18557 41.2674 8.15114C40.6706 8.12053 40.0738 8.08992 39.477 8.08349C39.1067 8.08349 38.7364 8.1247 38.3661 8.1659C38.0294 8.20336 37.6928 8.24082 37.3561 8.24732H32.4579C32.3324 8.22388 32.2081 8.05821 32.0891 7.75582C33.1282 7.20361 34.1731 7.1432 35.2246 7.08242C36.0188 7.0365 36.8168 6.99037 37.6188 6.73185C37.5963 6.59759 37.582 6.49879 37.5722 6.43058C37.56 6.34619 37.5546 6.30862 37.5486 6.30862C37.1231 6.2463 36.7019 5.96672 36.2805 5.68698C35.594 5.23126 34.907 4.77513 34.1992 5.25735C33.9113 5.45518 33.6135 5.33871 33.3151 5.22203C33.1398 5.1535 32.9644 5.0849 32.7907 5.07985H32.79C29.9768 5.07985 27.1636 5.07985 24.3522 4.90238C23.4373 4.83736 22.5224 4.65158 21.6082 4.46595C20.6028 4.2618 19.5984 4.05784 18.5959 4.01493C16.8262 3.94833 15.0553 4.11639 13.2861 4.28428C12.8793 4.32289 12.4726 4.36148 12.0661 4.39721C10.9052 4.48823 9.74494 4.66572 8.58528 4.92967H8.53131L8.05102 5.87172C8.01811 6.10278 7.97846 6.27147 7.93532 6.36401C7.89217 6.45655 7.84676 6.47032 7.80278 6.40418C7.4592 7.15509 7.12461 7.97426 6.80441 8.90265C6.75003 9.08835 6.68924 9.13685 6.63097 9.04102C6.57269 8.94519 6.51999 8.71006 6.48062 8.37019C5.12608 12.193 4.42273 20.7943 4.4677 27.3476C4.4982 31.8225 4.36555 36.1752 4.23272 40.534C4.1305 43.8885 4.02816 47.2466 4 50.6667C4.12995 50.5726 4.25796 50.3618 4.38136 50.0386C4.33485 49.7404 4.29319 49.4012 4.25723 49.0283C4.17629 47.9225 4.24464 47.1033 4.48569 47.0623C4.81123 46.887 5.13204 46.3725 5.43908 45.5332C5.72204 44.749 6.03354 44.8026 6.31153 45.6834C6.39459 46.0089 6.48626 46.1878 6.57971 46.2067C6.67315 46.2256 6.76596 46.0841 6.85118 45.7926C7.07827 45.0674 7.32536 44.7767 7.57072 44.9461C7.6423 44.9986 7.71452 44.9664 7.78479 44.8506C8.22206 43.7869 8.68771 43.8337 9.15284 43.8804C9.28471 43.8937 9.41654 43.9069 9.54767 43.8949C10.7116 43.7812 11.8724 43.4551 13.033 43.129C13.7583 42.9252 14.4835 42.7214 15.2094 42.5695C15.4979 42.546 15.7864 42.5234 16.0748 42.503C16.1906 42.4504 16.3068 42.571 16.4165 42.858C16.3422 43.1013 16.2643 43.2755 16.1845 43.3768C15.4649 43.6499 14.7418 43.882 14.0151 44.0731C13.1052 44.3346 12.1947 44.5815 11.2843 44.8283C10.6738 44.9938 10.0633 45.1593 9.45317 45.3291C9.17956 45.2952 8.90696 45.5901 8.64549 46.2029V46.79C8.69775 46.8202 8.75001 46.8585 8.80227 46.8969C8.9155 46.98 9.02874 47.0631 9.14197 47.0631C9.90082 46.9414 10.6599 47.2105 11.4139 47.8686C11.715 47.995 12.0169 47.8483 12.3134 47.4317C12.4888 47.2092 12.6624 46.9083 12.8332 46.5306C13.3027 49.6298 13.9881 49.8209 14.7184 49.78C15.3898 49.78 16.0612 49.8144 16.7326 49.8489C17.3294 49.8795 17.9262 49.9101 18.523 49.9165C18.8933 49.9165 19.2636 49.8753 19.6339 49.8341C19.9706 49.7966 20.3072 49.7592 20.6438 49.7527H25.5421C25.6676 49.7761 25.7919 49.9418 25.9109 50.2442C24.8718 50.7964 23.8269 50.8568 22.7754 50.9176C21.9812 50.9635 21.1832 51.0096 20.3812 51.2681C20.4037 51.4024 20.418 51.5012 20.4278 51.5695C20.44 51.6538 20.4454 51.6914 20.4514 51.6914C20.8769 51.7537 21.2981 52.0333 21.7195 52.313C22.406 52.7687 23.093 53.2249 23.8008 52.7426C24.0887 52.5448 24.3865 52.6613 24.6849 52.778C24.8602 52.8465 25.0356 52.9151 25.2093 52.9201H25.2101C28.0232 52.9201 30.8364 52.9201 33.6478 53.0976C34.5627 53.1626 35.4776 53.3484 36.3918 53.534C37.3972 53.7382 38.4016 53.9422 39.4041 53.9851C41.1738 54.0517 42.9447 53.8836 44.7139 53.7157C45.1207 53.6771 45.5274 53.6385 45.9339 53.6028C47.0948 53.5118 48.2551 53.3343 49.4147 53.0703H49.4687L49.949 52.1283C49.9819 51.8972 50.0215 51.7285 50.0647 51.636C50.1078 51.5434 50.1532 51.5297 50.1972 51.5958C50.5408 50.8449 50.8754 50.0257 51.1956 49.0974C51.25 48.9117 51.3108 48.8631 51.369 48.959C51.4273 49.0548 51.48 49.2899 51.5194 49.6298C52.8739 45.807 53.5773 37.2057 53.5323 30.6524C53.5018 26.1775 53.6344 21.8248 53.7673 17.466C53.8695 14.1115 53.9718 10.7534 54 7.33334C53.8701 7.42742 53.742 7.63823 53.6186 7.96136C53.6651 8.2596 53.7068 8.59876 53.7428 8.97168C53.8237 10.0776 53.7554 10.8967 53.5143 10.9377C53.1888 11.113 52.868 11.6275 52.5609 12.4668C52.278 13.251 51.9665 13.1974 51.6885 12.3166C51.6054 11.9911 51.5137 11.8122 51.4203 11.7933C51.3268 11.7744 51.234 11.916 51.1488 12.2074C50.9217 12.9326 50.6746 13.2233 50.4293 13.0539C50.3577 13.0014 50.2855 13.0336 50.2152 13.1494C49.7779 14.2131 49.3123 14.1663 48.8472 14.1196C48.7153 14.1063 48.5835 14.0931 48.4523 14.1051C47.2884 14.2188 46.1276 14.5449 44.967 14.871C44.2417 15.0748 43.5165 15.2786 42.7906 15.4305Z" fill="white"/>
<path d="M42.7906 15.4305L42.872 16.4272L42.9343 16.4221L42.9954 16.4093L42.7906 15.4305ZM41.9252 15.497L41.8548 14.4995L41.6755 14.5121L41.5119 14.5864L41.9252 15.497ZM41.5835 15.142L40.6271 14.8499L40.5267 15.1784L40.6494 15.4993L41.5835 15.142ZM41.8155 14.6232L41.4607 13.6882L41.2016 13.7866L41.0301 14.0043L41.8155 14.6232ZM43.9849 13.9269L44.2393 14.894L44.2503 14.8911L44.2612 14.888L43.9849 13.9269ZM46.7157 13.1717L46.454 12.2066L46.7157 13.1717ZM48.5468 12.6708L48.6698 11.6784L48.4713 11.6538L48.2786 11.7075L48.5468 12.6708ZM49.3545 11.7971L50.2743 12.1895L50.3545 12.0015V11.7971H49.3545ZM49.3545 11.21H50.3545V10.6327L49.8546 10.344L49.3545 11.21ZM49.1977 11.1031L48.6061 11.9093L48.6061 11.9094L49.1977 11.1031ZM48.858 10.9369V9.93693H48.7784L48.6998 9.94953L48.858 10.9369ZM46.5861 10.1314L47.2436 9.37797L47.122 9.27186L46.9732 9.20939L46.5861 10.1314ZM45.6866 10.5683L46.4719 11.1875L46.4871 11.1681L46.5014 11.1481L45.6866 10.5683ZM45.1668 11.4694L44.1781 11.6192L44.6845 14.9625L46.0779 11.8815L45.1668 11.4694ZM43.2816 8.22001V9.22001H43.3096L43.3376 9.21844L43.2816 8.22001ZM41.2674 8.15114L41.2162 9.14982L41.2674 8.15114ZM39.477 8.08349L39.4878 7.08349H39.477V8.08349ZM38.3661 8.1659L38.4767 9.15977L38.3661 8.1659ZM37.3561 8.24732V9.24732H37.3658L37.3755 9.24713L37.3561 8.24732ZM32.4579 8.24732L32.2742 9.23031L32.3652 9.24732H32.4579V8.24732ZM32.0891 7.75582L31.6198 6.87277L30.8317 7.29158L31.1586 8.12203L32.0891 7.75582ZM35.2246 7.08242L35.1668 6.08408L35.2246 7.08242ZM37.6188 6.73185L37.9256 7.68363L38.7479 7.41856L38.605 6.56648L37.6188 6.73185ZM37.5722 6.43058L38.5619 6.28788L38.5619 6.28785L37.5722 6.43058ZM37.5486 6.30862L37.4037 7.29807L37.4758 7.30862H37.5486V6.30862ZM36.2805 5.68698L35.7274 6.52011L35.7274 6.52011L36.2805 5.68698ZM34.1992 5.25735L33.6361 4.43091L33.6328 4.43321L34.1992 5.25735ZM33.3151 5.22203L32.9509 6.15336V6.15336L33.3151 5.22203ZM32.7907 5.07985L32.8197 4.08027L32.8052 4.07985H32.7907V5.07985ZM24.3522 4.90238L24.2813 5.8999L24.2892 5.90039L24.3522 4.90238ZM21.6082 4.46595L21.4092 5.44595V5.44595L21.6082 4.46595ZM18.5959 4.01493L18.6387 3.01583L18.6335 3.01564L18.5959 4.01493ZM13.2861 4.28428L13.1916 3.28876L13.2861 4.28428ZM12.0661 4.39721L12.1442 5.3942L12.1536 5.39337L12.0661 4.39721ZM8.58528 4.92967V5.92967H8.69765L8.80722 5.90473L8.58528 4.92967ZM8.53131 4.92967V3.92967H7.91868L7.64042 4.47546L8.53131 4.92967ZM8.05102 5.87172L7.16013 5.41751L7.08449 5.56585L7.06101 5.7307L8.05102 5.87172ZM7.93532 6.36401L7.02898 5.94146L7.02898 5.94146L7.93532 6.36401ZM7.80278 6.40418L8.63549 5.85047L7.64085 4.35464L6.89344 5.98811L7.80278 6.40418ZM6.80441 8.90265L5.85906 8.5766L5.85136 8.59894L5.84471 8.62162L6.80441 8.90265ZM6.63097 9.04102L5.77655 9.5606L5.77655 9.5606L6.63097 9.04102ZM6.48062 8.37019L7.47397 8.25511L5.53804 8.0362L6.48062 8.37019ZM4.4677 27.3476L5.46768 27.3408L5.46768 27.3408L4.4677 27.3476ZM4.23272 40.534L3.23319 40.5035L4.23272 40.534ZM4 50.6667L3.00003 50.6584L2.98374 52.6371L4.58646 51.4766L4 50.6667ZM4.38136 50.0386L5.31556 50.3954L5.41036 50.1471L5.36942 49.8846L4.38136 50.0386ZM4.25723 49.0283L3.2599 49.1013L3.26074 49.1128L3.26185 49.1243L4.25723 49.0283ZM4.48569 47.0623L4.65321 48.0482L4.81514 48.0207L4.95977 47.9428L4.48569 47.0623ZM5.43908 45.5332L6.37822 45.8768L6.37972 45.8726L5.43908 45.5332ZM6.31153 45.6834L7.28048 45.4361L7.27357 45.4091L7.26516 45.3824L6.31153 45.6834ZM6.85118 45.7926L5.89687 45.4938L5.89404 45.5028L5.89138 45.5119L6.85118 45.7926ZM7.57072 44.9461L8.1619 44.1396L8.15056 44.1313L8.139 44.1233L7.57072 44.9461ZM7.78479 44.8506L8.63967 45.3694L8.68008 45.3028L8.70969 45.2308L7.78479 44.8506ZM9.15284 43.8804L9.25285 42.8854H9.25285L9.15284 43.8804ZM9.54767 43.8949L9.63927 44.8907L9.64487 44.8901L9.54767 43.8949ZM13.033 43.129L13.3035 44.0917L13.3035 44.0917L13.033 43.129ZM15.2094 42.5695L15.1281 41.5728L15.0658 41.5779L15.0046 41.5907L15.2094 42.5695ZM16.0748 42.503L16.1452 43.5005L16.3245 43.4879L16.4881 43.4136L16.0748 42.503ZM16.4165 42.858L17.3729 43.1501L17.4733 42.8216L17.3505 42.5007L16.4165 42.858ZM16.1845 43.3768L16.5393 44.3117L16.7984 44.2134L16.9699 43.9957L16.1845 43.3768ZM14.0151 44.0731L13.7607 43.106L13.7497 43.1089L13.7388 43.112L14.0151 44.0731ZM11.2843 44.8283L11.5459 45.7934H11.5459L11.2843 44.8283ZM9.45317 45.3291L9.33016 46.3216L9.52869 46.3462L9.72141 46.2925L9.45317 45.3291ZM8.64549 46.2029L7.72571 45.8105L7.64549 45.9985V46.2029H8.64549ZM8.64549 46.79H7.64549V47.3673L8.14541 47.656L8.64549 46.79ZM8.80227 46.8969L8.21065 47.7031L8.21068 47.7031L8.80227 46.8969ZM9.14197 47.0631V48.0631H9.22161L9.30024 48.0505L9.14197 47.0631ZM11.4139 47.8686L10.7564 48.622L10.878 48.7281L11.0268 48.7906L11.4139 47.8686ZM12.3134 47.4317L11.5281 46.8125L11.5129 46.8318L11.4986 46.8519L12.3134 47.4317ZM12.8332 46.5306L13.8219 46.3808L13.3155 43.0375L11.9221 46.1185L12.8332 46.5306ZM14.7184 49.78V48.78H14.6904L14.6624 48.7816L14.7184 49.78ZM16.7326 49.8489L16.7838 48.8502H16.7838L16.7326 49.8489ZM18.523 49.9165L18.5122 50.9165H18.523L18.523 49.9165ZM19.6339 49.8341L19.7445 50.828H19.7445L19.6339 49.8341ZM20.6438 49.7527V48.7527H20.6342L20.6245 48.7529L20.6438 49.7527ZM25.5421 49.7527L25.7258 48.7697L25.6348 48.7527H25.5421V49.7527ZM25.9109 50.2442L26.3802 51.1272L27.1682 50.7084L26.8414 49.878L25.9109 50.2442ZM22.7754 50.9176L22.8332 51.9159H22.8332L22.7754 50.9176ZM20.3812 51.2681L20.0744 50.3164L19.2521 50.5814L19.395 51.4335L20.3812 51.2681ZM20.4278 51.5695L21.4176 51.4267V51.4267L20.4278 51.5695ZM20.4514 51.6914L20.5963 50.7019L20.5242 50.6914H20.4514V51.6914ZM21.7195 52.313L21.1664 53.1461L21.1664 53.1461L21.7195 52.313ZM23.8008 52.7426L24.3639 53.5691L24.3672 53.5668L23.8008 52.7426ZM24.6849 52.778L25.0491 51.8466L25.0491 51.8466L24.6849 52.778ZM25.2093 52.9201L25.1803 53.9197L25.1948 53.9201H25.2093V52.9201ZM33.6478 53.0976L33.7186 52.1001L33.7108 52.0996L33.6478 53.0976ZM36.3918 53.534L36.5908 52.554H36.5908L36.3918 53.534ZM39.4041 53.9851L39.3613 54.9842L39.3665 54.9844L39.4041 53.9851ZM44.7139 53.7157L44.6195 52.7202H44.6195L44.7139 53.7157ZM45.9339 53.6028L45.8558 52.6058L45.8464 52.6066L45.9339 53.6028ZM49.4147 53.0703V52.0703H49.3024L49.1928 52.0953L49.4147 53.0703ZM49.4687 53.0703V54.0703H50.0813L50.3596 53.5245L49.4687 53.0703ZM49.949 52.1283L50.8399 52.5825L50.9155 52.4341L50.939 52.2693L49.949 52.1283ZM50.0647 51.636L49.1583 51.2134L49.1583 51.2135L50.0647 51.636ZM50.1972 51.5958L49.3645 52.1495L50.3592 53.6453L51.1066 52.0119L50.1972 51.5958ZM51.1956 49.0974L52.1409 49.4234L52.1486 49.4011L52.1553 49.3784L51.1956 49.0974ZM51.5194 49.6298L50.526 49.7449L52.462 49.9638L51.5194 49.6298ZM53.5323 30.6524L52.5323 30.6592V30.6592L53.5323 30.6524ZM53.7673 17.466L54.7668 17.4964L53.7673 17.466ZM54 7.33334L55 7.34158L55.0163 5.36298L53.4136 6.52335L54 7.33334ZM53.6186 7.96136L52.6844 7.6046L52.5896 7.85286L52.6306 8.11543L53.6186 7.96136ZM53.7428 8.97168L54.7401 8.89867L54.7393 8.88718L54.7382 8.87571L53.7428 8.97168ZM53.5143 10.9377L53.3468 9.95182L53.1849 9.97933L53.0402 10.0572L53.5143 10.9377ZM52.5609 12.4668L51.6218 12.1232L51.6203 12.1274L52.5609 12.4668ZM51.6885 12.3166L50.7195 12.5639L50.7264 12.5909L50.7348 12.6176L51.6885 12.3166ZM51.4203 11.7933L51.2219 12.7734L51.2219 12.7735L51.4203 11.7933ZM51.1488 12.2074L52.1031 12.5062L52.106 12.4972L52.1086 12.4881L51.1488 12.2074ZM50.4293 13.0539L49.8381 13.8604L49.8494 13.8687L49.861 13.8767L50.4293 13.0539ZM50.2152 13.1494L49.3603 12.6306L49.3199 12.6972L49.2903 12.7692L50.2152 13.1494ZM48.8472 14.1196L48.9472 13.1246L48.8472 14.1196ZM48.4523 14.1051L48.3607 13.1093L48.3551 13.1099L48.4523 14.1051ZM44.967 14.871L45.2375 15.8338V15.8338L44.967 14.871ZM42.7093 14.4338C42.4228 14.4572 42.1383 14.4795 41.8548 14.4995L41.9956 16.4945C42.289 16.4738 42.5815 16.4509 42.872 16.4272L42.7093 14.4338ZM41.5119 14.5864C41.6881 14.5064 41.9043 14.4819 42.1172 14.5437C42.3076 14.599 42.4231 14.702 42.4724 14.7532C42.5568 14.8409 42.5582 14.8912 42.5175 14.7848L40.6494 15.4993C40.7185 15.6798 40.8328 15.9339 41.0317 16.1404C41.1383 16.2511 41.3114 16.3923 41.5595 16.4644C41.8303 16.543 42.1045 16.5138 42.3386 16.4075L41.5119 14.5864ZM42.5398 15.4341C42.5686 15.3398 42.593 15.2763 42.6103 15.2376C42.6143 15.2285 42.6176 15.2217 42.62 15.2169C42.6212 15.2145 42.6222 15.2128 42.6228 15.2116C42.6234 15.2104 42.6238 15.2098 42.6238 15.2098C42.6238 15.2098 42.6234 15.2105 42.6226 15.2118C42.6218 15.2131 42.6205 15.2151 42.6188 15.2177C42.6153 15.2229 42.6095 15.2313 42.601 15.2421L41.0301 14.0043C40.8304 14.2576 40.7094 14.5805 40.6271 14.8499L42.5398 15.4341ZM42.1703 15.5581C42.8577 15.2973 43.5474 15.076 44.2393 14.894L43.7306 12.9598C42.969 13.1601 42.2124 13.403 41.4607 13.6882L42.1703 15.5581ZM44.2612 14.888C45.1626 14.6289 46.0658 14.384 46.9774 14.1369L46.454 12.2066C45.5449 12.4531 44.627 12.7019 43.7087 12.9658L44.2612 14.888ZM46.9774 14.1369C47.5873 13.9715 48.2011 13.8052 48.8151 13.6342L48.2786 11.7075C47.6723 11.8763 47.0651 12.0409 46.454 12.2066L46.9774 14.1369ZM48.4238 13.6633C49.0069 13.7355 49.44 13.4252 49.6895 13.1553C49.9371 12.8875 50.1244 12.5407 50.2743 12.1895L48.4347 11.4046C48.382 11.5282 48.3346 11.6217 48.2944 11.6901C48.2533 11.76 48.2272 11.7908 48.2209 11.7977C48.2135 11.8057 48.2447 11.7686 48.3216 11.732C48.4079 11.6909 48.5307 11.6612 48.6698 11.6784L48.4238 13.6633ZM50.3545 11.7971V11.21H48.3545V11.7971H50.3545ZM49.8546 10.344C49.861 10.3477 49.8596 10.3473 49.8466 10.3383C49.833 10.3288 49.8173 10.3174 49.7893 10.2969L48.6061 11.9094C48.6486 11.9405 48.7461 12.0134 48.8544 12.076L49.8546 10.344ZM49.7893 10.2969C49.7448 10.2642 49.6343 10.1811 49.51 10.1128C49.3851 10.044 49.1552 9.93693 48.858 9.93693V11.9369C48.7633 11.9369 48.6876 11.9195 48.6373 11.9034C48.5883 11.8876 48.5566 11.8709 48.5457 11.865C48.5347 11.8589 48.5332 11.8572 48.546 11.866C48.5596 11.8753 48.5756 11.8869 48.6061 11.9093L49.7893 10.2969ZM48.6998 9.94953C48.3175 10.0108 47.8465 9.90411 47.2436 9.37797L45.9286 10.8849C46.8337 11.6748 47.8809 12.1063 49.0163 11.9243L48.6998 9.94953ZM46.9732 9.20939C46.5499 9.03168 46.099 9.05179 45.6977 9.24673C45.3378 9.42156 45.0704 9.70955 44.8719 9.98853L46.5014 11.1481C46.5462 11.0851 46.5785 11.0505 46.5956 11.0344C46.6127 11.0183 46.6056 11.0292 46.5715 11.0457C46.5343 11.0638 46.4727 11.0846 46.3932 11.0872C46.313 11.0899 46.2455 11.073 46.1989 11.0534L46.9732 9.20939ZM44.9014 9.94909C44.6584 10.2572 44.446 10.6365 44.2556 11.0573L46.0779 11.8815C46.2292 11.547 46.3639 11.3244 46.4719 11.1875L44.9014 9.94909ZM46.1555 11.3196C45.9187 9.75679 45.6051 8.71378 45.1231 8.06861C44.857 7.71243 44.5305 7.46351 44.1466 7.33006C43.7861 7.20475 43.4497 7.20901 43.2256 7.22158L43.3376 9.21844C43.4787 9.21053 43.5018 9.22332 43.4899 9.21918C43.4546 9.2069 43.4657 9.19178 43.5209 9.26568C43.6815 9.48064 43.9453 10.0828 44.1781 11.6192L46.1555 11.3196ZM43.2816 7.22001C42.6401 7.22001 41.9943 7.18711 41.3186 7.15245L41.2162 9.14982C41.8833 9.18404 42.5803 9.22001 43.2816 9.22001V7.22001ZM41.3186 7.15245C40.7252 7.12201 40.1082 7.09023 39.4878 7.08355L39.4662 9.08343C40.0394 9.08961 40.616 9.11904 41.2162 9.14982L41.3186 7.15245ZM39.477 7.08349C39.0419 7.08349 38.6163 7.13189 38.2555 7.17203L38.4767 9.15977C38.8565 9.1175 39.1715 9.08349 39.477 9.08349V7.08349ZM38.2555 7.17203C37.911 7.21037 37.62 7.24204 37.3368 7.24751L37.3755 9.24713C37.7656 9.2396 38.1479 9.19635 38.4767 9.15977L38.2555 7.17203ZM37.3561 7.24732H32.4579V9.24732H37.3561V7.24732ZM32.6416 7.26433C32.7932 7.29267 32.9024 7.35651 32.9671 7.40545C33.0297 7.45277 33.0623 7.49449 33.071 7.50603C33.0848 7.52452 33.0628 7.49935 33.0196 7.3896L31.1586 8.12203C31.2344 8.31468 31.334 8.52354 31.4712 8.70632C31.5955 8.87199 31.8521 9.15143 32.2742 9.23031L32.6416 7.26433ZM32.5584 8.63887C33.3778 8.20339 34.2089 8.1428 35.2823 8.08075L35.1668 6.08408C34.1374 6.1436 32.8786 6.20383 31.6198 6.87277L32.5584 8.63887ZM35.2823 8.08075C36.0596 8.03581 36.9834 7.98733 37.9256 7.68363L37.312 5.78008C36.6502 5.99341 35.9781 6.03718 35.1668 6.08408L35.2823 8.08075ZM38.605 6.56648C38.5844 6.44387 38.5715 6.35426 38.5619 6.28788L36.5824 6.57328C36.5925 6.64333 36.6081 6.75131 36.6325 6.89723L38.605 6.56648ZM38.5619 6.28785C38.5573 6.25533 38.5497 6.20185 38.542 6.15927C38.5393 6.14463 38.5285 6.08334 38.5062 6.01311C38.4974 5.98541 38.4667 5.88926 38.3995 5.78138C38.3704 5.73474 38.1098 5.30862 37.5486 5.30862V7.30862C37.268 7.30862 37.055 7.19366 36.9259 7.09062C36.8058 6.99478 36.7358 6.89331 36.7022 6.83942C36.6365 6.73392 36.6073 6.64137 36.6 6.6185C36.5886 6.5824 36.5821 6.55432 36.5795 6.54288C36.5765 6.52937 36.5747 6.51977 36.5742 6.51664C36.5737 6.51395 36.5749 6.52144 36.5824 6.57331L38.5619 6.28785ZM37.6935 5.31917C37.5349 5.29595 37.3126 5.17182 36.8336 4.85385L35.7274 6.52011C36.0912 6.76162 36.7112 7.19666 37.4037 7.29807L37.6935 5.31917ZM36.8336 4.85385C36.5215 4.64666 36.0571 4.32943 35.5526 4.168C34.975 3.98322 34.2936 3.98297 33.6361 4.43091L34.7622 6.08378C34.8099 6.05128 34.8285 6.05173 34.8285 6.05173C34.835 6.05107 34.8678 6.04878 34.9431 6.07288C35.1307 6.13289 35.3531 6.27158 35.7274 6.52011L36.8336 4.85385ZM33.6328 4.43321C33.669 4.40829 33.72 4.3846 33.7794 4.37233C33.8356 4.36075 33.8758 4.36416 33.8884 4.36577C33.898 4.367 33.8883 4.36679 33.8484 4.35379C33.8062 4.34005 33.7588 4.32181 33.6792 4.2907L32.9509 6.15336C33.1432 6.22855 33.9745 6.62513 34.7656 6.08148L33.6328 4.43321ZM33.6792 4.2907C33.5428 4.23736 33.1993 4.09131 32.8197 4.08027L32.7616 6.07943C32.7298 6.0785 32.7249 6.07292 32.7639 6.08465C32.8063 6.09742 32.8562 6.11633 32.9509 6.15336L33.6792 4.2907ZM32.7907 4.07985H32.79V6.07985H32.7907V4.07985ZM32.79 4.07985C29.9716 4.07985 27.1899 4.07952 24.4152 3.90437L24.2892 5.90039C27.1373 6.08018 29.982 6.07985 32.79 6.07985V4.07985ZM24.4231 3.9049C23.5839 3.84525 22.7329 3.67392 21.8072 3.48595L21.4092 5.44595C22.3119 5.62924 23.2907 5.82947 24.2813 5.89986L24.4231 3.9049ZM21.8072 3.48595C20.8162 3.28472 19.7336 3.06271 18.6387 3.01585L18.5531 5.01402C19.4632 5.05297 20.3895 5.23888 21.4092 5.44595L21.8072 3.48595ZM18.6335 3.01564C16.7865 2.94613 14.9495 3.12194 13.1916 3.28876L13.3805 5.27981C15.1611 5.11084 16.8658 4.95053 18.5583 5.01423L18.6335 3.01564ZM13.1916 3.28876C12.7842 3.32741 12.381 3.36567 11.9785 3.40105L12.1536 5.39337C12.5642 5.35728 12.9743 5.31836 13.3805 5.27981L13.1916 3.28876ZM11.9879 3.40027C10.7776 3.49516 9.56932 3.68011 8.36334 3.95461L8.80722 5.90473C9.92056 5.65132 11.0328 5.4813 12.1442 5.39415L11.9879 3.40027ZM8.58528 3.92967H8.53131V5.92967H8.58528V3.92967ZM7.64042 4.47546L7.16013 5.41751L8.94191 6.32593L9.42221 5.38388L7.64042 4.47546ZM7.06101 5.7307C7.04737 5.82646 7.03421 5.89559 7.02353 5.94102C7.01829 5.96332 7.0148 5.97496 7.01385 5.97796C7.01244 5.98238 7.01666 5.96788 7.02898 5.94146L8.84165 6.78657C8.95297 6.5478 9.00741 6.24872 9.04103 6.01273L7.06101 5.7307ZM7.02898 5.94146C7.03913 5.91968 7.07038 5.85555 7.13304 5.78005C7.19059 5.71069 7.33297 5.56124 7.57933 5.48658C7.86662 5.39952 8.14348 5.45907 8.34446 5.57775C8.51353 5.67759 8.60285 5.80138 8.63549 5.85047L6.97006 6.95788C7.042 7.06607 7.45482 7.61414 8.15938 7.40062C8.42799 7.31922 8.59257 7.15311 8.67214 7.05722C8.75682 6.95517 8.80993 6.85462 8.84166 6.78656L7.02898 5.94146ZM6.89344 5.98811C6.53721 6.76668 6.19041 7.61587 5.85906 8.5766L7.74977 9.2287C8.05881 8.33264 8.38119 7.54349 8.71211 6.82025L6.89344 5.98811ZM5.84471 8.62162C5.84037 8.63644 5.84494 8.61623 5.86417 8.57691C5.87434 8.5561 5.93894 8.42061 6.0955 8.29571C6.18346 8.22553 6.32098 8.1426 6.50686 8.10658C6.70181 8.0688 6.89172 8.0942 7.05343 8.16031C7.33597 8.27582 7.46181 8.48267 7.48539 8.52144L5.77655 9.5606C5.82926 9.64729 5.98455 9.88401 6.29659 10.0116C6.71362 10.1821 7.10625 10.0478 7.3428 9.85911C7.52864 9.71085 7.62228 9.5344 7.66096 9.45527C7.7087 9.35762 7.74126 9.26171 7.76411 9.18368L5.84471 8.62162ZM7.48539 8.52144C7.50684 8.55672 7.51971 8.58443 7.52597 8.59878C7.53259 8.61395 7.53572 8.62321 7.53613 8.6244C7.53657 8.62573 7.53204 8.61207 7.5245 8.57842C7.50933 8.51075 7.49124 8.40412 7.47397 8.25511L5.48726 8.48527C5.50937 8.67613 5.53732 8.857 5.57291 9.01582C5.60172 9.14436 5.65707 9.36412 5.77655 9.5606L7.48539 8.52144ZM5.53804 8.0362C4.81749 10.0698 4.29472 13.2792 3.95416 16.7369C3.61113 20.2198 3.445 24.0435 3.46773 27.3545L5.46768 27.3408C5.44543 24.0984 5.60849 20.3448 5.94453 16.933C6.28304 13.496 6.78921 10.4934 7.4232 8.70418L5.53804 8.0362ZM3.46772 27.3545C3.49807 31.8077 3.3661 36.142 3.23319 40.5035L5.23226 40.5644C5.36501 36.2084 5.49832 31.8373 5.46768 27.3408L3.46772 27.3545ZM3.23319 40.5035C3.13101 43.8563 3.0283 47.2254 3.00003 50.6584L4.99997 50.6749C5.02802 47.2677 5.12998 43.9207 5.23226 40.5644L3.23319 40.5035ZM4.58646 51.4766C4.97388 51.1961 5.18647 50.7334 5.31556 50.3954L3.44716 49.6819C3.39906 49.8078 3.36099 49.8823 3.33838 49.9195C3.32773 49.937 3.32556 49.9379 3.3338 49.9282C3.34157 49.919 3.36707 49.8903 3.41354 49.8567L4.58646 51.4766ZM5.36942 49.8846C5.32654 49.6096 5.28712 49.2903 5.25262 48.9324L3.26185 49.1243C3.29925 49.5122 3.34317 49.8712 3.39329 50.1927L5.36942 49.8846ZM5.25457 48.9553C5.21608 48.4295 5.21703 48.0152 5.24508 47.7519C5.25996 47.6124 5.27675 47.5737 5.26824 47.5955C5.26373 47.607 5.23471 47.6812 5.15775 47.7696C5.07435 47.8655 4.90864 48.0048 4.65321 48.0482L4.31817 46.0765C3.69319 46.1826 3.46275 46.7209 3.4056 46.8671C3.319 47.0885 3.27857 47.3314 3.25634 47.54C3.2102 47.973 3.21745 48.5213 3.2599 49.1013L5.25457 48.9553ZM4.95977 47.9428C5.34404 47.7359 5.6187 47.3953 5.81789 47.0759C6.02652 46.7412 6.21111 46.3335 6.37821 45.8768L4.49995 45.1896C4.36001 45.5722 4.23067 45.8414 4.12075 46.0177C4.00139 46.2091 3.95287 46.2135 4.01161 46.1818L4.95977 47.9428ZM6.37972 45.8726C6.43656 45.7151 6.46434 45.692 6.43594 45.7275C6.41728 45.7507 6.16417 46.0481 5.70753 45.9695C5.51498 45.9363 5.38828 45.8464 5.32754 45.793C5.29629 45.7655 5.2759 45.7421 5.26492 45.7285C5.25918 45.7214 5.25516 45.7159 5.25273 45.7125C5.25149 45.7107 5.25059 45.7094 5.25001 45.7085C5.24943 45.7076 5.24915 45.7072 5.24915 45.7071C5.24914 45.7071 5.24939 45.7075 5.24988 45.7084C5.25037 45.7092 5.25108 45.7104 5.25199 45.7121C5.25385 45.7154 5.25642 45.7202 5.25966 45.7266C5.26623 45.7396 5.27478 45.7577 5.28502 45.7819C5.30578 45.8309 5.33045 45.8974 5.3579 45.9844L7.26516 45.3824C7.18442 45.1266 7.0828 44.8679 6.9463 44.649C6.83694 44.4736 6.56087 44.0869 6.04682 43.9984C5.44218 43.8944 5.04076 44.2703 4.87543 44.4765C4.70035 44.6949 4.58309 44.9592 4.49845 45.1938L6.37972 45.8726ZM5.34258 45.9306C5.39182 46.1236 5.45743 46.332 5.55179 46.5161C5.59896 46.6081 5.67167 46.7308 5.78127 46.8474C5.88858 46.9617 6.08551 47.1269 6.38133 47.1868L6.77808 45.2266C7.02718 45.277 7.17762 45.4128 7.23886 45.478C7.30238 45.5456 7.32947 45.5996 7.33166 45.6039C7.33605 45.6125 7.31429 45.5686 7.28048 45.4361L5.34258 45.9306ZM6.38133 47.1868C7.07824 47.3279 7.4687 46.7957 7.55481 46.6643C7.68168 46.4708 7.75923 46.2503 7.81099 46.0733L5.89138 45.5119C5.8579 45.6264 5.84645 45.6223 5.88224 45.5677C5.90047 45.5399 5.96722 45.4424 6.10201 45.3542C6.25864 45.2517 6.49997 45.1703 6.77808 45.2266L6.38133 47.1868ZM7.80549 46.0914C7.85331 45.9387 7.89631 45.8282 7.93149 45.7526C7.96922 45.6716 7.98472 45.6595 7.96602 45.6815C7.95263 45.6973 7.8437 45.8234 7.62101 45.8771C7.35688 45.9408 7.1305 45.8574 7.00245 45.769L8.139 44.1233C7.88827 43.9501 7.53899 43.8396 7.15243 43.9328C6.80731 44.0159 6.5764 44.2283 6.44218 44.3862C6.18445 44.6894 6.0181 45.1066 5.89687 45.4938L7.80549 46.0914ZM6.97955 45.7527C7.2606 45.9587 7.67488 46.0581 8.08598 45.8746C8.39866 45.7349 8.56666 45.4897 8.63967 45.3694L6.9299 44.3317C6.93264 44.3272 7.0294 44.156 7.27051 44.0484C7.40963 43.9862 7.5811 43.9535 7.76498 43.9795C7.94233 44.0047 8.07598 44.0766 8.1619 44.1396L6.97955 45.7527ZM8.70969 45.2308C8.88859 44.7956 8.99034 44.8008 8.9081 44.8422C8.86939 44.8617 8.84091 44.8621 8.8531 44.8615C8.8819 44.8601 8.92357 44.8624 9.05282 44.8754L9.25285 42.8854C9.05896 42.8659 8.53544 42.7906 8.00863 43.0559C7.46797 43.3282 7.11825 43.8419 6.85989 44.4704L8.70969 45.2308ZM9.05282 44.8754C9.16786 44.887 9.39614 44.913 9.63927 44.8907L9.45606 42.8991C9.43694 42.9008 9.40156 42.9004 9.25285 42.8854L9.05282 44.8754ZM9.64487 44.8901C10.9123 44.7664 12.1593 44.4132 13.3035 44.0917L12.7625 42.1662C11.5854 42.497 10.511 42.796 9.45047 42.8996L9.64487 44.8901ZM13.3035 44.0917C14.0346 43.8863 14.7271 43.6921 15.4142 43.5483L15.0046 41.5907C14.2399 41.7507 13.482 41.9641 12.7625 42.1662L13.3035 44.0917ZM15.2908 43.5662C15.5772 43.5428 15.8617 43.5205 16.1452 43.5005L16.0044 41.5055C15.711 41.5262 15.4186 41.5491 15.1281 41.5728L15.2908 43.5662ZM16.4881 43.4136C16.3119 43.4936 16.0957 43.5181 15.8828 43.4563C15.6924 43.401 15.5769 43.298 15.5276 43.2468C15.4432 43.1591 15.4418 43.1088 15.4825 43.2152L17.3505 42.5007C17.2815 42.3202 17.1672 42.0661 16.9683 41.8596C16.8617 41.7489 16.6886 41.6077 16.4405 41.5356C16.1697 41.457 15.8955 41.4862 15.6614 41.5925L16.4881 43.4136ZM15.4602 42.5659C15.4313 42.6602 15.407 42.7237 15.3897 42.7624C15.3857 42.7715 15.3824 42.7783 15.38 42.7831C15.3788 42.7854 15.3778 42.7872 15.3772 42.7884C15.3765 42.7896 15.3762 42.7902 15.3762 42.7902C15.3762 42.7902 15.3766 42.7895 15.3774 42.7882C15.3782 42.7869 15.3795 42.7849 15.3812 42.7823C15.3846 42.7771 15.3905 42.7687 15.399 42.7579L16.9699 43.9957C17.1695 43.7424 17.2906 43.4195 17.3729 43.1501L15.4602 42.5659ZM15.8297 42.4419C15.1423 42.7027 14.4526 42.924 13.7607 43.106L14.2694 45.0402C15.031 44.8399 15.7876 44.597 16.5393 44.3117L15.8297 42.4419ZM13.7388 43.112C12.8374 43.3711 11.9342 43.616 11.0226 43.8631L11.5459 45.7934C12.4551 45.5469 13.3729 45.2981 14.2913 45.0342L13.7388 43.112ZM11.0226 43.8631C10.4127 44.0285 9.79892 44.1948 9.18494 44.3658L9.72141 46.2925C10.3277 46.1237 10.9349 45.9591 11.5459 45.7934L11.0226 43.8631ZM9.57619 44.3367C8.99308 44.2645 8.55995 44.5748 8.31044 44.8447C8.0629 45.1125 7.87558 45.4593 7.72571 45.8105L9.56526 46.5954C9.61799 46.4718 9.6654 46.3783 9.70559 46.3099C9.74668 46.24 9.77279 46.2091 9.77911 46.2023C9.78648 46.1943 9.75527 46.2314 9.67841 46.268C9.59205 46.3091 9.46934 46.3388 9.33016 46.3216L9.57619 44.3367ZM7.64549 46.2029V46.79H9.64549V46.2029H7.64549ZM8.14541 47.656C8.13905 47.6523 8.1404 47.6527 8.15333 47.6616C8.16701 47.6712 8.18264 47.6826 8.21065 47.7031L9.39388 46.0907C9.35138 46.0595 9.25394 45.9866 9.14556 45.924L8.14541 47.656ZM8.21068 47.7031C8.25521 47.7358 8.36573 47.8189 8.48998 47.8872C8.61489 47.956 8.84482 48.0631 9.14197 48.0631V46.0631C9.23668 46.0631 9.31242 46.0805 9.3627 46.0966C9.41166 46.1124 9.44341 46.1291 9.45426 46.135C9.46531 46.1411 9.46674 46.1428 9.45395 46.134C9.44035 46.1247 9.42441 46.1131 9.39386 46.0906L8.21068 47.7031ZM9.30024 48.0505C9.6825 47.9892 10.1535 48.0959 10.7564 48.622L12.0714 47.1151C11.1663 46.3252 10.1191 45.8937 8.9837 46.0757L9.30024 48.0505ZM11.0268 48.7906C11.4501 48.9683 11.9009 48.9482 12.3023 48.7533C12.6622 48.5784 12.9296 48.2904 13.1281 48.0115L11.4986 46.8519C11.4538 46.9149 11.4215 46.9495 11.4044 46.9656C11.3873 46.9817 11.3944 46.9708 11.4284 46.9543C11.4657 46.9362 11.5273 46.9154 11.6068 46.9128C11.687 46.9101 11.7545 46.927 11.8011 46.9465L11.0268 48.7906ZM13.0986 48.0509C13.3416 47.7428 13.554 47.3635 13.7444 46.9427L11.9221 46.1185C11.7708 46.453 11.6361 46.6756 11.5281 46.8125L13.0986 48.0509ZM11.8445 46.6804C12.0813 48.2432 12.3949 49.2862 12.8769 49.9314C13.143 50.2876 13.4695 50.5365 13.8534 50.6699C14.2139 50.7952 14.5503 50.791 14.7744 50.7784L14.6624 48.7816C14.5213 48.7895 14.4982 48.7767 14.5101 48.7808C14.5454 48.7931 14.5343 48.8082 14.4791 48.7343C14.3185 48.5194 14.0547 47.9172 13.8219 46.3808L11.8445 46.6804ZM14.7184 50.78C15.3599 50.78 16.0057 50.8129 16.6814 50.8475L16.7838 48.8502C16.1167 48.816 15.4197 48.78 14.7184 48.78V50.78ZM16.6814 50.8475C17.2748 50.878 17.8918 50.9098 18.5122 50.9164L18.5338 48.9166C17.9606 48.9104 17.384 48.881 16.7838 48.8502L16.6814 50.8475ZM18.523 50.9165C18.9581 50.9165 19.3837 50.8681 19.7445 50.828L19.5233 48.8402C19.1435 48.8825 18.8285 48.9165 18.523 48.9165L18.523 50.9165ZM19.7445 50.828C20.089 50.7896 20.38 50.758 20.6632 50.7525L20.6245 48.7529C20.2344 48.7604 19.8522 48.8036 19.5233 48.8402L19.7445 50.828ZM20.6438 50.7527H25.5421V48.7527H20.6438V50.7527ZM25.3584 50.7357C25.2068 50.7073 25.0976 50.6435 25.0329 50.5945C24.9703 50.5472 24.9377 50.5055 24.929 50.494C24.9152 50.4755 24.9372 50.5006 24.9804 50.6104L26.8414 49.878C26.7656 49.6853 26.666 49.4765 26.5288 49.2937C26.4045 49.128 26.1479 48.8486 25.7258 48.7697L25.3584 50.7357ZM25.4416 49.3611C24.6222 49.7966 23.7911 49.8572 22.7177 49.9192L22.8332 51.9159C23.8626 51.8564 25.1214 51.7962 26.3802 51.1272L25.4416 49.3611ZM22.7177 49.9192C21.9404 49.9642 21.0166 50.0127 20.0744 50.3164L20.688 52.2199C21.3498 52.0066 22.0219 51.9628 22.8332 51.9159L22.7177 49.9192ZM19.395 51.4335C19.4155 51.5562 19.4285 51.6458 19.4381 51.7122L21.4176 51.4267C21.4075 51.3567 21.3919 51.2487 21.3674 51.1028L19.395 51.4335ZM19.4381 51.7122C19.4427 51.7447 19.4503 51.7982 19.458 51.8407C19.4607 51.8554 19.4715 51.9166 19.4938 51.9869C19.5026 52.0146 19.5333 52.1107 19.6005 52.2185C19.6295 52.2651 19.8901 52.6914 20.4514 52.6914V50.6914C20.7321 50.6914 20.9451 50.8064 21.0742 50.9095C21.1942 51.0053 21.2642 51.1068 21.2978 51.1607C21.3635 51.2661 21.3927 51.3587 21.4 51.3815C21.4114 51.4176 21.4179 51.4457 21.4205 51.4571C21.4235 51.4706 21.4253 51.4802 21.4258 51.4834C21.4263 51.4861 21.4251 51.4786 21.4176 51.4267L19.4381 51.7122ZM20.3065 52.6808C20.4651 52.704 20.6874 52.8282 21.1664 53.1461L22.2726 51.4799C21.9088 51.2384 21.2888 50.8033 20.5963 50.7019L20.3065 52.6808ZM21.1664 53.1461C21.4785 53.3533 21.9429 53.6706 22.4474 53.832C23.025 54.0168 23.7064 54.017 24.3639 53.5691L23.2378 51.9162C23.1901 51.9487 23.1715 51.9483 23.1714 51.9483C23.165 51.9489 23.1322 51.9512 23.0569 51.9271C22.8693 51.8671 22.6469 51.7284 22.2726 51.4799L21.1664 53.1461ZM24.3672 53.5668C24.331 53.5917 24.28 53.6154 24.2206 53.6277C24.1644 53.6392 24.1242 53.6358 24.1116 53.6342C24.102 53.633 24.1117 53.6332 24.1516 53.6462C24.1938 53.66 24.2412 53.6782 24.3208 53.7093L25.0491 51.8466C24.8568 51.7714 24.0255 51.3749 23.2344 51.9185L24.3672 53.5668ZM24.3208 53.7093C24.4572 53.7626 24.8007 53.9087 25.1803 53.9197L25.2384 51.9206C25.2702 51.9215 25.2751 51.9271 25.2361 51.9153C25.1937 51.9026 25.1438 51.8837 25.0491 51.8466L24.3208 53.7093ZM25.2093 53.9201H25.2101V51.9201H25.2093V53.9201ZM25.2101 53.9201C28.0285 53.9201 30.8101 53.9205 33.5848 54.0956L33.7108 52.0996C30.8627 51.9198 28.018 51.9201 25.2101 51.9201V53.9201ZM33.5769 54.0951C34.4161 54.1547 35.2671 54.3261 36.1928 54.514L36.5908 52.554C35.6881 52.3708 34.7093 52.1705 33.7186 52.1001L33.5769 54.0951ZM36.1928 54.514C37.1838 54.7153 38.2664 54.9373 39.3613 54.9841L39.4469 52.986C38.5368 52.947 37.6105 52.7611 36.5908 52.554L36.1928 54.514ZM39.3665 54.9844C41.2135 55.0539 43.0505 54.8781 44.8084 54.7112L44.6195 52.7202C42.8389 52.8892 41.1342 53.0495 39.4417 52.9858L39.3665 54.9844ZM44.8084 54.7112C45.2158 54.6726 45.619 54.6343 46.0215 54.5989L45.8464 52.6066C45.4358 52.6427 45.0257 52.6816 44.6195 52.7202L44.8084 54.7112ZM46.0121 54.5997C47.2224 54.5048 48.4307 54.3199 49.6367 54.0454L49.1928 52.0953C48.0794 52.3487 46.9672 52.5187 45.8558 52.6058L46.0121 54.5997ZM49.4147 54.0703H49.4687V52.0703H49.4147V54.0703ZM50.3596 53.5245L50.8399 52.5825L49.0581 51.6741L48.5778 52.6161L50.3596 53.5245ZM50.939 52.2693C50.9526 52.1735 50.9658 52.1044 50.9765 52.059C50.9817 52.0367 50.9852 52.025 50.9862 52.022C50.9876 52.0176 50.9833 52.0321 50.971 52.0585L49.1583 51.2135C49.047 51.4522 48.9926 51.7513 48.959 51.9873L50.939 52.2693ZM50.971 52.0585C50.9609 52.0803 50.9296 52.1445 50.867 52.22C50.8094 52.2893 50.667 52.4388 50.4207 52.5134C50.1334 52.6005 49.8565 52.5409 49.6556 52.4223C49.4865 52.3224 49.3972 52.1986 49.3645 52.1495L51.0299 51.0421C50.958 50.9339 50.5452 50.3859 49.8406 50.5994C49.572 50.6808 49.4074 50.8469 49.3279 50.9428C49.2432 51.0448 49.1901 51.1454 49.1583 51.2134L50.971 52.0585ZM51.1066 52.0119C51.4628 51.2333 51.8096 50.3841 52.1409 49.4234L50.2502 48.7713C49.9412 49.6674 49.6188 50.4565 49.2879 51.1798L51.1066 52.0119ZM52.1553 49.3784C52.1596 49.3636 52.1551 49.3838 52.1358 49.4231C52.1257 49.4439 52.0611 49.5794 51.9045 49.7043C51.8165 49.7745 51.679 49.8574 51.4931 49.8934C51.2982 49.9312 51.1083 49.9058 50.9466 49.8397C50.664 49.7242 50.5382 49.5173 50.5146 49.4786L52.2235 48.4394C52.1707 48.3527 52.0154 48.116 51.7034 47.9884C51.2864 47.8179 50.8938 47.9522 50.6572 48.1409C50.4714 48.2891 50.3777 48.4656 50.339 48.5447C50.2913 48.6424 50.2587 48.7383 50.2359 48.8163L52.1553 49.3784ZM50.5146 49.4786C50.4932 49.4433 50.4803 49.4156 50.474 49.4012C50.4674 49.386 50.4643 49.3768 50.4639 49.3756C50.4634 49.3743 50.468 49.3879 50.4755 49.4216C50.4907 49.4892 50.5088 49.5959 50.526 49.7449L52.5127 49.5147C52.4906 49.3239 52.4627 49.143 52.4271 48.9842C52.3983 48.8556 52.3429 48.6359 52.2235 48.4394L50.5146 49.4786ZM52.462 49.9638C53.1825 47.9302 53.7053 44.7208 54.0458 41.2631C54.3889 37.7802 54.555 33.9565 54.5323 30.6455L52.5323 30.6592C52.5546 33.9016 52.3915 37.6552 52.0555 41.067C51.717 44.504 51.2108 47.5066 50.5768 49.2958L52.462 49.9638ZM54.5323 30.6455C54.5019 26.1923 54.6339 21.858 54.7668 17.4964L52.7677 17.4355C52.635 21.7916 52.5017 26.1627 52.5323 30.6592L54.5323 30.6455ZM54.7668 17.4964C54.869 14.1436 54.9717 10.7746 55 7.34158L53 7.32511C52.972 10.7322 52.87 14.0793 52.7677 17.4355L54.7668 17.4964ZM53.4136 6.52335C53.0261 6.80386 52.8135 7.2666 52.6844 7.6046L54.5528 8.31812C54.6009 8.19217 54.639 8.11773 54.6616 8.0805C54.6723 8.06296 54.6744 8.06209 54.6662 8.07182C54.6584 8.08101 54.6329 8.10968 54.5864 8.14333L53.4136 6.52335ZM52.6306 8.11543C52.6735 8.39044 52.7129 8.70974 52.7474 9.06764L54.7382 8.87571C54.7008 8.48778 54.6568 8.12877 54.6067 7.80729L52.6306 8.11543ZM52.7454 9.04468C52.7839 9.57052 52.783 9.9848 52.7549 10.2481C52.74 10.3876 52.7232 10.4263 52.7318 10.4045C52.7363 10.393 52.7653 10.3188 52.8423 10.2304C52.9257 10.1345 53.0914 9.99522 53.3468 9.95182L53.6818 11.9236C54.3068 11.8174 54.5373 11.2791 54.5944 11.1329C54.681 10.9115 54.7214 10.6686 54.7437 10.46C54.7898 10.027 54.7826 9.47871 54.7401 8.89867L52.7454 9.04468ZM53.0402 10.0572C52.656 10.2641 52.3813 10.6047 52.1821 10.9242C51.9735 11.2588 51.7889 11.6665 51.6218 12.1232L53.5 12.8104C53.64 12.4278 53.7693 12.1586 53.8793 11.9823C53.9986 11.7909 54.0471 11.7865 53.9884 11.8182L53.0402 10.0572ZM51.6203 12.1274C51.5634 12.2849 51.5357 12.308 51.5641 12.2726C51.5827 12.2493 51.8358 11.9519 52.2925 12.0306C52.485 12.0637 52.6117 12.1536 52.6725 12.207C52.7037 12.2345 52.7241 12.2579 52.7351 12.2715C52.7408 12.2786 52.7448 12.2841 52.7473 12.2876C52.7485 12.2893 52.7494 12.2906 52.75 12.2915C52.7506 12.2924 52.7509 12.2928 52.7509 12.2929C52.7509 12.2929 52.7506 12.2925 52.7501 12.2916C52.7496 12.2908 52.7489 12.2896 52.748 12.2879C52.7462 12.2846 52.7436 12.2798 52.7403 12.2734C52.7338 12.2604 52.7252 12.2423 52.715 12.2181C52.6942 12.1691 52.6695 12.1026 52.6421 12.0156L50.7348 12.6176C50.8156 12.8734 50.9172 13.1321 51.0537 13.351C51.1631 13.5264 51.4391 13.9131 51.9532 14.0016C52.5578 14.1056 52.9592 13.7297 53.1246 13.5235C53.2996 13.3051 53.4169 13.0408 53.5016 12.8062L51.6203 12.1274ZM52.6574 12.0694C52.6082 11.8764 52.5426 11.668 52.4482 11.4839C52.401 11.3919 52.3283 11.2692 52.2187 11.1526C52.1114 11.0383 51.9145 10.8731 51.6187 10.8132L51.2219 12.7735C50.9728 12.723 50.8224 12.5872 50.7611 12.522C50.6976 12.4544 50.6705 12.4004 50.6683 12.3961C50.6639 12.3875 50.6857 12.4314 50.7195 12.5639L52.6574 12.0694ZM51.6187 10.8132C50.9217 10.6721 50.5313 11.2044 50.4452 11.3357C50.3183 11.5292 50.2408 11.7497 50.189 11.9267L52.1086 12.4881C52.1421 12.3736 52.1536 12.3777 52.1178 12.4323C52.0995 12.4601 52.0328 12.5576 51.898 12.6458C51.7414 12.7483 51.5 12.8297 51.2219 12.7734L51.6187 10.8132ZM50.1945 11.9086C50.1467 12.0613 50.1037 12.1718 50.0685 12.2474C50.0308 12.3284 50.0153 12.3405 50.034 12.3185C50.0474 12.3027 50.1563 12.1766 50.379 12.1229C50.6431 12.0593 50.8695 12.1426 50.9976 12.231L49.861 13.8767C50.1117 14.0499 50.461 14.1604 50.8476 14.0672C51.1927 13.9841 51.4236 13.7717 51.5578 13.6138C51.8156 13.3106 51.9819 12.8934 52.1031 12.5062L50.1945 11.9086ZM51.0205 12.2473C50.7394 12.0413 50.3251 11.9419 49.914 12.1255C49.6013 12.2651 49.4333 12.5103 49.3603 12.6306L51.0701 13.6682C51.0674 13.6728 50.9706 13.844 50.7295 13.9517C50.5904 14.0138 50.4189 14.0466 50.235 14.0205C50.0577 13.9953 49.924 13.9234 49.8381 13.8604L51.0205 12.2473ZM49.2903 12.7692C49.1114 13.2044 49.0097 13.1992 49.0919 13.1578C49.1306 13.1383 49.1591 13.1379 49.1469 13.1385C49.1181 13.1399 49.0764 13.1376 48.9472 13.1246L48.7472 15.1146C48.941 15.1341 49.4646 15.2094 49.9914 14.9441C50.532 14.6718 50.8817 14.1581 51.1401 13.5296L49.2903 12.7692ZM48.9472 13.1246C48.8321 13.113 48.6039 13.087 48.3607 13.1093L48.5439 15.1009C48.5631 15.0992 48.5985 15.0996 48.7472 15.1146L48.9472 13.1246ZM48.3551 13.1099C47.0877 13.2336 45.8407 13.5869 44.6965 13.9083L45.2375 15.8338C46.4146 15.503 47.489 15.204 48.5495 15.1004L48.3551 13.1099ZM44.6965 13.9083C43.9654 14.1137 43.2729 14.3079 42.5858 14.4517L42.9954 16.4093C43.7601 16.2493 44.5181 16.0359 45.2375 15.8338L44.6965 13.9083Z" fill="#0D3A16" mask="url(#path-2-outside-1)"/>
<rect x="36.2634" y="21" width="3" height="23" transform="rotate(45 36.2634 21)" fill="#C9452D"/>
<rect x="20" y="23.1213" width="3" height="23" transform="rotate(-45 20 23.1213)" fill="#C9452D"/>
</svg>
