<svg width="200" height="53" viewBox="0 0 200 53" fill="none" xmlns="http://www.w3.org/2000/svg">
<path fill-rule="evenodd" clip-rule="evenodd" d="M155.162 11.9437C154.008 11.9683 152.855 11.9919 151.701 12.0132C151.237 12.0681 150.773 11.9421 150.334 11.6423C150.631 11.388 150.943 11.206 151.262 11.1002C154.14 10.8148 157.033 10.5723 159.94 10.3726C163.579 10.0993 167.221 9.84142 170.863 9.58354C173.305 9.4106 175.747 9.23767 178.187 9.06015C179.282 9.09559 180.372 8.78744 181.418 8.14714V7.5337C181.209 7.50216 181 7.4621 180.791 7.42203C180.338 7.33521 179.885 7.24839 179.432 7.24839C176.397 7.37548 173.36 7.09428 170.344 6.40671C169.14 6.27464 167.932 6.42788 166.747 6.8632C166.045 7.09572 165.35 7.41011 164.667 7.80475C162.789 4.56641 160.048 4.36668 157.126 4.40948C154.441 4.40948 151.755 4.3735 149.07 4.33751C146.682 4.30553 144.295 4.27355 141.908 4.26683C140.427 4.26683 138.946 4.30989 137.464 4.35294C136.118 4.39208 134.771 4.43122 133.425 4.43802H113.831C113.33 4.41352 112.832 4.24042 112.356 3.92445C116.513 3.34745 120.693 3.28433 124.898 3.22081C128.075 3.17283 131.267 3.12463 134.475 2.85451C134.385 2.71422 134.328 2.61098 134.289 2.53971C134.24 2.45153 134.218 2.41227 134.195 2.41227C132.492 2.34716 130.808 2.05502 129.122 1.76272C126.376 1.28654 123.628 0.809935 120.797 1.3138C119.645 1.52051 118.454 1.39882 117.26 1.2769C116.559 1.20529 115.857 1.13361 115.163 1.12834H115.16C103.907 1.12834 92.6545 1.12834 81.4089 0.942895C77.7492 0.874956 74.0895 0.680833 70.4329 0.486874C66.4114 0.273555 62.3935 0.0604352 58.3836 0.0156033C51.3047 -0.0539909 44.221 0.121614 37.1442 0.297049C35.5171 0.337384 33.8904 0.37771 32.2642 0.415045C27.6208 0.51015 22.9798 0.695605 18.3411 0.971411H18.1252L16.2041 1.95576C16.0724 2.19719 15.9138 2.37346 15.7413 2.47015C15.5687 2.56685 15.387 2.58123 15.2111 2.51212C13.8368 3.29674 12.4984 4.15269 11.2177 5.12277C11.0001 5.31681 10.757 5.36749 10.5239 5.26735C10.2908 5.16722 10.08 4.92153 9.92247 4.5664C4.50433 8.56083 1.69092 17.5483 1.87081 24.3959C1.99279 29.0716 1.46221 33.6198 0.930895 38.1743C0.521993 41.6794 0.112655 45.1883 0 48.7619C0.519781 48.6636 1.03184 48.4433 1.52542 48.1057C1.33941 47.7941 1.17275 47.4397 1.02894 47.05C0.705146 45.8945 0.978574 45.0385 1.94276 44.9957C3.24491 44.8126 4.52814 44.275 5.75633 43.398C6.88817 42.5786 8.13417 42.6346 9.24611 43.5549C9.57835 43.895 9.94505 44.0819 10.3188 44.1017C10.6926 44.1214 11.0638 43.9736 11.4047 43.669C12.3131 42.9112 13.3015 42.6075 14.2829 42.7846C14.5692 42.8394 14.8581 42.8057 15.1392 42.6847C16.8882 41.5732 18.7509 41.6221 20.6114 41.671C21.1388 41.6848 21.6662 41.6987 22.1907 41.6861C26.8464 41.5673 31.4895 41.2265 36.132 40.8858C39.0332 40.6728 41.9342 40.4599 44.8379 40.3012C45.9918 40.2766 47.1455 40.253 48.2991 40.2317C48.7626 40.1768 49.2271 40.3028 49.6662 40.6026C49.3689 40.8569 49.0573 41.0389 48.738 41.1447C45.8598 41.4301 42.9672 41.6726 40.0603 41.8723C36.421 42.1455 32.7791 42.4035 29.1377 42.6613C26.6955 42.8343 24.2535 43.0072 21.8127 43.1847C20.7183 43.1493 19.6279 43.4575 18.582 44.0978V44.7112C18.791 44.7427 19.0001 44.7828 19.2091 44.8229C19.662 44.9097 20.115 44.9965 20.5679 44.9965C23.6033 44.8694 26.6395 45.1506 29.6557 45.8382C30.8599 45.9703 32.0676 45.817 33.2534 45.3817C33.9553 45.1492 34.6497 44.8348 35.3329 44.4401C37.2109 47.6785 39.9524 47.8782 42.8737 47.8354C45.5593 47.8354 48.2449 47.8714 50.9305 47.9074C53.3177 47.9394 55.7048 47.9713 58.092 47.9781C59.5732 47.9781 61.0545 47.935 62.5357 47.8919C63.8823 47.8528 65.2288 47.8137 66.5754 47.8069H86.1685C86.6704 47.8314 87.1675 48.0045 87.6436 48.3204C83.4872 48.8974 79.3075 48.9606 75.1018 49.0241C71.9247 49.0721 68.7328 49.1203 65.5249 49.3904C65.615 49.5307 65.6719 49.6339 65.7113 49.7052C65.7599 49.7934 65.7816 49.8326 65.8055 49.8326C67.5078 49.8977 69.1924 50.1899 70.8779 50.4822C73.6238 50.9584 76.3722 51.435 79.2034 50.9311C80.3548 50.7244 81.5462 50.8461 82.7397 50.968C83.4407 51.0396 84.1425 51.1113 84.8374 51.1166H84.8394C96.0924 51.1166 107.345 51.1166 118.591 51.302C122.251 51.3699 125.91 51.5641 129.567 51.758C133.589 51.9713 137.606 52.1845 141.616 52.2293C148.695 52.2989 155.779 52.1233 162.856 51.9478C164.483 51.9075 166.11 51.8672 167.736 51.8299C172.379 51.7347 177.02 51.5493 181.659 51.2735H181.875L183.796 50.2891C183.928 50.0477 184.086 49.8714 184.259 49.7747C184.431 49.6781 184.613 49.6637 184.789 49.7328C186.163 48.9482 187.502 48.0922 188.782 47.1221C189 46.9281 189.243 46.8774 189.476 46.9775C189.709 47.0777 189.92 47.3234 190.078 47.6785C195.496 43.6841 198.309 34.6966 198.129 27.849C198.007 23.1732 198.538 18.6251 199.069 14.0706C199.478 10.5655 199.887 7.05661 200 3.48299C199.48 3.5813 198.968 3.80157 198.475 4.13921C198.661 4.45084 198.827 4.80523 198.971 5.19489C199.295 6.35042 199.021 7.20637 198.057 7.24917C196.755 7.43232 195.472 7.96995 194.244 8.84693C193.112 9.66633 191.866 9.6103 190.754 8.69001C190.422 8.34989 190.055 8.16298 189.681 8.14322C189.307 8.12346 188.936 8.27135 188.595 8.57588C187.687 9.33369 186.699 9.63741 185.717 9.46035C185.431 9.40553 185.142 9.43923 184.861 9.56022C183.112 10.6717 181.249 10.6228 179.389 10.5739C178.861 10.5601 178.334 10.5462 177.809 10.5588C173.154 10.6776 168.51 11.0184 163.868 11.3591C160.967 11.5721 158.066 11.785 155.162 11.9437Z" fill="#20552A"/>
<mask id="path-2-outside-1" maskUnits="userSpaceOnUse" x="9" y="5.53064" width="183" height="43" fill="black">
<rect fill="white" x="9" y="5.53064" width="183" height="43"/>
<path fill-rule="evenodd" clip-rule="evenodd" d="M150.329 15.8617C149.293 15.8809 148.257 15.8993 147.221 15.9159C146.805 15.9589 146.388 15.8604 145.994 15.6262C146.261 15.4275 146.54 15.2853 146.827 15.2026C149.412 14.9797 152.009 14.7903 154.619 14.6342C157.887 14.4208 161.158 14.2193 164.428 14.0178C166.621 13.8827 168.813 13.7476 171.005 13.6089C171.988 13.6366 172.967 13.3958 173.906 12.8956V12.4163C173.718 12.3917 173.531 12.3604 173.343 12.3291C172.936 12.2613 172.529 12.1934 172.123 12.1934C169.397 12.2927 166.671 12.073 163.962 11.5359C162.881 11.4327 161.796 11.5524 160.732 11.8925C160.101 12.0742 159.478 12.3198 158.864 12.6281C157.178 10.0981 154.716 9.94211 152.093 9.97554C149.681 9.97554 147.27 9.94743 144.858 9.91932C142.715 9.89434 140.571 9.86935 138.428 9.8641C137.098 9.8641 135.767 9.89774 134.437 9.93138C133.228 9.96195 132.019 9.99253 130.81 9.99784H113.216C112.765 9.9787 112.319 9.84346 111.891 9.59661C115.624 9.14583 119.377 9.09652 123.154 9.0469C126.006 9.00941 128.873 8.97176 131.753 8.76073C131.672 8.65112 131.621 8.57046 131.586 8.51478C131.542 8.4459 131.523 8.41523 131.501 8.41523C129.973 8.36436 128.46 8.13612 126.946 7.90777C124.481 7.53575 122.013 7.1634 119.47 7.55704C118.437 7.71854 117.367 7.62346 116.295 7.52822C115.665 7.47228 115.035 7.41628 114.411 7.41215H114.409C104.304 7.41215 94.1999 7.41215 84.1019 7.26728C80.8156 7.2142 77.5294 7.06254 74.2459 6.91101C70.6347 6.74435 67.0268 6.57785 63.4261 6.54283C57.0695 6.48846 50.7087 6.62565 44.354 6.76271C42.8929 6.79422 41.4322 6.82573 39.972 6.85489C35.8024 6.92919 31.6349 7.07408 27.4696 7.28955H27.2757L25.5506 8.05857C25.4324 8.2472 25.29 8.3849 25.135 8.46045C24.98 8.53599 24.8169 8.54723 24.659 8.49323C23.4249 9.10622 22.2231 9.77493 21.073 10.5328C20.8777 10.6844 20.6593 10.724 20.45 10.6458C20.2407 10.5675 20.0514 10.3756 19.91 10.0981C15.0447 13.2188 12.5184 20.2403 12.6799 25.5899C12.7894 29.2429 12.313 32.7961 11.8359 36.3543C11.4687 39.0927 11.1012 41.834 11 44.6259C11.4667 44.5491 11.9265 44.377 12.3698 44.1132C12.2027 43.8697 12.0531 43.5929 11.9239 43.2885C11.6332 42.3857 11.8787 41.717 12.7445 41.6836C13.9138 41.5405 15.0661 41.1204 16.169 40.4353C17.1853 39.7951 18.3042 39.8389 19.3026 40.5579C19.601 40.8236 19.9303 40.9696 20.2659 40.9851C20.6015 41.0005 20.9349 40.885 21.241 40.6471C22.0567 40.055 22.9442 39.8177 23.8255 39.9561C24.0826 39.9989 24.3419 39.9726 24.5943 39.878C26.1649 39.0097 27.8375 39.0479 29.5082 39.0861C29.9818 39.0969 30.4553 39.1077 30.9263 39.0979C35.107 39.0051 39.2763 38.7388 43.4451 38.4726C46.0505 38.3063 48.6558 38.1399 51.2635 38.0159C52.2993 37.9967 53.335 37.9783 54.3706 37.9617C54.7868 37.9187 55.2039 38.0171 55.5982 38.2514C55.3313 38.45 55.0514 38.5922 54.7647 38.6749C52.1802 38.8978 49.5828 39.0873 46.9725 39.2433C43.7045 39.4568 40.4342 39.6583 37.1643 39.8598C34.9714 39.9949 32.7786 40.13 30.5869 40.2687C29.6041 40.241 28.625 40.4817 27.6858 40.982V41.4612C27.8735 41.4859 28.0612 41.5172 28.2489 41.5485C28.6557 41.6163 29.0624 41.6841 29.4691 41.6841C32.1948 41.5848 34.9212 41.8045 37.6296 42.3417C38.7109 42.4449 39.7954 42.3252 40.8602 41.9851C41.4905 41.8034 42.114 41.5578 42.7275 41.2495C44.4138 43.7794 46.8756 43.9355 49.4988 43.902C51.9103 43.902 54.3219 43.9301 56.7334 43.9582C58.877 43.9832 61.0206 44.0082 63.1642 44.0135C64.4943 44.0135 65.8244 43.9798 67.1545 43.9462C68.3637 43.9156 69.5728 43.885 70.782 43.8797H88.3758C88.8264 43.8989 89.2729 44.0341 89.7003 44.281C85.9681 44.7317 82.2149 44.7811 78.4383 44.8307C75.5854 44.8682 72.7192 44.9058 69.8386 45.1168C69.9195 45.2265 69.9707 45.3071 70.006 45.3628C70.0497 45.4317 70.0692 45.4623 70.0906 45.4623C71.6192 45.5132 73.1319 45.7414 74.6455 45.9698C77.1112 46.3418 79.5791 46.7142 82.1214 46.3205C83.1553 46.159 84.2251 46.2541 85.2969 46.3494C85.9264 46.4053 86.5565 46.4613 87.1805 46.4654H87.1829C97.2874 46.4654 107.392 46.4654 117.49 46.6103C120.776 46.6634 124.062 46.815 127.346 46.9666C130.957 47.1332 134.565 47.2997 138.166 47.3347C144.522 47.3891 150.883 47.2519 157.238 47.1149C158.699 47.0834 160.159 47.0519 161.62 47.0227C165.789 46.9484 169.957 46.8035 174.122 46.588H174.316L176.041 45.819C176.159 45.6304 176.302 45.4927 176.457 45.4171C176.612 45.3416 176.775 45.3304 176.933 45.3843C178.167 44.7714 179.369 44.1026 180.519 43.3448C180.714 43.1932 180.932 43.1536 181.142 43.2318C181.351 43.3101 181.54 43.502 181.682 43.7794C186.547 40.6588 189.073 33.6373 188.912 28.2876C188.802 24.6347 189.279 21.0815 189.756 17.5233C190.123 14.7849 190.491 12.0436 190.592 9.2517C190.125 9.32851 189.665 9.50059 189.222 9.76437C189.389 10.0078 189.539 10.2847 189.668 10.5891C189.959 11.4919 189.713 12.1606 188.847 12.194C187.678 12.3371 186.526 12.7571 185.423 13.4423C184.407 14.0824 183.288 14.0387 182.289 13.3197C181.991 13.054 181.662 12.9079 181.326 12.8925C180.99 12.8771 180.657 12.9926 180.351 13.2305C179.535 13.8226 178.648 14.0598 177.766 13.9215C177.509 13.8787 177.25 13.905 176.997 13.9995C175.427 14.8679 173.754 14.8297 172.084 14.7915C171.61 14.7807 171.137 14.7698 170.666 14.7797C166.485 14.8725 162.316 15.1387 158.147 15.4049C155.541 15.5713 152.936 15.7377 150.329 15.8617Z"/>
</mask>
<path fill-rule="evenodd" clip-rule="evenodd" d="M150.329 15.8617C149.293 15.8809 148.257 15.8993 147.221 15.9159C146.805 15.9589 146.388 15.8604 145.994 15.6262C146.261 15.4275 146.54 15.2853 146.827 15.2026C149.412 14.9797 152.009 14.7903 154.619 14.6342C157.887 14.4208 161.158 14.2193 164.428 14.0178C166.621 13.8827 168.813 13.7476 171.005 13.6089C171.988 13.6366 172.967 13.3958 173.906 12.8956V12.4163C173.718 12.3917 173.531 12.3604 173.343 12.3291C172.936 12.2613 172.529 12.1934 172.123 12.1934C169.397 12.2927 166.671 12.073 163.962 11.5359C162.881 11.4327 161.796 11.5524 160.732 11.8925C160.101 12.0742 159.478 12.3198 158.864 12.6281C157.178 10.0981 154.716 9.94211 152.093 9.97554C149.681 9.97554 147.27 9.94743 144.858 9.91932C142.715 9.89434 140.571 9.86935 138.428 9.8641C137.098 9.8641 135.767 9.89774 134.437 9.93138C133.228 9.96195 132.019 9.99253 130.81 9.99784H113.216C112.765 9.9787 112.319 9.84346 111.891 9.59661C115.624 9.14583 119.377 9.09652 123.154 9.0469C126.006 9.00941 128.873 8.97176 131.753 8.76073C131.672 8.65112 131.621 8.57046 131.586 8.51478C131.542 8.4459 131.523 8.41523 131.501 8.41523C129.973 8.36436 128.46 8.13612 126.946 7.90777C124.481 7.53575 122.013 7.1634 119.47 7.55704C118.437 7.71854 117.367 7.62346 116.295 7.52822C115.665 7.47228 115.035 7.41628 114.411 7.41215H114.409C104.304 7.41215 94.1999 7.41215 84.1019 7.26728C80.8156 7.2142 77.5294 7.06254 74.2459 6.91101C70.6347 6.74435 67.0268 6.57785 63.4261 6.54283C57.0695 6.48846 50.7087 6.62565 44.354 6.76271C42.8929 6.79422 41.4322 6.82573 39.972 6.85489C35.8024 6.92919 31.6349 7.07408 27.4696 7.28955H27.2757L25.5506 8.05857C25.4324 8.2472 25.29 8.3849 25.135 8.46045C24.98 8.53599 24.8169 8.54723 24.659 8.49323C23.4249 9.10622 22.2231 9.77493 21.073 10.5328C20.8777 10.6844 20.6593 10.724 20.45 10.6458C20.2407 10.5675 20.0514 10.3756 19.91 10.0981C15.0447 13.2188 12.5184 20.2403 12.6799 25.5899C12.7894 29.2429 12.313 32.7961 11.8359 36.3543C11.4687 39.0927 11.1012 41.834 11 44.6259C11.4667 44.5491 11.9265 44.377 12.3698 44.1132C12.2027 43.8697 12.0531 43.5929 11.9239 43.2885C11.6332 42.3857 11.8787 41.717 12.7445 41.6836C13.9138 41.5405 15.0661 41.1204 16.169 40.4353C17.1853 39.7951 18.3042 39.8389 19.3026 40.5579C19.601 40.8236 19.9303 40.9696 20.2659 40.9851C20.6015 41.0005 20.9349 40.885 21.241 40.6471C22.0567 40.055 22.9442 39.8177 23.8255 39.9561C24.0826 39.9989 24.3419 39.9726 24.5943 39.878C26.1649 39.0097 27.8375 39.0479 29.5082 39.0861C29.9818 39.0969 30.4553 39.1077 30.9263 39.0979C35.107 39.0051 39.2763 38.7388 43.4451 38.4726C46.0505 38.3063 48.6558 38.1399 51.2635 38.0159C52.2993 37.9967 53.335 37.9783 54.3706 37.9617C54.7868 37.9187 55.2039 38.0171 55.5982 38.2514C55.3313 38.45 55.0514 38.5922 54.7647 38.6749C52.1802 38.8978 49.5828 39.0873 46.9725 39.2433C43.7045 39.4568 40.4342 39.6583 37.1643 39.8598C34.9714 39.9949 32.7786 40.13 30.5869 40.2687C29.6041 40.241 28.625 40.4817 27.6858 40.982V41.4612C27.8735 41.4859 28.0612 41.5172 28.2489 41.5485C28.6557 41.6163 29.0624 41.6841 29.4691 41.6841C32.1948 41.5848 34.9212 41.8045 37.6296 42.3417C38.7109 42.4449 39.7954 42.3252 40.8602 41.9851C41.4905 41.8034 42.114 41.5578 42.7275 41.2495C44.4138 43.7794 46.8756 43.9355 49.4988 43.902C51.9103 43.902 54.3219 43.9301 56.7334 43.9582C58.877 43.9832 61.0206 44.0082 63.1642 44.0135C64.4943 44.0135 65.8244 43.9798 67.1545 43.9462C68.3637 43.9156 69.5728 43.885 70.782 43.8797H88.3758C88.8264 43.8989 89.2729 44.0341 89.7003 44.281C85.9681 44.7317 82.2149 44.7811 78.4383 44.8307C75.5854 44.8682 72.7192 44.9058 69.8386 45.1168C69.9195 45.2265 69.9707 45.3071 70.006 45.3628C70.0497 45.4317 70.0692 45.4623 70.0906 45.4623C71.6192 45.5132 73.1319 45.7414 74.6455 45.9698C77.1112 46.3418 79.5791 46.7142 82.1214 46.3205C83.1553 46.159 84.2251 46.2541 85.2969 46.3494C85.9264 46.4053 86.5565 46.4613 87.1805 46.4654H87.1829C97.2874 46.4654 107.392 46.4654 117.49 46.6103C120.776 46.6634 124.062 46.815 127.346 46.9666C130.957 47.1332 134.565 47.2997 138.166 47.3347C144.522 47.3891 150.883 47.2519 157.238 47.1149C158.699 47.0834 160.159 47.0519 161.62 47.0227C165.789 46.9484 169.957 46.8035 174.122 46.588H174.316L176.041 45.819C176.159 45.6304 176.302 45.4927 176.457 45.4171C176.612 45.3416 176.775 45.3304 176.933 45.3843C178.167 44.7714 179.369 44.1026 180.519 43.3448C180.714 43.1932 180.932 43.1536 181.142 43.2318C181.351 43.3101 181.54 43.502 181.682 43.7794C186.547 40.6588 189.073 33.6373 188.912 28.2876C188.802 24.6347 189.279 21.0815 189.756 17.5233C190.123 14.7849 190.491 12.0436 190.592 9.2517C190.125 9.32851 189.665 9.50059 189.222 9.76437C189.389 10.0078 189.539 10.2847 189.668 10.5891C189.959 11.4919 189.713 12.1606 188.847 12.194C187.678 12.3371 186.526 12.7571 185.423 13.4423C184.407 14.0824 183.288 14.0387 182.289 13.3197C181.991 13.054 181.662 12.9079 181.326 12.8925C180.99 12.8771 180.657 12.9926 180.351 13.2305C179.535 13.8226 178.648 14.0598 177.766 13.9215C177.509 13.8787 177.25 13.905 176.997 13.9995C175.427 14.8679 173.754 14.8297 172.084 14.7915C171.61 14.7807 171.137 14.7698 170.666 14.7797C166.485 14.8725 162.316 15.1387 158.147 15.4049C155.541 15.5713 152.936 15.7377 150.329 15.8617Z" fill="#2DC29F"/>
<path d="M150.329 15.8617L150.347 16.8615L150.362 16.8612L150.376 16.8605L150.329 15.8617ZM147.221 15.9159L147.205 14.9161L147.162 14.9167L147.119 14.9212L147.221 15.9159ZM145.994 15.6262L145.397 14.8239L144.193 15.7195L145.483 16.4858L145.994 15.6262ZM146.827 15.2026L146.741 14.2063L146.644 14.2147L146.55 14.2418L146.827 15.2026ZM154.619 14.6342L154.679 15.6325L154.685 15.6321L154.619 14.6342ZM164.428 14.0178L164.366 13.0197L164.428 14.0178ZM171.005 13.6089L171.033 12.6093L170.987 12.608L170.942 12.6109L171.005 13.6089ZM173.906 12.8956L174.376 13.7782L174.906 13.496V12.8956H173.906ZM173.906 12.4163H174.906V11.539L174.036 11.4248L173.906 12.4163ZM173.343 12.3291L173.507 11.3427V11.3427L173.343 12.3291ZM172.123 12.1934V11.1934H172.104L172.086 11.1941L172.123 12.1934ZM163.962 11.5359L164.157 10.555L164.107 10.5452L164.057 10.5404L163.962 11.5359ZM160.732 11.8925L161.009 12.8534L161.022 12.8495L161.036 12.8451L160.732 11.8925ZM158.864 12.6281L158.032 13.1827L158.523 13.9189L159.313 13.5216L158.864 12.6281ZM152.093 9.97554V10.9756L152.106 10.9755L152.093 9.97554ZM144.858 9.91932L144.87 8.91939L144.858 9.91932ZM138.428 9.8641L138.43 8.8641H138.428V9.8641ZM134.437 9.93138L134.412 8.9317L134.437 9.93138ZM130.81 9.99784V10.9978L130.814 10.9978L130.81 9.99784ZM113.216 9.99784L113.174 10.9969L113.195 10.9978H113.216V9.99784ZM111.891 9.59661L111.772 8.60383L108.795 8.96331L111.391 10.4626L111.891 9.59661ZM123.154 9.0469L123.167 10.0468L123.154 9.0469ZM131.753 8.76073L131.826 9.75805L133.634 9.62561L132.558 8.16702L131.753 8.76073ZM131.586 8.51478L130.741 9.05051L130.741 9.05054L131.586 8.51478ZM131.501 8.41523L131.468 9.41467L131.485 9.41523H131.501V8.41523ZM126.946 7.90777L127.096 6.91896V6.91896L126.946 7.90777ZM119.47 7.55704L119.317 6.56882L119.316 6.56902L119.47 7.55704ZM116.295 7.52822L116.206 8.52429L116.295 7.52822ZM114.411 7.41215L114.418 6.41215H114.411V7.41215ZM84.1019 7.26728L84.0858 8.26715L84.0876 8.26717L84.1019 7.26728ZM74.2459 6.91101L74.1998 7.90995L74.2459 6.91101ZM63.4261 6.54283L63.4358 5.54288L63.4346 5.54287L63.4261 6.54283ZM44.354 6.76271L44.3324 5.76294L44.354 6.76271ZM39.972 6.85489L39.9898 7.85474L39.9919 7.85469L39.972 6.85489ZM27.4696 7.28955V8.28955H27.4954L27.5212 8.28822L27.4696 7.28955ZM27.2757 7.28955V6.28955H27.0629L26.8686 6.37619L27.2757 7.28955ZM25.5506 8.05857L25.1434 7.14521L24.8651 7.26929L24.7033 7.52752L25.5506 8.05857ZM25.135 8.46045L25.5732 9.35933L25.5732 9.35933L25.135 8.46045ZM24.659 8.49323L24.9824 7.54698L24.5877 7.41207L24.2141 7.59763L24.659 8.49323ZM21.073 10.5328L20.5228 9.6978L20.4904 9.71909L20.4599 9.74281L21.073 10.5328ZM19.91 10.0981L20.8009 9.64399L20.2995 8.6603L19.3701 9.25641L19.91 10.0981ZM12.6799 25.5899L13.6795 25.56L13.6795 25.5598L12.6799 25.5899ZM11.8359 36.3543L12.827 36.4872L11.8359 36.3543ZM11 44.6259L10.0007 44.5897L9.9564 45.8111L11.1624 45.6126L11 44.6259ZM12.3698 44.1132L12.8812 44.9725L13.7978 44.427L13.1944 43.5475L12.3698 44.1132ZM11.9239 43.2885L10.9721 43.595L10.9858 43.6377L11.0033 43.679L11.9239 43.2885ZM12.7445 41.6836L12.7831 42.6828L12.8247 42.6812L12.866 42.6762L12.7445 41.6836ZM16.169 40.4353L16.6967 41.2847L16.7019 41.2814L16.169 40.4353ZM19.3026 40.5579L19.9677 39.8111L19.929 39.7767L19.887 39.7464L19.3026 40.5579ZM20.2659 40.9851L20.3118 39.9861H20.3118L20.2659 40.9851ZM21.241 40.6471L20.6536 39.8378L20.6403 39.8474L20.6273 39.8575L21.241 40.6471ZM23.8255 39.9561L23.9898 38.9696L23.9805 38.9682L23.8255 39.9561ZM24.5943 39.878L24.945 40.8145L25.0139 40.7888L25.0782 40.7532L24.5943 39.878ZM29.5082 39.0861L29.531 38.0863H29.531L29.5082 39.0861ZM30.9263 39.0979L30.9472 40.0977L30.9485 40.0976L30.9263 39.0979ZM43.4451 38.4726L43.3813 37.4747L43.4451 38.4726ZM51.2635 38.0159L51.245 37.0161L51.2305 37.0163L51.216 37.017L51.2635 38.0159ZM54.3706 37.9617L54.3866 38.9615L54.43 38.9608L54.4732 38.9564L54.3706 37.9617ZM55.5982 38.2514L56.1952 39.0537L57.3987 38.1581L56.109 37.3917L55.5982 38.2514ZM54.7647 38.6749L54.8506 39.6712L54.9479 39.6628L55.0418 39.6358L54.7647 38.6749ZM46.9725 39.2433L46.9128 38.2451L46.9073 38.2455L46.9725 39.2433ZM37.1643 39.8598L37.2258 40.8579L37.1643 39.8598ZM30.5869 40.2687L30.5588 41.2683L30.6044 41.2696L30.6501 41.2667L30.5869 40.2687ZM27.6858 40.982L27.2157 40.0994L26.6858 40.3816V40.982H27.6858ZM27.6858 41.4612H26.6858V42.3386L27.5557 42.4527L27.6858 41.4612ZM28.2489 41.5485L28.0844 42.5349L28.2489 41.5485ZM29.4691 41.6841V42.6841H29.4873L29.5055 42.6835L29.4691 41.6841ZM37.6296 42.3417L37.4351 43.3226L37.4845 43.3324L37.5346 43.3372L37.6296 42.3417ZM40.8602 41.9851L40.5833 41.0242L40.5695 41.0281L40.556 41.0325L40.8602 41.9851ZM42.7275 41.2495L43.5596 40.6948L43.0689 39.9587L42.2785 40.356L42.7275 41.2495ZM49.4988 43.902V42.9019L49.4861 42.9021L49.4988 43.902ZM56.7334 43.9582L56.745 42.9583L56.7334 43.9582ZM63.1642 44.0135L63.1618 45.0135H63.1642V44.0135ZM67.1545 43.9462L67.1292 42.9465L67.1545 43.9462ZM70.782 43.8797V42.8797L70.7776 42.8797L70.782 43.8797ZM88.3758 43.8797L88.4182 42.8806L88.397 42.8797H88.3758V43.8797ZM89.7003 44.281L89.8202 45.2737L92.7966 44.9143L90.2004 43.415L89.7003 44.281ZM78.4383 44.8307L78.4514 45.8306L78.4383 44.8307ZM69.8386 45.1168L69.7656 44.1195L67.9578 44.252L69.034 45.7106L69.8386 45.1168ZM70.006 45.3628L70.8504 44.8271L70.8504 44.8271L70.006 45.3628ZM70.0906 45.4623L70.1239 44.4629L70.1073 44.4623H70.0906V45.4623ZM74.6455 45.9698L74.4963 46.9586L74.6455 45.9698ZM82.1214 46.3205L82.2744 47.3088L82.2757 47.3085L82.1214 46.3205ZM85.2969 46.3494L85.2084 47.3454H85.2084L85.2969 46.3494ZM87.1805 46.4654L87.1739 47.4654H87.1805V46.4654ZM117.49 46.6103L117.506 45.6104L117.504 45.6104L117.49 46.6103ZM127.346 46.9666L127.392 45.9676V45.9676L127.346 46.9666ZM138.166 47.3347L138.156 48.3347L138.157 48.3347L138.166 47.3347ZM157.238 47.1149L157.216 46.1151L157.238 47.1149ZM161.62 47.0227L161.602 46.0228L161.6 46.0229L161.62 47.0227ZM174.122 46.588V45.588H174.096L174.071 45.5894L174.122 46.588ZM174.316 46.588V47.588H174.529L174.723 47.5014L174.316 46.588ZM176.041 45.819L176.448 46.7324L176.727 46.6083L176.889 46.35L176.041 45.819ZM176.457 45.4171L176.019 44.5182L176.019 44.5182L176.457 45.4171ZM176.933 45.3843L176.609 46.3306L177.004 46.4655L177.378 46.2799L176.933 45.3843ZM180.519 43.3448L181.069 44.1798L181.101 44.1585L181.132 44.1348L180.519 43.3448ZM181.142 43.2318L181.492 42.2951L181.492 42.2951L181.142 43.2318ZM181.682 43.7794L180.791 44.2336L181.292 45.2173L182.222 44.6212L181.682 43.7794ZM188.912 28.2876L187.912 28.3176L187.912 28.3178L188.912 28.2876ZM189.756 17.5233L188.765 17.3904V17.3904L189.756 17.5233ZM190.592 9.2517L191.591 9.28791L191.635 8.06653L190.429 8.26497L190.592 9.2517ZM189.222 9.76437L188.711 8.90504L187.794 9.45055L188.397 10.3301L189.222 9.76437ZM189.668 10.5891L190.62 10.2826L190.606 10.2399L190.588 10.1986L189.668 10.5891ZM188.847 12.194L188.809 11.1948L188.767 11.1964L188.726 11.2014L188.847 12.194ZM185.423 13.4423L184.895 12.5928L184.89 12.5961L185.423 13.4423ZM182.289 13.3197L181.624 14.0664L181.663 14.1009L181.705 14.1312L182.289 13.3197ZM180.351 13.2305L180.938 14.0398L180.952 14.0302L180.964 14.0201L180.351 13.2305ZM177.766 13.9215L177.602 14.908L177.611 14.9094L177.766 13.9215ZM176.997 13.9995L176.647 13.0631L176.578 13.0888L176.514 13.1244L176.997 13.9995ZM172.084 14.7915L172.061 15.7912L172.084 14.7915ZM170.666 14.7797L170.645 13.7799L170.643 13.7799L170.666 14.7797ZM158.147 15.4049L158.083 14.407L158.147 15.4049ZM150.31 14.8618C149.275 14.881 148.24 14.8995 147.205 14.9161L147.237 16.9158C148.274 16.8992 149.311 16.8807 150.347 16.8615L150.31 14.8618ZM147.119 14.9212C146.937 14.94 146.733 14.9021 146.504 14.7665L145.483 16.4858C146.043 16.8187 146.673 16.9778 147.324 16.9106L147.119 14.9212ZM146.591 16.4284C146.772 16.2932 146.945 16.2093 147.104 16.1635L146.55 14.2418C146.136 14.3613 145.749 14.5619 145.397 14.8239L146.591 16.4284ZM146.913 16.1989C149.489 15.9768 152.077 15.788 154.679 15.6325L154.56 13.636C151.941 13.7926 149.334 13.9827 146.741 14.2063L146.913 16.1989ZM154.685 15.6321C157.95 15.4188 161.219 15.2174 164.489 15.0159L164.366 13.0197C161.097 13.2211 157.824 13.4227 154.554 13.6364L154.685 15.6321ZM164.489 15.0159C166.682 14.8808 168.875 14.7456 171.068 14.6069L170.942 12.6109C168.751 12.7495 166.559 12.8846 164.366 13.0197L164.489 15.0159ZM170.977 14.6085C172.147 14.6415 173.297 14.3531 174.376 13.7782L173.436 12.013C172.637 12.4386 171.828 12.6317 171.033 12.6093L170.977 14.6085ZM174.906 12.8956V12.4163H172.906V12.8956H174.906ZM174.036 11.4248C173.869 11.4028 173.698 11.3745 173.507 11.3427L173.178 13.3155C173.363 13.3463 173.568 13.3806 173.776 13.4078L174.036 11.4248ZM173.507 11.3427C173.115 11.2773 172.626 11.1934 172.123 11.1934V13.1934C172.432 13.1934 172.757 13.2452 173.178 13.3155L173.507 11.3427ZM172.086 11.1941C169.439 11.2905 166.79 11.0773 164.157 10.555L163.768 12.5168C166.551 13.0688 169.355 13.2949 172.159 13.1928L172.086 11.1941ZM164.057 10.5404C162.837 10.424 161.617 10.5599 160.427 10.9399L161.036 12.8451C161.976 12.5449 162.925 12.4414 163.867 12.5314L164.057 10.5404ZM160.455 10.9316C159.762 11.1312 159.081 11.3998 158.415 11.7346L159.313 13.5216C159.874 13.2397 160.44 13.0172 161.009 12.8534L160.455 10.9316ZM159.696 12.0735C157.691 9.06504 154.706 8.94216 152.08 8.97563L152.106 10.9755C154.726 10.9421 156.665 11.1313 158.032 13.1827L159.696 12.0735ZM152.093 8.97554C149.688 8.97554 147.283 8.94751 144.87 8.91939L144.847 10.9193C147.257 10.9474 149.675 10.9755 152.093 10.9755V8.97554ZM144.87 8.91939C142.727 8.89441 140.579 8.86936 138.43 8.86411L138.425 10.8641C140.563 10.8693 142.702 10.8943 144.847 10.9193L144.87 8.91939ZM138.428 8.8641C137.083 8.8641 135.74 8.89811 134.412 8.9317L134.463 10.9311C135.795 10.8974 137.112 10.8641 138.428 10.8641V8.8641ZM134.412 8.9317C133.201 8.96232 132.002 8.9926 130.805 8.99785L130.814 10.9978C132.036 10.9925 133.255 10.9616 134.463 10.9311L134.412 8.9317ZM130.81 8.99784H113.216V10.9978H130.81V8.99784ZM113.258 8.99874C112.984 8.98707 112.693 8.90464 112.392 8.73064L111.391 10.4626C111.945 10.7823 112.547 10.9703 113.174 10.9969L113.258 8.99874ZM112.011 10.5894C115.682 10.1461 119.381 10.0966 123.167 10.0468L123.14 8.04698C119.373 8.09649 115.566 8.14555 111.772 8.60383L112.011 10.5894ZM123.167 10.0468C126.015 10.0094 128.911 9.97164 131.826 9.75805L131.68 7.7634C128.834 7.97188 125.998 8.00944 123.14 8.04698L123.167 10.0468ZM132.558 8.16702C132.498 8.08608 132.462 8.02899 132.43 7.97902L130.741 9.05054C130.78 9.11193 130.846 9.21615 130.948 9.35443L132.558 8.16702ZM132.43 7.97905C132.423 7.96725 132.372 7.88451 132.316 7.81488C132.301 7.79569 132.024 7.41523 131.501 7.41523V9.41523C131.246 9.41523 131.052 9.31809 130.935 9.23433C130.832 9.16061 130.771 9.08525 130.754 9.06346C130.724 9.02639 130.705 8.99343 130.741 9.05051L132.43 7.97905ZM131.534 7.41578C130.074 7.36717 128.619 7.14878 127.096 6.91896L126.797 8.89657C128.301 9.12347 129.871 9.36154 131.468 9.41467L131.534 7.41578ZM127.096 6.91896C124.653 6.55046 122.035 6.14806 119.317 6.56882L119.623 8.54527C121.991 8.17875 124.308 8.52104 126.797 8.89657L127.096 6.91896ZM119.316 6.56902C118.424 6.70835 117.479 6.62949 116.383 6.53214L116.206 8.52429C117.255 8.61744 118.449 8.72873 119.625 8.54506L119.316 6.56902ZM116.383 6.53214C115.761 6.47685 115.09 6.41661 114.418 6.41217L114.405 8.41213C114.981 8.41594 115.57 8.46771 116.206 8.52429L116.383 6.53214ZM114.411 6.41215H114.409V8.41215H114.411V6.41215ZM114.409 6.41215C104.303 6.41215 94.2059 6.41213 84.1162 6.26738L84.0876 8.26717C94.194 8.41217 104.306 8.41215 114.409 8.41215V6.41215ZM84.1181 6.26741C80.8493 6.21461 77.578 6.06372 74.292 5.91207L74.1998 7.90995C77.4808 8.06136 80.782 8.21379 84.0858 8.26715L84.1181 6.26741ZM74.292 5.91207C70.6839 5.74556 67.0578 5.57811 63.4358 5.54288L63.4164 7.54278C66.9959 7.5776 70.5855 7.74315 74.1998 7.90995L74.292 5.91207ZM63.4346 5.54287C57.0605 5.48835 50.6846 5.62594 44.3324 5.76294L44.3755 7.76248C50.7328 7.62536 57.0785 7.48857 63.4175 7.54279L63.4346 5.54287ZM44.3324 5.76294C42.8713 5.79446 41.4113 5.82594 39.952 5.85509L39.9919 7.85469C41.4531 7.82551 42.9146 7.79399 44.3755 7.76248L44.3324 5.76294ZM39.9542 5.85505C35.7732 5.92955 31.5945 6.07483 27.4179 6.29089L27.5212 8.28822C31.6753 8.07333 35.8315 7.92883 39.9898 7.85473L39.9542 5.85505ZM27.4696 6.28955H27.2757V8.28955H27.4696V6.28955ZM26.8686 6.37619L25.1434 7.14521L25.9578 8.97193L27.6829 8.20291L26.8686 6.37619ZM24.7033 7.52752C24.6814 7.56236 24.6658 7.5788 24.6614 7.58305C24.6571 7.58723 24.6677 7.57575 24.6968 7.56156L25.5732 9.35933C25.9387 9.18116 26.2089 8.89128 26.3979 8.58963L24.7033 7.52752ZM24.6968 7.56156C24.7274 7.54667 24.7727 7.53168 24.8294 7.52778C24.8865 7.52384 24.9394 7.5323 24.9824 7.54698L24.3355 9.43949C24.7526 9.58206 25.1893 9.54648 25.5732 9.35933L24.6968 7.56156ZM24.2141 7.59763C22.9526 8.22424 21.7141 8.91273 20.5228 9.6978L21.6232 11.3678C22.7321 10.6371 23.8971 9.9882 25.1038 9.38884L24.2141 7.59763ZM20.4599 9.74281C20.4721 9.73336 20.5148 9.70484 20.5883 9.69151C20.6651 9.67759 20.7406 9.68681 20.8001 9.70904L20.0999 11.5825C20.6733 11.7968 21.2517 11.6599 21.6861 11.3228L20.4599 9.74281ZM20.8001 9.70904C20.8545 9.72938 20.8742 9.75223 20.8666 9.7445C20.8588 9.73665 20.8331 9.70709 20.8009 9.64399L19.0191 10.5523C19.2292 10.9646 19.5778 11.3873 20.0999 11.5825L20.8001 9.70904ZM19.3701 9.25641C16.7228 10.9544 14.765 13.6738 13.4923 16.6105C12.2182 19.5508 11.5949 22.7891 11.6804 25.6201L13.6795 25.5598C13.6034 23.0411 14.1625 20.0939 15.3274 17.4058C16.4939 14.7142 18.2319 12.3625 20.4499 10.9399L19.3701 9.25641ZM11.6804 25.6199C11.787 29.1778 11.3236 32.6506 10.8448 36.2214L12.827 36.4872C13.3024 32.9416 13.7918 29.3079 13.6795 25.56L11.6804 25.6199ZM10.8448 36.2214C10.4786 38.9521 10.1039 41.7413 10.0007 44.5897L11.9993 44.6621C12.0985 41.9267 12.4588 39.2333 12.827 36.4872L10.8448 36.2214ZM11.1624 45.6126C11.7631 45.5138 12.3403 45.2944 12.8812 44.9725L11.8583 43.2539C11.5128 43.4595 11.1704 43.5844 10.8376 43.6392L11.1624 45.6126ZM13.1944 43.5475C13.0693 43.3652 12.9507 43.1481 12.8445 42.8979L11.0033 43.679C11.1555 44.0376 11.3362 44.3743 11.5452 44.6789L13.1944 43.5475ZM12.8758 42.9819C12.8256 42.8262 12.8092 42.712 12.8075 42.6387C12.8058 42.5653 12.8192 42.5563 12.8059 42.5846C12.7882 42.6224 12.7524 42.6629 12.7126 42.6861C12.6812 42.7043 12.6908 42.6864 12.7831 42.6828L12.7059 40.6843C11.9958 40.7117 11.3243 41.0334 10.9951 41.7355C10.7078 42.3482 10.7912 43.0332 10.9721 43.595L12.8758 42.9819ZM12.866 42.6762C14.1936 42.5137 15.4831 42.0386 16.6967 41.2847L15.6413 39.5859C14.6491 40.2023 13.634 40.5673 12.6231 40.691L12.866 42.6762ZM16.7019 41.2814C17.3626 40.8653 18.0398 40.8808 18.7183 41.3694L19.887 39.7464C18.5685 38.797 17.008 38.725 15.636 39.5892L16.7019 41.2814ZM18.6375 41.3047C19.0735 41.6929 19.6137 41.9561 20.2199 41.984L20.3118 39.9861C20.2468 39.9831 20.1285 39.9543 19.9677 39.8111L18.6375 41.3047ZM20.2199 41.984C20.8294 42.0121 21.3912 41.7968 21.8546 41.4367L20.6273 39.8575C20.4786 39.9731 20.3737 39.989 20.3118 39.9861L20.2199 41.984ZM21.8284 41.4564C22.4602 40.9977 23.0853 40.8521 23.6704 40.944L23.9805 38.9682C22.8031 38.7833 21.6531 39.1123 20.6536 39.8378L21.8284 41.4564ZM23.6611 40.9425C24.0974 41.0151 24.5342 40.9684 24.945 40.8145L24.2436 38.9416C24.1497 38.9767 24.0677 38.9826 23.9898 38.9697L23.6611 40.9425ZM25.0782 40.7532C26.3767 40.0353 27.7753 40.0468 29.4853 40.0858L29.531 38.0863C27.8998 38.0491 25.9532 37.9841 24.1105 39.0029L25.0782 40.7532ZM29.4853 40.0858C29.9552 40.0966 30.4507 40.108 30.9472 40.0977L30.9054 38.0981C30.46 38.1074 30.0084 38.0973 29.531 38.0863L29.4853 40.0858ZM30.9485 40.0976C35.1535 40.0043 39.3435 39.7366 43.5088 39.4706L43.3813 37.4747C39.2091 37.7411 35.0606 38.0059 30.9041 38.0981L30.9485 40.0976ZM43.5088 39.4706C46.1156 39.3041 48.7128 39.1383 51.311 39.0148L51.216 37.017C48.5988 37.1415 45.9855 37.3084 43.3813 37.4747L43.5088 39.4706ZM51.282 39.0157C52.3174 38.9965 53.3522 38.9781 54.3866 38.9615L54.3545 36.9618C53.3179 36.9784 52.2812 36.9969 51.245 37.0161L51.282 39.0157ZM54.4732 38.9564C54.6551 38.9376 54.8591 38.9755 55.0874 39.1111L56.109 37.3917C55.5487 37.0588 54.9185 36.8998 54.2679 36.9669L54.4732 38.9564ZM55.0012 37.4492C54.8195 37.5844 54.6465 37.6683 54.4876 37.7141L55.0418 39.6358C55.4563 39.5162 55.843 39.3157 56.1952 39.0537L55.0012 37.4492ZM54.6788 37.6786C52.1031 37.9008 49.5144 38.0896 46.9128 38.2451L47.0322 40.2416C49.6512 40.085 52.2573 39.8949 54.8506 39.6712L54.6788 37.6786ZM46.9073 38.2455C43.6414 38.4588 40.373 38.6602 37.1028 38.8617L37.2258 40.8579C40.4954 40.6564 43.7675 40.4548 47.0377 40.2412L46.9073 38.2455ZM37.1028 38.8617C34.91 38.9968 32.7164 39.1319 30.5238 39.2707L30.6501 41.2667C32.8408 41.1281 35.0327 40.993 37.2258 40.8579L37.1028 38.8617ZM30.6151 39.2691C29.4447 39.2361 28.295 39.5245 27.2157 40.0994L28.1559 41.8646C28.955 41.439 29.7635 41.2459 30.5588 41.2683L30.6151 39.2691ZM26.6858 40.982V41.4612H28.6858V40.982H26.6858ZM27.5557 42.4527C27.7233 42.4747 27.8938 42.5031 28.0844 42.5349L28.4134 40.5621C28.2287 40.5313 28.0238 40.497 27.816 40.4697L27.5557 42.4527ZM28.0844 42.5349C28.4765 42.6002 28.9655 42.6841 29.4691 42.6841V40.6841C29.1593 40.6841 28.8349 40.6324 28.4134 40.5621L28.0844 42.5349ZM29.5055 42.6835C32.1528 42.587 34.8017 42.8003 37.4351 43.3226L37.8242 41.3608C35.0407 40.8087 32.2368 40.5826 29.4327 40.6848L29.5055 42.6835ZM37.5346 43.3372C38.7544 43.4536 39.9747 43.3177 41.1645 42.9376L40.556 41.0325C39.6161 41.3326 38.6673 41.4362 37.7246 41.3462L37.5346 43.3372ZM41.1371 42.9459C41.8294 42.7464 42.5104 42.4777 43.1765 42.143L42.2785 40.356C41.7175 40.6378 41.1515 40.8604 40.5833 41.0242L41.1371 42.9459ZM41.8954 41.8041C43.9007 44.8125 46.8858 44.9354 49.5116 44.9019L49.4861 42.9021C46.8653 42.9355 44.927 42.7463 43.5596 40.6948L41.8954 41.8041ZM49.4988 44.902C51.9035 44.902 54.3092 44.9301 56.7217 44.9582L56.745 42.9583C54.3345 42.9302 51.9171 42.902 49.4988 42.902V44.902ZM56.7217 44.9582C58.8646 44.9832 61.0128 45.0082 63.1618 45.0135L63.1667 43.0135C61.0284 43.0082 58.8894 42.9833 56.745 42.9583L56.7217 44.9582ZM63.1642 45.0135C64.5091 45.0135 65.8518 44.9795 67.1798 44.9459L67.1292 42.9465C65.797 42.9802 64.4796 43.0135 63.1642 43.0135V45.0135ZM67.1798 44.9459C68.3907 44.9153 69.5894 44.885 70.7864 44.8797L70.7776 42.8797C69.5562 42.8851 68.3366 42.916 67.1292 42.9465L67.1798 44.9459ZM70.782 44.8797H88.3758V42.8797H70.782V44.8797ZM88.3334 44.8788C88.6081 44.8905 88.8989 44.9729 89.2002 45.1469L90.2004 43.415C89.6468 43.0953 89.0447 42.9072 88.4182 42.8806L88.3334 44.8788ZM89.5804 43.2882C85.9102 43.7315 82.2108 43.781 78.4252 43.8308L78.4514 45.8306C82.219 45.7811 86.0259 45.732 89.8202 45.2737L89.5804 43.2882ZM78.4252 43.8308C75.5771 43.8682 72.681 43.9059 69.7656 44.1195L69.9117 46.1142C72.7574 45.9057 75.5938 45.8681 78.4514 45.8306L78.4252 43.8308ZM69.034 45.7106C69.0937 45.7915 69.13 45.8486 69.1617 45.8986L70.8504 44.8271C70.8114 44.7656 70.7453 44.6614 70.6433 44.5231L69.034 45.7106ZM69.1616 45.8985C69.1691 45.9103 69.2198 45.9931 69.2755 46.0627C69.2908 46.0819 69.5673 46.4623 70.0906 46.4623V44.4623C70.3453 44.4623 70.5394 44.5595 70.6564 44.6432C70.7595 44.717 70.8205 44.7923 70.8379 44.8141C70.8675 44.8512 70.8866 44.8842 70.8504 44.8271L69.1616 45.8985ZM70.0574 46.4618C71.518 46.5104 72.973 46.7288 74.4963 46.9586L74.7947 44.981C73.2908 44.7541 71.7205 44.516 70.1239 44.4629L70.0574 46.4618ZM74.4963 46.9586C76.9387 47.3271 79.5569 47.7295 82.2744 47.3088L81.9683 45.3323C79.6012 45.6988 77.2837 45.3565 74.7947 44.981L74.4963 46.9586ZM82.2757 47.3085C83.1677 47.1692 84.113 47.2481 85.2084 47.3454L85.3854 45.3533C84.3372 45.2601 83.1429 45.1488 81.967 45.3325L82.2757 47.3085ZM85.2084 47.3454C85.8306 47.4007 86.5019 47.461 87.1739 47.4654L87.1871 45.4654C86.6111 45.4616 86.0221 45.4099 85.3854 45.3533L85.2084 47.3454ZM87.1805 47.4654H87.1829V45.4654H87.1805V47.4654ZM87.1829 47.4654C97.2886 47.4654 107.386 47.4654 117.476 47.6102L117.504 45.6104C107.398 45.4654 97.2862 45.4654 87.1829 45.4654V47.4654ZM117.474 47.6102C120.743 47.663 124.014 47.8139 127.3 47.9655L127.392 45.9676C124.111 45.8162 120.81 45.6638 117.506 45.6104L117.474 47.6102ZM127.3 47.9655C130.908 48.132 134.534 48.2995 138.156 48.3347L138.175 46.3348C134.596 46.3 131.006 46.1344 127.392 45.9676L127.3 47.9655ZM138.157 48.3347C144.531 48.3892 150.907 48.2516 157.259 48.1146L157.216 46.1151C150.859 46.2522 144.513 46.389 138.174 46.3348L138.157 48.3347ZM157.259 48.1146C158.72 48.0831 160.18 48.0516 161.64 48.0225L161.6 46.0229C160.139 46.0521 158.677 46.0836 157.216 46.1151L157.259 48.1146ZM161.638 48.0225C165.819 47.948 169.997 47.8027 174.174 47.5867L174.071 45.5894C169.917 45.8042 165.76 45.9487 161.602 46.0228L161.638 48.0225ZM174.122 47.588H174.316V45.588H174.122V47.588ZM174.723 47.5014L176.448 46.7324L175.634 44.9056L173.909 45.6747L174.723 47.5014ZM176.889 46.35C176.91 46.3152 176.926 46.2988 176.93 46.2945C176.935 46.2904 176.924 46.3018 176.895 46.316L176.019 44.5182C175.653 44.6964 175.383 44.9863 175.194 45.288L176.889 46.35ZM176.895 46.316C176.864 46.3309 176.819 46.3459 176.762 46.3498C176.705 46.3537 176.652 46.3453 176.609 46.3306L177.256 44.4381C176.839 44.2955 176.403 44.3311 176.019 44.5182L176.895 46.316ZM177.378 46.2799C178.639 45.6533 179.878 44.9648 181.069 44.1798L179.969 42.5098C178.86 43.2404 177.695 43.8894 176.488 44.4887L177.378 46.2799ZM181.132 44.1348C181.12 44.1442 181.077 44.1727 181.003 44.1861C180.927 44.2 180.851 44.1908 180.792 44.1685L181.492 42.2951C180.918 42.0808 180.34 42.2177 179.906 42.5548L181.132 44.1348ZM180.792 44.1685C180.737 44.1482 180.718 44.1253 180.725 44.1331C180.733 44.1409 180.759 44.1705 180.791 44.2336L182.573 43.3253C182.363 42.913 182.014 42.4902 181.492 42.2951L180.792 44.1685ZM182.222 44.6212C184.869 42.9232 186.827 40.2038 188.099 37.2671C189.374 34.3268 189.997 31.0885 189.911 28.2575L187.912 28.3178C187.988 30.8365 187.429 33.7837 186.264 36.4718C185.098 39.1634 183.36 41.5151 181.142 42.9377L182.222 44.6212ZM189.911 28.2577C189.805 24.6998 190.268 21.227 190.747 17.6562L188.765 17.3904C188.289 20.936 187.8 24.5697 187.912 28.3176L189.911 28.2577ZM190.747 17.6562C191.113 14.9255 191.488 12.1363 191.591 9.28791L189.592 9.2155C189.493 11.9509 189.133 14.6443 188.765 17.3904L190.747 17.6562ZM190.429 8.26497C189.829 8.36382 189.251 8.58315 188.711 8.90504L189.733 10.6237C190.079 10.418 190.421 10.2932 190.754 10.2384L190.429 8.26497ZM188.397 10.3301C188.523 10.5124 188.641 10.7295 188.747 10.9796L190.588 10.1986C190.436 9.83994 190.256 9.50327 190.047 9.19863L188.397 10.3301ZM188.716 10.8957C188.766 11.0514 188.783 11.1656 188.784 11.2389C188.786 11.3123 188.773 11.3213 188.786 11.293C188.804 11.2552 188.839 11.2146 188.879 11.1915C188.911 11.1732 188.901 11.1912 188.809 11.1948L188.886 13.1933C189.596 13.1659 190.268 12.8442 190.597 12.1421C190.884 11.5293 190.801 10.8443 190.62 10.2826L188.716 10.8957ZM188.726 11.2014C187.398 11.3639 186.109 11.8389 184.895 12.5929L185.951 14.2917C186.943 13.6753 187.958 13.3103 188.969 13.1866L188.726 11.2014ZM184.89 12.5961C184.229 13.0123 183.552 12.9968 182.874 12.5082L181.705 14.1312C183.023 15.0806 184.584 15.1526 185.956 14.2884L184.89 12.5961ZM182.954 12.5729C182.518 12.1847 181.978 11.9214 181.372 11.8936L181.28 13.8914C181.345 13.8944 181.463 13.9233 181.624 14.0664L182.954 12.5729ZM181.372 11.8936C180.762 11.8655 180.201 12.0807 179.737 12.4409L180.964 14.0201C181.113 13.9045 181.218 13.8886 181.28 13.8914L181.372 11.8936ZM179.763 12.4212C179.132 12.8798 178.507 13.0255 177.921 12.9336L177.611 14.9094C178.789 15.0942 179.939 14.7653 180.938 14.0398L179.763 12.4212ZM177.931 12.9351C177.494 12.8624 177.058 12.9092 176.647 13.0631L177.348 14.936C177.442 14.9008 177.524 14.8949 177.602 14.9079L177.931 12.9351ZM176.514 13.1244C175.215 13.8423 173.817 13.8308 172.107 13.7917L172.061 15.7912C173.692 15.8285 175.639 15.8934 177.481 14.8747L176.514 13.1244ZM172.107 13.7917C171.637 13.781 171.141 13.7695 170.645 13.7799L170.686 15.7795C171.132 15.7702 171.583 15.7803 172.061 15.7912L172.107 13.7917ZM170.643 13.7799C166.438 13.8733 162.248 14.141 158.083 14.407L158.21 16.4029C162.383 16.1365 166.531 15.8717 170.688 15.7795L170.643 13.7799ZM158.083 14.407C155.476 14.5734 152.879 14.7392 150.281 14.8628L150.376 16.8605C152.993 16.7361 155.606 16.5692 158.21 16.4029L158.083 14.407Z" fill="white" mask="url(#path-2-outside-1)"/>
<path d="M66.7217 29.6426C66.7217 29.1445 66.5459 28.7637 66.1943 28.5C65.8428 28.2305 65.21 27.9492 64.2959 27.6562C63.3818 27.3574 62.6582 27.0645 62.125 26.7773C60.6719 25.9922 59.9453 24.9346 59.9453 23.6045C59.9453 22.9131 60.1387 22.2979 60.5254 21.7588C60.918 21.2139 61.4775 20.7891 62.2041 20.4844C62.9365 20.1797 63.7568 20.0273 64.665 20.0273C65.5791 20.0273 66.3936 20.1943 67.1084 20.5283C67.8232 20.8564 68.377 21.3223 68.7695 21.9258C69.168 22.5293 69.3672 23.2148 69.3672 23.9824H66.7305C66.7305 23.3965 66.5459 22.9424 66.1768 22.6201C65.8076 22.292 65.2891 22.1279 64.6211 22.1279C63.9766 22.1279 63.4756 22.2656 63.1182 22.541C62.7607 22.8105 62.582 23.168 62.582 23.6133C62.582 24.0293 62.79 24.3779 63.2061 24.6592C63.6279 24.9404 64.2461 25.2041 65.0605 25.4502C66.5605 25.9014 67.6533 26.4609 68.3389 27.1289C69.0244 27.7969 69.3672 28.6289 69.3672 29.625C69.3672 30.7324 68.9482 31.6025 68.1104 32.2354C67.2725 32.8623 66.1445 33.1758 64.7266 33.1758C63.7422 33.1758 62.8457 32.9971 62.0371 32.6396C61.2285 32.2764 60.6104 31.7812 60.1826 31.1543C59.7607 30.5273 59.5498 29.8008 59.5498 28.9746H62.1953C62.1953 30.3867 63.0391 31.0928 64.7266 31.0928C65.3535 31.0928 65.8428 30.9668 66.1943 30.7148C66.5459 30.457 66.7217 30.0996 66.7217 29.6426ZM78.8594 27.4541H73.7969V30.8818H79.7383V33H71.1602V20.2031H79.7207V22.3389H73.7969V25.3887H78.8594V27.4541ZM91.0938 22.3389H87.1738V33H84.5371V22.3389H80.6699V20.2031H91.0938V22.3389ZM102.379 22.3389H98.459V33H95.8223V22.3389H91.9551V20.2031H102.379V22.3389ZM106.694 33H104.058V20.2031H106.694V33ZM119.553 33H116.916L111.783 24.5801V33H109.146V20.2031H111.783L116.925 28.6406V20.2031H119.553V33ZM131.98 31.3828C131.506 31.9512 130.835 32.3936 129.968 32.71C129.101 33.0205 128.14 33.1758 127.085 33.1758C125.978 33.1758 125.005 32.9355 124.167 32.4551C123.335 31.9688 122.69 31.2656 122.233 30.3457C121.782 29.4258 121.551 28.3447 121.539 27.1025V26.2324C121.539 24.9551 121.753 23.8506 122.181 22.9189C122.614 21.9814 123.235 21.2666 124.044 20.7744C124.858 20.2764 125.811 20.0273 126.9 20.0273C128.418 20.0273 129.604 20.3906 130.46 21.1172C131.315 21.8379 131.822 22.8896 131.98 24.2725H129.414C129.297 23.54 129.036 23.0039 128.632 22.6641C128.233 22.3242 127.683 22.1543 126.979 22.1543C126.083 22.1543 125.4 22.4912 124.932 23.165C124.463 23.8389 124.226 24.8408 124.22 26.1709V26.9883C124.22 28.3301 124.475 29.3438 124.984 30.0293C125.494 30.7148 126.241 31.0576 127.226 31.0576C128.216 31.0576 128.922 30.8467 129.344 30.4248V28.2188H126.944V26.2764H131.98V31.3828ZM140.761 29.6426C140.761 29.1445 140.585 28.7637 140.233 28.5C139.882 28.2305 139.249 27.9492 138.335 27.6562C137.421 27.3574 136.697 27.0645 136.164 26.7773C134.711 25.9922 133.984 24.9346 133.984 23.6045C133.984 22.9131 134.178 22.2979 134.564 21.7588C134.957 21.2139 135.517 20.7891 136.243 20.4844C136.976 20.1797 137.796 20.0273 138.704 20.0273C139.618 20.0273 140.433 20.1943 141.147 20.5283C141.862 20.8564 142.416 21.3223 142.809 21.9258C143.207 22.5293 143.406 23.2148 143.406 23.9824H140.77C140.77 23.3965 140.585 22.9424 140.216 22.6201C139.847 22.292 139.328 22.1279 138.66 22.1279C138.016 22.1279 137.515 22.2656 137.157 22.541C136.8 22.8105 136.621 23.168 136.621 23.6133C136.621 24.0293 136.829 24.3779 137.245 24.6592C137.667 24.9404 138.285 25.2041 139.1 25.4502C140.6 25.9014 141.692 26.4609 142.378 27.1289C143.063 27.7969 143.406 28.6289 143.406 29.625C143.406 30.7324 142.987 31.6025 142.149 32.2354C141.312 32.8623 140.184 33.1758 138.766 33.1758C137.781 33.1758 136.885 32.9971 136.076 32.6396C135.268 32.2764 134.649 31.7812 134.222 31.1543C133.8 30.5273 133.589 29.8008 133.589 28.9746H136.234C136.234 30.3867 137.078 31.0928 138.766 31.0928C139.393 31.0928 139.882 30.9668 140.233 30.7148C140.585 30.457 140.761 30.0996 140.761 29.6426Z" fill="white"/>
</svg>
