<svg width="200" height="53" viewBox="0 0 200 53" fill="none" xmlns="http://www.w3.org/2000/svg">
<path fill-rule="evenodd" clip-rule="evenodd" d="M155.162 11.9437C154.008 11.9683 152.855 11.9919 151.701 12.0132C151.237 12.0681 150.773 11.9421 150.334 11.6423C150.631 11.388 150.943 11.206 151.262 11.1002C154.14 10.8148 157.033 10.5723 159.94 10.3726C163.579 10.0993 167.221 9.84142 170.863 9.58354C173.305 9.4106 175.747 9.23767 178.187 9.06015C179.282 9.09559 180.372 8.78744 181.418 8.14714V7.5337C181.209 7.50216 181 7.4621 180.791 7.42203C180.338 7.33521 179.885 7.24839 179.432 7.24839C176.397 7.37548 173.36 7.09428 170.344 6.40671C169.14 6.27464 167.932 6.42788 166.747 6.8632C166.045 7.09572 165.35 7.41011 164.667 7.80475C162.789 4.56641 160.048 4.36668 157.126 4.40948C154.441 4.40948 151.755 4.3735 149.07 4.33751C146.682 4.30553 144.295 4.27355 141.908 4.26683C140.427 4.26683 138.946 4.30989 137.464 4.35294C136.118 4.39208 134.771 4.43122 133.425 4.43802H113.831C113.33 4.41352 112.832 4.24042 112.356 3.92445C116.513 3.34745 120.693 3.28433 124.898 3.22081C128.075 3.17283 131.267 3.12463 134.475 2.85451C134.385 2.71422 134.328 2.61098 134.289 2.53971C134.24 2.45153 134.218 2.41227 134.195 2.41227C132.492 2.34716 130.808 2.05502 129.122 1.76272C126.376 1.28654 123.628 0.809935 120.797 1.3138C119.645 1.52051 118.454 1.39882 117.26 1.2769C116.559 1.20529 115.857 1.13361 115.163 1.12834H115.16C103.907 1.12834 92.6545 1.12834 81.4089 0.942895C77.7492 0.874956 74.0895 0.680833 70.4329 0.486874C66.4114 0.273555 62.3935 0.0604352 58.3836 0.0156033C51.3047 -0.0539909 44.221 0.121614 37.1442 0.297049C35.5171 0.337384 33.8904 0.37771 32.2642 0.415045C27.6208 0.51015 22.9798 0.695605 18.3411 0.971411H18.1252L16.2041 1.95576C16.0724 2.19719 15.9138 2.37346 15.7413 2.47015C15.5687 2.56685 15.387 2.58123 15.2111 2.51212C13.8368 3.29674 12.4984 4.15269 11.2177 5.12277C11.0001 5.31681 10.757 5.36749 10.5239 5.26735C10.2908 5.16722 10.08 4.92153 9.92247 4.5664C4.50433 8.56083 1.69092 17.5483 1.87081 24.3959C1.99279 29.0716 1.46221 33.6198 0.930895 38.1743C0.521993 41.6794 0.112655 45.1883 0 48.7619C0.519781 48.6636 1.03184 48.4433 1.52542 48.1057C1.33941 47.7941 1.17275 47.4397 1.02894 47.05C0.705146 45.8945 0.978574 45.0385 1.94276 44.9957C3.24491 44.8126 4.52814 44.275 5.75633 43.398C6.88817 42.5786 8.13417 42.6346 9.24611 43.5549C9.57835 43.895 9.94505 44.0819 10.3188 44.1017C10.6926 44.1214 11.0638 43.9736 11.4047 43.669C12.3131 42.9112 13.3015 42.6075 14.2829 42.7846C14.5692 42.8394 14.8581 42.8057 15.1392 42.6847C16.8882 41.5732 18.7509 41.6221 20.6114 41.671C21.1388 41.6848 21.6662 41.6987 22.1907 41.6861C26.8464 41.5673 31.4895 41.2265 36.132 40.8858C39.0332 40.6728 41.9342 40.4599 44.8379 40.3012C45.9918 40.2766 47.1455 40.253 48.2991 40.2317C48.7626 40.1768 49.2271 40.3028 49.6662 40.6026C49.3689 40.8569 49.0573 41.0389 48.738 41.1447C45.8598 41.4301 42.9672 41.6726 40.0603 41.8723C36.421 42.1455 32.7791 42.4035 29.1377 42.6613C26.6955 42.8343 24.2535 43.0072 21.8127 43.1847C20.7183 43.1493 19.6279 43.4575 18.582 44.0978V44.7112C18.791 44.7427 19.0001 44.7828 19.2091 44.8229C19.662 44.9097 20.115 44.9965 20.5679 44.9965C23.6033 44.8694 26.6395 45.1506 29.6557 45.8382C30.8599 45.9703 32.0676 45.817 33.2534 45.3817C33.9553 45.1492 34.6497 44.8348 35.3329 44.4401C37.2109 47.6785 39.9524 47.8782 42.8737 47.8354C45.5593 47.8354 48.2449 47.8714 50.9305 47.9074C53.3177 47.9394 55.7048 47.9713 58.092 47.9781C59.5732 47.9781 61.0545 47.935 62.5357 47.8919C63.8823 47.8528 65.2288 47.8137 66.5754 47.8069H86.1685C86.6704 47.8314 87.1675 48.0045 87.6436 48.3204C83.4872 48.8974 79.3075 48.9606 75.1018 49.0241C71.9247 49.0721 68.7328 49.1203 65.5249 49.3904C65.615 49.5307 65.6719 49.6339 65.7113 49.7052C65.7599 49.7934 65.7816 49.8326 65.8055 49.8326C67.5078 49.8977 69.1924 50.1899 70.8779 50.4822C73.6238 50.9584 76.3722 51.435 79.2034 50.9311C80.3548 50.7244 81.5462 50.8461 82.7397 50.968C83.4407 51.0396 84.1425 51.1113 84.8374 51.1166H84.8394C96.0924 51.1166 107.345 51.1166 118.591 51.302C122.251 51.3699 125.91 51.5641 129.567 51.758C133.589 51.9713 137.606 52.1845 141.616 52.2293C148.695 52.2989 155.779 52.1233 162.856 51.9478C164.483 51.9075 166.11 51.8672 167.736 51.8299C172.379 51.7347 177.02 51.5493 181.659 51.2735H181.875L183.796 50.2891C183.928 50.0477 184.086 49.8714 184.259 49.7747C184.431 49.6781 184.613 49.6637 184.789 49.7328C186.163 48.9482 187.502 48.0922 188.782 47.1221C189 46.9281 189.243 46.8774 189.476 46.9775C189.709 47.0777 189.92 47.3234 190.078 47.6785C195.496 43.6841 198.309 34.6966 198.129 27.849C198.007 23.1732 198.538 18.6251 199.069 14.0706C199.478 10.5655 199.887 7.05661 200 3.48299C199.48 3.5813 198.968 3.80157 198.475 4.13921C198.661 4.45084 198.827 4.80523 198.971 5.19489C199.295 6.35042 199.021 7.20637 198.057 7.24917C196.755 7.43232 195.472 7.96995 194.244 8.84693C193.112 9.66633 191.866 9.6103 190.754 8.69001C190.422 8.34989 190.055 8.16298 189.681 8.14322C189.307 8.12346 188.936 8.27135 188.595 8.57588C187.687 9.33369 186.699 9.63741 185.717 9.46035C185.431 9.40553 185.142 9.43923 184.861 9.56022C183.112 10.6717 181.249 10.6228 179.389 10.5739C178.861 10.5601 178.334 10.5462 177.809 10.5588C173.154 10.6776 168.51 11.0184 163.868 11.3591C160.967 11.5721 158.066 11.785 155.162 11.9437Z" fill="#20552A"/>
<mask id="path-2-outside-1" maskUnits="userSpaceOnUse" x="9.42859" y="5.53064" width="183" height="43" fill="black">
<rect fill="white" x="9.42859" y="5.53064" width="183" height="43"/>
<path fill-rule="evenodd" clip-rule="evenodd" d="M150.757 15.8617C149.721 15.8809 148.685 15.8993 147.65 15.9159C147.234 15.9589 146.816 15.8604 146.422 15.6262C146.689 15.4275 146.969 15.2853 147.256 15.2026C149.84 14.9797 152.438 14.7903 155.048 14.6342C158.316 14.4208 161.586 14.2193 164.856 14.0178C167.049 13.8827 169.242 13.7476 171.433 13.6089C172.416 13.6366 173.395 13.3958 174.335 12.8956V12.4163C174.147 12.3917 173.959 12.3604 173.771 12.3291C173.365 12.2613 172.958 12.1934 172.551 12.1934C169.826 12.2927 167.099 12.073 164.391 11.5359C163.31 11.4327 162.225 11.5524 161.16 11.8925C160.53 12.0742 159.906 12.3198 159.293 12.6281C157.607 10.0981 155.145 9.94211 152.522 9.97554C150.11 9.97554 147.698 9.94743 145.287 9.91932C143.143 9.89434 141 9.86935 138.856 9.8641C137.526 9.8641 136.196 9.89774 134.866 9.93138C133.657 9.96195 132.448 9.99253 131.238 9.99784H113.645C113.194 9.9787 112.748 9.84346 112.32 9.59661C116.052 9.14583 119.806 9.09652 123.582 9.0469C126.435 9.00941 129.301 8.97176 132.182 8.76073C132.101 8.65112 132.05 8.57046 132.014 8.51478C131.971 8.4459 131.951 8.41523 131.93 8.41523C130.401 8.36436 128.888 8.13612 127.375 7.90777C124.909 7.53575 122.441 7.1634 119.899 7.55704C118.865 7.71854 117.795 7.62346 116.723 7.52822C116.094 7.47228 115.464 7.41628 114.84 7.41215H114.838C104.733 7.41215 94.6285 7.41215 84.5305 7.26728C81.2442 7.2142 77.958 7.06254 74.6745 6.91101C71.0633 6.74435 67.4554 6.57785 63.8547 6.54283C57.4981 6.48846 51.1373 6.62565 44.7826 6.76271C43.3215 6.79422 41.8608 6.82573 40.4006 6.85489C36.2309 6.92919 32.0635 7.07408 27.8982 7.28955H27.7043L25.9792 8.05857C25.861 8.2472 25.7186 8.3849 25.5636 8.46045C25.4086 8.53599 25.2455 8.54723 25.0875 8.49323C23.8535 9.10622 22.6517 9.77493 21.5016 10.5328C21.3063 10.6844 21.0879 10.724 20.8786 10.6458C20.6693 10.5675 20.48 10.3756 20.3386 10.0981C15.4733 13.2188 12.947 20.2403 13.1085 25.5899C13.218 29.2429 12.7416 32.7961 12.2645 36.3543C11.8973 39.0927 11.5297 41.834 11.4286 44.6259C11.8953 44.5491 12.3551 44.377 12.7984 44.1132C12.6313 43.8697 12.4817 43.5929 12.3525 43.2885C12.0618 42.3857 12.3073 41.717 13.1731 41.6836C14.3424 41.5405 15.4947 41.1204 16.5975 40.4353C17.6139 39.7951 18.7327 39.8389 19.7312 40.5579C20.0296 40.8236 20.3588 40.9696 20.6945 40.9851C21.0301 41.0005 21.3634 40.885 21.6696 40.6471C22.4852 40.055 23.3728 39.8177 24.2541 39.9561C24.5111 39.9989 24.7705 39.9726 25.0229 39.878C26.5935 39.0097 28.2661 39.0479 29.9367 39.0861C30.4104 39.0969 30.8839 39.1077 31.3549 39.0979C35.5356 39.0051 39.7049 38.7388 43.8737 38.4726C46.4791 38.3063 49.0844 38.1399 51.6921 38.0159C52.7279 37.9967 53.7636 37.9783 54.7991 37.9617C55.2154 37.9187 55.6325 38.0171 56.0268 38.2514C55.7598 38.45 55.48 38.5922 55.1933 38.6749C52.6088 38.8978 50.0114 39.0873 47.4011 39.2433C44.1331 39.4568 40.8628 39.6583 37.5929 39.8598C35.4 39.9949 33.2072 40.13 31.0155 40.2687C30.0327 40.241 29.0536 40.4817 28.1144 40.982V41.4612C28.3021 41.4859 28.4898 41.5172 28.6775 41.5485C29.0843 41.6163 29.491 41.6841 29.8977 41.6841C32.6234 41.5848 35.3498 41.8045 38.0582 42.3417C39.1395 42.4449 40.224 42.3252 41.2888 41.9851C41.9191 41.8034 42.5426 41.5578 43.1561 41.2495C44.8424 43.7794 47.3042 43.9355 49.9274 43.902C52.3389 43.902 54.7504 43.9301 57.162 43.9582C59.3056 43.9832 61.4492 44.0082 63.5928 44.0135C64.9229 44.0135 66.253 43.9798 67.5831 43.9462C68.7923 43.9156 70.0014 43.885 71.2106 43.8797H88.8044C89.255 43.8989 89.7015 44.0341 90.1289 44.281C86.3967 44.7317 82.6435 44.7811 78.8669 44.8307C76.014 44.8682 73.1478 44.9058 70.2672 45.1168C70.3481 45.2265 70.3993 45.3071 70.4346 45.3628C70.4783 45.4317 70.4978 45.4623 70.5192 45.4623C72.0478 45.5132 73.5605 45.7414 75.0741 45.9698C77.5398 46.3418 80.0077 46.7142 82.5499 46.3205C83.5839 46.159 84.6537 46.2541 85.7255 46.3494C86.355 46.4053 86.9851 46.4613 87.6091 46.4654H87.6115C97.716 46.4654 107.82 46.4654 117.918 46.6103C121.205 46.6634 124.491 46.815 127.774 46.9666C131.386 47.1332 134.994 47.2997 138.594 47.3347C144.951 47.3891 151.312 47.2519 157.666 47.1149C159.127 47.0834 160.588 47.0519 162.048 47.0227C166.218 46.9484 170.386 46.8035 174.551 46.588H174.745L176.47 45.819C176.588 45.6304 176.73 45.4927 176.885 45.4171C177.04 45.3416 177.203 45.3304 177.361 45.3843C178.596 44.7714 179.797 44.1026 180.947 43.3448C181.143 43.1932 181.361 43.1536 181.57 43.2318C181.78 43.3101 181.969 43.502 182.11 43.7794C186.976 40.6588 189.502 33.6373 189.34 28.2876C189.231 24.6347 189.707 21.0815 190.184 17.5233C190.552 14.7849 190.919 12.0436 191.02 9.2517C190.554 9.32851 190.094 9.50059 189.651 9.76437C189.818 10.0078 189.967 10.2847 190.096 10.5891C190.387 11.4919 190.142 12.1606 189.276 12.194C188.107 12.3371 186.954 12.7571 185.851 13.4423C184.835 14.0824 183.716 14.0387 182.718 13.3197C182.419 13.054 182.09 12.9079 181.755 12.8925C181.419 12.8771 181.086 12.9926 180.779 13.2305C179.964 13.8226 179.076 14.0598 178.195 13.9215C177.938 13.8787 177.678 13.905 177.426 13.9995C175.855 14.8679 174.183 14.8297 172.512 14.7915C172.039 14.7807 171.565 14.7698 171.094 14.7797C166.913 14.8725 162.744 15.1387 158.575 15.4049C155.97 15.5713 153.365 15.7377 150.757 15.8617Z"/>
</mask>
<path fill-rule="evenodd" clip-rule="evenodd" d="M150.757 15.8617C149.721 15.8809 148.685 15.8993 147.65 15.9159C147.234 15.9589 146.816 15.8604 146.422 15.6262C146.689 15.4275 146.969 15.2853 147.256 15.2026C149.84 14.9797 152.438 14.7903 155.048 14.6342C158.316 14.4208 161.586 14.2193 164.856 14.0178C167.049 13.8827 169.242 13.7476 171.433 13.6089C172.416 13.6366 173.395 13.3958 174.335 12.8956V12.4163C174.147 12.3917 173.959 12.3604 173.771 12.3291C173.365 12.2613 172.958 12.1934 172.551 12.1934C169.826 12.2927 167.099 12.073 164.391 11.5359C163.31 11.4327 162.225 11.5524 161.16 11.8925C160.53 12.0742 159.906 12.3198 159.293 12.6281C157.607 10.0981 155.145 9.94211 152.522 9.97554C150.11 9.97554 147.698 9.94743 145.287 9.91932C143.143 9.89434 141 9.86935 138.856 9.8641C137.526 9.8641 136.196 9.89774 134.866 9.93138C133.657 9.96195 132.448 9.99253 131.238 9.99784H113.645C113.194 9.9787 112.748 9.84346 112.32 9.59661C116.052 9.14583 119.806 9.09652 123.582 9.0469C126.435 9.00941 129.301 8.97176 132.182 8.76073C132.101 8.65112 132.05 8.57046 132.014 8.51478C131.971 8.4459 131.951 8.41523 131.93 8.41523C130.401 8.36436 128.888 8.13612 127.375 7.90777C124.909 7.53575 122.441 7.1634 119.899 7.55704C118.865 7.71854 117.795 7.62346 116.723 7.52822C116.094 7.47228 115.464 7.41628 114.84 7.41215H114.838C104.733 7.41215 94.6285 7.41215 84.5305 7.26728C81.2442 7.2142 77.958 7.06254 74.6745 6.91101C71.0633 6.74435 67.4554 6.57785 63.8547 6.54283C57.4981 6.48846 51.1373 6.62565 44.7826 6.76271C43.3215 6.79422 41.8608 6.82573 40.4006 6.85489C36.2309 6.92919 32.0635 7.07408 27.8982 7.28955H27.7043L25.9792 8.05857C25.861 8.2472 25.7186 8.3849 25.5636 8.46045C25.4086 8.53599 25.2455 8.54723 25.0875 8.49323C23.8535 9.10622 22.6517 9.77493 21.5016 10.5328C21.3063 10.6844 21.0879 10.724 20.8786 10.6458C20.6693 10.5675 20.48 10.3756 20.3386 10.0981C15.4733 13.2188 12.947 20.2403 13.1085 25.5899C13.218 29.2429 12.7416 32.7961 12.2645 36.3543C11.8973 39.0927 11.5297 41.834 11.4286 44.6259C11.8953 44.5491 12.3551 44.377 12.7984 44.1132C12.6313 43.8697 12.4817 43.5929 12.3525 43.2885C12.0618 42.3857 12.3073 41.717 13.1731 41.6836C14.3424 41.5405 15.4947 41.1204 16.5975 40.4353C17.6139 39.7951 18.7327 39.8389 19.7312 40.5579C20.0296 40.8236 20.3588 40.9696 20.6945 40.9851C21.0301 41.0005 21.3634 40.885 21.6696 40.6471C22.4852 40.055 23.3728 39.8177 24.2541 39.9561C24.5111 39.9989 24.7705 39.9726 25.0229 39.878C26.5935 39.0097 28.2661 39.0479 29.9367 39.0861C30.4104 39.0969 30.8839 39.1077 31.3549 39.0979C35.5356 39.0051 39.7049 38.7388 43.8737 38.4726C46.4791 38.3063 49.0844 38.1399 51.6921 38.0159C52.7279 37.9967 53.7636 37.9783 54.7991 37.9617C55.2154 37.9187 55.6325 38.0171 56.0268 38.2514C55.7598 38.45 55.48 38.5922 55.1933 38.6749C52.6088 38.8978 50.0114 39.0873 47.4011 39.2433C44.1331 39.4568 40.8628 39.6583 37.5929 39.8598C35.4 39.9949 33.2072 40.13 31.0155 40.2687C30.0327 40.241 29.0536 40.4817 28.1144 40.982V41.4612C28.3021 41.4859 28.4898 41.5172 28.6775 41.5485C29.0843 41.6163 29.491 41.6841 29.8977 41.6841C32.6234 41.5848 35.3498 41.8045 38.0582 42.3417C39.1395 42.4449 40.224 42.3252 41.2888 41.9851C41.9191 41.8034 42.5426 41.5578 43.1561 41.2495C44.8424 43.7794 47.3042 43.9355 49.9274 43.902C52.3389 43.902 54.7504 43.9301 57.162 43.9582C59.3056 43.9832 61.4492 44.0082 63.5928 44.0135C64.9229 44.0135 66.253 43.9798 67.5831 43.9462C68.7923 43.9156 70.0014 43.885 71.2106 43.8797H88.8044C89.255 43.8989 89.7015 44.0341 90.1289 44.281C86.3967 44.7317 82.6435 44.7811 78.8669 44.8307C76.014 44.8682 73.1478 44.9058 70.2672 45.1168C70.3481 45.2265 70.3993 45.3071 70.4346 45.3628C70.4783 45.4317 70.4978 45.4623 70.5192 45.4623C72.0478 45.5132 73.5605 45.7414 75.0741 45.9698C77.5398 46.3418 80.0077 46.7142 82.5499 46.3205C83.5839 46.159 84.6537 46.2541 85.7255 46.3494C86.355 46.4053 86.9851 46.4613 87.6091 46.4654H87.6115C97.716 46.4654 107.82 46.4654 117.918 46.6103C121.205 46.6634 124.491 46.815 127.774 46.9666C131.386 47.1332 134.994 47.2997 138.594 47.3347C144.951 47.3891 151.312 47.2519 157.666 47.1149C159.127 47.0834 160.588 47.0519 162.048 47.0227C166.218 46.9484 170.386 46.8035 174.551 46.588H174.745L176.47 45.819C176.588 45.6304 176.73 45.4927 176.885 45.4171C177.04 45.3416 177.203 45.3304 177.361 45.3843C178.596 44.7714 179.797 44.1026 180.947 43.3448C181.143 43.1932 181.361 43.1536 181.57 43.2318C181.78 43.3101 181.969 43.502 182.11 43.7794C186.976 40.6588 189.502 33.6373 189.34 28.2876C189.231 24.6347 189.707 21.0815 190.184 17.5233C190.552 14.7849 190.919 12.0436 191.02 9.2517C190.554 9.32851 190.094 9.50059 189.651 9.76437C189.818 10.0078 189.967 10.2847 190.096 10.5891C190.387 11.4919 190.142 12.1606 189.276 12.194C188.107 12.3371 186.954 12.7571 185.851 13.4423C184.835 14.0824 183.716 14.0387 182.718 13.3197C182.419 13.054 182.09 12.9079 181.755 12.8925C181.419 12.8771 181.086 12.9926 180.779 13.2305C179.964 13.8226 179.076 14.0598 178.195 13.9215C177.938 13.8787 177.678 13.905 177.426 13.9995C175.855 14.8679 174.183 14.8297 172.512 14.7915C172.039 14.7807 171.565 14.7698 171.094 14.7797C166.913 14.8725 162.744 15.1387 158.575 15.4049C155.97 15.5713 153.365 15.7377 150.757 15.8617Z" fill="#2DC29F"/>
<path d="M150.757 15.8617L150.776 16.8615L150.79 16.8612L150.805 16.8605L150.757 15.8617ZM147.65 15.9159L147.634 14.9161L147.59 14.9167L147.547 14.9212L147.65 15.9159ZM146.422 15.6262L145.825 14.8239L144.622 15.7195L145.911 16.4858L146.422 15.6262ZM147.256 15.2026L147.17 14.2063L147.072 14.2147L146.979 14.2418L147.256 15.2026ZM155.048 14.6342L155.108 15.6325L155.113 15.6321L155.048 14.6342ZM164.856 14.0178L164.795 13.0197L164.856 14.0178ZM171.433 13.6089L171.462 12.6093L171.416 12.608L171.37 12.6109L171.433 13.6089ZM174.335 12.8956L174.805 13.7782L175.335 13.496V12.8956H174.335ZM174.335 12.4163H175.335V11.539L174.465 11.4248L174.335 12.4163ZM173.771 12.3291L173.936 11.3427V11.3427L173.771 12.3291ZM172.551 12.1934V11.1934H172.533L172.515 11.1941L172.551 12.1934ZM164.391 11.5359L164.585 10.555L164.536 10.5452L164.486 10.5404L164.391 11.5359ZM161.16 11.8925L161.437 12.8534L161.451 12.8495L161.464 12.8451L161.16 11.8925ZM159.293 12.6281L158.461 13.1827L158.951 13.9189L159.742 13.5216L159.293 12.6281ZM152.522 9.97554V10.9756L152.534 10.9755L152.522 9.97554ZM145.287 9.91932L145.299 8.91939L145.287 9.91932ZM138.856 9.8641L138.859 8.8641H138.856V9.8641ZM134.866 9.93138L134.841 8.9317L134.866 9.93138ZM131.238 9.99784V10.9978L131.243 10.9978L131.238 9.99784ZM113.645 9.99784L113.602 10.9969L113.623 10.9978H113.645V9.99784ZM112.32 9.59661L112.2 8.60383L109.224 8.96331L111.82 10.4626L112.32 9.59661ZM123.582 9.0469L123.595 10.0468L123.582 9.0469ZM132.182 8.76073L132.255 9.75805L134.063 9.62561L132.986 8.16702L132.182 8.76073ZM132.014 8.51478L131.17 9.05051L131.17 9.05054L132.014 8.51478ZM131.93 8.41523L131.897 9.41467L131.913 9.41523H131.93V8.41523ZM127.375 7.90777L127.524 6.91896V6.91896L127.375 7.90777ZM119.899 7.55704L119.746 6.56882L119.745 6.56902L119.899 7.55704ZM116.723 7.52822L116.635 8.52429L116.723 7.52822ZM114.84 7.41215L114.847 6.41215H114.84V7.41215ZM84.5305 7.26728L84.5143 8.26715L84.5162 8.26717L84.5305 7.26728ZM74.6745 6.91101L74.6284 7.90995L74.6745 6.91101ZM63.8547 6.54283L63.8644 5.54288L63.8632 5.54287L63.8547 6.54283ZM44.7826 6.76271L44.761 5.76294L44.7826 6.76271ZM40.4006 6.85489L40.4184 7.85474L40.4205 7.85469L40.4006 6.85489ZM27.8982 7.28955V8.28955H27.924L27.9498 8.28822L27.8982 7.28955ZM27.7043 7.28955V6.28955H27.4915L27.2972 6.37619L27.7043 7.28955ZM25.9792 8.05857L25.572 7.14521L25.2937 7.26929L25.1318 7.52752L25.9792 8.05857ZM25.5636 8.46045L26.0018 9.35933L26.0018 9.35933L25.5636 8.46045ZM25.0875 8.49323L25.411 7.54698L25.0163 7.41207L24.6427 7.59763L25.0875 8.49323ZM21.5016 10.5328L20.9513 9.6978L20.919 9.71909L20.8885 9.74281L21.5016 10.5328ZM20.3386 10.0981L21.2295 9.64399L20.728 8.6603L19.7987 9.25641L20.3386 10.0981ZM13.1085 25.5899L14.108 25.56L14.108 25.5598L13.1085 25.5899ZM12.2645 36.3543L13.2556 36.4872L12.2645 36.3543ZM11.4286 44.6259L10.4292 44.5897L10.385 45.8111L11.591 45.6126L11.4286 44.6259ZM12.7984 44.1132L13.3098 44.9725L14.2264 44.427L13.623 43.5475L12.7984 44.1132ZM12.3525 43.2885L11.4007 43.595L11.4144 43.6377L11.4319 43.679L12.3525 43.2885ZM13.1731 41.6836L13.2117 42.6828L13.2533 42.6812L13.2946 42.6762L13.1731 41.6836ZM16.5975 40.4353L17.1253 41.2847L17.1305 41.2814L16.5975 40.4353ZM19.7312 40.5579L20.3963 39.8111L20.3576 39.7767L20.3156 39.7464L19.7312 40.5579ZM20.6945 40.9851L20.7404 39.9861H20.7404L20.6945 40.9851ZM21.6696 40.6471L21.0822 39.8378L21.0689 39.8474L21.0559 39.8575L21.6696 40.6471ZM24.2541 39.9561L24.4184 38.9696L24.4091 38.9682L24.2541 39.9561ZM25.0229 39.878L25.3736 40.8145L25.4425 40.7888L25.5068 40.7532L25.0229 39.878ZM29.9367 39.0861L29.9596 38.0863H29.9596L29.9367 39.0861ZM31.3549 39.0979L31.3758 40.0977L31.3771 40.0976L31.3549 39.0979ZM43.8737 38.4726L43.8099 37.4747L43.8737 38.4726ZM51.6921 38.0159L51.6735 37.0161L51.6591 37.0163L51.6446 37.017L51.6921 38.0159ZM54.7991 37.9617L54.8152 38.9615L54.8586 38.9608L54.9018 38.9564L54.7991 37.9617ZM56.0268 38.2514L56.6237 39.0537L57.8273 38.1581L56.5376 37.3917L56.0268 38.2514ZM55.1933 38.6749L55.2792 39.6712L55.3765 39.6628L55.4704 39.6358L55.1933 38.6749ZM47.4011 39.2433L47.3414 38.2451L47.3359 38.2455L47.4011 39.2433ZM37.5929 39.8598L37.6544 40.8579L37.5929 39.8598ZM31.0155 40.2687L30.9873 41.2683L31.033 41.2696L31.0787 41.2667L31.0155 40.2687ZM28.1144 40.982L27.6443 40.0994L27.1144 40.3816V40.982H28.1144ZM28.1144 41.4612H27.1144V42.3386L27.9843 42.4527L28.1144 41.4612ZM28.6775 41.5485L28.513 42.5349L28.6775 41.5485ZM29.8977 41.6841V42.6841H29.9159L29.9341 42.6835L29.8977 41.6841ZM38.0582 42.3417L37.8637 43.3226L37.9131 43.3324L37.9632 43.3372L38.0582 42.3417ZM41.2888 41.9851L41.0119 41.0242L40.9981 41.0281L40.9845 41.0325L41.2888 41.9851ZM43.1561 41.2495L43.9882 40.6948L43.4975 39.9587L42.707 40.356L43.1561 41.2495ZM49.9274 43.902V42.9019L49.9147 42.9021L49.9274 43.902ZM57.162 43.9582L57.1736 42.9583L57.162 43.9582ZM63.5928 44.0135L63.5904 45.0135H63.5928V44.0135ZM67.5831 43.9462L67.5578 42.9465L67.5831 43.9462ZM71.2106 43.8797V42.8797L71.2062 42.8797L71.2106 43.8797ZM88.8044 43.8797L88.8468 42.8806L88.8256 42.8797H88.8044V43.8797ZM90.1289 44.281L90.2488 45.2737L93.2252 44.9143L90.629 43.415L90.1289 44.281ZM78.8669 44.8307L78.88 45.8306L78.8669 44.8307ZM70.2672 45.1168L70.1942 44.1195L68.3864 44.252L69.4626 45.7106L70.2672 45.1168ZM70.4346 45.3628L71.279 44.8271L71.279 44.8271L70.4346 45.3628ZM70.5192 45.4623L70.5525 44.4629L70.5358 44.4623H70.5192V45.4623ZM75.0741 45.9698L74.9249 46.9586L75.0741 45.9698ZM82.5499 46.3205L82.703 47.3088L82.7043 47.3085L82.5499 46.3205ZM85.7255 46.3494L85.637 47.3454H85.637L85.7255 46.3494ZM87.6091 46.4654L87.6024 47.4654H87.6091V46.4654ZM117.918 46.6103L117.935 45.6104L117.933 45.6104L117.918 46.6103ZM127.774 46.9666L127.821 45.9676V45.9676L127.774 46.9666ZM138.594 47.3347L138.585 48.3347L138.586 48.3347L138.594 47.3347ZM157.666 47.1149L157.645 46.1151L157.666 47.1149ZM162.048 47.0227L162.031 46.0228L162.028 46.0229L162.048 47.0227ZM174.551 46.588V45.588H174.525L174.499 45.5894L174.551 46.588ZM174.745 46.588V47.588H174.957L175.152 47.5014L174.745 46.588ZM176.47 45.819L176.877 46.7324L177.155 46.6083L177.317 46.35L176.47 45.819ZM176.885 45.4171L176.447 44.5182L176.447 44.5182L176.885 45.4171ZM177.361 45.3843L177.038 46.3306L177.433 46.4655L177.806 46.2799L177.361 45.3843ZM180.947 43.3448L181.498 44.1798L181.53 44.1585L181.561 44.1348L180.947 43.3448ZM181.57 43.2318L181.921 42.2951L181.92 42.2951L181.57 43.2318ZM182.11 43.7794L181.22 44.2336L181.721 45.2173L182.65 44.6212L182.11 43.7794ZM189.34 28.2876L188.341 28.3176L188.341 28.3178L189.34 28.2876ZM190.184 17.5233L189.193 17.3904V17.3904L190.184 17.5233ZM191.02 9.2517L192.02 9.28791L192.064 8.06653L190.858 8.26497L191.02 9.2517ZM189.651 9.76437L189.139 8.90504L188.223 9.45055L188.826 10.3301L189.651 9.76437ZM190.096 10.5891L191.048 10.2826L191.035 10.2399L191.017 10.1986L190.096 10.5891ZM189.276 12.194L189.237 11.1948L189.196 11.1964L189.154 11.2014L189.276 12.194ZM185.851 13.4423L185.324 12.5928L185.318 12.5961L185.851 13.4423ZM182.718 13.3197L182.053 14.0664L182.091 14.1009L182.133 14.1312L182.718 13.3197ZM180.779 13.2305L181.367 14.0398L181.38 14.0302L181.393 14.0201L180.779 13.2305ZM178.195 13.9215L178.031 14.908L178.04 14.9094L178.195 13.9215ZM177.426 13.9995L177.075 13.0631L177.007 13.0888L176.942 13.1244L177.426 13.9995ZM172.512 14.7915L172.489 15.7912L172.512 14.7915ZM171.094 14.7797L171.073 13.7799L171.072 13.7799L171.094 14.7797ZM158.575 15.4049L158.512 14.407L158.575 15.4049ZM150.739 14.8618C149.703 14.881 148.668 14.8995 147.634 14.9161L147.666 16.9158C148.703 16.8992 149.739 16.8807 150.776 16.8615L150.739 14.8618ZM147.547 14.9212C147.365 14.94 147.161 14.9021 146.933 14.7665L145.911 16.4858C146.472 16.8187 147.102 16.9778 147.752 16.9106L147.547 14.9212ZM147.019 16.4284C147.201 16.2932 147.374 16.2093 147.533 16.1635L146.979 14.2418C146.564 14.3613 146.177 14.5619 145.825 14.8239L147.019 16.4284ZM147.342 16.1989C149.917 15.9768 152.506 15.788 155.108 15.6325L154.988 13.636C152.369 13.7926 149.763 13.9827 147.17 14.2063L147.342 16.1989ZM155.113 15.6321C158.379 15.4188 161.648 15.2174 164.918 15.0159L164.795 13.0197C161.525 13.2211 158.253 13.4227 154.983 13.6364L155.113 15.6321ZM164.918 15.0159C167.111 14.8808 169.304 14.7456 171.497 14.6069L171.37 12.6109C169.18 12.7495 166.988 12.8846 164.795 13.0197L164.918 15.0159ZM171.405 14.6085C172.576 14.6415 173.725 14.3531 174.805 13.7782L173.864 12.013C173.065 12.4386 172.257 12.6317 171.462 12.6093L171.405 14.6085ZM175.335 12.8956V12.4163H173.335V12.8956H175.335ZM174.465 11.4248C174.297 11.4028 174.127 11.3745 173.936 11.3427L173.607 13.3155C173.792 13.3463 173.997 13.3806 174.204 13.4078L174.465 11.4248ZM173.936 11.3427C173.544 11.2773 173.055 11.1934 172.551 11.1934V13.1934C172.861 13.1934 173.186 13.2452 173.607 13.3155L173.936 11.3427ZM172.515 11.1941C169.868 11.2905 167.219 11.0773 164.585 10.555L164.196 12.5168C166.98 13.0688 169.784 13.2949 172.588 13.1928L172.515 11.1941ZM164.486 10.5404C163.266 10.424 162.046 10.5599 160.856 10.9399L161.464 12.8451C162.404 12.5449 163.353 12.4414 164.296 12.5314L164.486 10.5404ZM160.883 10.9316C160.191 11.1312 159.51 11.3998 158.844 11.7346L159.742 13.5216C160.303 13.2397 160.869 13.0172 161.437 12.8534L160.883 10.9316ZM160.125 12.0735C158.12 9.06504 155.135 8.94216 152.509 8.97563L152.534 10.9755C155.155 10.9421 157.093 11.1313 158.461 13.1827L160.125 12.0735ZM152.522 8.97554C150.117 8.97554 147.711 8.94751 145.299 8.91939L145.275 10.9193C147.686 10.9474 150.103 10.9755 152.522 10.9755V8.97554ZM145.299 8.91939C143.156 8.89441 141.008 8.86936 138.859 8.86411L138.854 10.8641C140.992 10.8693 143.131 10.8943 145.275 10.9193L145.299 8.91939ZM138.856 8.8641C137.511 8.8641 136.169 8.89811 134.841 8.9317L134.891 10.9311C136.223 10.8974 137.541 10.8641 138.856 10.8641V8.8641ZM134.841 8.9317C133.63 8.96232 132.431 8.9926 131.234 8.99785L131.243 10.9978C132.464 10.9925 133.684 10.9616 134.891 10.9311L134.841 8.9317ZM131.238 8.99784H113.645V10.9978H131.238V8.99784ZM113.687 8.99874C113.412 8.98707 113.121 8.90464 112.82 8.73064L111.82 10.4626C112.374 10.7823 112.976 10.9703 113.602 10.9969L113.687 8.99874ZM112.44 10.5894C116.11 10.1461 119.81 10.0966 123.595 10.0468L123.569 8.04698C119.801 8.09649 115.994 8.14555 112.2 8.60383L112.44 10.5894ZM123.595 10.0468C126.443 10.0094 129.339 9.97164 132.255 9.75805L132.109 7.7634C129.263 7.97188 126.427 8.00944 123.569 8.04698L123.595 10.0468ZM132.986 8.16702C132.927 8.08608 132.89 8.02899 132.859 7.97902L131.17 9.05054C131.209 9.11193 131.275 9.21615 131.377 9.35443L132.986 8.16702ZM132.859 7.97905C132.851 7.96725 132.801 7.88451 132.745 7.81488C132.73 7.79569 132.453 7.41523 131.93 7.41523V9.41523C131.675 9.41523 131.481 9.31809 131.364 9.23433C131.261 9.16061 131.2 9.08525 131.183 9.06346C131.153 9.02639 131.134 8.99343 131.17 9.05051L132.859 7.97905ZM131.963 7.41578C130.502 7.36717 129.047 7.14878 127.524 6.91896L127.226 8.89657C128.73 9.12347 130.3 9.36154 131.897 9.41467L131.963 7.41578ZM127.524 6.91896C125.082 6.55046 122.463 6.14806 119.746 6.56882L120.052 8.54527C122.419 8.17875 124.737 8.52104 127.226 8.89657L127.524 6.91896ZM119.745 6.56902C118.853 6.70835 117.907 6.62949 116.812 6.53214L116.635 8.52429C117.683 8.61744 118.878 8.72873 120.053 8.54506L119.745 6.56902ZM116.812 6.53214C116.19 6.47685 115.519 6.41661 114.847 6.41217L114.833 8.41213C115.409 8.41594 115.998 8.46771 116.635 8.52429L116.812 6.53214ZM114.84 6.41215H114.838V8.41215H114.84V6.41215ZM114.838 6.41215C104.732 6.41215 94.6345 6.41213 84.5448 6.26738L84.5162 8.26717C94.6226 8.41217 104.734 8.41215 114.838 8.41215V6.41215ZM84.5466 6.26741C81.2779 6.21461 78.0066 6.06372 74.7206 5.91207L74.6284 7.90995C77.9094 8.06136 81.2106 8.21379 84.5143 8.26715L84.5466 6.26741ZM74.7206 5.91207C71.1125 5.74556 67.4864 5.57811 63.8644 5.54288L63.845 7.54278C67.4245 7.5776 71.0141 7.74315 74.6284 7.90995L74.7206 5.91207ZM63.8632 5.54287C57.4891 5.48835 51.1132 5.62594 44.761 5.76294L44.8041 7.76248C51.1613 7.62536 57.5071 7.48857 63.8461 7.54279L63.8632 5.54287ZM44.761 5.76294C43.2998 5.79446 41.8399 5.82594 40.3806 5.85509L40.4205 7.85469C41.8817 7.82551 43.3432 7.79399 44.8041 7.76248L44.761 5.76294ZM40.3827 5.85505C36.2018 5.92955 32.0231 6.07483 27.8465 6.29089L27.9498 8.28822C32.1039 8.07333 36.26 7.92883 40.4184 7.85473L40.3827 5.85505ZM27.8982 6.28955H27.7043V8.28955H27.8982V6.28955ZM27.2972 6.37619L25.572 7.14521L26.3863 8.97193L28.1115 8.20291L27.2972 6.37619ZM25.1318 7.52752C25.11 7.56236 25.0944 7.5788 25.09 7.58305C25.0857 7.58723 25.0963 7.57575 25.1254 7.56156L26.0018 9.35933C26.3673 9.18116 26.6375 8.89128 26.8265 8.58963L25.1318 7.52752ZM25.1254 7.56156C25.156 7.54667 25.2013 7.53168 25.258 7.52778C25.3151 7.52384 25.368 7.5323 25.411 7.54698L24.7641 9.43949C25.1812 9.58206 25.6179 9.54648 26.0018 9.35933L25.1254 7.56156ZM24.6427 7.59763C23.3812 8.22424 22.1427 8.91273 20.9513 9.6978L22.0518 11.3678C23.1606 10.6371 24.3257 9.9882 25.5324 9.38884L24.6427 7.59763ZM20.8885 9.74281C20.9006 9.73336 20.9434 9.70484 21.0169 9.69151C21.0937 9.67759 21.1692 9.68681 21.2287 9.70904L20.5285 11.5825C21.1019 11.7968 21.6803 11.6599 22.1147 11.3228L20.8885 9.74281ZM21.2287 9.70904C21.2831 9.72938 21.3028 9.75223 21.2951 9.7445C21.2874 9.73665 21.2617 9.70709 21.2295 9.64399L19.4476 10.5523C19.6578 10.9646 20.0064 11.3873 20.5285 11.5825L21.2287 9.70904ZM19.7987 9.25641C17.1514 10.9544 15.1936 13.6738 13.9209 16.6105C12.6467 19.5508 12.0235 22.7891 12.109 25.6201L14.108 25.5598C14.032 23.0411 14.5911 20.0939 15.756 17.4058C16.9225 14.7142 18.6605 12.3625 20.8785 10.9399L19.7987 9.25641ZM12.1089 25.6199C12.2156 29.1778 11.7522 32.6506 11.2734 36.2214L13.2556 36.4872C13.731 32.9416 14.2204 29.3079 14.108 25.56L12.1089 25.6199ZM11.2734 36.2214C10.9072 38.9521 10.5325 41.7413 10.4292 44.5897L12.4279 44.6621C12.527 41.9267 12.8874 39.2333 13.2556 36.4872L11.2734 36.2214ZM11.591 45.6126C12.1917 45.5138 12.7689 45.2944 13.3098 44.9725L12.2869 43.2539C11.9414 43.4595 11.599 43.5844 11.2662 43.6392L11.591 45.6126ZM13.623 43.5475C13.4979 43.3652 13.3793 43.1481 13.2731 42.8979L11.4319 43.679C11.5841 44.0376 11.7648 44.3743 11.9738 44.6789L13.623 43.5475ZM13.3044 42.9819C13.2542 42.8262 13.2377 42.712 13.2361 42.6387C13.2344 42.5653 13.2478 42.5563 13.2345 42.5846C13.2168 42.6224 13.181 42.6629 13.1412 42.6861C13.1098 42.7043 13.1194 42.6864 13.2117 42.6828L13.1345 40.6843C12.4244 40.7117 11.7529 41.0334 11.4237 41.7355C11.1364 42.3482 11.2197 43.0332 11.4007 43.595L13.3044 42.9819ZM13.2946 42.6762C14.6222 42.5137 15.9117 42.0386 17.1252 41.2847L16.0698 39.5859C15.0776 40.2023 14.0625 40.5673 13.0516 40.691L13.2946 42.6762ZM17.1305 41.2814C17.7912 40.8653 18.4684 40.8808 19.1469 41.3694L20.3156 39.7464C18.9971 38.797 17.4366 38.725 16.0646 39.5892L17.1305 41.2814ZM19.0661 41.3047C19.5021 41.6929 20.0423 41.9561 20.6485 41.984L20.7404 39.9861C20.6754 39.9831 20.557 39.9543 20.3963 39.8111L19.0661 41.3047ZM20.6485 41.984C21.258 42.0121 21.8198 41.7968 22.2832 41.4367L21.0559 39.8575C20.9071 39.9731 20.8022 39.989 20.7404 39.9861L20.6485 41.984ZM22.257 41.4564C22.8888 40.9977 23.5138 40.8521 24.099 40.944L24.4091 38.9682C23.2317 38.7833 22.0817 39.1123 21.0822 39.8378L22.257 41.4564ZM24.0897 40.9425C24.526 41.0151 24.9628 40.9684 25.3736 40.8145L24.6722 38.9416C24.5783 38.9767 24.4963 38.9826 24.4184 38.9697L24.0897 40.9425ZM25.5068 40.7532C26.8053 40.0353 28.2038 40.0468 29.9139 40.0858L29.9596 38.0863C28.3283 38.0491 26.3817 37.9841 24.5391 39.0029L25.5068 40.7532ZM29.9139 40.0858C30.3838 40.0966 30.8793 40.108 31.3758 40.0977L31.334 38.0981C30.8886 38.1074 30.437 38.0973 29.9596 38.0863L29.9139 40.0858ZM31.3771 40.0976C35.5821 40.0043 39.7721 39.7366 43.9374 39.4706L43.8099 37.4747C39.6377 37.7411 35.4892 38.0059 31.3327 38.0981L31.3771 40.0976ZM43.9374 39.4706C46.5442 39.3041 49.1414 39.1383 51.7396 39.0148L51.6446 37.017C49.0274 37.1415 46.4141 37.3084 43.8099 37.4747L43.9374 39.4706ZM51.7106 39.0157C52.746 38.9965 53.7808 38.9781 54.8152 38.9615L54.7831 36.9618C53.7464 36.9784 52.7098 36.9969 51.6735 37.0161L51.7106 39.0157ZM54.9018 38.9564C55.0837 38.9376 55.2877 38.9755 55.5159 39.1111L56.5376 37.3917C55.9773 37.0588 55.3471 36.8998 54.6965 36.9669L54.9018 38.9564ZM55.4298 37.4492C55.2481 37.5844 55.0751 37.6683 54.9161 37.7141L55.4704 39.6358C55.8849 39.5162 56.2716 39.3157 56.6237 39.0537L55.4298 37.4492ZM55.1073 37.6786C52.5317 37.9008 49.943 38.0896 47.3414 38.2451L47.4607 40.2416C50.0798 40.085 52.6859 39.8949 55.2792 39.6712L55.1073 37.6786ZM47.3359 38.2455C44.07 38.4588 40.8016 38.6602 37.5314 38.8617L37.6544 40.8579C40.924 40.6564 44.1961 40.4548 47.4663 40.2412L47.3359 38.2455ZM37.5314 38.8617C35.3386 38.9968 33.145 39.1319 30.9523 39.2707L31.0787 41.2667C33.2694 41.1281 35.4613 40.993 37.6544 40.8579L37.5314 38.8617ZM31.0437 39.2691C29.8733 39.2361 28.7236 39.5245 27.6443 40.0994L28.5845 41.8646C29.3835 41.439 30.1921 41.2459 30.9873 41.2683L31.0437 39.2691ZM27.1144 40.982V41.4612H29.1144V40.982H27.1144ZM27.9843 42.4527C28.1519 42.4747 28.3224 42.5031 28.513 42.5349L28.842 40.5621C28.6572 40.5313 28.4524 40.497 28.2445 40.4697L27.9843 42.4527ZM28.513 42.5349C28.905 42.6002 29.3941 42.6841 29.8977 42.6841V40.6841C29.5879 40.6841 29.2635 40.6324 28.842 40.5621L28.513 42.5349ZM29.9341 42.6835C32.5814 42.587 35.2303 42.8003 37.8637 43.3226L38.2527 41.3608C35.4693 40.8087 32.6653 40.5826 29.8613 40.6848L29.9341 42.6835ZM37.9632 43.3372C39.183 43.4536 40.4033 43.3177 41.593 42.9376L40.9845 41.0325C40.0447 41.3326 39.0959 41.4362 38.1532 41.3462L37.9632 43.3372ZM41.5657 42.9459C42.258 42.7464 42.939 42.4777 43.6051 42.143L42.707 40.356C42.1461 40.6378 41.5801 40.8604 41.0119 41.0242L41.5657 42.9459ZM42.324 41.8041C44.3293 44.8125 47.3144 44.9354 49.9401 44.9019L49.9147 42.9021C47.2939 42.9355 45.3556 42.7463 43.9882 40.6948L42.324 41.8041ZM49.9274 44.902C52.3321 44.902 54.7378 44.9301 57.1503 44.9582L57.1736 42.9583C54.7631 42.9302 52.3457 42.902 49.9274 42.902V44.902ZM57.1503 44.9582C59.2932 44.9832 61.4414 45.0082 63.5904 45.0135L63.5953 43.0135C61.457 43.0082 59.318 42.9833 57.1736 42.9583L57.1503 44.9582ZM63.5928 45.0135C64.9377 45.0135 66.2804 44.9795 67.6084 44.9459L67.5578 42.9465C66.2256 42.9802 64.9082 43.0135 63.5928 43.0135V45.0135ZM67.6084 44.9459C68.8193 44.9153 70.018 44.885 71.2149 44.8797L71.2062 42.8797C69.9848 42.8851 68.7652 42.916 67.5578 42.9465L67.6084 44.9459ZM71.2106 44.8797H88.8044V42.8797H71.2106V44.8797ZM88.7619 44.8788C89.0367 44.8905 89.3275 44.9729 89.6288 45.1469L90.629 43.415C90.0754 43.0953 89.4733 42.9072 88.8468 42.8806L88.7619 44.8788ZM90.009 43.2882C86.3388 43.7315 82.6394 43.781 78.8538 43.8308L78.88 45.8306C82.6476 45.7811 86.4545 45.732 90.2488 45.2737L90.009 43.2882ZM78.8538 43.8308C76.0057 43.8682 73.1096 43.9059 70.1942 44.1195L70.3403 46.1142C73.186 45.9057 76.0223 45.8681 78.88 45.8306L78.8538 43.8308ZM69.4626 45.7106C69.5223 45.7915 69.5586 45.8486 69.5903 45.8986L71.279 44.8271C71.24 44.7656 71.1739 44.6614 71.0719 44.5231L69.4626 45.7106ZM69.5902 45.8985C69.5977 45.9103 69.6484 45.9931 69.7041 46.0627C69.7194 46.0819 69.9959 46.4623 70.5192 46.4623V44.4623C70.7739 44.4623 70.968 44.5595 71.085 44.6432C71.1881 44.717 71.2491 44.7923 71.2665 44.8141C71.2961 44.8512 71.3152 44.8842 71.279 44.8271L69.5902 45.8985ZM70.4859 46.4618C71.9465 46.5104 73.4016 46.7288 74.9249 46.9586L75.2232 44.981C73.7194 44.7541 72.1491 44.516 70.5525 44.4629L70.4859 46.4618ZM74.9249 46.9586C77.3672 47.3271 79.9855 47.7295 82.703 47.3088L82.3969 45.3323C80.0298 45.6988 77.7123 45.3565 75.2232 44.981L74.9249 46.9586ZM82.7043 47.3085C83.5963 47.1692 84.5416 47.2481 85.637 47.3454L85.814 45.3533C84.7658 45.2601 83.5715 45.1488 82.3956 45.3325L82.7043 47.3085ZM85.637 47.3454C86.2592 47.4007 86.9305 47.461 87.6024 47.4654L87.6157 45.4654C87.0397 45.4616 86.4507 45.4099 85.814 45.3533L85.637 47.3454ZM87.6091 47.4654H87.6115V45.4654H87.6091V47.4654ZM87.6115 47.4654C97.7172 47.4654 107.814 47.4654 117.904 47.6102L117.933 45.6104C107.826 45.4654 97.7148 45.4654 87.6115 45.4654V47.4654ZM117.902 47.6102C121.171 47.663 124.442 47.8139 127.728 47.9655L127.821 45.9676C124.54 45.8162 121.238 45.6638 117.935 45.6104L117.902 47.6102ZM127.728 47.9655C131.337 48.132 134.963 48.2995 138.585 48.3347L138.604 46.3348C135.025 46.3 131.435 46.1344 127.821 45.9676L127.728 47.9655ZM138.586 48.3347C144.96 48.3892 151.336 48.2516 157.688 48.1146L157.645 46.1151C151.287 46.2522 144.942 46.389 138.603 46.3348L138.586 48.3347ZM157.688 48.1146C159.149 48.0831 160.609 48.0516 162.068 48.0225L162.028 46.0229C160.567 46.0521 159.106 46.0836 157.645 46.1151L157.688 48.1146ZM162.066 48.0225C166.247 47.948 170.426 47.8027 174.602 47.5867L174.499 45.5894C170.345 45.8042 166.189 45.9487 162.031 46.0228L162.066 48.0225ZM174.551 47.588H174.745V45.588H174.551V47.588ZM175.152 47.5014L176.877 46.7324L176.063 44.9056L174.338 45.6747L175.152 47.5014ZM177.317 46.35C177.339 46.3152 177.355 46.2988 177.359 46.2945C177.363 46.2904 177.353 46.3018 177.324 46.316L176.447 44.5182C176.082 44.6964 175.812 44.9863 175.622 45.288L177.317 46.35ZM177.324 46.316C177.293 46.3309 177.248 46.3459 177.191 46.3498C177.134 46.3537 177.081 46.3453 177.038 46.3306L177.685 44.4381C177.268 44.2955 176.831 44.3311 176.447 44.5182L177.324 46.316ZM177.806 46.2799C179.068 45.6533 180.306 44.9648 181.498 44.1798L180.397 42.5098C179.288 43.2404 178.123 43.8894 176.917 44.4887L177.806 46.2799ZM181.561 44.1348C181.548 44.1442 181.506 44.1727 181.432 44.1861C181.355 44.2 181.28 44.1908 181.22 44.1685L181.92 42.2951C181.347 42.0808 180.769 42.2177 180.334 42.5548L181.561 44.1348ZM181.22 44.1685C181.166 44.1482 181.146 44.1253 181.154 44.1331C181.162 44.1409 181.187 44.1705 181.22 44.2336L183.001 43.3253C182.791 42.913 182.443 42.4902 181.921 42.2951L181.22 44.1685ZM182.65 44.6212C185.298 42.9232 187.255 40.2038 188.528 37.2671C189.802 34.3268 190.426 31.0885 190.34 28.2575L188.341 28.3178C188.417 30.8365 187.858 33.7837 186.693 36.4718C185.527 39.1634 183.789 41.5151 181.571 42.9377L182.65 44.6212ZM190.34 28.2577C190.233 24.6998 190.697 21.227 191.176 17.6562L189.193 17.3904C188.718 20.936 188.229 24.5697 188.341 28.3176L190.34 28.2577ZM191.176 17.6562C191.542 14.9255 191.917 12.1363 192.02 9.28791L190.021 9.2155C189.922 11.9509 189.562 14.6443 189.193 17.3904L191.176 17.6562ZM190.858 8.26497C190.257 8.36382 189.68 8.58315 189.139 8.90504L190.162 10.6237C190.508 10.418 190.85 10.2932 191.183 10.2384L190.858 8.26497ZM188.826 10.3301C188.951 10.5124 189.07 10.7295 189.176 10.9796L191.017 10.1986C190.865 9.83994 190.684 9.50327 190.475 9.19863L188.826 10.3301ZM189.145 10.8957C189.195 11.0514 189.211 11.1656 189.213 11.2389C189.215 11.3123 189.201 11.3213 189.214 11.293C189.232 11.2552 189.268 11.2146 189.308 11.1915C189.339 11.1732 189.33 11.1912 189.237 11.1948L189.314 13.1933C190.025 13.1659 190.696 12.8442 191.025 12.1421C191.313 11.5293 191.229 10.8443 191.048 10.2826L189.145 10.8957ZM189.154 11.2014C187.827 11.3639 186.537 11.8389 185.324 12.5929L186.379 14.2917C187.371 13.6753 188.386 13.3103 189.397 13.1866L189.154 11.2014ZM185.318 12.5961C184.658 13.0123 183.981 12.9968 183.302 12.5082L182.133 14.1312C183.452 15.0806 185.012 15.1526 186.384 14.2884L185.318 12.5961ZM183.383 12.5729C182.947 12.1847 182.407 11.9214 181.8 11.8936L181.709 13.8914C181.774 13.8944 181.892 13.9233 182.053 14.0664L183.383 12.5729ZM181.8 11.8936C181.191 11.8655 180.629 12.0807 180.166 12.4409L181.393 14.0201C181.542 13.9045 181.647 13.8886 181.709 13.8914L181.8 11.8936ZM180.192 12.4212C179.56 12.8798 178.935 13.0255 178.35 12.9336L178.04 14.9094C179.217 15.0942 180.367 14.7653 181.367 14.0398L180.192 12.4212ZM178.359 12.9351C177.923 12.8624 177.486 12.9092 177.075 13.0631L177.777 14.936C177.871 14.9008 177.953 14.8949 178.031 14.9079L178.359 12.9351ZM176.942 13.1244C175.644 13.8423 174.245 13.8308 172.535 13.7917L172.489 15.7912C174.121 15.8285 176.067 15.8934 177.91 14.8747L176.942 13.1244ZM172.535 13.7917C172.065 13.781 171.57 13.7695 171.073 13.7799L171.115 15.7795C171.56 15.7702 172.012 15.7803 172.489 15.7912L172.535 13.7917ZM171.072 13.7799C166.867 13.8733 162.677 14.141 158.512 14.407L158.639 16.4029C162.811 16.1365 166.96 15.8717 171.116 15.7795L171.072 13.7799ZM158.512 14.407C155.905 14.5734 153.308 14.7392 150.71 14.8628L150.805 16.8605C153.422 16.7361 156.035 16.5692 158.639 16.4029L158.512 14.407Z" fill="white" mask="url(#path-2-outside-1)"/>
<path d="M54.6211 20.2031L57.9082 29.4844L61.1777 20.2031H64.6406V33H61.9951V29.502L62.2588 23.4639L58.8047 33H56.9941L53.5488 23.4727L53.8125 29.502V33H51.1758V20.2031H54.6211ZM74.3262 30.3633H69.7031L68.8242 33H66.0205L70.7842 20.2031H73.2275L78.0176 33H75.2139L74.3262 30.3633ZM70.415 28.2275H73.6143L72.0059 23.4375L70.415 28.2275ZM82.0166 33H79.3799V20.2031H82.0166V33ZM94.875 33H92.2383L87.1055 24.5801V33H84.4688V20.2031H87.1055L92.2471 28.6406V20.2031H94.875V33ZM105.105 20.2031L108.393 29.4844L111.662 20.2031H115.125V33H112.479V29.502L112.743 23.4639L109.289 33H107.479L104.033 23.4727L104.297 29.502V33H101.66V20.2031H105.105ZM125.127 27.4541H120.064V30.8818H126.006V33H117.428V20.2031H125.988V22.3389H120.064V25.3887H125.127V27.4541ZM137.959 33H135.322L130.189 24.5801V33H127.553V20.2031H130.189L135.331 28.6406V20.2031H137.959V33ZM149.947 20.2031V28.6318C149.947 30.0322 149.508 31.1396 148.629 31.9541C147.756 32.7686 146.561 33.1758 145.043 33.1758C143.549 33.1758 142.362 32.7803 141.483 31.9893C140.604 31.1982 140.156 30.1113 140.139 28.7285V20.2031H142.775V28.6494C142.775 29.4873 142.975 30.0996 143.373 30.4863C143.777 30.8672 144.334 31.0576 145.043 31.0576C146.525 31.0576 147.278 30.2783 147.302 28.7197V20.2031H149.947Z" fill="white"/>
</svg>
