<svg width="245" height="64" viewBox="0 0 245 64" fill="none" xmlns="http://www.w3.org/2000/svg">
<path fill-rule="evenodd" clip-rule="evenodd" d="M190.074 14.631C188.66 14.6612 187.247 14.6901 185.834 14.7161C185.266 14.7835 184.697 14.6291 184.159 14.2618C184.523 13.9503 184.905 13.7274 185.296 13.5977C188.822 13.2482 192.365 12.9511 195.926 12.7064C200.385 12.3717 204.846 12.0557 209.307 11.7398C212.299 11.528 215.29 11.3161 218.279 11.0987C219.62 11.1421 220.956 10.7646 222.237 9.98025V9.22878C221.981 9.19015 221.725 9.14107 221.469 9.09198C220.914 8.98563 220.359 8.87927 219.804 8.87927C216.086 9.03496 212.367 8.69049 208.672 7.84822C207.197 7.68643 205.717 7.87415 204.265 8.40742C203.405 8.69225 202.554 9.07739 201.717 9.56082C199.417 5.59385 196.058 5.34918 192.48 5.40161C189.19 5.40161 185.9 5.35753 182.61 5.31346C179.686 5.27428 176.762 5.2351 173.837 5.22687C172.023 5.22687 170.208 5.27961 168.394 5.33236C166.744 5.3803 165.095 5.42825 163.445 5.43657H139.444C138.829 5.40656 138.22 5.19451 137.637 4.80745C142.728 4.10062 147.848 4.0233 153 3.94549C156.892 3.88672 160.802 3.82767 164.732 3.49677C164.622 3.32491 164.552 3.19845 164.504 3.11113C164.444 3.00313 164.418 2.95503 164.388 2.95503C162.303 2.87527 160.239 2.5174 158.175 2.15933C154.811 1.57601 151.444 0.992171 147.976 1.6094C146.565 1.86263 145.106 1.71355 143.644 1.5642C142.785 1.47649 141.925 1.38868 141.074 1.38221H141.071C127.286 1.38221 113.502 1.38221 99.726 1.15505C95.2428 1.07182 90.7597 0.83402 86.2803 0.596421C81.3539 0.335105 76.4321 0.0740331 71.5199 0.0191141C62.8483 -0.0661389 54.1708 0.148977 45.5016 0.363885C43.5085 0.413295 41.5158 0.462694 39.5237 0.50843C33.8355 0.624934 28.1502 0.852116 22.4679 1.18998H22.2034L19.85 2.3958C19.6887 2.69156 19.4945 2.90749 19.283 3.02594C19.0716 3.14439 18.8491 3.16201 18.6336 3.07735C16.9501 4.03851 15.3106 5.08705 13.7416 6.27539C13.4752 6.51309 13.1773 6.57517 12.8917 6.45251C12.6062 6.32984 12.348 6.02888 12.155 5.59384C5.5178 10.487 2.07138 21.4967 2.29174 29.885C2.44117 35.6128 1.79121 41.1843 1.14035 46.7635C0.639441 51.0573 0.138002 55.3556 0 59.7333C0.636732 59.6129 1.264 59.3431 1.86865 58.9295C1.64078 58.5477 1.43661 58.1136 1.26045 57.6363C0.863803 56.2207 1.19875 55.1722 2.37988 55.1198C3.97501 54.8954 5.54697 54.2368 7.05151 53.1625C8.43801 52.1588 9.96436 52.2274 11.3265 53.3548C11.7335 53.7714 12.1827 54.0004 12.6406 54.0246C13.0985 54.0488 13.5532 53.8676 13.9708 53.4946C15.0835 52.5662 16.2943 52.1942 17.4966 52.4111C17.8473 52.4782 18.2011 52.437 18.5455 52.2887C20.6881 50.9272 22.9698 50.9871 25.2489 51.047C25.8951 51.0639 26.541 51.0809 27.1836 51.0654C32.8869 50.9199 38.5747 50.5025 44.2617 50.0851C47.8157 49.8242 51.3695 49.5634 54.9265 49.369C56.34 49.3388 57.7533 49.3099 59.1663 49.2839C59.7342 49.2165 60.3032 49.3709 60.841 49.7382C60.4769 50.0497 60.0951 50.2726 59.704 50.4023C56.1782 50.7518 52.6348 51.0489 49.0738 51.2936C44.6155 51.6283 40.154 51.9442 35.6931 52.2602C32.7016 52.472 29.7104 52.6838 26.7206 52.9013C25.3799 52.8579 24.0441 53.2354 22.7629 54.0197L22.7629 54.7712C23.019 54.8098 23.2751 54.8589 23.5311 54.908C24.086 55.0144 24.6408 55.1207 25.1957 55.1207C28.914 54.965 32.6334 55.3095 36.3282 56.1518C37.8033 56.3136 39.2828 56.1258 40.7354 55.5926C41.5953 55.3077 42.4458 54.9226 43.2828 54.4392C45.5833 58.4061 48.9416 58.6508 52.5203 58.5984C55.8101 58.5984 59.1 58.6425 62.3898 58.6865C65.3141 58.7257 68.2384 58.7649 71.1627 58.7731C72.9772 58.7731 74.7917 58.7204 76.6062 58.6676C78.2558 58.6197 79.9053 58.5717 81.5549 58.5634H105.556C106.171 58.5934 106.78 58.8055 107.363 59.1925C102.272 59.8994 97.1517 59.9767 91.9997 60.0545C88.1077 60.1133 84.1976 60.1723 80.268 60.5032C80.3783 60.6751 80.4481 60.8016 80.4963 60.8889C80.5559 60.9969 80.5825 61.045 80.6117 61.045C82.697 61.1247 84.7607 61.4826 86.8255 61.8407C90.1892 62.424 93.5559 63.0078 97.0241 62.3906C98.4346 62.1374 99.894 62.2864 101.356 62.4358C102.215 62.5235 103.075 62.6113 103.926 62.6178H103.929C117.713 62.6178 131.498 62.6178 145.274 62.8449C149.757 62.9282 154.24 63.166 158.72 63.4036C163.646 63.6649 168.568 63.926 173.48 63.9809C182.152 64.0661 190.829 63.851 199.498 63.6361C201.491 63.5867 203.484 63.5373 205.476 63.4916C211.165 63.3751 216.85 63.1479 222.532 62.81H222.797L225.15 61.6042C225.311 61.3084 225.506 61.0925 225.717 60.9741C225.928 60.8556 226.151 60.838 226.366 60.9226C228.05 59.9615 229.689 58.9129 231.258 57.7246C231.525 57.4869 231.823 57.4248 232.108 57.5475C232.394 57.6702 232.652 57.9711 232.845 58.4062C239.482 53.513 242.929 42.5033 242.708 34.115C242.559 28.3872 243.209 22.8157 243.86 17.2365C244.361 12.9427 244.862 8.64436 245 4.26667C244.363 4.38709 243.736 4.65693 243.131 5.07053C243.359 5.45228 243.563 5.88641 243.74 6.36374C244.136 7.77926 243.801 8.8278 242.62 8.88023C241.025 9.10459 239.453 9.76318 237.948 10.8375C236.562 11.8413 235.036 11.7726 233.674 10.6453C233.267 10.2286 232.817 9.99965 232.359 9.97544C231.902 9.95123 231.447 10.1324 231.029 10.5055C229.916 11.4338 228.706 11.8058 227.503 11.5889C227.153 11.5218 226.799 11.5631 226.455 11.7113C224.312 13.0728 222.03 13.0129 219.751 12.9531C219.105 12.9361 218.459 12.9191 217.816 12.9346C212.113 13.0801 206.425 13.4975 200.738 13.9149C197.184 14.1758 193.631 14.4366 190.074 14.631Z" fill="#20552A"/>
<mask id="path-2-outside-1" maskUnits="userSpaceOnUse" x="12" y="7" width="224" height="52" fill="black">
<rect fill="white" x="12" y="7" width="224" height="52"/>
<path fill-rule="evenodd" clip-rule="evenodd" d="M184.679 19.4305C183.409 19.454 182.14 19.4766 180.871 19.497C180.361 19.5496 179.85 19.429 179.367 19.142C179.694 18.8987 180.037 18.7245 180.388 18.6232C183.554 18.3501 186.736 18.118 189.934 17.9269C193.937 17.6654 197.943 17.4185 201.949 17.1717C204.635 17.0062 207.321 16.8407 210.006 16.6708C211.21 16.7048 212.409 16.4099 213.56 15.7971V15.21C213.33 15.1798 213.1 15.1415 212.87 15.1031C212.372 15.02 211.874 14.9369 211.375 14.9369C208.036 15.0586 204.697 14.7894 201.379 14.1314C200.054 14.005 198.726 14.1517 197.421 14.5683C196.649 14.7908 195.885 15.0917 195.134 15.4694C193.068 12.3702 190.052 12.179 186.839 12.22C183.885 12.22 180.931 12.1856 177.976 12.1511C175.351 12.1205 172.725 12.0899 170.099 12.0835C168.469 12.0835 166.84 12.1247 165.211 12.1659C163.73 12.2034 162.248 12.2408 160.767 12.2473H139.215C138.663 12.2239 138.116 12.0582 137.592 11.7558C142.164 11.2036 146.762 11.1432 151.388 11.0824C154.883 11.0365 158.394 10.9904 161.923 10.7319C161.824 10.5976 161.761 10.4988 161.718 10.4306C161.664 10.3462 161.64 10.3086 161.614 10.3086C159.741 10.2463 157.888 9.96672 156.034 9.68698C153.014 9.23126 149.991 8.77513 146.876 9.25735C145.61 9.45518 144.299 9.33871 142.986 9.22203C142.215 9.1535 141.443 9.0849 140.679 9.07985H140.676C128.298 9.07985 115.92 9.07985 103.55 8.90238C99.5242 8.83736 95.4985 8.65158 91.4762 8.46595C87.0525 8.2618 82.6329 8.05784 78.222 8.01493C70.4352 7.94833 62.6431 8.11639 54.8586 8.28428C53.0689 8.32289 51.2795 8.36148 49.4907 8.39721C44.3829 8.48823 39.2777 8.66572 34.1752 8.92967H33.9378L31.8245 9.87172C31.6797 10.1028 31.5052 10.2715 31.3154 10.364C31.1256 10.4566 30.9257 10.4703 30.7322 10.4042C29.2205 11.1551 27.7483 11.9743 26.3394 12.9027C26.1001 13.0883 25.8327 13.1369 25.5763 13.041C25.3198 12.9452 25.088 12.7101 24.9147 12.3702C18.9548 16.193 15.86 24.7943 16.0579 31.3476C16.1921 35.8225 15.6084 40.1752 15.024 44.534C14.5742 47.8885 14.1239 51.2466 14 54.6667C14.5718 54.5726 15.135 54.3618 15.678 54.0387C15.4734 53.7404 15.29 53.4012 15.1318 53.0283C14.7757 51.9225 15.0764 51.1033 16.137 51.0623C17.5694 50.887 18.981 50.3725 20.332 49.5332C21.577 48.749 22.9476 48.8026 24.1707 49.6834C24.5362 50.0089 24.9396 50.1878 25.3507 50.2067C25.7619 50.2256 26.1702 50.0841 26.5452 49.7926C27.5444 49.0674 28.6316 48.7767 29.7112 48.9462C30.0261 48.9986 30.3439 48.9664 30.6531 48.8506C32.577 47.7869 34.6259 47.8337 36.6725 47.8804C37.2527 47.8937 37.8328 47.9069 38.4097 47.8949C43.5311 47.7812 48.6385 47.4551 53.7453 47.129C56.9365 46.9252 60.1274 46.7214 63.3213 46.5695C64.5907 46.546 65.86 46.5234 67.129 46.503C67.6389 46.4504 68.1498 46.571 68.6328 46.858C68.3058 47.1013 67.963 47.2755 67.6118 47.3768C64.4458 47.6499 61.264 47.882 58.0663 48.0731C54.0631 48.3346 50.0571 48.5814 46.0517 48.8282C43.3652 48.9937 40.679 49.1592 37.994 49.3292C36.7901 49.2952 35.5906 49.5901 34.4402 50.2029V50.79C34.6701 50.8202 34.9001 50.8585 35.13 50.8969C35.6282 50.98 36.1265 51.0631 36.6247 51.0631C39.9636 50.9414 43.3035 51.2106 46.6213 51.8686C47.9458 51.995 49.2744 51.8483 50.5788 51.4317C51.3509 51.2092 52.1147 50.9083 52.8662 50.5306C54.932 53.6298 57.9476 53.8209 61.1611 53.78C64.1152 53.78 67.0694 53.8144 70.0235 53.8489C72.6494 53.8795 75.2753 53.9101 77.9012 53.9165C79.5306 53.9165 81.1599 53.8753 82.7893 53.8341C84.2705 53.7966 85.7517 53.7592 87.2329 53.7527H108.785C109.337 53.7761 109.884 53.9418 110.408 54.2442C105.836 54.7964 101.238 54.8568 96.6119 54.9176C93.1172 54.9635 89.6061 55.0096 86.0774 55.2681C86.1765 55.4024 86.2392 55.5012 86.2824 55.5695C86.336 55.6538 86.3598 55.6914 86.386 55.6914C88.2586 55.7537 90.1117 56.0333 91.9657 56.313C94.9862 56.7687 98.0094 57.2249 101.124 56.7427C102.39 56.5448 103.701 56.6613 105.014 56.778C105.785 56.8465 106.557 56.9151 107.321 56.9202H107.324C119.702 56.9202 132.08 56.9202 144.45 57.0976C148.476 57.1626 152.502 57.3484 156.524 57.534C160.948 57.7382 165.367 57.9422 169.778 57.9851C177.565 58.0517 185.357 57.8836 193.141 57.7157C194.931 57.6771 196.721 57.6385 198.509 57.6028C203.617 57.5118 208.722 57.3343 213.825 57.0703H214.062L216.176 56.1283C216.32 55.8972 216.495 55.7285 216.685 55.636C216.874 55.5435 217.074 55.5297 217.268 55.5958C218.78 54.8449 220.252 54.0257 221.661 53.0974C221.9 52.9117 222.167 52.8632 222.424 52.959C222.68 53.0548 222.912 53.2899 223.085 53.6298C229.045 49.807 232.14 41.2057 231.942 34.6524C231.808 30.1775 232.392 25.8248 232.976 21.466C233.426 18.1115 233.876 14.7534 234 11.3333C233.428 11.4274 232.865 11.6382 232.322 11.9614C232.527 12.2596 232.71 12.5988 232.868 12.9717C233.224 14.0776 232.924 14.8967 231.863 14.9377C230.431 15.113 229.019 15.6275 227.668 16.4668C226.423 17.251 225.052 17.1974 223.829 16.3166C223.464 15.9911 223.06 15.8122 222.649 15.7933C222.238 15.7744 221.83 15.916 221.455 16.2074C220.456 16.9326 219.368 17.2233 218.289 17.0539C217.974 17.0014 217.656 17.0336 217.347 17.1494C215.423 18.2131 213.374 18.1663 211.328 18.1196C210.747 18.1063 210.167 18.0931 209.59 18.1051C204.469 18.2188 199.362 18.5449 194.255 18.871C191.064 19.0748 187.873 19.2786 184.679 19.4305Z"/>
</mask>
<path fill-rule="evenodd" clip-rule="evenodd" d="M184.679 19.4305C183.409 19.454 182.14 19.4766 180.871 19.497C180.361 19.5496 179.85 19.429 179.367 19.142C179.694 18.8987 180.037 18.7245 180.388 18.6232C183.554 18.3501 186.736 18.118 189.934 17.9269C193.937 17.6654 197.943 17.4185 201.949 17.1717C204.635 17.0062 207.321 16.8407 210.006 16.6708C211.21 16.7048 212.409 16.4099 213.56 15.7971V15.21C213.33 15.1798 213.1 15.1415 212.87 15.1031C212.372 15.02 211.874 14.9369 211.375 14.9369C208.036 15.0586 204.697 14.7894 201.379 14.1314C200.054 14.005 198.726 14.1517 197.421 14.5683C196.649 14.7908 195.885 15.0917 195.134 15.4694C193.068 12.3702 190.052 12.179 186.839 12.22C183.885 12.22 180.931 12.1856 177.976 12.1511C175.351 12.1205 172.725 12.0899 170.099 12.0835C168.469 12.0835 166.84 12.1247 165.211 12.1659C163.73 12.2034 162.248 12.2408 160.767 12.2473H139.215C138.663 12.2239 138.116 12.0582 137.592 11.7558C142.164 11.2036 146.762 11.1432 151.388 11.0824C154.883 11.0365 158.394 10.9904 161.923 10.7319C161.824 10.5976 161.761 10.4988 161.718 10.4306C161.664 10.3462 161.64 10.3086 161.614 10.3086C159.741 10.2463 157.888 9.96672 156.034 9.68698C153.014 9.23126 149.991 8.77513 146.876 9.25735C145.61 9.45518 144.299 9.33871 142.986 9.22203C142.215 9.1535 141.443 9.0849 140.679 9.07985H140.676C128.298 9.07985 115.92 9.07985 103.55 8.90238C99.5242 8.83736 95.4985 8.65158 91.4762 8.46595C87.0525 8.2618 82.6329 8.05784 78.222 8.01493C70.4352 7.94833 62.6431 8.11639 54.8586 8.28428C53.0689 8.32289 51.2795 8.36148 49.4907 8.39721C44.3829 8.48823 39.2777 8.66572 34.1752 8.92967H33.9378L31.8245 9.87172C31.6797 10.1028 31.5052 10.2715 31.3154 10.364C31.1256 10.4566 30.9257 10.4703 30.7322 10.4042C29.2205 11.1551 27.7483 11.9743 26.3394 12.9027C26.1001 13.0883 25.8327 13.1369 25.5763 13.041C25.3198 12.9452 25.088 12.7101 24.9147 12.3702C18.9548 16.193 15.86 24.7943 16.0579 31.3476C16.1921 35.8225 15.6084 40.1752 15.024 44.534C14.5742 47.8885 14.1239 51.2466 14 54.6667C14.5718 54.5726 15.135 54.3618 15.678 54.0387C15.4734 53.7404 15.29 53.4012 15.1318 53.0283C14.7757 51.9225 15.0764 51.1033 16.137 51.0623C17.5694 50.887 18.981 50.3725 20.332 49.5332C21.577 48.749 22.9476 48.8026 24.1707 49.6834C24.5362 50.0089 24.9396 50.1878 25.3507 50.2067C25.7619 50.2256 26.1702 50.0841 26.5452 49.7926C27.5444 49.0674 28.6316 48.7767 29.7112 48.9462C30.0261 48.9986 30.3439 48.9664 30.6531 48.8506C32.577 47.7869 34.6259 47.8337 36.6725 47.8804C37.2527 47.8937 37.8328 47.9069 38.4097 47.8949C43.5311 47.7812 48.6385 47.4551 53.7453 47.129C56.9365 46.9252 60.1274 46.7214 63.3213 46.5695C64.5907 46.546 65.86 46.5234 67.129 46.503C67.6389 46.4504 68.1498 46.571 68.6328 46.858C68.3058 47.1013 67.963 47.2755 67.6118 47.3768C64.4458 47.6499 61.264 47.882 58.0663 48.0731C54.0631 48.3346 50.0571 48.5814 46.0517 48.8282C43.3652 48.9937 40.679 49.1592 37.994 49.3292C36.7901 49.2952 35.5906 49.5901 34.4402 50.2029V50.79C34.6701 50.8202 34.9001 50.8585 35.13 50.8969C35.6282 50.98 36.1265 51.0631 36.6247 51.0631C39.9636 50.9414 43.3035 51.2106 46.6213 51.8686C47.9458 51.995 49.2744 51.8483 50.5788 51.4317C51.3509 51.2092 52.1147 50.9083 52.8662 50.5306C54.932 53.6298 57.9476 53.8209 61.1611 53.78C64.1152 53.78 67.0694 53.8144 70.0235 53.8489C72.6494 53.8795 75.2753 53.9101 77.9012 53.9165C79.5306 53.9165 81.1599 53.8753 82.7893 53.8341C84.2705 53.7966 85.7517 53.7592 87.2329 53.7527H108.785C109.337 53.7761 109.884 53.9418 110.408 54.2442C105.836 54.7964 101.238 54.8568 96.6119 54.9176C93.1172 54.9635 89.6061 55.0096 86.0774 55.2681C86.1765 55.4024 86.2392 55.5012 86.2824 55.5695C86.336 55.6538 86.3598 55.6914 86.386 55.6914C88.2586 55.7537 90.1117 56.0333 91.9657 56.313C94.9862 56.7687 98.0094 57.2249 101.124 56.7427C102.39 56.5448 103.701 56.6613 105.014 56.778C105.785 56.8465 106.557 56.9151 107.321 56.9202H107.324C119.702 56.9202 132.08 56.9202 144.45 57.0976C148.476 57.1626 152.502 57.3484 156.524 57.534C160.948 57.7382 165.367 57.9422 169.778 57.9851C177.565 58.0517 185.357 57.8836 193.141 57.7157C194.931 57.6771 196.721 57.6385 198.509 57.6028C203.617 57.5118 208.722 57.3343 213.825 57.0703H214.062L216.176 56.1283C216.32 55.8972 216.495 55.7285 216.685 55.636C216.874 55.5435 217.074 55.5297 217.268 55.5958C218.78 54.8449 220.252 54.0257 221.661 53.0974C221.9 52.9117 222.167 52.8632 222.424 52.959C222.68 53.0548 222.912 53.2899 223.085 53.6298C229.045 49.807 232.14 41.2057 231.942 34.6524C231.808 30.1775 232.392 25.8248 232.976 21.466C233.426 18.1115 233.876 14.7534 234 11.3333C233.428 11.4274 232.865 11.6382 232.322 11.9614C232.527 12.2596 232.71 12.5988 232.868 12.9717C233.224 14.0776 232.924 14.8967 231.863 14.9377C230.431 15.113 229.019 15.6275 227.668 16.4668C226.423 17.251 225.052 17.1974 223.829 16.3166C223.464 15.9911 223.06 15.8122 222.649 15.7933C222.238 15.7744 221.83 15.916 221.455 16.2074C220.456 16.9326 219.368 17.2233 218.289 17.0539C217.974 17.0014 217.656 17.0336 217.347 17.1494C215.423 18.2131 213.374 18.1663 211.328 18.1196C210.747 18.1063 210.167 18.0931 209.59 18.1051C204.469 18.2188 199.362 18.5449 194.255 18.871C191.064 19.0748 187.873 19.2786 184.679 19.4305Z" fill="white"/>
<path d="M184.679 19.4305L184.697 20.4303L184.712 20.43L184.726 20.4293L184.679 19.4305ZM180.871 19.497L180.855 18.4971L180.812 18.4978L180.768 18.5023L180.871 19.497ZM179.367 19.142L178.77 18.3398L177.567 19.2354L178.856 20.0017L179.367 19.142ZM180.388 18.6232L180.302 17.6269L180.205 17.6353L180.111 17.6624L180.388 18.6232ZM189.934 17.9269L189.993 18.9251L189.999 18.9248L189.934 17.9269ZM201.949 17.1717L202.011 18.1698V18.1698L201.949 17.1717ZM210.006 16.6708L210.034 15.6712L209.988 15.67L209.943 15.6728L210.006 16.6708ZM213.56 15.7971L214.03 16.6797L214.56 16.3974V15.7971H213.56ZM213.56 15.21H214.56V14.3327L213.69 14.2185L213.56 15.21ZM212.87 15.1031L212.705 16.0895V16.0895L212.87 15.1031ZM211.375 14.9369V13.9369H211.357L211.339 13.9376L211.375 14.9369ZM201.379 14.1314L201.573 13.1505L201.524 13.1407L201.474 13.1359L201.379 14.1314ZM197.421 14.5683L197.698 15.5292L197.712 15.5252L197.725 15.5209L197.421 14.5683ZM195.134 15.4694L194.302 16.024L194.792 16.7601L195.583 16.3629L195.134 15.4694ZM186.839 12.22V13.2201L186.852 13.2199L186.839 12.22ZM177.976 12.1511L177.965 13.1511L177.976 12.1511ZM170.099 12.0835L170.101 11.0835H170.099V12.0835ZM165.211 12.1659L165.236 13.1656L165.211 12.1659ZM160.767 12.2473V13.2473L160.771 13.2473L160.767 12.2473ZM139.215 12.2473L139.172 13.2464L139.193 13.2473H139.215V12.2473ZM137.592 11.7558L137.472 10.763L134.496 11.1225L137.092 12.6218L137.592 11.7558ZM151.388 11.0824L151.375 10.0825L151.388 11.0824ZM161.923 10.7319L161.996 11.7292L163.803 11.5967L162.727 10.1382L161.923 10.7319ZM161.718 10.4306L162.562 9.89486L162.562 9.89481L161.718 10.4306ZM161.614 10.3086L161.581 11.3081L161.597 11.3086H161.614V10.3086ZM156.034 9.68698L155.885 10.6758V10.6758L156.034 9.68698ZM146.876 9.25735L146.723 8.26912L146.722 8.26933L146.876 9.25735ZM142.986 9.22203L142.898 10.2181L142.986 9.22203ZM140.679 9.07985L140.686 8.07985H140.679V9.07985ZM103.55 8.90238L103.534 9.90225L103.535 9.90228L103.55 8.90238ZM91.4762 8.46595L91.5223 7.46702L91.4762 8.46595ZM78.222 8.01493L78.2317 7.01498L78.2305 7.01497L78.222 8.01493ZM54.8586 8.28428L54.8802 9.28405L54.8586 8.28428ZM49.4907 8.39721L49.5085 9.39705L49.5106 9.39701L49.4907 8.39721ZM34.1752 8.92967V9.92967H34.2011L34.2269 9.92834L34.1752 8.92967ZM33.9378 8.92967V7.92967H33.725L33.5306 8.01631L33.9378 8.92967ZM31.8245 9.87172L31.4173 8.95836L31.139 9.08244L30.9771 9.34067L31.8245 9.87172ZM30.7322 10.4042L31.0556 9.45792L30.6609 9.32302L30.2874 9.50858L30.7322 10.4042ZM26.3394 12.9027L25.7892 12.0676L25.7569 12.0889L25.7263 12.1127L26.3394 12.9027ZM25.5763 13.041L25.2262 13.9777L25.2262 13.9777L25.5763 13.041ZM24.9147 12.3702L25.8056 11.916L25.3042 10.9323L24.3748 11.5285L24.9147 12.3702ZM16.0579 31.3476L17.0574 31.3177L17.0574 31.3175L16.0579 31.3476ZM15.024 44.534L14.0329 44.4011H14.0329L15.024 44.534ZM14 54.6667L13.0007 54.6305L12.9564 55.8518L14.1624 55.6534L14 54.6667ZM15.678 54.0387L16.1894 54.898L17.106 54.3525L16.5026 53.4729L15.678 54.0387ZM15.1318 53.0283L14.18 53.3349L14.1937 53.3776L14.2112 53.4188L15.1318 53.0283ZM16.137 51.0623L16.1756 52.0616L16.2172 52.06L16.2585 52.0549L16.137 51.0623ZM20.332 49.5332L20.8597 50.3827L20.8649 50.3794L20.332 49.5332ZM24.1707 49.6834L24.8358 48.9366L24.7971 48.9022L24.7551 48.8719L24.1707 49.6834ZM26.5452 49.7926L25.9578 48.9833L25.9445 48.993L25.9316 49.003L26.5452 49.7926ZM29.7112 48.9462L29.8755 47.9597L29.8663 47.9582L29.7112 48.9462ZM30.6531 48.8506L31.0038 49.7871L31.0726 49.7613L31.1369 49.7257L30.6531 48.8506ZM36.6725 47.8804L36.6953 46.8807H36.6953L36.6725 47.8804ZM38.4097 47.8949L38.4306 48.8947L38.4319 48.8946L38.4097 47.8949ZM53.7453 47.129L53.6815 46.131H53.6815L53.7453 47.129ZM63.3213 46.5695L63.3028 45.5697L63.2883 45.57L63.2738 45.5707L63.3213 46.5695ZM67.129 46.503L67.145 47.5029L67.1884 47.5022L67.2316 47.4977L67.129 46.503ZM68.6328 46.858L69.2298 47.6603L70.4334 46.7647L69.1436 45.9983L68.6328 46.858ZM67.6118 47.3768L67.6977 48.3731L67.795 48.3647L67.8889 48.3376L67.6118 47.3768ZM58.0663 48.0731L58.0067 47.0749L58.0011 47.0752L58.0663 48.0731ZM46.0517 48.8282L46.1132 49.8263L46.0517 48.8282ZM37.994 49.3292L37.9658 50.3288L38.0115 50.33L38.0572 50.3272L37.994 49.3292ZM34.4402 50.2029L33.9701 49.3203L33.4402 49.6026V50.2029H34.4402ZM34.4402 50.79H33.4402V51.6674L34.3101 51.7815L34.4402 50.79ZM35.13 50.8969L34.9655 51.8833H34.9655L35.13 50.8969ZM36.6247 51.0631V52.0631H36.6429L36.6611 52.0624L36.6247 51.0631ZM46.6213 51.8686L46.4268 52.8495L46.4762 52.8593L46.5263 52.8641L46.6213 51.8686ZM50.5788 51.4317L50.3018 50.4708L50.2881 50.4748L50.2745 50.4791L50.5788 51.4317ZM52.8662 50.5306L53.6983 49.976L53.2076 49.2399L52.4172 49.6371L52.8662 50.5306ZM61.1611 53.78V52.7799L61.1483 52.7801L61.1611 53.78ZM70.0235 53.8489L70.0119 54.8488L70.0235 53.8489ZM77.9012 53.9165L77.8988 54.9165H77.9012V53.9165ZM82.7893 53.8341L82.764 52.8344H82.764L82.7893 53.8341ZM87.2329 53.7527V52.7527L87.2286 52.7527L87.2329 53.7527ZM108.785 53.7527L108.828 52.7536L108.807 52.7527H108.785V53.7527ZM110.408 54.2442L110.528 55.237L113.504 54.8775L110.908 53.3782L110.408 54.2442ZM96.6119 54.9176L96.6251 55.9175L96.6119 54.9176ZM86.0774 55.2681L86.0043 54.2708L84.1965 54.4033L85.2727 55.8619L86.0774 55.2681ZM86.2824 55.5695L87.1268 55.0338L87.1268 55.0337L86.2824 55.5695ZM86.386 55.6914L86.4193 54.6919L86.4027 54.6914H86.386V55.6914ZM91.9657 56.313L92.1149 55.3242V55.3242L91.9657 56.313ZM101.124 56.7427L101.277 57.7309L101.278 57.7307L101.124 56.7427ZM105.014 56.778L105.102 55.7819H105.102L105.014 56.778ZM107.321 56.9202L107.314 57.9202H107.321V56.9202ZM144.45 57.0976L144.466 56.0978L144.465 56.0977L144.45 57.0976ZM156.524 57.534L156.57 56.5351V56.5351L156.524 57.534ZM169.778 57.9851L169.768 58.985L169.769 58.985L169.778 57.9851ZM193.141 57.7157L193.12 56.716L193.141 57.7157ZM198.509 57.6028L198.492 56.603L198.489 56.603L198.509 57.6028ZM213.825 57.0703V56.0703H213.799L213.773 56.0717L213.825 57.0703ZM214.062 57.0703V58.0703H214.275L214.469 57.9837L214.062 57.0703ZM216.176 56.1283L216.583 57.0416L216.861 56.9176L217.023 56.6593L216.176 56.1283ZM217.268 55.5958L216.944 56.5421L217.339 56.677L217.713 56.4914L217.268 55.5958ZM221.661 53.0974L222.211 53.9324L222.243 53.9111L222.274 53.8874L221.661 53.0974ZM222.424 52.959L222.074 53.8957L222.074 53.8957L222.424 52.959ZM223.085 53.6298L222.194 54.084L222.696 55.0677L223.625 54.4715L223.085 53.6298ZM231.942 34.6524L230.943 34.6823L230.943 34.6825L231.942 34.6524ZM232.976 21.466L231.985 21.3331V21.3331L232.976 21.466ZM234 11.3333L234.999 11.3695L235.044 10.1482L233.838 10.3466L234 11.3333ZM232.322 11.9614L231.811 11.102L230.894 11.6475L231.497 12.5271L232.322 11.9614ZM232.868 12.9717L233.82 12.6651L233.806 12.6224L233.789 12.5812L232.868 12.9717ZM231.863 14.9377L231.824 13.9384L231.783 13.94L231.742 13.9451L231.863 14.9377ZM227.668 16.4668L227.14 15.6174L227.135 15.6207L227.668 16.4668ZM223.829 16.3166L223.164 17.0634L223.203 17.0978L223.245 17.1281L223.829 16.3166ZM221.455 16.2074L222.042 17.0167L222.055 17.007L222.068 16.997L221.455 16.2074ZM218.289 17.0539L218.124 18.0403L218.134 18.0418L218.289 17.0539ZM217.347 17.1494L216.996 16.213L216.927 16.2387L216.863 16.2743L217.347 17.1494ZM211.328 18.1196L211.305 19.1193L211.328 18.1196ZM209.59 18.1051L209.569 17.1054L209.568 17.1054L209.59 18.1051ZM194.255 18.871L194.319 19.869L194.255 18.871ZM184.66 18.4306C183.391 18.4542 182.123 18.4768 180.855 18.4971L180.887 20.4968C182.157 20.4765 183.428 20.4539 184.697 20.4303L184.66 18.4306ZM180.768 18.5023C180.493 18.5307 180.195 18.4707 179.878 18.2823L178.856 20.0017C179.505 20.3873 180.229 20.5685 180.974 20.4917L180.768 18.5023ZM179.964 19.9443C180.206 19.7644 180.442 19.6485 180.665 19.584L180.111 17.6624C179.632 17.8005 179.182 18.033 178.77 18.3398L179.964 19.9443ZM180.474 19.6195C183.631 19.3472 186.804 19.1157 189.993 18.9251L189.874 16.9287C186.668 17.1203 183.477 17.3531 180.302 17.6269L180.474 19.6195ZM189.999 18.9248C194 18.6634 198.005 18.4167 202.011 18.1698L201.888 16.1736C197.882 16.4204 193.874 16.6674 189.868 16.929L189.999 18.9248ZM202.011 18.1698C204.697 18.0043 207.384 17.8388 210.069 17.6689L209.943 15.6728C207.259 15.8427 204.574 16.0081 201.888 16.1736L202.011 18.1698ZM209.978 17.6705C211.369 17.7097 212.739 17.3671 214.03 16.6797L213.09 14.9145C212.079 15.4526 211.05 15.6999 210.034 15.6712L209.978 17.6705ZM214.56 15.7971V15.21H212.56V15.7971H214.56ZM213.69 14.2185C213.48 14.1909 213.267 14.1556 213.034 14.1167L212.705 16.0895C212.933 16.1273 213.18 16.1687 213.43 16.2015L213.69 14.2185ZM213.034 14.1167C212.551 14.0361 211.97 13.9369 211.375 13.9369V15.9369C211.777 15.9369 212.193 16.0039 212.705 16.0895L213.034 14.1167ZM211.339 13.9376C208.078 14.0564 204.816 13.7937 201.573 13.1505L201.184 15.1123C204.577 15.7852 207.994 16.0608 211.412 15.9363L211.339 13.9376ZM201.474 13.1359C200.011 12.9963 198.546 13.1592 197.117 13.6157L197.725 15.5209C198.905 15.1442 200.098 15.0137 201.284 15.1269L201.474 13.1359ZM197.144 13.6074C196.31 13.8478 195.489 14.1718 194.685 14.5759L195.583 16.3629C196.282 16.0117 196.988 15.7338 197.698 15.5292L197.144 13.6074ZM195.966 14.9148C193.581 11.3371 190.042 11.1791 186.826 11.2201L186.852 13.2199C190.063 13.179 192.555 13.4033 194.302 16.024L195.966 14.9148ZM186.839 11.22C183.892 11.22 180.943 11.1857 177.988 11.1512L177.965 13.1511C180.918 13.1855 183.878 13.22 186.839 13.22V11.22ZM177.988 11.1512C175.363 11.1206 172.732 11.0899 170.101 11.0835L170.096 13.0835C172.717 13.0899 175.338 13.1205 177.965 13.1511L177.988 11.1512ZM170.099 11.0835C168.455 11.0835 166.813 11.1251 165.185 11.1662L165.236 13.1656C166.867 13.1243 168.484 13.0835 170.099 13.0835V11.0835ZM165.185 11.1662C163.702 11.2037 162.232 11.2409 160.763 11.2473L160.771 13.2473C162.265 13.2408 163.757 13.203 165.236 13.1656L165.185 11.1662ZM160.767 11.2473H139.215V13.2473H160.767V11.2473ZM139.257 11.2482C138.881 11.2322 138.49 11.1194 138.092 10.8898L137.092 12.6218C137.742 12.997 138.444 13.2155 139.172 13.2464L139.257 11.2482ZM137.712 12.7486C142.222 12.2039 146.766 12.1432 151.401 12.0823L151.375 10.0825C146.758 10.1432 142.106 10.2033 137.472 10.763L137.712 12.7486ZM151.401 12.0823C154.891 12.0365 158.432 11.9902 161.996 11.7292L161.85 9.73453C158.356 9.99049 154.874 10.0365 151.375 10.0825L151.401 12.0823ZM162.727 10.1382C162.649 10.0325 162.602 9.95724 162.562 9.89486L160.873 10.9662C160.92 11.0403 160.998 11.1626 161.118 11.3256L162.727 10.1382ZM162.562 9.89481C162.55 9.87528 162.495 9.78695 162.437 9.71367C162.418 9.69081 162.14 9.30862 161.614 9.30862V11.3086C161.36 11.3086 161.168 11.2119 161.052 11.129C160.95 11.0562 160.89 10.9822 160.874 10.9622C160.848 10.9288 160.832 10.9015 160.873 10.9663L162.562 9.89481ZM161.647 9.30917C159.843 9.24912 158.047 8.97938 156.183 8.69817L155.885 10.6758C157.729 10.9541 159.64 11.2435 161.581 11.3081L161.647 9.30917ZM156.183 8.69817C153.186 8.24597 150.013 7.75979 146.723 8.26912L147.029 10.2456C149.968 9.79048 152.841 10.2165 155.885 10.6758L156.183 8.69817ZM146.722 8.26933C145.597 8.44499 144.411 8.34473 143.075 8.22596L142.898 10.2181C144.187 10.3327 145.622 10.4654 147.031 10.2454L146.722 8.26933ZM143.075 8.22596C142.311 8.15807 141.498 8.08524 140.686 8.07987L140.672 10.0798C141.389 10.0846 142.119 10.1489 142.898 10.2181L143.075 8.22596ZM140.679 8.07985H140.676V10.0799H140.679V8.07985ZM140.676 8.07985C128.297 8.07985 115.926 8.07984 103.564 7.90248L103.535 9.90228C115.914 10.0799 128.299 10.0799 140.676 10.0799V8.07985ZM103.566 7.90251C99.5578 7.83777 95.5471 7.65276 91.5223 7.46702L91.4301 9.46489C95.4499 9.6504 99.4905 9.83695 103.534 9.90225L103.566 7.90251ZM91.5223 7.46702C87.1017 7.26301 82.6638 7.05809 78.2317 7.01498L78.2122 9.01489C82.6019 9.05758 87.0033 9.2606 91.4301 9.46489L91.5223 7.46702ZM78.2305 7.01497C70.4261 6.94822 62.619 7.11667 54.8371 7.28452L54.8802 9.28405C62.6672 9.1161 70.4442 8.94844 78.2134 9.0149L78.2305 7.01497ZM54.8371 7.28452C53.0472 7.32312 51.2586 7.3617 49.4707 7.39741L49.5106 9.39701C51.3004 9.36126 53.0905 9.32265 54.8802 9.28405L54.8371 7.28452ZM49.4728 7.39737C44.3538 7.48859 39.2373 7.66647 34.1236 7.93101L34.2269 9.92834C39.3181 9.66496 44.412 9.48787 49.5085 9.39705L49.4728 7.39737ZM34.1752 7.92967H33.9378V9.92967H34.1752V7.92967ZM33.5306 8.01631L31.4173 8.95836L32.2316 10.7851L34.3449 9.84303L33.5306 8.01631ZM30.9771 9.34067C30.942 9.39673 30.9118 9.43152 30.8917 9.45094C30.8717 9.4703 30.8655 9.47082 30.8772 9.46513L31.7536 11.2629C32.1539 11.0677 32.4562 10.7469 32.6718 10.4028L30.9771 9.34067ZM30.8772 9.46513C30.8903 9.45874 30.9178 9.44863 30.9565 9.44596C30.9956 9.44327 31.0305 9.44932 31.0556 9.45792L30.4088 11.3504C30.8615 11.5051 31.3348 11.467 31.7536 11.2629L30.8772 9.46513ZM30.2874 9.50858C28.7482 10.2731 27.2393 11.1121 25.7892 12.0676L26.8897 13.7377C28.2573 12.8365 29.6927 12.0371 31.1771 11.2998L30.2874 9.50858ZM25.7263 12.1127C25.7165 12.1203 25.736 12.1025 25.7859 12.0935C25.839 12.0838 25.8904 12.0909 25.9263 12.1043L25.2262 13.9777C25.8467 14.2096 26.4742 14.0639 26.9525 13.6926L25.7263 12.1127ZM25.9263 12.1043C25.9572 12.1158 25.9545 12.1235 25.9263 12.095C25.8981 12.0663 25.8537 12.0103 25.8056 11.916L24.0238 12.8243C24.2658 13.299 24.657 13.765 25.2262 13.9777L25.9263 12.1043ZM24.3748 11.5285C21.1802 13.5775 18.8066 16.8674 17.2596 20.4373C15.711 24.0107 14.9547 27.945 15.0583 31.3778L17.0574 31.3175C16.9632 28.1969 17.6554 24.5539 19.0947 21.2326C20.5355 17.9078 22.6893 14.9856 25.4546 13.2119L24.3748 11.5285ZM15.0583 31.3776C15.1897 35.7574 14.619 40.0297 14.0329 44.4011L16.0151 44.6669C16.5979 40.3207 17.1945 35.8875 17.0574 31.3177L15.0583 31.3776ZM14.0329 44.4011C13.5841 47.7479 13.1266 51.1539 13.0007 54.6305L14.9993 54.7029C15.1212 51.3393 15.5643 48.0291 16.0151 44.6669L14.0329 44.4011ZM14.1624 55.6534C14.8681 55.5373 15.5488 55.2792 16.1894 54.898L15.1665 53.1793C14.7212 53.4443 14.2754 53.6079 13.8376 53.6799L14.1624 55.6534ZM16.5026 53.4729C16.3399 53.2358 16.1876 52.9565 16.0524 52.6378L14.2112 53.4188C14.3924 53.846 14.6068 54.245 14.8534 54.6044L16.5026 53.4729ZM16.0837 52.7218C16.0172 52.5152 15.9919 52.3536 15.9892 52.2375C15.9866 52.1213 16.0068 52.0742 16.0085 52.0705C16.009 52.0695 16.0062 52.0754 15.9988 52.0836C15.9954 52.0873 15.992 52.0905 15.9891 52.0928C15.9861 52.0952 15.9845 52.0961 15.9849 52.0959C15.985 52.0958 16.0346 52.067 16.1756 52.0616L16.0984 50.0631C15.2909 50.0943 14.5569 50.4554 14.1977 51.2214C13.8804 51.8982 13.9663 52.6715 14.18 53.3349L16.0837 52.7218ZM16.2585 52.0549C17.8492 51.8603 19.398 51.2907 20.8597 50.3826L19.8043 48.6838C18.5639 49.4543 17.2896 49.9138 16.0156 50.0697L16.2585 52.0549ZM20.8649 50.3794C21.7543 49.8192 22.6832 49.8445 23.5864 50.4949L24.7551 48.8719C23.212 47.7607 21.3997 47.6788 19.799 48.6871L20.8649 50.3794ZM23.5056 50.4302C24.0087 50.8782 24.623 51.1743 25.3048 51.2056L25.3967 49.2077C25.2561 49.2013 25.0637 49.1396 24.8358 48.9366L23.5056 50.4302ZM25.3048 51.2056C25.9898 51.2371 26.6265 50.9959 27.1588 50.5822L25.9316 49.003C25.7139 49.1722 25.534 49.2141 25.3967 49.2077L25.3048 51.2056ZM27.1326 50.6019C27.948 50.0101 28.7727 49.8111 29.5561 49.9341L29.8663 47.9582C28.4905 47.7423 27.1408 48.1246 25.9578 48.9833L27.1326 50.6019ZM29.5469 49.9326C30.041 50.0149 30.5361 49.9622 31.0038 49.7871L30.3024 47.9141C30.1516 47.9705 30.0113 47.9824 29.8755 47.9597L29.5469 49.9326ZM31.1369 49.7257C32.7888 48.8124 34.5637 48.8325 36.6496 48.8802L36.6953 46.8807C34.6882 46.8348 32.3653 46.7613 30.1692 47.9754L31.1369 49.7257ZM36.6496 48.8802C37.2261 48.8933 37.8281 48.9073 38.4306 48.8947L38.3888 46.8951C37.8374 46.9066 37.2793 46.894 36.6953 46.8807L36.6496 48.8802ZM38.4319 48.8946C43.5776 48.7804 48.7057 48.4528 53.809 48.1269L53.6815 46.131C48.5714 46.4573 43.4847 46.782 38.3875 46.8951L38.4319 48.8946ZM53.809 48.1269C57.0015 47.9231 60.1844 47.7198 63.3688 47.5684L63.2738 45.5707C60.0704 45.723 56.8714 45.9273 53.6815 46.131L53.809 48.1269ZM63.3399 47.5694C64.6088 47.5458 65.8771 47.5232 67.145 47.5029L67.1129 45.5032C65.8428 45.5235 64.5726 45.5461 63.3028 45.5697L63.3399 47.5694ZM67.2316 47.4977C67.5072 47.4693 67.805 47.5293 68.122 47.7177L69.1436 45.9983C68.4947 45.6127 67.7706 45.4315 67.0263 45.5083L67.2316 47.4977ZM68.0358 46.0557C67.7941 46.2356 67.5581 46.3515 67.3346 46.416L67.8889 48.3376C68.3679 48.1995 68.8176 47.967 69.2298 47.6603L68.0358 46.0557ZM67.5258 46.3805C64.3687 46.6528 61.1956 46.8843 58.0067 47.0749L58.126 49.0713C61.3323 48.8797 64.5229 48.6469 67.6977 48.3731L67.5258 46.3805ZM58.0011 47.0752C54.0001 47.3366 49.996 47.5833 45.9902 47.8301L46.1132 49.8263C50.1183 49.5795 54.1262 49.3326 58.1315 49.071L58.0011 47.0752ZM45.9902 47.8301C43.3038 47.9956 40.6168 48.1612 37.9309 48.3312L38.0572 50.3272C40.7412 50.1573 43.4266 49.9919 46.1132 49.8263L45.9902 47.8301ZM38.0222 48.3296C36.6307 48.2904 35.2607 48.6329 33.9701 49.3203L34.9103 51.0855C35.9206 50.5474 36.9495 50.3001 37.9658 50.3288L38.0222 48.3296ZM33.4402 50.2029V50.79H35.4402V50.2029H33.4402ZM34.3101 51.7815C34.5199 51.809 34.7326 51.8444 34.9655 51.8833L35.2945 49.9105C35.0675 49.8727 34.8204 49.8313 34.5703 49.7985L34.3101 51.7815ZM34.9655 51.8833C35.449 51.9639 36.0296 52.0631 36.6247 52.0631V50.0631C36.2234 50.0631 35.8075 49.9961 35.2945 49.9105L34.9655 51.8833ZM36.6611 52.0624C39.9216 51.9436 43.184 52.2063 46.4268 52.8495L46.8158 50.8877C43.423 50.2148 40.0056 49.9392 36.5883 50.0637L36.6611 52.0624ZM46.5263 52.8641C47.9894 53.0037 49.4537 52.8408 50.883 52.3843L50.2745 50.4791C49.0951 50.8558 47.9023 50.9863 46.7163 50.8731L46.5263 52.8641ZM50.8557 52.3926C51.6898 52.1522 52.5111 51.8282 53.3152 51.4241L52.4172 49.6371C51.7182 49.9883 51.0119 50.2662 50.3018 50.4708L50.8557 52.3926ZM52.0341 51.0852C54.4188 54.6629 57.9578 54.8209 61.1738 54.7799L61.1483 52.7801C57.9374 52.821 55.4452 52.5967 53.6983 49.976L52.0341 51.0852ZM61.1611 54.78C64.1084 54.78 67.0568 54.8143 70.0119 54.8488L70.0352 52.8489C67.082 52.8145 64.122 52.78 61.1611 52.78V54.78ZM70.0119 54.8488C72.637 54.8794 75.2675 54.9101 77.8988 54.9165L77.9037 52.9165C75.2831 52.9101 72.6619 52.8796 70.0352 52.8489L70.0119 54.8488ZM77.9012 54.9165C79.5453 54.9165 81.1873 54.8749 82.8146 54.8338L82.764 52.8344C81.1325 52.8757 79.5158 52.9165 77.9012 52.9165V54.9165ZM82.8146 54.8338C84.2975 54.7963 85.7683 54.7591 87.2373 54.7527L87.2286 52.7527C85.7351 52.7592 84.2435 52.797 82.764 52.8344L82.8146 54.8338ZM87.2329 54.7527H108.785V52.7527H87.2329V54.7527ZM108.743 54.7518C109.119 54.7678 109.51 54.8806 109.908 55.1102L110.908 53.3782C110.258 53.003 109.556 52.7845 108.828 52.7536L108.743 54.7518ZM110.288 53.2514C105.778 53.7961 101.234 53.8568 96.5988 53.9177L96.6251 55.9175C101.242 55.8568 105.894 55.7967 110.528 55.237L110.288 53.2514ZM96.5988 53.9177C93.1088 53.9635 89.5678 54.0098 86.0043 54.2708L86.1504 56.2655C89.6443 56.0095 93.1255 55.9635 96.6251 55.9175L96.5988 53.9177ZM85.2727 55.8619C85.3506 55.9675 85.3984 56.0427 85.4381 56.1052L87.1268 55.0337C87.0799 54.9597 87.0023 54.8374 86.882 54.6744L85.2727 55.8619ZM85.438 56.1052C85.4504 56.1247 85.5047 56.213 85.5632 56.2863C85.5815 56.3092 85.8603 56.6914 86.386 56.6914V54.6914C86.6395 54.6914 86.8324 54.7881 86.9483 54.871C87.0501 54.9438 87.1097 55.0178 87.1257 55.0378C87.1524 55.0712 87.168 55.0986 87.1268 55.0338L85.438 56.1052ZM86.3528 56.6908C88.1573 56.7509 89.9528 57.0206 91.8166 57.3018L92.1149 55.3242C90.2706 55.0459 88.3598 54.7565 86.4193 54.6919L86.3528 56.6908ZM91.8166 57.3018C94.8137 57.754 97.9872 58.2402 101.277 57.7309L100.971 55.7544C98.0315 56.2095 95.1588 55.7835 92.1149 55.3242L91.8166 57.3018ZM101.278 57.7307C102.403 57.555 103.589 57.6553 104.925 57.774L105.102 55.7819C103.813 55.6673 102.378 55.5346 100.969 55.7546L101.278 57.7307ZM104.925 57.774C105.689 57.8419 106.502 57.9148 107.314 57.9201L107.328 55.9202C106.611 55.9154 105.881 55.8511 105.102 55.7819L104.925 57.774ZM107.321 57.9202H107.324V55.9202H107.321V57.9202ZM107.324 57.9202C119.703 57.9202 132.074 57.9202 144.436 58.0975L144.465 56.0977C132.086 55.9201 119.701 55.9202 107.324 55.9202V57.9202ZM144.434 58.0975C148.442 58.1622 152.453 58.3472 156.478 58.533L156.57 56.5351C152.55 56.3496 148.509 56.1631 144.466 56.0978L144.434 58.0975ZM156.478 58.533C160.898 58.737 165.336 58.9419 169.768 58.985L169.788 56.9851C165.398 56.9424 160.997 56.7394 156.57 56.5351L156.478 58.533ZM169.769 58.985C177.574 59.0518 185.381 58.8833 193.163 58.7155L193.12 56.716C185.333 56.8839 177.556 57.0516 169.787 56.9851L169.769 58.985ZM193.163 58.7155C194.953 58.6769 196.741 58.6383 198.529 58.6026L198.489 56.603C196.7 56.6387 194.909 56.6774 193.12 56.716L193.163 58.7155ZM198.527 58.6026C203.646 58.5114 208.763 58.3335 213.876 58.069L213.773 56.0717C208.682 56.335 203.588 56.5121 198.492 56.603L198.527 58.6026ZM213.825 58.0703H214.062V56.0703H213.825V58.0703ZM214.469 57.9837L216.583 57.0416L215.768 55.2149L213.655 56.157L214.469 57.9837ZM217.023 56.6593C217.058 56.6033 217.088 56.5685 217.108 56.5491C217.128 56.5297 217.134 56.5292 217.123 56.5349L216.246 54.7371C215.846 54.9323 215.544 55.2531 215.328 55.5973L217.023 56.6593ZM217.123 56.5349C217.11 56.5413 217.082 56.5514 217.044 56.554C217.004 56.5567 216.97 56.5507 216.944 56.5421L217.591 54.6496C217.139 54.4949 216.665 54.533 216.246 54.7371L217.123 56.5349ZM217.713 56.4914C219.252 55.7269 220.761 54.8879 222.211 53.9324L221.11 52.2624C219.743 53.1636 218.307 53.9629 216.823 54.7002L217.713 56.4914ZM222.274 53.8874C222.284 53.8797 222.264 53.8975 222.214 53.9066C222.161 53.9162 222.11 53.9091 222.074 53.8957L222.774 52.0223C222.153 51.7904 221.526 51.9361 221.047 52.3074L222.274 53.8874ZM222.074 53.8957C222.043 53.8842 222.046 53.8765 222.074 53.905C222.102 53.9337 222.146 53.9897 222.194 54.084L223.976 53.1757C223.734 52.701 223.343 52.235 222.774 52.0223L222.074 53.8957ZM223.625 54.4715C226.82 52.4225 229.193 49.1326 230.74 45.5627C232.289 41.9893 233.045 38.055 232.942 34.6222L230.943 34.6825C231.037 37.8031 230.345 41.4462 228.905 44.7674C227.465 48.0922 225.311 51.0144 222.545 52.7881L223.625 54.4715ZM232.942 34.6224C232.81 30.2426 233.381 25.9703 233.967 21.5989L231.985 21.3331C231.402 25.6793 230.806 30.1125 230.943 34.6823L232.942 34.6224ZM233.967 21.5989C234.416 18.2521 234.873 14.8461 234.999 11.3695L233.001 11.2971C232.879 14.6607 232.436 17.9709 231.985 21.3331L233.967 21.5989ZM233.838 10.3466C233.132 10.4627 232.451 10.7208 231.811 11.102L232.833 12.8207C233.279 12.5557 233.725 12.3921 234.162 12.3201L233.838 10.3466ZM231.497 12.5271C231.66 12.7642 231.812 13.0435 231.948 13.3622L233.789 12.5812C233.608 12.154 233.393 11.755 233.147 11.3956L231.497 12.5271ZM231.916 13.2782C231.983 13.4848 232.008 13.6464 232.011 13.7625C232.013 13.8787 231.993 13.9258 231.991 13.9295C231.991 13.9305 231.994 13.9246 232.001 13.9164C232.005 13.9127 232.008 13.9095 232.011 13.9072C232.014 13.9048 232.015 13.9039 232.015 13.9041C232.015 13.9042 231.965 13.933 231.824 13.9384L231.902 15.9369C232.709 15.9058 233.443 15.5446 233.802 14.7786C234.12 14.1018 234.034 13.3285 233.82 12.6651L231.916 13.2782ZM231.742 13.9451C230.151 14.1398 228.602 14.7093 227.14 15.6174L228.196 17.3162C229.436 16.5457 230.71 16.0862 231.984 15.9303L231.742 13.9451ZM227.135 15.6207C226.246 16.1808 225.317 16.1555 224.414 15.5051L223.245 17.1281C224.788 18.2393 226.6 18.3212 228.201 17.3129L227.135 15.6207ZM224.494 15.5699C223.991 15.1218 223.377 14.8257 222.695 14.7944L222.603 16.7923C222.744 16.7987 222.936 16.8604 223.164 17.0634L224.494 15.5699ZM222.695 14.7944C222.01 14.7629 221.374 15.0041 220.841 15.4178L222.068 16.997C222.286 16.8278 222.466 16.7859 222.603 16.7923L222.695 14.7944ZM220.867 15.3981C220.052 15.9899 219.227 16.1889 218.444 16.066L218.134 18.0418C219.509 18.2577 220.859 17.8754 222.042 17.0167L220.867 15.3981ZM218.453 16.0675C217.959 15.9851 217.464 16.0378 216.996 16.213L217.698 18.0859C217.848 18.0295 217.989 18.0177 218.124 18.0403L218.453 16.0675ZM216.863 16.2743C215.211 17.1876 213.436 17.1675 211.35 17.1198L211.305 19.1193C213.312 19.1652 215.635 19.2387 217.831 18.0246L216.863 16.2743ZM211.35 17.1198C210.774 17.1067 210.172 17.0928 209.569 17.1054L209.611 19.1049C210.163 19.0934 210.721 19.106 211.305 19.1193L211.35 17.1198ZM209.568 17.1054C204.422 17.2196 199.294 17.5472 194.191 17.8731L194.319 19.869C199.429 19.5427 204.515 19.218 209.612 19.1049L209.568 17.1054ZM194.191 17.8731C190.999 18.0769 187.816 18.2802 184.631 18.4316L184.726 20.4293C187.93 20.277 191.129 20.0727 194.319 19.869L194.191 17.8731Z" fill="white" mask="url(#path-2-outside-1)"/>
<path d="M80.9414 34.7539H78.1406V41H74.625V23.9375H80.9648C82.9805 23.9375 84.5352 24.3867 85.6289 25.2852C86.7227 26.1836 87.2695 27.4531 87.2695 29.0938C87.2695 30.2578 87.0156 31.2305 86.5078 32.0117C86.0078 32.7852 85.2461 33.4023 84.2227 33.8633L87.9141 40.8359V41H84.1406L80.9414 34.7539ZM78.1406 31.9062H80.9766C81.8594 31.9062 82.543 31.6836 83.0273 31.2383C83.5117 30.7852 83.7539 30.1641 83.7539 29.375C83.7539 28.5703 83.5234 27.9375 83.0625 27.4766C82.6094 27.0156 81.9102 26.7852 80.9648 26.7852H78.1406V31.9062ZM100.219 33.6055H93.4688V38.1758H101.391V41H89.9531V23.9375H101.367V26.7852H93.4688V30.8516H100.219V33.6055ZM112.301 36.5234C112.301 35.8594 112.066 35.3516 111.598 35C111.129 34.6406 110.285 34.2656 109.066 33.875C107.848 33.4766 106.883 33.0859 106.172 32.7031C104.234 31.6562 103.266 30.2461 103.266 28.4727C103.266 27.5508 103.523 26.7305 104.039 26.0117C104.562 25.2852 105.309 24.7188 106.277 24.3125C107.254 23.9062 108.348 23.7031 109.559 23.7031C110.777 23.7031 111.863 23.9258 112.816 24.3711C113.77 24.8086 114.508 25.4297 115.031 26.2344C115.562 27.0391 115.828 27.9531 115.828 28.9766H112.312C112.312 28.1953 112.066 27.5898 111.574 27.1602C111.082 26.7227 110.391 26.5039 109.5 26.5039C108.641 26.5039 107.973 26.6875 107.496 27.0547C107.02 27.4141 106.781 27.8906 106.781 28.4844C106.781 29.0391 107.059 29.5039 107.613 29.8789C108.176 30.2539 109 30.6055 110.086 30.9336C112.086 31.5352 113.543 32.2812 114.457 33.1719C115.371 34.0625 115.828 35.1719 115.828 36.5C115.828 37.9766 115.27 39.1367 114.152 39.9805C113.035 40.8164 111.531 41.2344 109.641 41.2344C108.328 41.2344 107.133 40.9961 106.055 40.5195C104.977 40.0352 104.152 39.375 103.582 38.5391C103.02 37.7031 102.738 36.7344 102.738 35.6328H106.266C106.266 37.5156 107.391 38.457 109.641 38.457C110.477 38.457 111.129 38.2891 111.598 37.9531C112.066 37.6094 112.301 37.1328 112.301 36.5234ZM131.062 26.7852H125.836V41H122.32V26.7852H117.164V23.9375H131.062V26.7852ZM141.305 37.4844H135.141L133.969 41H130.23L136.582 23.9375H139.84L146.227 41H142.488L141.305 37.4844ZM136.09 34.6367H140.355L138.211 28.25L136.09 34.6367ZM154.137 34.7539H151.336V41H147.82V23.9375H154.16C156.176 23.9375 157.73 24.3867 158.824 25.2852C159.918 26.1836 160.465 27.4531 160.465 29.0938C160.465 30.2578 160.211 31.2305 159.703 32.0117C159.203 32.7852 158.441 33.4023 157.418 33.8633L161.109 40.8359V41H157.336L154.137 34.7539ZM151.336 31.9062H154.172C155.055 31.9062 155.738 31.6836 156.223 31.2383C156.707 30.7852 156.949 30.1641 156.949 29.375C156.949 28.5703 156.719 27.9375 156.258 27.4766C155.805 27.0156 155.105 26.7852 154.16 26.7852H151.336V31.9062ZM175.406 26.7852H170.18V41H166.664V26.7852H161.508V23.9375H175.406V26.7852Z" fill="#C9452D"/>
</svg>
