<svg width="54" height="52" viewBox="0 0 54 52" fill="none" xmlns="http://www.w3.org/2000/svg">
<mask id="path-1-outside-1" maskUnits="userSpaceOnUse" x="0" y="0" width="54" height="52" fill="black">
<rect fill="white" width="54" height="52"/>
<path fill-rule="evenodd" clip-rule="evenodd" d="M40.7906 12.4305C40.5021 12.454 40.2137 12.4766 39.9252 12.497C39.8093 12.5496 39.6932 12.429 39.5835 12.142C39.6578 11.8987 39.7357 11.7245 39.8155 11.6232C40.535 11.3501 41.2582 11.118 41.9849 10.9269C42.8948 10.6654 43.8053 10.4185 44.7157 10.1717C45.3262 10.0062 45.9367 9.84074 46.5468 9.67085C46.8204 9.70476 47.093 9.40986 47.3545 8.79707V8.20998C47.3022 8.17981 47.25 8.14146 47.1977 8.10311C47.0845 8.02002 46.9713 7.93693 46.858 7.93693C46.0992 8.05856 45.3401 7.78945 44.5861 7.13142C44.285 7.00503 43.9831 7.15168 43.6866 7.5683C43.5112 7.79082 43.3376 8.09171 43.1668 8.46939C42.6973 5.3702 42.0119 5.17905 41.2816 5.22001C40.6102 5.22001 39.9388 5.18557 39.2674 5.15114C38.6706 5.12053 38.0738 5.08992 37.477 5.08349C37.1067 5.08349 36.7364 5.1247 36.3661 5.1659C36.0294 5.20336 35.6928 5.24082 35.3561 5.24732H30.4579C30.3324 5.22388 30.2081 5.05821 30.0891 4.75582C31.1282 4.20361 32.1731 4.1432 33.2246 4.08242C34.0188 4.0365 34.8168 3.99037 35.6188 3.73186C35.5963 3.59759 35.582 3.49879 35.5722 3.43058C35.56 3.34619 35.5546 3.30862 35.5486 3.30862C35.1231 3.24631 34.7019 2.96672 34.2805 2.68698C33.594 2.23126 32.907 1.77513 32.1992 2.25735C31.9113 2.45518 31.6135 2.33871 31.3151 2.22203C31.1398 2.1535 30.9644 2.0849 30.7907 2.07985H30.79C27.9768 2.07985 25.1636 2.07985 22.3522 1.90238C21.4373 1.83736 20.5224 1.65158 19.6082 1.46595C18.6028 1.2618 17.5984 1.05784 16.5959 1.01493C14.8262 0.94833 13.0553 1.11639 11.2861 1.28429C10.8793 1.32289 10.4726 1.36148 10.0661 1.39721C8.9052 1.48823 7.74494 1.66572 6.58528 1.92967H6.53131L6.05102 2.87172C6.01811 3.10278 5.97846 3.27147 5.93532 3.36401C5.89217 3.45655 5.84676 3.47032 5.80278 3.40418C5.4592 4.15509 5.12461 4.97426 4.80441 5.90265C4.75003 6.08835 4.68924 6.13685 4.63097 6.04102C4.57269 5.94519 4.51999 5.71006 4.48062 5.37019C3.12608 9.19298 2.42273 17.7943 2.4677 24.3476C2.4982 28.8225 2.36555 33.1752 2.23272 37.534C2.1305 40.8885 2.02816 44.2466 2 47.6667C2.12995 47.5726 2.25796 47.3618 2.38136 47.0386C2.33485 46.7404 2.29319 46.4012 2.25723 46.0283C2.17629 44.9225 2.24464 44.1033 2.48569 44.0623C2.81123 43.887 3.13204 43.3725 3.43908 42.5332C3.72204 41.749 4.03354 41.8026 4.31153 42.6834C4.39459 43.0089 4.48626 43.1878 4.57971 43.2067C4.67315 43.2256 4.76596 43.0841 4.85118 42.7926C5.07827 42.0674 5.32536 41.7767 5.57072 41.9461C5.6423 41.9986 5.71452 41.9664 5.78479 41.8506C6.22206 40.7869 6.68771 40.8337 7.15284 40.8804C7.28471 40.8937 7.41654 40.9069 7.54767 40.8949C8.71162 40.7812 9.87239 40.4551 11.033 40.129C11.7583 39.9252 12.4835 39.7214 13.2094 39.5695C13.4979 39.546 13.7864 39.5234 14.0748 39.503C14.1906 39.4504 14.3068 39.571 14.4165 39.858C14.3422 40.1013 14.2643 40.2755 14.1845 40.3768C13.4649 40.6499 12.7418 40.882 12.0151 41.0731C11.1052 41.3346 10.1947 41.5815 9.28427 41.8283C8.67377 41.9938 8.06333 42.1593 7.45317 42.3291C7.17956 42.2952 6.90696 42.5901 6.64549 43.2029V43.79C6.69775 43.8202 6.75001 43.8585 6.80227 43.8969C6.9155 43.98 7.02874 44.0631 7.14197 44.0631C7.90082 43.9414 8.65988 44.2105 9.41392 44.8686C9.71496 44.995 10.0169 44.8483 10.3134 44.4317C10.4888 44.2092 10.6624 43.9083 10.8332 43.5306C11.3027 46.6298 11.9881 46.8209 12.7184 46.78C13.3898 46.78 14.0612 46.8144 14.7326 46.8489C15.3294 46.8795 15.9262 46.9101 16.523 46.9165C16.8933 46.9165 17.2636 46.8753 17.6339 46.8341C17.9706 46.7966 18.3072 46.7592 18.6438 46.7527H23.5421C23.6676 46.7761 23.7919 46.9418 23.9109 47.2442C22.8718 47.7964 21.8269 47.8568 20.7754 47.9176C19.9812 47.9635 19.1832 48.0096 18.3812 48.2681C18.4037 48.4024 18.418 48.5012 18.4278 48.5695C18.44 48.6538 18.4454 48.6914 18.4514 48.6914C18.8769 48.7537 19.2981 49.0333 19.7195 49.313C20.406 49.7687 21.093 50.2249 21.8008 49.7426C22.0887 49.5448 22.3865 49.6613 22.6849 49.778C22.8602 49.8465 23.0356 49.9151 23.2093 49.9201H23.2101C26.0232 49.9201 28.8364 49.9201 31.6478 50.0976C32.5627 50.1626 33.4776 50.3484 34.3918 50.534C35.3972 50.7382 36.4016 50.9422 37.4041 50.9851C39.1738 51.0517 40.9447 50.8836 42.7139 50.7157C43.1207 50.6771 43.5274 50.6385 43.9339 50.6028C45.0948 50.5118 46.2551 50.3343 47.4147 50.0703H47.4687L47.949 49.1283C47.9819 48.8972 48.0215 48.7285 48.0647 48.636C48.1078 48.5434 48.1532 48.5297 48.1972 48.5958C48.5408 47.8449 48.8754 47.0257 49.1956 46.0974C49.25 45.9117 49.3108 45.8631 49.369 45.959C49.4273 46.0548 49.48 46.2899 49.5194 46.6298C50.8739 42.807 51.5773 34.2057 51.5323 27.6524C51.5018 23.1775 51.6344 18.8248 51.7673 14.466C51.8695 11.1115 51.9718 7.7534 52 4.33334C51.8701 4.42743 51.742 4.63823 51.6186 4.96136C51.6651 5.25961 51.7068 5.59876 51.7428 5.97168C51.8237 7.07756 51.7554 7.89673 51.5143 7.93769C51.1888 8.11297 50.868 8.62749 50.5609 9.4668C50.278 10.251 49.9665 10.1974 49.6885 9.31662C49.6054 8.99112 49.5137 8.81224 49.4203 8.79332C49.3268 8.77441 49.234 8.91595 49.1488 9.20739C48.9217 9.93264 48.6746 10.2233 48.4293 10.0539C48.3577 10.0014 48.2855 10.0336 48.2152 10.1494C47.7779 11.2131 47.3123 11.1663 46.8472 11.1196C46.7153 11.1063 46.5835 11.0931 46.4523 11.1051C45.2884 11.2188 44.1276 11.545 42.967 11.871C42.2417 12.0748 41.5165 12.2786 40.7906 12.4305Z"/>
</mask>
<path fill-rule="evenodd" clip-rule="evenodd" d="M40.7906 12.4305C40.5021 12.454 40.2137 12.4766 39.9252 12.497C39.8093 12.5496 39.6932 12.429 39.5835 12.142C39.6578 11.8987 39.7357 11.7245 39.8155 11.6232C40.535 11.3501 41.2582 11.118 41.9849 10.9269C42.8948 10.6654 43.8053 10.4185 44.7157 10.1717C45.3262 10.0062 45.9367 9.84074 46.5468 9.67085C46.8204 9.70476 47.093 9.40986 47.3545 8.79707V8.20998C47.3022 8.17981 47.25 8.14146 47.1977 8.10311C47.0845 8.02002 46.9713 7.93693 46.858 7.93693C46.0992 8.05856 45.3401 7.78945 44.5861 7.13142C44.285 7.00503 43.9831 7.15168 43.6866 7.5683C43.5112 7.79082 43.3376 8.09171 43.1668 8.46939C42.6973 5.3702 42.0119 5.17905 41.2816 5.22001C40.6102 5.22001 39.9388 5.18557 39.2674 5.15114C38.6706 5.12053 38.0738 5.08992 37.477 5.08349C37.1067 5.08349 36.7364 5.1247 36.3661 5.1659C36.0294 5.20336 35.6928 5.24082 35.3561 5.24732H30.4579C30.3324 5.22388 30.2081 5.05821 30.0891 4.75582C31.1282 4.20361 32.1731 4.1432 33.2246 4.08242C34.0188 4.0365 34.8168 3.99037 35.6188 3.73186C35.5963 3.59759 35.582 3.49879 35.5722 3.43058C35.56 3.34619 35.5546 3.30862 35.5486 3.30862C35.1231 3.24631 34.7019 2.96672 34.2805 2.68698C33.594 2.23126 32.907 1.77513 32.1992 2.25735C31.9113 2.45518 31.6135 2.33871 31.3151 2.22203C31.1398 2.1535 30.9644 2.0849 30.7907 2.07985H30.79C27.9768 2.07985 25.1636 2.07985 22.3522 1.90238C21.4373 1.83736 20.5224 1.65158 19.6082 1.46595C18.6028 1.2618 17.5984 1.05784 16.5959 1.01493C14.8262 0.94833 13.0553 1.11639 11.2861 1.28429C10.8793 1.32289 10.4726 1.36148 10.0661 1.39721C8.9052 1.48823 7.74494 1.66572 6.58528 1.92967H6.53131L6.05102 2.87172C6.01811 3.10278 5.97846 3.27147 5.93532 3.36401C5.89217 3.45655 5.84676 3.47032 5.80278 3.40418C5.4592 4.15509 5.12461 4.97426 4.80441 5.90265C4.75003 6.08835 4.68924 6.13685 4.63097 6.04102C4.57269 5.94519 4.51999 5.71006 4.48062 5.37019C3.12608 9.19298 2.42273 17.7943 2.4677 24.3476C2.4982 28.8225 2.36555 33.1752 2.23272 37.534C2.1305 40.8885 2.02816 44.2466 2 47.6667C2.12995 47.5726 2.25796 47.3618 2.38136 47.0386C2.33485 46.7404 2.29319 46.4012 2.25723 46.0283C2.17629 44.9225 2.24464 44.1033 2.48569 44.0623C2.81123 43.887 3.13204 43.3725 3.43908 42.5332C3.72204 41.749 4.03354 41.8026 4.31153 42.6834C4.39459 43.0089 4.48626 43.1878 4.57971 43.2067C4.67315 43.2256 4.76596 43.0841 4.85118 42.7926C5.07827 42.0674 5.32536 41.7767 5.57072 41.9461C5.6423 41.9986 5.71452 41.9664 5.78479 41.8506C6.22206 40.7869 6.68771 40.8337 7.15284 40.8804C7.28471 40.8937 7.41654 40.9069 7.54767 40.8949C8.71162 40.7812 9.87239 40.4551 11.033 40.129C11.7583 39.9252 12.4835 39.7214 13.2094 39.5695C13.4979 39.546 13.7864 39.5234 14.0748 39.503C14.1906 39.4504 14.3068 39.571 14.4165 39.858C14.3422 40.1013 14.2643 40.2755 14.1845 40.3768C13.4649 40.6499 12.7418 40.882 12.0151 41.0731C11.1052 41.3346 10.1947 41.5815 9.28427 41.8283C8.67377 41.9938 8.06333 42.1593 7.45317 42.3291C7.17956 42.2952 6.90696 42.5901 6.64549 43.2029V43.79C6.69775 43.8202 6.75001 43.8585 6.80227 43.8969C6.9155 43.98 7.02874 44.0631 7.14197 44.0631C7.90082 43.9414 8.65988 44.2105 9.41392 44.8686C9.71496 44.995 10.0169 44.8483 10.3134 44.4317C10.4888 44.2092 10.6624 43.9083 10.8332 43.5306C11.3027 46.6298 11.9881 46.8209 12.7184 46.78C13.3898 46.78 14.0612 46.8144 14.7326 46.8489C15.3294 46.8795 15.9262 46.9101 16.523 46.9165C16.8933 46.9165 17.2636 46.8753 17.6339 46.8341C17.9706 46.7966 18.3072 46.7592 18.6438 46.7527H23.5421C23.6676 46.7761 23.7919 46.9418 23.9109 47.2442C22.8718 47.7964 21.8269 47.8568 20.7754 47.9176C19.9812 47.9635 19.1832 48.0096 18.3812 48.2681C18.4037 48.4024 18.418 48.5012 18.4278 48.5695C18.44 48.6538 18.4454 48.6914 18.4514 48.6914C18.8769 48.7537 19.2981 49.0333 19.7195 49.313C20.406 49.7687 21.093 50.2249 21.8008 49.7426C22.0887 49.5448 22.3865 49.6613 22.6849 49.778C22.8602 49.8465 23.0356 49.9151 23.2093 49.9201H23.2101C26.0232 49.9201 28.8364 49.9201 31.6478 50.0976C32.5627 50.1626 33.4776 50.3484 34.3918 50.534C35.3972 50.7382 36.4016 50.9422 37.4041 50.9851C39.1738 51.0517 40.9447 50.8836 42.7139 50.7157C43.1207 50.6771 43.5274 50.6385 43.9339 50.6028C45.0948 50.5118 46.2551 50.3343 47.4147 50.0703H47.4687L47.949 49.1283C47.9819 48.8972 48.0215 48.7285 48.0647 48.636C48.1078 48.5434 48.1532 48.5297 48.1972 48.5958C48.5408 47.8449 48.8754 47.0257 49.1956 46.0974C49.25 45.9117 49.3108 45.8631 49.369 45.959C49.4273 46.0548 49.48 46.2899 49.5194 46.6298C50.8739 42.807 51.5773 34.2057 51.5323 27.6524C51.5018 23.1775 51.6344 18.8248 51.7673 14.466C51.8695 11.1115 51.9718 7.7534 52 4.33334C51.8701 4.42743 51.742 4.63823 51.6186 4.96136C51.6651 5.25961 51.7068 5.59876 51.7428 5.97168C51.8237 7.07756 51.7554 7.89673 51.5143 7.93769C51.1888 8.11297 50.868 8.62749 50.5609 9.4668C50.278 10.251 49.9665 10.1974 49.6885 9.31662C49.6054 8.99112 49.5137 8.81224 49.4203 8.79332C49.3268 8.77441 49.234 8.91595 49.1488 9.20739C48.9217 9.93264 48.6746 10.2233 48.4293 10.0539C48.3577 10.0014 48.2855 10.0336 48.2152 10.1494C47.7779 11.2131 47.3123 11.1663 46.8472 11.1196C46.7153 11.1063 46.5835 11.0931 46.4523 11.1051C45.2884 11.2188 44.1276 11.545 42.967 11.871C42.2417 12.0748 41.5165 12.2786 40.7906 12.4305Z" fill="#20552A"/>
<path d="M40.7906 12.4305L40.872 13.4272L40.9343 13.4221L40.9954 13.4093L40.7906 12.4305ZM39.9252 12.497L39.8548 11.4995L39.6755 11.5121L39.5119 11.5864L39.9252 12.497ZM39.5835 12.142L38.6271 11.8499L38.5267 12.1784L38.6494 12.4993L39.5835 12.142ZM39.8155 11.6232L39.4607 10.6883L39.2016 10.7866L39.0301 11.0043L39.8155 11.6232ZM41.9849 10.9269L42.2393 11.894L42.2503 11.8911L42.2612 11.888L41.9849 10.9269ZM44.7157 10.1717L44.454 9.20658L44.7157 10.1717ZM46.5468 9.67085L46.6698 8.67844L46.4713 8.65383L46.2786 8.70749L46.5468 9.67085ZM47.3545 8.79707L48.2743 9.18952L48.3545 9.00149V8.79707H47.3545ZM47.3545 8.20998H48.3545V7.63271L47.8546 7.34401L47.3545 8.20998ZM47.1977 8.10311L46.6061 8.90935L46.6061 8.90936L47.1977 8.10311ZM46.858 7.93693V6.93693H46.7784L46.6998 6.94953L46.858 7.93693ZM44.5861 7.13142L45.2436 6.37797L45.122 6.27187L44.9732 6.20939L44.5861 7.13142ZM43.6866 7.5683L44.4719 8.1875L44.4871 8.16815L44.5014 8.14807L43.6866 7.5683ZM43.1668 8.46939L42.1781 8.61917L42.6845 11.9625L44.0779 8.88146L43.1668 8.46939ZM41.2816 5.22001V6.22001H41.3096L41.3376 6.21844L41.2816 5.22001ZM39.2674 5.15114L39.2162 6.14982L39.2674 5.15114ZM37.477 5.08349L37.4878 4.08349H37.477V5.08349ZM36.3661 5.1659L36.4767 6.15977L36.3661 5.1659ZM35.3561 5.24732V6.24732H35.3658L35.3755 6.24713L35.3561 5.24732ZM30.4579 5.24732L30.2742 6.23031L30.3652 6.24732H30.4579V5.24732ZM30.0891 4.75582L29.6198 3.87277L28.8317 4.29158L29.1586 5.12203L30.0891 4.75582ZM33.2246 4.08242L33.1668 3.08408L33.2246 4.08242ZM35.6188 3.73186L35.9256 4.68363L36.7479 4.41856L36.605 3.56648L35.6188 3.73186ZM35.5722 3.43058L36.5619 3.28788L36.5619 3.28785L35.5722 3.43058ZM35.5486 3.30862L35.4037 4.29807L35.4758 4.30862H35.5486V3.30862ZM34.2805 2.68698L33.7274 3.52011L33.7274 3.52011L34.2805 2.68698ZM32.1992 2.25735L31.6361 1.43091L31.6328 1.43321L32.1992 2.25735ZM31.3151 2.22203L30.9509 3.15336V3.15336L31.3151 2.22203ZM30.7907 2.07985L30.8197 1.08028L30.8052 1.07985H30.7907V2.07985ZM22.3522 1.90238L22.2813 2.8999L22.2892 2.90039L22.3522 1.90238ZM19.6082 1.46595L19.4092 2.44595L19.6082 1.46595ZM16.5959 1.01493L16.6387 0.015835L16.6335 0.0156411L16.5959 1.01493ZM11.2861 1.28429L11.1916 0.288758L11.2861 1.28429ZM10.0661 1.39721L10.1442 2.3942L10.1536 2.39337L10.0661 1.39721ZM6.58528 1.92967V2.92967H6.69765L6.80722 2.90473L6.58528 1.92967ZM6.53131 1.92967V0.929671H5.91868L5.64042 1.47546L6.53131 1.92967ZM6.05102 2.87172L5.16013 2.41751L5.08449 2.56585L5.06101 2.73071L6.05102 2.87172ZM5.93532 3.36401L5.02898 2.94146L5.02898 2.94146L5.93532 3.36401ZM5.80278 3.40418L6.63549 2.85048L5.64085 1.35464L4.89344 2.98811L5.80278 3.40418ZM4.80441 5.90265L3.85906 5.5766L3.85136 5.59894L3.84471 5.62162L4.80441 5.90265ZM4.63097 6.04102L3.77655 6.5606L3.77655 6.5606L4.63097 6.04102ZM4.48062 5.37019L5.47397 5.25511L3.53804 5.03621L4.48062 5.37019ZM2.4677 24.3476L3.46768 24.3408L3.46768 24.3408L2.4677 24.3476ZM2.23272 37.534L1.23319 37.5035L2.23272 37.534ZM2 47.6667L1.00003 47.6584L0.98374 49.6371L2.58646 48.4766L2 47.6667ZM2.38136 47.0386L3.31556 47.3954L3.41036 47.1471L3.36942 46.8846L2.38136 47.0386ZM2.25723 46.0283L1.2599 46.1013L1.26074 46.1128L1.26185 46.1243L2.25723 46.0283ZM2.48569 44.0623L2.65321 45.0482L2.81514 45.0207L2.95977 44.9428L2.48569 44.0623ZM3.43908 42.5332L4.37822 42.8768L4.37972 42.8726L3.43908 42.5332ZM4.31153 42.6834L5.28048 42.4361L5.27357 42.4091L5.26516 42.3824L4.31153 42.6834ZM4.85118 42.7926L3.89687 42.4938L3.89404 42.5028L3.89138 42.5119L4.85118 42.7926ZM5.57072 41.9461L6.1619 41.1396L6.15056 41.1313L6.139 41.1233L5.57072 41.9461ZM5.78479 41.8506L6.63967 42.3694L6.68008 42.3028L6.70969 42.2308L5.78479 41.8506ZM7.15284 40.8804L7.25285 39.8854H7.25285L7.15284 40.8804ZM7.54767 40.8949L7.63927 41.8907L7.64487 41.8901L7.54767 40.8949ZM11.033 40.129L11.3035 41.0917H11.3035L11.033 40.129ZM13.2094 39.5695L13.1281 38.5728L13.0658 38.5779L13.0046 38.5907L13.2094 39.5695ZM14.0748 39.503L14.1452 40.5005L14.3245 40.4879L14.4881 40.4136L14.0748 39.503ZM14.4165 39.858L15.3729 40.1501L15.4733 39.8216L15.3505 39.5007L14.4165 39.858ZM14.1845 40.3768L14.5393 41.3117L14.7984 41.2134L14.9699 40.9957L14.1845 40.3768ZM12.0151 41.0731L11.7607 40.106L11.7497 40.1089L11.7388 40.112L12.0151 41.0731ZM9.28427 41.8283L9.54592 42.7934H9.54592L9.28427 41.8283ZM7.45317 42.3291L7.33016 43.3216L7.52869 43.3462L7.72141 43.2925L7.45317 42.3291ZM6.64549 43.2029L5.72571 42.8105L5.64549 42.9985V43.2029H6.64549ZM6.64549 43.79H5.64549V44.3673L6.14541 44.656L6.64549 43.79ZM6.80227 43.8969L6.21065 44.7031L6.21068 44.7031L6.80227 43.8969ZM7.14197 44.0631V45.0631H7.22161L7.30024 45.0505L7.14197 44.0631ZM9.41392 44.8686L8.75642 45.622L8.87801 45.7281L9.0268 45.7906L9.41392 44.8686ZM10.3134 44.4317L9.52813 43.8125L9.51286 43.8318L9.49857 43.8519L10.3134 44.4317ZM10.8332 43.5306L11.8219 43.3808L11.3155 40.0375L9.92206 43.1185L10.8332 43.5306ZM12.7184 46.78V45.78H12.6904L12.6624 45.7816L12.7184 46.78ZM14.7326 46.8489L14.7838 45.8502H14.7838L14.7326 46.8489ZM16.523 46.9165L16.5122 47.9165H16.523L16.523 46.9165ZM17.6339 46.8341L17.7445 47.828H17.7445L17.6339 46.8341ZM18.6438 46.7527V45.7527H18.6342L18.6245 45.7529L18.6438 46.7527ZM23.5421 46.7527L23.7258 45.7697L23.6348 45.7527H23.5421V46.7527ZM23.9109 47.2442L24.3802 48.1272L25.1682 47.7084L24.8414 46.878L23.9109 47.2442ZM20.7754 47.9176L20.8332 48.9159H20.8332L20.7754 47.9176ZM18.3812 48.2681L18.0744 47.3164L17.2521 47.5814L17.395 48.4335L18.3812 48.2681ZM18.4278 48.5695L19.4176 48.4267V48.4267L18.4278 48.5695ZM18.4514 48.6914L18.5963 47.7019L18.5242 47.6914H18.4514V48.6914ZM19.7195 49.313L19.1664 50.1461L19.1664 50.1461L19.7195 49.313ZM21.8008 49.7426L22.3639 50.5691L22.3672 50.5668L21.8008 49.7426ZM22.6849 49.778L23.0491 48.8466L23.0491 48.8466L22.6849 49.778ZM23.2093 49.9201L23.1803 50.9197L23.1948 50.9201H23.2093V49.9201ZM31.6478 50.0976L31.7186 49.1001L31.7108 49.0996L31.6478 50.0976ZM34.3918 50.534L34.5908 49.554H34.5908L34.3918 50.534ZM37.4041 50.9851L37.3613 51.9842L37.3665 51.9844L37.4041 50.9851ZM42.7139 50.7157L42.6195 49.7202L42.6195 49.7202L42.7139 50.7157ZM43.9339 50.6028L43.8558 49.6058L43.8464 49.6066L43.9339 50.6028ZM47.4147 50.0703V49.0703H47.3024L47.1928 49.0953L47.4147 50.0703ZM47.4687 50.0703V51.0703H48.0813L48.3596 50.5245L47.4687 50.0703ZM47.949 49.1283L48.8399 49.5825L48.9155 49.4341L48.939 49.2693L47.949 49.1283ZM48.0647 48.636L47.1583 48.2134L47.1583 48.2135L48.0647 48.636ZM48.1972 48.5958L47.3645 49.1495L48.3592 50.6453L49.1066 49.0119L48.1972 48.5958ZM49.1956 46.0974L50.1409 46.4234L50.1486 46.4011L50.1553 46.3784L49.1956 46.0974ZM49.5194 46.6298L48.526 46.7449L50.462 46.9638L49.5194 46.6298ZM51.5323 27.6524L50.5323 27.6592V27.6592L51.5323 27.6524ZM51.7673 14.466L52.7668 14.4964L51.7673 14.466ZM52 4.33334L53 4.34158L53.0163 2.36298L51.4136 3.52335L52 4.33334ZM51.6186 4.96136L50.6844 4.60461L50.5896 4.85286L50.6306 5.11543L51.6186 4.96136ZM51.7428 5.97168L52.7401 5.89868L52.7393 5.88718L52.7382 5.87571L51.7428 5.97168ZM51.5143 7.93769L51.3468 6.95182L51.1849 6.97934L51.0402 7.0572L51.5143 7.93769ZM50.5609 9.4668L49.6218 9.12323L49.6203 9.12739L50.5609 9.4668ZM49.6885 9.31662L48.7195 9.56386L48.7264 9.59095L48.7348 9.61761L49.6885 9.31662ZM49.4203 8.79332L49.2219 9.77345L49.2219 9.77345L49.4203 8.79332ZM49.1488 9.20739L50.1031 9.50621L50.106 9.49717L50.1086 9.48807L49.1488 9.20739ZM48.4293 10.0539L47.8381 10.8604L47.8494 10.8687L47.861 10.8767L48.4293 10.0539ZM48.2152 10.1494L47.3603 9.63064L47.3199 9.69721L47.2903 9.76923L48.2152 10.1494ZM46.8472 11.1196L46.9472 10.1246L46.8472 11.1196ZM46.4523 11.1051L46.3607 10.1093L46.3551 10.1099L46.4523 11.1051ZM42.967 11.871L43.2375 12.8338L42.967 11.871ZM40.7093 11.4338C40.4228 11.4572 40.1383 11.4795 39.8548 11.4995L39.9956 13.4945C40.289 13.4738 40.5815 13.4509 40.872 13.4272L40.7093 11.4338ZM39.5119 11.5864C39.6881 11.5064 39.9043 11.4819 40.1172 11.5437C40.3076 11.599 40.4231 11.702 40.4724 11.7532C40.5568 11.8409 40.5582 11.8912 40.5175 11.7848L38.6494 12.4993C38.7185 12.6798 38.8328 12.9339 39.0317 13.1404C39.1383 13.2511 39.3114 13.3923 39.5595 13.4644C39.8303 13.543 40.1045 13.5138 40.3386 13.4075L39.5119 11.5864ZM40.5398 12.4341C40.5686 12.3398 40.593 12.2763 40.6103 12.2376C40.6143 12.2285 40.6176 12.2217 40.62 12.2169C40.6212 12.2145 40.6222 12.2128 40.6228 12.2116C40.6234 12.2104 40.6238 12.2098 40.6238 12.2098C40.6238 12.2098 40.6234 12.2105 40.6226 12.2118C40.6218 12.2131 40.6205 12.2151 40.6188 12.2177C40.6153 12.2229 40.6095 12.2313 40.601 12.2421L39.0301 11.0043C38.8304 11.2576 38.7094 11.5805 38.6271 11.8499L40.5398 12.4341ZM40.1703 12.5581C40.8577 12.2973 41.5474 12.076 42.2393 11.894L41.7306 9.9598C40.969 10.1601 40.2124 10.403 39.4607 10.6883L40.1703 12.5581ZM42.2612 11.888C43.1626 11.6289 44.0658 11.384 44.9774 11.1369L44.454 9.20658C43.5449 9.45306 42.627 9.70186 41.7087 9.96582L42.2612 11.888ZM44.9774 11.1369C45.5873 10.9715 46.2011 10.8052 46.8151 10.6342L46.2786 8.70749C45.6723 8.87632 45.0651 9.04092 44.454 9.20658L44.9774 11.1369ZM46.4238 10.6633C47.0069 10.7355 47.44 10.4252 47.6895 10.1553C47.9371 9.88746 48.1244 9.54074 48.2743 9.18952L46.4347 8.40461C46.382 8.5282 46.3346 8.62173 46.2944 8.6901C46.2533 8.75999 46.2272 8.79084 46.2209 8.79768C46.2135 8.80566 46.2447 8.76863 46.3216 8.73202C46.4079 8.69088 46.5307 8.66119 46.6698 8.67844L46.4238 10.6633ZM48.3545 8.79707V8.20998H46.3545V8.79707H48.3545ZM47.8546 7.34401C47.861 7.34768 47.8596 7.34732 47.8466 7.33834C47.833 7.32883 47.8173 7.31742 47.7893 7.29687L46.6061 8.90936C46.6486 8.94054 46.7461 9.01338 46.8544 9.07595L47.8546 7.34401ZM47.7893 7.29688C47.7448 7.2642 47.6343 7.18115 47.51 7.11277C47.3851 7.04403 47.1552 6.93693 46.858 6.93693V8.93693C46.7633 8.93693 46.6876 8.9195 46.6373 8.90335C46.5883 8.88763 46.5566 8.87092 46.5457 8.86495C46.5347 8.85887 46.5332 8.85717 46.546 8.86597C46.5596 8.87533 46.5756 8.88692 46.6061 8.90935L47.7893 7.29688ZM46.6998 6.94953C46.3175 7.01081 45.8465 6.90411 45.2436 6.37797L43.9286 7.88487C44.8337 8.67478 45.8809 9.10632 47.0163 8.92433L46.6998 6.94953ZM44.9732 6.20939C44.5499 6.03168 44.099 6.05179 43.6977 6.24673C43.3378 6.42156 43.0704 6.70955 42.8719 6.98853L44.5014 8.14807C44.5462 8.0851 44.5785 8.05047 44.5956 8.03443C44.6127 8.0183 44.6056 8.02918 44.5715 8.04573C44.5343 8.06381 44.4727 8.0846 44.3932 8.08723C44.313 8.08987 44.2455 8.073 44.1989 8.05344L44.9732 6.20939ZM42.9014 6.9491C42.6584 7.25723 42.446 7.63646 42.2556 8.05732L44.0779 8.88146C44.2292 8.54696 44.3639 8.32442 44.4719 8.1875L42.9014 6.9491ZM44.1555 8.31961C43.9187 6.75679 43.6051 5.71378 43.1231 5.06861C42.857 4.71244 42.5305 4.46351 42.1466 4.33006C41.7861 4.20475 41.4497 4.20901 41.2256 4.22158L41.3376 6.21844C41.4787 6.21053 41.5018 6.22332 41.4899 6.21918C41.4546 6.2069 41.4657 6.19178 41.5209 6.26568C41.6815 6.48064 41.9453 7.0828 42.1781 8.61917L44.1555 8.31961ZM41.2816 4.22001C40.6401 4.22001 39.9943 4.18711 39.3186 4.15245L39.2162 6.14982C39.8833 6.18404 40.5803 6.22001 41.2816 6.22001V4.22001ZM39.3186 4.15245C38.7252 4.12201 38.1082 4.09023 37.4878 4.08355L37.4662 6.08344C38.0394 6.08961 38.616 6.11904 39.2162 6.14982L39.3186 4.15245ZM37.477 4.08349C37.0419 4.08349 36.6163 4.13189 36.2555 4.17204L36.4767 6.15977C36.8565 6.1175 37.1715 6.08349 37.477 6.08349V4.08349ZM36.2555 4.17204C35.911 4.21037 35.62 4.24204 35.3368 4.24751L35.3755 6.24713C35.7656 6.2396 36.1479 6.19636 36.4767 6.15977L36.2555 4.17204ZM35.3561 4.24732H30.4579V6.24732H35.3561V4.24732ZM30.6416 4.26433C30.7932 4.29267 30.9024 4.35651 30.9671 4.40545C31.0297 4.45277 31.0623 4.49449 31.071 4.50603C31.0848 4.52452 31.0628 4.49935 31.0196 4.3896L29.1586 5.12203C29.2344 5.31468 29.334 5.52354 29.4712 5.70632C29.5955 5.87199 29.8521 6.15143 30.2742 6.23031L30.6416 4.26433ZM30.5584 5.63887C31.3778 5.20339 32.2089 5.14281 33.2823 5.08075L33.1668 3.08408C32.1374 3.1436 30.8786 3.20383 29.6198 3.87277L30.5584 5.63887ZM33.2823 5.08075C34.0596 5.03581 34.9834 4.98733 35.9256 4.68363L35.312 2.78008C34.6502 2.99341 33.9781 3.03718 33.1668 3.08408L33.2823 5.08075ZM36.605 3.56648C36.5844 3.44387 36.5715 3.35426 36.5619 3.28788L34.5824 3.57328C34.5925 3.64333 34.6081 3.75131 34.6325 3.89723L36.605 3.56648ZM36.5619 3.28785C36.5573 3.25533 36.5497 3.20185 36.542 3.15927C36.5393 3.14463 36.5285 3.08334 36.5062 3.01312C36.4974 2.98541 36.4667 2.88926 36.3995 2.78138C36.3704 2.73474 36.1098 2.30862 35.5486 2.30862V4.30862C35.268 4.30862 35.055 4.19367 34.9259 4.09062C34.8058 3.99478 34.7358 3.89331 34.7022 3.83942C34.6365 3.73392 34.6073 3.64137 34.6 3.6185C34.5886 3.5824 34.5821 3.55432 34.5795 3.54288C34.5765 3.52937 34.5747 3.51977 34.5742 3.51664C34.5737 3.51395 34.5749 3.52144 34.5824 3.57331L36.5619 3.28785ZM35.6935 2.31917C35.5349 2.29595 35.3126 2.17182 34.8336 1.85385L33.7274 3.52011C34.0912 3.76162 34.7112 4.19666 35.4037 4.29807L35.6935 2.31917ZM34.8336 1.85385C34.5215 1.64666 34.0571 1.32943 33.5526 1.168C32.975 0.983218 32.2936 0.982967 31.6361 1.43091L32.7622 3.08378C32.8099 3.05128 32.8285 3.05173 32.8285 3.05173C32.835 3.05107 32.8678 3.04878 32.9431 3.07288C33.1307 3.13289 33.3531 3.27158 33.7274 3.52011L34.8336 1.85385ZM31.6328 1.43321C31.669 1.40829 31.72 1.3846 31.7794 1.37233C31.8356 1.36075 31.8758 1.36416 31.8884 1.36578C31.898 1.367 31.8883 1.36679 31.8484 1.35379C31.8062 1.34005 31.7588 1.32181 31.6792 1.2907L30.9509 3.15336C31.1432 3.22855 31.9745 3.62513 32.7656 3.08148L31.6328 1.43321ZM31.6792 1.2907C31.5428 1.23736 31.1993 1.09131 30.8197 1.08028L30.7616 3.07943C30.7298 3.0785 30.7249 3.07292 30.7639 3.08465C30.8063 3.09742 30.8562 3.11633 30.9509 3.15336L31.6792 1.2907ZM30.7907 1.07985H30.79V3.07985H30.7907V1.07985ZM30.79 1.07985C27.9716 1.07985 25.1899 1.07952 22.4152 0.904367L22.2892 2.90039C25.1373 3.08018 27.982 3.07985 30.79 3.07985V1.07985ZM22.4231 0.904896C21.5839 0.845255 20.7329 0.673921 19.8072 0.485954L19.4092 2.44595C20.3119 2.62924 21.2907 2.82947 22.2813 2.89986L22.4231 0.904896ZM19.8072 0.485954C18.8162 0.284719 17.7336 0.0627107 16.6387 0.0158483L16.5531 2.01402C17.4632 2.05297 18.3895 2.23888 19.4092 2.44595L19.8072 0.485954ZM16.6335 0.0156411C14.7865 -0.0538709 12.9495 0.121936 11.1916 0.288758L11.3805 2.27981C13.1611 2.11084 14.8658 1.95053 16.5583 2.01423L16.6335 0.0156411ZM11.1916 0.288758C10.7842 0.327415 10.381 0.365676 9.97851 0.401051L10.1536 2.39337C10.5642 2.35729 10.9743 2.31836 11.3805 2.27981L11.1916 0.288758ZM9.98789 0.400271C8.77762 0.495164 7.56932 0.680113 6.36334 0.95461L6.80722 2.90473C7.92056 2.65132 9.03278 2.4813 10.1442 2.39415L9.98789 0.400271ZM6.58528 0.929671H6.53131V2.92967H6.58528V0.929671ZM5.64042 1.47546L5.16013 2.41751L6.94191 3.32593L7.42221 2.38388L5.64042 1.47546ZM5.06101 2.73071C5.04737 2.82646 5.03421 2.89559 5.02353 2.94102C5.01829 2.96332 5.0148 2.97496 5.01385 2.97796C5.01244 2.98238 5.01666 2.96788 5.02898 2.94146L6.84165 3.78657C6.95297 3.5478 7.00741 3.24872 7.04103 3.01273L5.06101 2.73071ZM5.02898 2.94146C5.03913 2.91968 5.07038 2.85555 5.13304 2.78005C5.19059 2.71069 5.33297 2.56124 5.57933 2.48658C5.86662 2.39952 6.14348 2.45907 6.34446 2.57775C6.51353 2.67759 6.60285 2.80138 6.63549 2.85048L4.97006 3.95788C5.042 4.06607 5.45482 4.61414 6.15938 4.40062C6.42799 4.31922 6.59257 4.15311 6.67214 4.05722C6.75682 3.95517 6.80993 3.85462 6.84166 3.78656L5.02898 2.94146ZM4.89344 2.98811C4.53721 3.76668 4.19041 4.61588 3.85906 5.5766L5.74977 6.2287C6.05881 5.33264 6.38119 4.54349 6.71211 3.82025L4.89344 2.98811ZM3.84471 5.62162C3.84037 5.63644 3.84494 5.61623 3.86417 5.57691C3.87434 5.5561 3.93894 5.42061 4.0955 5.29571C4.18346 5.22553 4.32098 5.14261 4.50686 5.10658C4.70181 5.0688 4.89172 5.0942 5.05343 5.16031C5.33597 5.27582 5.46181 5.48267 5.48539 5.52144L3.77655 6.5606C3.82926 6.64729 3.98455 6.88401 4.29659 7.01158C4.71362 7.18207 5.10625 7.04784 5.3428 6.85911C5.52864 6.71085 5.62228 6.5344 5.66096 6.45527C5.7087 6.35762 5.74126 6.26171 5.76411 6.18368L3.84471 5.62162ZM5.48539 5.52144C5.50684 5.55672 5.51971 5.58443 5.52597 5.59878C5.53259 5.61395 5.53572 5.62321 5.53613 5.6244C5.53657 5.62573 5.53204 5.61207 5.5245 5.57842C5.50933 5.51076 5.49124 5.40412 5.47397 5.25511L3.48726 5.48527C3.50937 5.67613 3.53732 5.857 3.57291 6.01582C3.60172 6.14436 3.65707 6.36413 3.77655 6.5606L5.48539 5.52144ZM3.53804 5.03621C2.81749 7.06976 2.29472 10.2792 1.95416 13.7369C1.61113 17.2198 1.445 21.0435 1.46773 24.3545L3.46768 24.3408C3.44543 21.0984 3.60849 17.3448 3.94453 13.933C4.28304 10.4961 4.78921 7.49342 5.4232 5.70418L3.53804 5.03621ZM1.46772 24.3545C1.49807 28.8077 1.3661 33.142 1.23319 37.5035L3.23226 37.5644C3.36501 33.2084 3.49832 28.8373 3.46768 24.3408L1.46772 24.3545ZM1.23319 37.5035C1.13101 40.8563 1.0283 44.2254 1.00003 47.6584L2.99997 47.6749C3.02802 44.2677 3.12998 40.9207 3.23226 37.5644L1.23319 37.5035ZM2.58646 48.4766C2.97388 48.1961 3.18647 47.7334 3.31556 47.3954L1.44716 46.6819C1.39906 46.8078 1.36099 46.8823 1.33838 46.9195C1.32773 46.937 1.32556 46.9379 1.3338 46.9282C1.34157 46.919 1.36707 46.8903 1.41354 46.8567L2.58646 48.4766ZM3.36942 46.8846C3.32654 46.6096 3.28712 46.2903 3.25262 45.9324L1.26185 46.1243C1.29925 46.5122 1.34317 46.8712 1.39329 47.1927L3.36942 46.8846ZM3.25457 45.9553C3.21608 45.4295 3.21703 45.0152 3.24508 44.7519C3.25996 44.6124 3.27675 44.5737 3.26824 44.5955C3.26373 44.607 3.23471 44.6812 3.15775 44.7696C3.07435 44.8655 2.90864 45.0048 2.65321 45.0482L2.31817 43.0765C1.69319 43.1826 1.46275 43.7209 1.4056 43.8671C1.319 44.0885 1.27857 44.3314 1.25634 44.54C1.2102 44.973 1.21745 45.5213 1.2599 46.1013L3.25457 45.9553ZM2.95977 44.9428C3.34404 44.7359 3.6187 44.3953 3.81789 44.0759C4.02652 43.7412 4.21111 43.3335 4.37821 42.8768L2.49995 42.1896C2.36001 42.5722 2.23067 42.8414 2.12075 43.0177C2.00139 43.2091 1.95287 43.2135 2.01161 43.1818L2.95977 44.9428ZM4.37972 42.8726C4.43656 42.7151 4.46434 42.692 4.43594 42.7275C4.41728 42.7507 4.16417 43.0481 3.70753 42.9695C3.51498 42.9363 3.38828 42.8464 3.32754 42.793C3.29629 42.7655 3.2759 42.7421 3.26492 42.7285C3.25918 42.7214 3.25516 42.7159 3.25273 42.7125C3.25149 42.7107 3.25059 42.7094 3.25001 42.7085C3.24943 42.7076 3.24915 42.7072 3.24915 42.7071C3.24914 42.7071 3.24939 42.7075 3.24988 42.7084C3.25037 42.7092 3.25108 42.7104 3.25199 42.7121C3.25385 42.7154 3.25642 42.7202 3.25966 42.7266C3.26623 42.7396 3.27478 42.7577 3.28502 42.7819C3.30578 42.8309 3.33045 42.8974 3.3579 42.9844L5.26516 42.3824C5.18442 42.1266 5.0828 41.8679 4.9463 41.649C4.83694 41.4736 4.56087 41.0869 4.04682 40.9984C3.44218 40.8944 3.04076 41.2703 2.87543 41.4765C2.70035 41.6949 2.58309 41.9592 2.49845 42.1938L4.37972 42.8726ZM3.34258 42.9306C3.39182 43.1236 3.45743 43.332 3.55179 43.5161C3.59896 43.6081 3.67167 43.7308 3.78127 43.8474C3.88858 43.9617 4.08551 44.1269 4.38133 44.1868L4.77808 42.2266C5.02718 42.277 5.17762 42.4128 5.23886 42.478C5.30238 42.5456 5.32947 42.5996 5.33166 42.6039C5.33605 42.6125 5.31429 42.5686 5.28048 42.4361L3.34258 42.9306ZM4.38133 44.1868C5.07824 44.3279 5.4687 43.7957 5.55481 43.6643C5.68168 43.4708 5.75923 43.2503 5.81099 43.0733L3.89138 42.5119C3.8579 42.6264 3.84645 42.6223 3.88224 42.5677C3.90047 42.5399 3.96722 42.4424 4.10201 42.3542C4.25864 42.2517 4.49997 42.1703 4.77808 42.2266L4.38133 44.1868ZM5.80549 43.0914C5.85331 42.9387 5.89631 42.8282 5.93149 42.7526C5.96922 42.6716 5.98472 42.6595 5.96602 42.6815C5.95263 42.6973 5.8437 42.8234 5.62101 42.8771C5.35688 42.9408 5.1305 42.8574 5.00245 42.769L6.139 41.1233C5.88827 40.9501 5.53899 40.8396 5.15243 40.9328C4.80731 41.0159 4.5764 41.2283 4.44218 41.3862C4.18445 41.6894 4.0181 42.1066 3.89687 42.4938L5.80549 43.0914ZM4.97955 42.7527C5.2606 42.9587 5.67488 43.0581 6.08598 42.8746C6.39866 42.7349 6.56666 42.4897 6.63967 42.3694L4.9299 41.3317C4.93264 41.3272 5.0294 41.156 5.27051 41.0484C5.40963 40.9862 5.5811 40.9535 5.76498 40.9795C5.94233 41.0047 6.07598 41.0766 6.1619 41.1396L4.97955 42.7527ZM6.70969 42.2308C6.88859 41.7956 6.99034 41.8008 6.9081 41.8422C6.86939 41.8617 6.84091 41.8621 6.8531 41.8615C6.8819 41.8601 6.92357 41.8624 7.05282 41.8754L7.25285 39.8854C7.05896 39.8659 6.53544 39.7906 6.00863 40.0559C5.46797 40.3282 5.11825 40.8419 4.85989 41.4704L6.70969 42.2308ZM7.05282 41.8754C7.16786 41.887 7.39614 41.913 7.63927 41.8907L7.45606 39.8991C7.43694 39.9008 7.40156 39.9004 7.25285 39.8854L7.05282 41.8754ZM7.64487 41.8901C8.91226 41.7664 10.1593 41.4132 11.3035 41.0917L10.7625 39.1662C9.58544 39.497 8.51097 39.796 7.45047 39.8996L7.64487 41.8901ZM11.3035 41.0917C12.0346 40.8863 12.7271 40.6921 13.4142 40.5483L13.0046 38.5907C12.2399 38.7507 11.482 38.9641 10.7625 39.1662L11.3035 41.0917ZM13.2908 40.5662C13.5772 40.5428 13.8617 40.5205 14.1452 40.5005L14.0044 38.5055C13.711 38.5262 13.4186 38.5491 13.1281 38.5728L13.2908 40.5662ZM14.4881 40.4136C14.3119 40.4936 14.0957 40.5181 13.8828 40.4563C13.6924 40.401 13.5769 40.298 13.5276 40.2468C13.4432 40.1591 13.4418 40.1088 13.4825 40.2152L15.3505 39.5007C15.2815 39.3202 15.1672 39.0661 14.9683 38.8596C14.8617 38.7489 14.6886 38.6077 14.4405 38.5356C14.1697 38.457 13.8955 38.4862 13.6614 38.5925L14.4881 40.4136ZM13.4602 39.5659C13.4313 39.6602 13.407 39.7237 13.3897 39.7624C13.3857 39.7715 13.3824 39.7783 13.38 39.7831C13.3788 39.7855 13.3778 39.7872 13.3772 39.7884C13.3765 39.7896 13.3762 39.7902 13.3762 39.7902C13.3762 39.7902 13.3766 39.7895 13.3774 39.7882C13.3782 39.7869 13.3795 39.7849 13.3812 39.7823C13.3846 39.7771 13.3905 39.7687 13.399 39.7579L14.9699 40.9957C15.1695 40.7424 15.2906 40.4195 15.3729 40.1501L13.4602 39.5659ZM13.8297 39.4419C13.1423 39.7027 12.4526 39.924 11.7607 40.106L12.2694 42.0402C13.031 41.8399 13.7876 41.597 14.5393 41.3117L13.8297 39.4419ZM11.7388 40.112C10.8374 40.3711 9.93421 40.616 9.02261 40.8631L9.54592 42.7934C10.4551 42.5469 11.3729 42.2981 12.2913 42.0342L11.7388 40.112ZM9.02261 40.8631C8.41266 41.0285 7.79892 41.1948 7.18494 41.3658L7.72141 43.2925C8.32773 43.1237 8.93487 42.9591 9.54592 42.7934L9.02261 40.8631ZM7.57619 41.3367C6.99308 41.2645 6.55995 41.5748 6.31044 41.8447C6.0629 42.1125 5.87558 42.4593 5.72571 42.8105L7.56526 43.5954C7.61799 43.4718 7.6654 43.3783 7.70559 43.3099C7.74668 43.24 7.77279 43.2091 7.77911 43.2023C7.78648 43.1943 7.75527 43.2314 7.67841 43.268C7.59205 43.3091 7.46934 43.3388 7.33016 43.3216L7.57619 41.3367ZM5.64549 43.2029V43.79H7.64549V43.2029H5.64549ZM6.14541 44.656C6.13905 44.6523 6.1404 44.6527 6.15333 44.6616C6.16701 44.6712 6.18264 44.6826 6.21065 44.7031L7.39388 43.0907C7.35138 43.0595 7.25394 42.9866 7.14556 42.924L6.14541 44.656ZM6.21068 44.7031C6.25521 44.7358 6.36573 44.8189 6.48998 44.8872C6.61489 44.956 6.84482 45.0631 7.14197 45.0631V43.0631C7.23668 43.0631 7.31242 43.0805 7.3627 43.0966C7.41166 43.1124 7.44341 43.1291 7.45426 43.135C7.46531 43.1411 7.46674 43.1428 7.45395 43.134C7.44035 43.1247 7.42441 43.1131 7.39386 43.0906L6.21068 44.7031ZM7.30024 45.0505C7.6825 44.9892 8.1535 45.0959 8.75642 45.622L10.0714 44.1151C9.16625 43.3252 8.11913 42.8937 6.9837 43.0757L7.30024 45.0505ZM9.0268 45.7906C9.45006 45.9683 9.90095 45.9482 10.3023 45.7533C10.6622 45.5784 10.9296 45.2904 11.1281 45.0115L9.49857 43.8519C9.45377 43.9149 9.42145 43.9495 9.40443 43.9656C9.3873 43.9817 9.39436 43.9708 9.42844 43.9543C9.46566 43.9362 9.52729 43.9154 9.60678 43.9128C9.68695 43.9101 9.75448 43.927 9.80105 43.9465L9.0268 45.7906ZM11.0986 45.0509C11.3416 44.7428 11.554 44.3635 11.7444 43.9427L9.92206 43.1185C9.77079 43.453 9.63609 43.6756 9.52813 43.8125L11.0986 45.0509ZM9.8445 43.6804C10.0813 45.2432 10.3949 46.2862 10.8769 46.9314C11.143 47.2876 11.4695 47.5365 11.8534 47.6699C12.2139 47.7952 12.5503 47.791 12.7744 47.7784L12.6624 45.7816C12.5213 45.7895 12.4982 45.7767 12.5101 45.7808C12.5454 45.7931 12.5343 45.8082 12.4791 45.7343C12.3185 45.5194 12.0547 44.9172 11.8219 43.3808L9.8445 43.6804ZM12.7184 47.78C13.3599 47.78 14.0057 47.8129 14.6814 47.8475L14.7838 45.8502C14.1167 45.816 13.4197 45.78 12.7184 45.78V47.78ZM14.6814 47.8475C15.2748 47.878 15.8918 47.9098 16.5122 47.9164L16.5338 45.9166C15.9606 45.9104 15.384 45.881 14.7838 45.8502L14.6814 47.8475ZM16.523 47.9165C16.9581 47.9165 17.3837 47.8681 17.7445 47.828L17.5233 45.8402C17.1435 45.8825 16.8285 45.9165 16.523 45.9165L16.523 47.9165ZM17.7445 47.828C18.089 47.7896 18.38 47.758 18.6632 47.7525L18.6245 45.7529C18.2344 45.7604 17.8522 45.8036 17.5233 45.8402L17.7445 47.828ZM18.6438 47.7527H23.5421V45.7527H18.6438V47.7527ZM23.3584 47.7357C23.2068 47.7073 23.0976 47.6435 23.0329 47.5945C22.9703 47.5472 22.9377 47.5055 22.929 47.494C22.9152 47.4755 22.9372 47.5006 22.9804 47.6104L24.8414 46.878C24.7656 46.6853 24.666 46.4765 24.5288 46.2937C24.4045 46.128 24.1479 45.8486 23.7258 45.7697L23.3584 47.7357ZM23.4416 46.3611C22.6222 46.7966 21.7911 46.8572 20.7177 46.9192L20.8332 48.9159C21.8626 48.8564 23.1214 48.7962 24.3802 48.1272L23.4416 46.3611ZM20.7177 46.9192C19.9404 46.9642 19.0166 47.0127 18.0744 47.3164L18.688 49.2199C19.3498 49.0066 20.0219 48.9628 20.8332 48.9159L20.7177 46.9192ZM17.395 48.4335C17.4155 48.5562 17.4285 48.6458 17.4381 48.7122L19.4176 48.4267C19.4075 48.3567 19.3919 48.2487 19.3674 48.1028L17.395 48.4335ZM17.4381 48.7122C17.4427 48.7447 17.4503 48.7982 17.458 48.8407C17.4607 48.8554 17.4715 48.9166 17.4938 48.9869C17.5026 49.0146 17.5333 49.1107 17.6005 49.2185C17.6295 49.2651 17.8901 49.6914 18.4514 49.6914V47.6914C18.7321 47.6914 18.9451 47.8064 19.0742 47.9095C19.1942 48.0053 19.2642 48.1068 19.2978 48.1607C19.3635 48.2661 19.3927 48.3587 19.4 48.3815C19.4114 48.4176 19.4179 48.4457 19.4205 48.4571C19.4235 48.4706 19.4253 48.4802 19.4258 48.4834C19.4263 48.4861 19.4251 48.4786 19.4176 48.4267L17.4381 48.7122ZM18.3065 49.6808C18.4651 49.704 18.6874 49.8282 19.1664 50.1461L20.2726 48.4799C19.9088 48.2384 19.2888 47.8033 18.5963 47.7019L18.3065 49.6808ZM19.1664 50.1461C19.4785 50.3533 19.9429 50.6706 20.4474 50.832C21.025 51.0168 21.7064 51.017 22.3639 50.5691L21.2378 48.9162C21.1901 48.9487 21.1715 48.9483 21.1714 48.9483C21.165 48.9489 21.1322 48.9512 21.0569 48.9271C20.8693 48.8671 20.6469 48.7284 20.2726 48.4799L19.1664 50.1461ZM22.3672 50.5668C22.331 50.5917 22.28 50.6154 22.2206 50.6277C22.1644 50.6392 22.1242 50.6358 22.1116 50.6342C22.102 50.633 22.1117 50.6332 22.1516 50.6462C22.1938 50.66 22.2412 50.6782 22.3208 50.7093L23.0491 48.8466C22.8568 48.7714 22.0255 48.3749 21.2344 48.9185L22.3672 50.5668ZM22.3208 50.7093C22.4572 50.7626 22.8007 50.9087 23.1803 50.9197L23.2384 48.9206C23.2702 48.9215 23.2751 48.9271 23.2361 48.9153C23.1937 48.9026 23.1438 48.8837 23.0491 48.8466L22.3208 50.7093ZM23.2093 50.9201H23.2101V48.9201H23.2093V50.9201ZM23.2101 50.9201C26.0285 50.9201 28.8101 50.9205 31.5848 51.0956L31.7108 49.0996C28.8627 48.9198 26.018 48.9201 23.2101 48.9201V50.9201ZM31.5769 51.0951C32.4161 51.1547 33.2671 51.3261 34.1928 51.514L34.5908 49.554C33.6881 49.3708 32.7093 49.1705 31.7186 49.1001L31.5769 51.0951ZM34.1928 51.514C35.1838 51.7153 36.2664 51.9373 37.3613 51.9841L37.4469 49.986C36.5368 49.947 35.6105 49.7611 34.5908 49.554L34.1928 51.514ZM37.3665 51.9844C39.2135 52.0539 41.0505 51.8781 42.8084 51.7112L42.6195 49.7202C40.8389 49.8892 39.1342 50.0495 37.4417 49.9858L37.3665 51.9844ZM42.8084 51.7112C43.2158 51.6726 43.619 51.6343 44.0215 51.5989L43.8464 49.6066C43.4358 49.6427 43.0257 49.6816 42.6195 49.7202L42.8084 51.7112ZM44.0121 51.5997C45.2224 51.5048 46.4307 51.3199 47.6367 51.0454L47.1928 49.0953C46.0794 49.3487 44.9672 49.5187 43.8558 49.6058L44.0121 51.5997ZM47.4147 51.0703H47.4687V49.0703H47.4147V51.0703ZM48.3596 50.5245L48.8399 49.5825L47.0581 48.6741L46.5778 49.6161L48.3596 50.5245ZM48.939 49.2693C48.9526 49.1735 48.9658 49.1044 48.9765 49.059C48.9817 49.0367 48.9852 49.025 48.9862 49.022C48.9876 49.0176 48.9833 49.0321 48.971 49.0585L47.1583 48.2135C47.047 48.4522 46.9926 48.7513 46.959 48.9873L48.939 49.2693ZM48.971 49.0585C48.9609 49.0803 48.9296 49.1445 48.867 49.22C48.8094 49.2893 48.667 49.4388 48.4207 49.5134C48.1334 49.6005 47.8565 49.5409 47.6556 49.4223C47.4865 49.3224 47.3972 49.1986 47.3645 49.1495L49.0299 48.0421C48.958 47.9339 48.5452 47.3859 47.8406 47.5994C47.572 47.6808 47.4074 47.8469 47.3279 47.9428C47.2432 48.0448 47.1901 48.1454 47.1583 48.2134L48.971 49.0585ZM49.1066 49.0119C49.4628 48.2333 49.8096 47.3841 50.1409 46.4234L48.2502 45.7713C47.9412 46.6674 47.6188 47.4565 47.2879 48.1798L49.1066 49.0119ZM50.1553 46.3784C50.1596 46.3636 50.1551 46.3838 50.1358 46.4231C50.1257 46.4439 50.0611 46.5794 49.9045 46.7043C49.8165 46.7745 49.679 46.8574 49.4931 46.8934C49.2982 46.9312 49.1083 46.9058 48.9466 46.8397C48.664 46.7242 48.5382 46.5173 48.5146 46.4786L50.2235 45.4394C50.1707 45.3527 50.0154 45.116 49.7034 44.9884C49.2864 44.8179 48.8938 44.9522 48.6572 45.1409C48.4714 45.2892 48.3777 45.4656 48.339 45.5447C48.2913 45.6424 48.2587 45.7383 48.2359 45.8163L50.1553 46.3784ZM48.5146 46.4786C48.4932 46.4433 48.4803 46.4156 48.474 46.4012C48.4674 46.386 48.4643 46.3768 48.4639 46.3756C48.4634 46.3743 48.468 46.3879 48.4755 46.4216C48.4907 46.4892 48.5088 46.5959 48.526 46.7449L50.5127 46.5147C50.4906 46.3239 50.4627 46.143 50.4271 45.9842C50.3983 45.8556 50.3429 45.6359 50.2235 45.4394L48.5146 46.4786ZM50.462 46.9638C51.1825 44.9302 51.7053 41.7208 52.0458 38.2631C52.3889 34.7802 52.555 30.9565 52.5323 27.6455L50.5323 27.6592C50.5546 30.9016 50.3915 34.6552 50.0555 38.067C49.717 41.504 49.2108 44.5066 48.5768 46.2958L50.462 46.9638ZM52.5323 27.6455C52.5019 23.1923 52.6339 18.858 52.7668 14.4964L50.7677 14.4355C50.635 18.7916 50.5017 23.1627 50.5323 27.6592L52.5323 27.6455ZM52.7668 14.4964C52.869 11.1436 52.9717 7.77455 53 4.34158L51 4.32511C50.972 7.73225 50.87 11.0793 50.7677 14.4355L52.7668 14.4964ZM51.4136 3.52335C51.0261 3.80386 50.8135 4.2666 50.6844 4.60461L52.5528 5.31812C52.6009 5.19217 52.639 5.11773 52.6616 5.0805C52.6723 5.06296 52.6744 5.06209 52.6662 5.07182C52.6584 5.08101 52.6329 5.10968 52.5864 5.14333L51.4136 3.52335ZM50.6306 5.11543C50.6735 5.39044 50.7129 5.70974 50.7474 6.06765L52.7382 5.87571C52.7008 5.48778 52.6568 5.12877 52.6067 4.80729L50.6306 5.11543ZM50.7454 6.04468C50.7839 6.57053 50.783 6.9848 50.7549 7.24806C50.74 7.38765 50.7232 7.42631 50.7318 7.40454C50.7363 7.39301 50.7653 7.31885 50.8423 7.2304C50.9257 7.13455 51.0914 6.99522 51.3468 6.95182L51.6818 8.92356C52.3068 8.81736 52.5373 8.27908 52.5944 8.13293C52.681 7.91149 52.7214 7.66856 52.7437 7.46C52.7898 7.02697 52.7826 6.47871 52.7401 5.89868L50.7454 6.04468ZM51.0402 7.0572C50.656 7.26411 50.3813 7.60468 50.1821 7.92415C49.9735 8.25876 49.7889 8.66646 49.6218 9.12323L51.5 9.81037C51.64 9.42783 51.7693 9.15862 51.8793 8.98232C51.9986 8.79088 52.0471 8.78655 51.9884 8.81817L51.0402 7.0572ZM49.6203 9.12739C49.5634 9.2849 49.5357 9.30799 49.5641 9.27256C49.5827 9.24928 49.8358 8.95195 50.2925 9.03056C50.485 9.0637 50.6117 9.15362 50.6725 9.20703C50.7037 9.23451 50.7241 9.25789 50.7351 9.27149C50.7408 9.2786 50.7448 9.28409 50.7473 9.28755C50.7485 9.28931 50.7494 9.29065 50.75 9.29152C50.7506 9.29239 50.7509 9.29285 50.7509 9.29286C50.7509 9.29286 50.7506 9.29247 50.7501 9.29163C50.7496 9.2908 50.7489 9.28958 50.748 9.28794C50.7462 9.28462 50.7436 9.27983 50.7403 9.27343C50.7338 9.26044 50.7252 9.24227 50.715 9.21809C50.6942 9.16909 50.6695 9.10259 50.6421 9.01563L48.7348 9.61761C48.8156 9.8734 48.9172 10.1321 49.0537 10.351C49.1631 10.5264 49.4391 10.9131 49.9532 11.0016C50.5578 11.1056 50.9592 10.7297 51.1246 10.5235C51.2996 10.3051 51.4169 10.0408 51.5016 9.80621L49.6203 9.12739ZM50.6574 9.06937C50.6082 8.87637 50.5426 8.66803 50.4482 8.48392C50.401 8.39187 50.3283 8.26921 50.2187 8.15256C50.1114 8.03834 49.9145 7.87307 49.6187 7.8132L49.2219 9.77345C48.9728 9.72304 48.8224 9.58722 48.7611 9.52203C48.6976 9.45441 48.6705 9.40036 48.6683 9.39608C48.6639 9.38751 48.6857 9.43136 48.7195 9.56386L50.6574 9.06937ZM49.6187 7.8132C48.9217 7.67215 48.5313 8.20435 48.4452 8.33568C48.3183 8.52918 48.2408 8.74975 48.189 8.92671L50.1086 9.48807C50.1421 9.3736 50.1536 9.37767 50.1178 9.43227C50.0995 9.46007 50.0328 9.55762 49.898 9.64582C49.7414 9.74832 49.5 9.82974 49.2219 9.77345L49.6187 7.8132ZM48.1945 8.90857C48.1467 9.06129 48.1037 9.17183 48.0685 9.2474C48.0308 9.32845 48.0153 9.34046 48.034 9.31847C48.0474 9.30272 48.1563 9.17658 48.379 9.12291C48.6431 9.05926 48.8695 9.14259 48.9976 9.23102L47.861 10.8767C48.1117 11.0499 48.461 11.1604 48.8476 11.0672C49.1927 10.9841 49.4236 10.7717 49.5578 10.6138C49.8156 10.3106 49.9819 9.89336 50.1031 9.50621L48.1945 8.90857ZM49.0205 9.24732C48.7394 9.04132 48.3251 8.94188 47.914 9.12545C47.6013 9.26507 47.4333 9.51032 47.3603 9.63064L49.0701 10.6682C49.0674 10.6728 48.9706 10.844 48.7295 10.9517C48.5904 11.0138 48.4189 11.0466 48.235 11.0205C48.0577 10.9953 47.924 10.9234 47.8381 10.8604L49.0205 9.24732ZM47.2903 9.76923C47.1114 10.2044 47.0097 10.1992 47.0919 10.1578C47.1306 10.1383 47.1591 10.1379 47.1469 10.1385C47.1181 10.1399 47.0764 10.1376 46.9472 10.1246L46.7472 12.1146C46.941 12.1341 47.4646 12.2094 47.9914 11.9441C48.532 11.6719 48.8817 11.1582 49.1401 10.5296L47.2903 9.76923ZM46.9472 10.1246C46.8321 10.113 46.6039 10.087 46.3607 10.1093L46.5439 12.1009C46.5631 12.0992 46.5985 12.0996 46.7472 12.1146L46.9472 10.1246ZM46.3551 10.1099C45.0877 10.2336 43.8407 10.5869 42.6965 10.9083L43.2375 12.8338C44.4146 12.503 45.489 12.204 46.5495 12.1004L46.3551 10.1099ZM42.6965 10.9083C41.9654 11.1137 41.2729 11.3079 40.5858 11.4517L40.9954 13.4093C41.7601 13.2493 42.5181 13.0359 43.2375 12.8338L42.6965 10.9083Z" fill="#0D3A16" mask="url(#path-1-outside-1)"/>
<path d="M17 22.5792V29.4208H21.4444L27 35.122V16.878L21.4444 22.5792H17ZM32 26C32 23.9818 30.8667 22.2486 29.2222 21.4048V30.5838C30.8667 29.7514 32 28.0182 32 26ZM29.2222 16V18.3489C32.4333 19.3295 34.7778 22.3854 34.7778 26C34.7778 29.6146 32.4333 32.6705 29.2222 33.6511V36C33.6778 34.9624 37 30.8803 37 26C37 21.1197 33.6778 17.0376 29.2222 16Z" fill="white" fill-opacity="0.5"/>
<rect x="38.106" y="13" width="2.27273" height="34.0909" transform="rotate(45 38.106 13)" fill="black"/>
</svg>
